<svg id="Grupo_987392" data-name="Grupo 987392" xmlns="http://www.w3.org/2000/svg" xmlns:xlink="http://www.w3.org/1999/xlink" width="387.816" height="914.844" viewBox="0 0 387.816 914.844">
  <defs>
    <clipPath id="clip-path">
      <rect id="Rectángulo_346528" data-name="Rectángulo 346528" width="387.816" height="914.844" fill="none"/>
    </clipPath>
  </defs>
  <g id="Grupo_987391" data-name="Grupo 987391" clip-path="url(#clip-path)">
    <path id="Trazado_729020" data-name="Trazado 729020" d="M38.7,385.531c-9.578,5.456-7.756,19.88,2.75,23.214a81.112,81.112,0,0,0,21.837,3.568c26.713.9,53.023-8.458,79.706-10.348,53.011-3.751,105.06,22,158.147,21.356,8.263-.1,16.991-1.047,23.782-7.271,3.345-3.066,6.223-8,5.756-13.347-.71-8.109-8.024-11.647-14.11-13.013-22.914-5.14-46.321-4.267-69.555-3.8q-60.218,1.217-120.424-1.322c-20.171-.85-40.59-1.125-60.69-3.51-9.839-1.169-18.966-.22-27.2,4.471" transform="translate(41.904 491.512)" fill="#dae2f0"/>
    <path id="Trazado_729021" data-name="Trazado 729021" d="M121.574,362.13a15.531,15.531,0,0,0,1.776-.2c8.189-1.4,30.146.142,39.753.119.094,4.656.474,14.692,2.021,19.4,2.051,6.251,17.323,23.049,21.654,33.207s-7.749,13.755-7.749,13.755H154.563c-12.2.257-20.533-10.712-25.89-15.556s-5.059-17.854-4.762-32.391-2.342-18.333-2.342-18.333Z" transform="translate(156.993 466.633)" fill="#4b455e"/>
    <path id="Trazado_729022" data-name="Trazado 729022" d="M123.911,380.461c.3-14.537-2.342-18.333-2.342-18.333l0,0a14.973,14.973,0,0,0,1.776-.2,64.192,64.192,0,0,1,9.17-.577c1.673,5.064,6.62,20.666,7.028,29.371.351,7.557-5.891,18.139-9.23,23.707-.573-.566-1.127-1.1-1.645-1.572-5.357-4.846-5.059-17.854-4.762-32.391" transform="translate(156.993 466.64)" fill="#6c6387"/>
    <path id="Trazado_729023" data-name="Trazado 729023" d="M143.333,395.392c8.345-.761,12.96-7,24.5-3.194s15.767,5.474,17.293,1.233c.092.2.206.419.291.619,4.331,10.158-7.749,13.755-7.749,13.755H153.2c-12.2.257-20.535-10.71-25.893-15.556-3.043-2.754-4.26-8.144-4.688-14.947,3.151,4.507,13.68,18.732,20.71,18.091" transform="translate(158.355 487.244)" fill="#332c47"/>
    <path id="Trazado_729024" data-name="Trazado 729024" d="M134.964,361.533c4.223.147,8.057.273,10.843.266.092,4.656.472,14.692,2.019,19.406,1.031,3.137,5.394,8.939,10.034,15.219a1.2,1.2,0,0,1-.41.971,1.826,1.826,0,0,1-1.111.209,15.929,15.929,0,0,1-11.1-5.527,27.616,27.616,0,0,1-5.259-10.362,72.078,72.078,0,0,1-2.39-10.419c-.4-2.594-.277-5.323-1.411-7.782a14.131,14.131,0,0,0-1.212-1.982" transform="translate(174.292 466.882)" fill="#6c6387"/>
    <path id="Trazado_729025" data-name="Trazado 729025" d="M128.3,377.005a.905.905,0,0,1-.387-1.723c10.728-5.085,27.13-2.4,27.829-2.289a.906.906,0,1,1-.3,1.787c-.16-.027-16.544-2.7-26.752,2.138a.9.9,0,0,1-.387.087" transform="translate(164.519 480.639)" fill="#d7e5e6"/>
    <path id="Trazado_729026" data-name="Trazado 729026" d="M127.723,373.527a.905.905,0,0,1-.387-1.723c10.717-5.085,27.13-2.4,27.827-2.287a.906.906,0,1,1-.3,1.787c-.16-.028-16.544-2.7-26.75,2.136a.9.9,0,0,1-.387.087" transform="translate(163.77 476.149)" fill="#d7e5e6"/>
    <path id="Trazado_729027" data-name="Trazado 729027" d="M126.777,371.02a.905.905,0,0,1-.387-1.723c10.731-5.085,27.13-2.4,27.829-2.289a.906.906,0,0,1-.3,1.787c-.16-.027-16.544-2.7-26.752,2.138a.9.9,0,0,1-.387.087" transform="translate(162.548 472.908)" fill="#d7e5e6"/>
    <path id="Trazado_729028" data-name="Trazado 729028" d="M126.451,367.913a.905.905,0,0,1-.387-1.723c10.726-5.087,27.13-2.4,27.827-2.287a.909.909,0,0,1,.742,1.045.923.923,0,0,1-1.045.742c-.163-.025-16.542-2.7-26.75,2.136a.9.9,0,0,1-.387.087" transform="translate(162.127 468.897)" fill="#d7e5e6"/>
    <path id="Trazado_729029" data-name="Trazado 729029" d="M112.2,362.13a15.53,15.53,0,0,1-1.776-.2c-8.189-1.4-30.146.142-39.753.119-.094,4.656-.474,14.692-2.021,19.4C66.6,387.7,51.324,404.5,46.993,414.66s7.749,13.755,7.749,13.755H79.208c12.2.257,20.533-10.712,25.89-15.556s5.059-17.854,4.762-32.391,2.342-18.333,2.342-18.333Z" transform="translate(59.476 466.633)" fill="#4b455e"/>
    <path id="Trazado_729030" data-name="Trazado 729030" d="M82.723,380.461c-.3-14.537,2.342-18.333,2.342-18.333l0,0a14.972,14.972,0,0,1-1.776-.2,64.193,64.193,0,0,0-9.17-.577c-1.673,5.064-6.62,20.666-7.028,29.371-.353,7.557,5.891,18.139,9.23,23.707.573-.566,1.127-1.1,1.645-1.572,5.357-4.846,5.059-17.854,4.762-32.391" transform="translate(86.616 466.64)" fill="#6c6387"/>
    <path id="Trazado_729031" data-name="Trazado 729031" d="M89.078,395.392c-8.345-.761-12.96-7-24.5-3.194s-15.767,5.474-17.293,1.233c-.092.2-.206.419-.291.619-4.331,10.158,7.749,13.755,7.749,13.755H79.207c12.2.257,20.535-10.71,25.893-15.556,3.043-2.754,4.257-8.144,4.688-14.947-3.151,4.507-13.68,18.732-20.71,18.091" transform="translate(59.478 487.244)" fill="#332c47"/>
    <path id="Trazado_729032" data-name="Trazado 729032" d="M74.432,361.533c-4.223.147-8.057.273-10.843.266-.092,4.656-.472,14.692-2.019,19.406-1.031,3.137-5.394,8.939-10.034,15.219a1.2,1.2,0,0,0,.41.971,1.826,1.826,0,0,0,1.111.209,15.929,15.929,0,0,0,11.1-5.527,27.577,27.577,0,0,0,5.256-10.362A71.782,71.782,0,0,0,71.808,371.3c.4-2.594.277-5.323,1.411-7.782a14.134,14.134,0,0,1,1.212-1.982" transform="translate(66.553 466.882)" fill="#6c6387"/>
    <path id="Trazado_729033" data-name="Trazado 729033" d="M84.589,377a.9.9,0,0,1-.387-.087c-10.208-4.837-26.587-2.163-26.75-2.138a.919.919,0,0,1-1.043-.742.9.9,0,0,1,.742-1.045c.692-.112,17.1-2.793,27.827,2.289a.905.905,0,0,1-.39,1.723" transform="translate(72.83 480.639)" fill="#fff"/>
    <path id="Trazado_729034" data-name="Trazado 729034" d="M85.17,373.527a.9.9,0,0,1-.387-.087c-10.206-4.835-26.587-2.163-26.752-2.136a.906.906,0,0,1-.3-1.787c.694-.112,17.1-2.8,27.829,2.287a.905.905,0,0,1-.39,1.723" transform="translate(73.578 476.149)" fill="#fff"/>
    <path id="Trazado_729035" data-name="Trazado 729035" d="M86.114,371.019a.9.9,0,0,1-.387-.087c-10.213-4.839-26.585-2.165-26.75-2.138a.906.906,0,0,1-.3-1.787c.694-.112,17.1-2.793,27.827,2.289a.905.905,0,0,1-.39,1.723" transform="translate(74.799 472.909)" fill="#fff"/>
    <path id="Trazado_729036" data-name="Trazado 729036" d="M86.441,367.912a.9.9,0,0,1-.387-.087c-10.213-4.839-26.585-2.161-26.75-2.136A.906.906,0,0,1,59,363.9c.692-.112,17.1-2.8,27.827,2.287a.905.905,0,0,1-.39,1.723" transform="translate(75.221 468.898)" fill="#fff"/>
    <path id="Trazado_729037" data-name="Trazado 729037" d="M182.744,436.22c.846,5.7,1.576,11.833,2.152,18.54,3.533,41.231,21.466,118.873,20.877,130.064s-7.069,20.613-2.356,22.971,24.149-5.3,38.285-2.358,10.6-8.245,7.658-14.136-9.1-51.724-10.275-69.395-8.43-166.222-12.868-188.405S220.4,202.812,209.1,187.643s-71.4-12.591-71.4-12.591L76.077,187.643S73.219,349.358,70.7,393.076,68.176,559.534,61.451,579.71s-8.524,22.857-2.312,23.588,32.888-1.826,42.024,0,7.674-6.576,6.943-10.6-5.481-8.4-5.117-13.522,17.7-110.874,17.7-151.514,18.26-182.005,25.918-183.772,13.547,86.585,19.436,118.392c4.933,26.631,12.341,44.591,16.7,73.934" transform="translate(71.443 225.846)" fill="#533752"/>
    <path id="Trazado_729038" data-name="Trazado 729038" d="M82.917,353.763c-4.963,5.584-11.141,9.34-17.864,12.461,6.329,2.8,13.806.119,20.54,1.719,2.6.616,5.273,1.849,7.843,1.929-1.524-2.683-3.238-5.557-3.013-8.707.085-1.175,1.065-7.669,2.523-17.456-4.581,1-7.053,6.707-10.029,10.055" transform="translate(84.009 443.863)" fill="#452f49"/>
    <path id="Trazado_729039" data-name="Trazado 729039" d="M121.637,362.837a27.983,27.983,0,0,1,8.407-2.724c3.274-.5,6.645-.422,9.844-1.276a1.988,1.988,0,0,0,.981-.486,1.447,1.447,0,0,0-.243-1.943,4.217,4.217,0,0,0-1.966-.857A54.786,54.786,0,0,1,127.5,351.96c-2.262-1.109-4.56-3.341-7.142-3.767.994,6.189,1.549,10.7,1.437,12.823-.032.614-.089,1.219-.154,1.822" transform="translate(155.424 449.654)" fill="#452f49"/>
    <path id="Trazado_729040" data-name="Trazado 729040" d="M136.058,345.859a3.094,3.094,0,0,0,.914-2.482c.628-15.164-6.815-29.337-13.753-42.835-2.369-4.61-11.562-27.987-17.628-35.063,4.273,17.039,9.062,32.38,12.234,53.747.848,5.7,1.579,11.833,2.152,18.54.048.536.105,1.1.156,1.652a23.308,23.308,0,0,0,13.936,6.773,2.941,2.941,0,0,0,1.989-.332" transform="translate(136.361 342.838)" fill="#452f49"/>
    <path id="Trazado_729041" data-name="Trazado 729041" d="M108.193,209.938a7.009,7.009,0,0,0-1.143-1.95c-8.634-9.745-14.065,14.7-14.617,19.864q-5.187,48.484-8.845,97.116c-.889,11.828-1.7,23.853.811,35.448,1.022-2.39,1.977-4.8,2.885-7.22,4.214-48.809,14.259-122.17,20.909-143.258" transform="translate(106.823 265.661)" fill="#452f49"/>
    <path id="Trazado_729042" data-name="Trazado 729042" d="M197.783,187.642c-11.3-15.169-71.4-12.591-71.4-12.591L64.756,187.642s-.25,14.2-.669,35.308a14.054,14.054,0,0,0,3.492.28c11.9-.456,25.379-6.168,37.118-8.613q18.571-3.867,37.318-6.817c20.311-3.2,41.843-5.382,61.533-.8-1.586-9.289-3.467-16.271-5.765-19.355" transform="translate(82.762 225.845)" fill="#452f49"/>
    <path id="Trazado_729043" data-name="Trazado 729043" d="M42.363,167.149c3.194.862,6.551,2.53,8.849.149,1.153-1.194,1.939-2.942,3.54-3.373a3.324,3.324,0,0,1,3.476,1.547,6.145,6.145,0,0,1,.747,3.921c-.493,5.121-4.427,9.15-6.615,13.806-2.883,6.136-2.055,13.1-.857,19.775.415,2.305,1.256,6.3,2.477,8.293.907,1.48,14.383,12.814,17.421,19.908,0,0,40.219,73.219,24.2,128.277S23.07,395.463,11.015,379.971c-15.233-19.582-15.515-53.057,4.5-91.1,0,0,27.742-47.737,26.637-66.51s-3.311-25.4-12.882-29.076-15.091-5.153-15.091-11.042,4.2-4.237,8.554-3.4,7.864-.669,10.206-5.687,5.124-7.17,9.42-6.01" transform="translate(0 211.58)" fill="#383a4f"/>
    <path id="Trazado_729044" data-name="Trazado 729044" d="M94.727,284.9c5.868-20.176,4.175-42.78-.312-63.336a112.814,112.814,0,0,1-3.091,22.556c-5.541,22.153-21.095,43.291-43.271,48.733-15.955,3.916-32.6-.745-47.375-8.416a51.606,51.606,0,0,0,9.459,20.985C22.191,320.915,78.71,339.959,94.727,284.9" transform="translate(0.877 286.128)" fill="#2d2f40"/>
    <path id="Trazado_729045" data-name="Trazado 729045" d="M36.047,215.83a6.793,6.793,0,0,0,.832-8.762c2.862-.708,4.319-4.2,3.717-7.083s-2.708-5.215-4.913-7.172c-3.011-2.676-9.583-8.623-13.851-7.484.335,2.759.587,5.889.8,9.468.4,6.817-3.009,17.451-7.5,28.232a21.181,21.181,0,0,0,3.742,6.9,10.521,10.521,0,0,0,4.656,3.449,5.594,5.594,0,0,0,5.5-.992c3.471-3.286.147-9.9,3.2-13.574,1.036-1.249,2.628-1.89,3.824-2.983" transform="translate(19.531 239.147)" fill="#2d2f40"/>
    <path id="Trazado_729046" data-name="Trazado 729046" d="M25.637,201.727a26.358,26.358,0,0,1-10.625-8.98s-3.435,5.261-.793,9.005,7.818,6.386,9.69,5.834,2.578-4.672,1.728-5.859" transform="translate(17.072 248.912)" fill="#cb7d75"/>
    <path id="Trazado_729047" data-name="Trazado 729047" d="M18.115,178.656S12.07,189,14.637,196.112s15.6,18.366,18.959,18.168,4.147-4.542,3.16-7.307S25.1,194.728,23.919,189.4s-5.8-10.74-5.8-10.74" transform="translate(18.082 230.715)" fill="#cb7d75"/>
    <path id="Trazado_729048" data-name="Trazado 729048" d="M32.282,203.839c-4.9-2.378-14.752-11.48-16.947-17.566,0,0-3.749,9.869-.637,14.837s11.709,11.271,14.766,9.17,2.837-6.423,2.837-6.423Z" transform="translate(17.386 240.552)" fill="#cb7d75"/>
    <path id="Trazado_729049" data-name="Trazado 729049" d="M31.712,203.857l-.018-.018c-4.9-2.381-14.752-11.482-16.949-17.566,0,0-.4,1.054-.825,2.635,2.869,6.031,11.792,14.2,16.409,16.445l.021.021a9.154,9.154,0,0,1-1.2,4.668c2.743-2.17,2.566-6.184,2.566-6.184" transform="translate(17.975 240.552)" fill="#b16c6d"/>
    <path id="Trazado_729050" data-name="Trazado 729050" d="M25.107,203.506h0a1.827,1.827,0,0,1,.218.5,3.612,3.612,0,0,0-.309-2.282h0a26.358,26.358,0,0,1-10.625-8.98,13.987,13.987,0,0,0-.685,1.295,29.192,29.192,0,0,0,11.4,9.463" transform="translate(17.696 248.914)" fill="#b16c6d"/>
    <path id="Trazado_729051" data-name="Trazado 729051" d="M128.9,68.042s-55.736,19.193-67.09,34.728-16.134,67.443-23.306,88.4c0,0,10.921,14.979,45.2,14.381,0,0,9.777-27.488,13.959-28.086s8.8,144.026,8.8,144.026,74.619,8.024,117.947,0c0,0,4.01-171.094,8.824-171.8s34.813,27.1,34.813,27.1,24.834-8.153,39-29.564a131.829,131.829,0,0,1-15.648-12.85c-6.62-6.62-34.653-42.984-44.778-45.633s-58.3-22.639-64.386-23.352S128.9,68.042,128.9,68.042" transform="translate(49.721 84.315)" fill="#40ad97"/>
    <path id="Trazado_729052" data-name="Trazado 729052" d="M87.781,130.569a70.948,70.948,0,0,1-13.707-2.376,70.684,70.684,0,0,1-8.6-3.306A160.041,160.041,0,0,1,41.511,111.6c-.506,2.477-1.013,4.865-1.526,7.135a159.887,159.887,0,0,0,24.894,13.945,70.685,70.685,0,0,0,8.6,3.306,64.179,64.179,0,0,0,11.191,2.1c.914-2.328,1.984-4.949,3.109-7.525" transform="translate(51.636 144.123)" fill="#78d097"/>
    <path id="Trazado_729053" data-name="Trazado 729053" d="M135.847,114.122A51.241,51.241,0,0,1,147.861,88.4,38.157,38.157,0,0,1,151.8,84.82c-4.241-3.989-7.976-6.847-10.55-7.52-1.927-.5-5.24-1.641-9.376-3.151a30.334,30.334,0,0,0-10.7,16.5,60.276,60.276,0,0,0-1.063,13.723q.007,16.618.252,33.239c.034,2.417.121,4.991,1.483,6.991a7.026,7.026,0,0,0,4.079,2.779c.626-5.683,1.274-9.035,1.939-9.133,1.173-.172,3.85,1.363,7.211,3.758-.561-9.3-.8-18.686.781-27.884" transform="translate(155.1 95.756)" fill="#409a97"/>
    <path id="Trazado_729054" data-name="Trazado 729054" d="M93.28,161.212c1.061-2.514.651-5.382.117-8.057a174.051,174.051,0,0,0-4.564-17.174q-4.444-14.384-9.7-28.5c-3.6-9.677-7.571-19.4-13.989-27.485a15.337,15.337,0,0,0-3.822-3.6A80.8,80.8,0,0,0,50.8,83.52a6.1,6.1,0,0,0,.213.852c2.7,6.558,6.214,12.687,8.655,19.415,8.093,22.316,12.91,46.133,11.088,69.8a59.713,59.713,0,0,0-.316,10.694c3.2-8.187,8.535-20.749,11.352-21.15.6-.087,1.212,2.848,1.817,7.914,1.441-1.425,2.926-2.812,4.484-4.108,2-1.664,4.18-3.327,5.192-5.726" transform="translate(65.596 98.648)" fill="#409a97"/>
    <path id="Trazado_729055" data-name="Trazado 729055" d="M91.276,75.763c.041,1.6,4.143,161.211,2.715,235.716.9.021,1.808.037,2.718.053C98.136,236.965,94.033,77.3,93.991,75.692Z" transform="translate(117.873 97.748)" fill="#337e7c"/>
    <path id="Trazado_729056" data-name="Trazado 729056" d="M125.457,90.582a98.49,98.49,0,0,1-1.939-37.8H83a98.543,98.543,0,0,1-1.939,37.8s13.879,20.141,22.2,19.715,22.2-19.715,22.2-19.715" transform="translate(104.679 68.161)" fill="#cb7d75"/>
    <path id="Trazado_729057" data-name="Trazado 729057" d="M81.905,52.781a96.4,96.4,0,0,1,.761,20.794,61.521,61.521,0,0,1,18.086-7.115c3.506-.754,7.074-1.187,10.634-1.618,3.366-.406,6.732-.834,10.1-1.235a84.574,84.574,0,0,1,.937-10.827Z" transform="translate(105.772 68.161)" fill="#b56c75"/>
    <path id="Trazado_729058" data-name="Trazado 729058" d="M87.1,61.351c2.569,2.814,4.4,5.105,7.855,6.7.848.39,1.712.738,2.576,1.086l4.457,1.8A64.427,64.427,0,0,1,91.605,88.289,29.12,29.12,0,0,1,77.951,73.131c1.737-4.2,5.781-8.728,9.152-11.78" transform="translate(100.665 79.228)" fill="#78d097"/>
    <path id="Trazado_729059" data-name="Trazado 729059" d="M107.942,61.351c-2.569,2.814-4.4,5.105-7.857,6.7-.846.39-1.709.738-2.576,1.086q-2.227.9-4.457,1.8a64.6,64.6,0,0,0,10.385,17.355,29.12,29.12,0,0,0,13.654-15.158c-1.735-4.2-5.779-8.728-9.15-11.78" transform="translate(120.168 79.228)" fill="#78d097"/>
    <path id="Trazado_729060" data-name="Trazado 729060" d="M96.108,69.167s10.648,46.923,40.368,74.585c0,0,4.413,157.135,0,188.327,0,0-44.542,2.681-55.136-7.915,0,0,4.535-138.707,0-150.045S60.463,97.951,51.247,92.005c0,0,24.6-20.377,44.861-22.838" transform="translate(66.18 89.322)" fill="#ffad35"/>
    <path id="Trazado_729061" data-name="Trazado 729061" d="M98.3,141.8c27.325-27.449,35.723-72.63,35.723-72.63L169.4,83.733s-14.461,60.33-15.357,70.341-.786,141.936,1.052,163.519c0,0,4.615,12.449-1.815,12.449H98.3Z" transform="translate(126.941 89.322)" fill="#ffad35"/>
    <path id="Trazado_729062" data-name="Trazado 729062" d="M120.247,227.394c-.115-11.812-.282-23.592-.467-34.657-5.829.536-11.29.774-16.386.823.564-33.315.557-64.2-.791-80.614a171.442,171.442,0,0,1-17.7-34.43c-.316,18.663-1.2,65.151-2.908,114.022a136.157,136.157,0,0,1-16.784-2.818c.156,10.155.137,22.2.014,34.708a134.573,134.573,0,0,0,15.426,2.653c-1.526,35.219-3.517,68.549-6.07,90.292,7.452,1.867,16.814,2.605,24.978,2.841.621-15.222,2.067-52.416,3.087-91.949,5.442-.027,11.313-.28,17.6-.871" transform="translate(84.212 101.394)" fill="#ffdf4d"/>
    <path id="Trazado_729063" data-name="Trazado 729063" d="M153.6,242.816c-.078-13.171-.11-26.532-.1-38.773q-6.7,1.536-13.5,2.484c.357-59.6,3-113,4.12-133.2l-10.1-4.157a179.423,179.423,0,0,1-17.195,47.15c-.38,21.775-1.212,56.279-2.126,91.695A160.155,160.155,0,0,1,98.3,206.9v40.065a132.315,132.315,0,0,0,15.345,1.157c-.949,35.349-1.835,66.936-2.259,81.924h32.409c-2.188-26.184-3.274-55.149-3.662-84.037a132.177,132.177,0,0,0,13.471-3.19" transform="translate(126.941 89.322)" fill="#ffdf4d"/>
    <path id="Trazado_729064" data-name="Trazado 729064" d="M134.147,125.286c1.939,1.7,3.728,3.286,5.261,4.661,17.463-7.149,34.073-21.569,40.5-27.547-1.593-1.2-3.559-2.722-5.63-4.443-10.392,8.373-30.235,21.106-40.129,27.329" transform="translate(173.237 126.501)" fill="#78d097"/>
    <path id="Trazado_729065" data-name="Trazado 729065" d="M63.882,121.572l-.025,0s-1.2,16.269-8.962,29.951-29.213,58.057-32.54,70.259,1.936,39.85,3.563,42.936,7.154,2.931,8.932,1.631.174-22.281.011-24.882a11.826,11.826,0,0,1,1.363-5.415c12.03-10.479,48.891-63.637,53.731-68.293,3.934-3.785,9.555-26.541,11.521-34.925-21.337-.5-32.673-7.188-37.595-11.258" transform="translate(27.471 156.991)" fill="#cb7d75"/>
    <path id="Trazado_729066" data-name="Trazado 729066" d="M40.348,121.572l-.025,0s-.179,2.385-.827,6.084A64.207,64.207,0,0,1,53.845,133.4a82.941,82.941,0,0,1,19.713,16.42c1.877-6.549,3.5-13.221,4.386-16.993-21.337-.5-32.673-7.186-37.595-11.255" transform="translate(51.005 156.991)" fill="#b56c75"/>
    <path id="Trazado_729067" data-name="Trazado 729067" d="M146.386,43.107s0,38.321-9.493,50.782-15.488,13.4-19.733,13.4H104.674c-4.246,0-10.243-.939-19.736-13.4s-9.491-50.782-9.491-50.782V32.058l4.631-3.685a50.073,50.073,0,0,1,61.675,0l4.633,3.685Z" transform="translate(97.432 22.924)" fill="#cb7d75"/>
    <path id="Trazado_729068" data-name="Trazado 729068" d="M140.991,53.007c-5.657-4.319-20.116-14.647-30.4-15.68C99.865,36.248,82.712,48.841,76.972,53.334c1.382,6.221,3.309,11.83,6,15.359C92.462,81.154,98.458,82.1,102.7,82.1H115.19c4.095,0,9.826-.907,18.739-12.142l3.465-5.49a56.906,56.906,0,0,0,3.6-11.457" transform="translate(99.401 48.119)" fill="#e4e7ff"/>
    <path id="Trazado_729069" data-name="Trazado 729069" d="M101.073,46.545c-.4-1.258-8.483.1-12.566,1.162-1.411.364-9.344,2.186-10.119,4.789.247.566.506,1.1.772,1.629,2.349.747,8.941-4.1,10.545-4.647,3.744-1.269,11.368-.378,11.368-2.933" transform="translate(101.23 59.455)" fill="#c4c7db"/>
    <path id="Trazado_729070" data-name="Trazado 729070" d="M112.406,52.4c-.731-.064-1.35-.1-1.709-.135q-5.692-.6-11.423-.733-2.736-.062-5.474-.021c-1.272.021-1.654,1.939,6.982,2,1.764.014,3.373,1.033,5.094,1.416a25.166,25.166,0,0,0,3.934.472c.829-.9,1.7-1.909,2.6-3" transform="translate(120.248 66.498)" fill="#c4c7db"/>
    <path id="Trazado_729071" data-name="Trazado 729071" d="M103.969,43.777a9.672,9.672,0,0,1,4.578,1.838,11.514,11.514,0,0,1-4.438.438c-4.207-.158-8.4-.532-12.594-.905-.937-.085-2.857-.8-1.861-2.012.612-.745,2.6-.447,3.421-.422a69.443,69.443,0,0,1,10.893,1.063" transform="translate(115.419 55.057)" fill="#c4c7db"/>
    <path id="Trazado_729072" data-name="Trazado 729072" d="M81.485,33.444c-2.786-2.207-7.22-4.908-9.615-1.609-3.224,4.445,1.849,18.471,11.152,20.128C82.1,44.97,81.678,38.19,81.485,33.444" transform="translate(91.558 39.124)" fill="#b26675"/>
    <path id="Trazado_729073" data-name="Trazado 729073" d="M80.351,34.623c-2.138-1.7-5.543-3.769-7.381-1.235-2.477,3.414,1.418,14.181,8.563,15.455-.71-5.369-1.033-10.577-1.182-14.22" transform="translate(93.268 41.589)" fill="#915675"/>
    <path id="Trazado_729074" data-name="Trazado 729074" d="M107.178,33.444c2.784-2.207,7.22-4.908,9.612-1.609,3.224,4.445-1.847,18.471-11.152,20.128.926-6.993,1.347-13.774,1.54-18.519" transform="translate(136.42 39.124)" fill="#b26675"/>
    <path id="Trazado_729075" data-name="Trazado 729075" d="M106.841,34.823c2.175-1.725,5.641-3.836,7.511-1.258,2.521,3.474-1.444,14.436-8.714,15.73.722-5.465,1.052-10.765,1.2-14.472" transform="translate(136.42 41.792)" fill="#915675"/>
    <path id="Trazado_729076" data-name="Trazado 729076" d="M73.734,30.426S75.867,52.172,79.8,52.032s8.668-28.576,7.633-29.55-13.7,7.944-13.7,7.944" transform="translate(95.22 28.937)" fill="#453034"/>
    <path id="Trazado_729077" data-name="Trazado 729077" d="M115.92,30.426s-2.133,21.745-6.063,21.606-8.668-28.576-7.633-29.55,13.7,7.944,13.7,7.944" transform="translate(131.825 28.937)" fill="#453034"/>
    <path id="Trazado_729078" data-name="Trazado 729078" d="M111.71,2.613c-37.3,2.14-36.875,35.4-36.875,35.4h73.751s.426-33.255-36.875-35.4" transform="translate(96.64 3.374)" fill="#ffad35"/>
    <path id="Trazado_729079" data-name="Trazado 729079" d="M112.97,38.009c-2.136-15.522-9.124-30.59-12.2-35.278-.461-.037-.9-.089-1.375-.117-.385.021-.745.066-1.123.1-2.6,3.756-9.188,14.743-13.909,35.3Z" transform="translate(108.951 3.376)" fill="#ffcc35"/>
    <path id="Trazado_729080" data-name="Trazado 729080" d="M154.151,20.113s18.253,14.537,12.74,20.925c-3.247,3.76-21.729-8.464-48.211-8.231C92.2,32.573,73.719,44.8,70.472,41.038c-5.513-6.388,12.74-20.925,12.74-20.925a129.7,129.7,0,0,1,70.939,0" transform="translate(89.667 19.588)" fill="#ffdf4d"/>
    <path id="Trazado_729081" data-name="Trazado 729081" d="M166.877,29.458c-3.247,3.762-21.729-8.464-48.211-8.228C92.186,20.994,73.7,33.221,70.457,29.458a4.194,4.194,0,0,1-.681-1.143c-.548,1.849-.477,3.559.681,4.9,3.247,3.76,21.729-8.464,48.209-8.228,26.482-.236,44.964,11.989,48.211,8.228,1.157-1.34,1.228-3.05.678-4.9a4.128,4.128,0,0,1-.678,1.143" transform="translate(89.682 27.412)" fill="#ffb54d"/>
    <path id="Trazado_729082" data-name="Trazado 729082" d="M96.2,3.171a3.377,3.377,0,0,1-6.741,0,3.377,3.377,0,0,1,6.741,0" transform="translate(115.523)" fill="#ad8035"/>
    <path id="Trazado_729083" data-name="Trazado 729083" d="M87.477,35.889c0,2.4-1.079,4.342-2.413,4.342s-2.411-1.945-2.411-4.342,1.079-4.342,2.411-4.342,2.413,1.945,2.413,4.342" transform="translate(106.739 40.74)" fill="#453034"/>
    <path id="Trazado_729084" data-name="Trazado 729084" d="M101.948,35.889c0,2.4-1.079,4.342-2.413,4.342s-2.411-1.945-2.411-4.342,1.079-4.342,2.411-4.342,2.413,1.945,2.413,4.342" transform="translate(125.427 40.74)" fill="#453034"/>
    <path id="Trazado_729085" data-name="Trazado 729085" d="M80.937,32.743a1.181,1.181,0,0,1-1.1-.88,1.314,1.314,0,0,1,.74-1.62,24.837,24.837,0,0,1,14.11-.836,1.3,1.3,0,0,1,.839,1.558,1.16,1.16,0,0,1-1.414.926,23.115,23.115,0,0,0-12.807.788,1.072,1.072,0,0,1-.364.064" transform="translate(103.019 37.142)" fill="#453034"/>
    <path id="Trazado_729086" data-name="Trazado 729086" d="M110.388,32.742a1.163,1.163,0,0,1-.38-.064,24.83,24.83,0,0,0-13.283-.788,1.2,1.2,0,0,1-1.466-.926,1.292,1.292,0,0,1,.871-1.558,26.768,26.768,0,0,1,14.64.836,1.307,1.307,0,0,1,.768,1.62,1.223,1.223,0,0,1-1.148.88" transform="translate(122.968 37.144)" fill="#453034"/>
    <path id="Trazado_729087" data-name="Trazado 729087" d="M249.757,132.151c-5.914-7.491-17.531-20.971-26.5-28.986,0,0-14.541,17.169-30.615,22.788,3.309,3.806,12.713,14.234,21.541,20.309,0,0-21.3,28.83-30.767,40.663s-19.523,14.493-22.776,14.2a81.077,81.077,0,0,1-10.043-2.211S150.29,210,146.74,212.364s-27.765,20.753-32.4,23.572-3.194,8.833-.032,9.534c0,0-6.015,4.335-11.984,7.784-3.705,2.142-.809,8.015,3.419,7.791s10.68-5.227,10.68-5.227-1.842,2.674-.467,4.862,4.438,2.77,6.993,1.932,8.311-5.431,8.311-5.431-.412,3.526,1.292,4.457,8.469.257,14.035-3.877,19.346-12.234,24.667-19.6,8.593-15.822,21.823-24.69,57.768-39.371,62.4-51.357,2.45-19.612-5.722-29.965" transform="translate(129.943 133.227)" fill="#cb7d75"/>
    <path id="Trazado_729088" data-name="Trazado 729088" d="M107.415,176.143a.854.854,0,0,0,.44-.121c.154-.094,15.623-9.411,25.182-16.988a.854.854,0,1,0-1.061-1.338c-8.879,7.037-22.948,15.616-24.8,16.739h-1.214a3.144,3.144,0,0,0,1.45.855s-.458.33-1.21.855Z" transform="translate(136.839 203.408)" fill="#9c4860"/>
    <path id="Trazado_729089" data-name="Trazado 729089" d="M133.937,164.42a.855.855,0,0,0-1.21,0c-5.852,5.854-17.859,13.176-17.978,13.247a.922.922,0,0,0-.264.252l-1.423,2.106c1.233-.912,2.131-1.625,2.131-1.625a10.207,10.207,0,0,0-.014,1.544l.619-.912c1.519-.933,12.442-7.708,18.139-13.4a.852.852,0,0,0,0-1.208" transform="translate(146.008 212.008)" fill="#9c4860"/>
    <path id="Trazado_729090" data-name="Trazado 729090" d="M109.214,182.258a6.485,6.485,0,0,0-.9,2.28l1.464-1.625c1.483-.972,19.956-13.1,29.692-21.276a.855.855,0,0,0-1.1-1.308c-10.016,8.4-29.422,21.085-29.619,21.211a.9.9,0,0,0-.165.144l-2.376,2.635c1.744-1.1,3.009-2.062,3.009-2.062" transform="translate(137.153 206.786)" fill="#9c4860"/>
    <path id="Trazado_729091" data-name="Trazado 729091" d="M145.9,169.046l-14.832-20.579a2.249,2.249,0,0,1,.509-3.137l3.144-2.266a2.25,2.25,0,0,1,3.137.509l14.832,20.581a2.245,2.245,0,0,1-.511,3.135l-3.144,2.266a2.245,2.245,0,0,1-3.135-.509" transform="translate(168.714 184.205)" fill="#533752"/>
    <path id="Trazado_729092" data-name="Trazado 729092" d="M156.028,141.333a121.451,121.451,0,0,1,3.446-12.768,63.015,63.015,0,0,1,8.847-16.622,42.713,42.713,0,0,1,5.836-6.2c-.937-.891-1.867-1.778-2.761-2.576,0,0-14.539,17.169-30.613,22.788a161.3,161.3,0,0,0,15.245,15.38" transform="translate(181.806 133.227)" fill="#b56c75"/>
  </g>
</svg>
