<svg xmlns="http://www.w3.org/2000/svg" xmlns:xlink="http://www.w3.org/1999/xlink" width="122" height="122" viewBox="0 0 122 122">
  <defs>
    <clipPath id="clip-path">
      <rect id="Rectángulo_345123" data-name="Rectángulo 345123" width="103.359" height="98.2" fill="none"/>
    </clipPath>
  </defs>
  <g id="Grupo_987413" data-name="Grupo 987413" transform="translate(-743 -16982)">
    <circle id="Elipse_5889" data-name="Elipse 5889" cx="61" cy="61" r="61" transform="translate(743 16982)" fill="#06d1d1"/>
    <g id="Grupo_984380" data-name="Grupo 984380" transform="translate(752.32 16990.754)">
      <g id="Grupo_984379" data-name="Grupo 984379" clip-path="url(#clip-path)">
        <path id="Trazado_726013" data-name="Trazado 726013" d="M176.631,115.593c-2.62-4.529-5.2-9.078-7.884-13.572-.669-1.123-.556-1.661.6-2.319q11.2-6.37,22.307-12.885c1.2-.706,1.691-.427,2.307.666,2.534,4.5,5.173,8.943,7.715,13.439,2.478,4.383,2.953,9.112.615,13.5-4.092,7.685-8.672,15.11-13.046,22.644-4.542-6.96-8.363-14.345-12.614-21.476" transform="translate(-100.454 -51.576)" fill="#9bc136"/>
        <path id="Trazado_726014" data-name="Trazado 726014" d="M78.968,21.872c-1.516.962-1.894,2.71-2.761,4.1-1.8,2.9-3.474,5.888-5.114,8.887-.7,1.288-1.363,1.773-2.819.915q-11-6.482-22.088-12.811c-.978-.561-1.183-1.064-.6-2.049,2.922-4.967,5.6-10.1,8.761-14.9A12.932,12.932,0,0,1,65.39.026c8.452-.074,16.905.027,25.358.055a4.351,4.351,0,0,1-.288,1.148q-5.193,9.057-10.441,18.083a5.427,5.427,0,0,0-1.05,2.56" transform="translate(-27.01 0)" fill="#d3ec85"/>
        <path id="Trazado_726015" data-name="Trazado 726015" d="M30.33,158.9c5.164.009,10.329.065,15.493,0,1.416-.019,1.817.427,1.807,1.822q-.084,12.776,0,25.553c.008,1.335-.428,1.717-1.724,1.7-5.231-.058-10.464.049-15.694-.042a13.683,13.683,0,0,1-12-6.584C13.694,173.987,9.54,166.4,5.233,158.91l25.1-.012" transform="translate(-3.123 -94.82)" fill="#b7d65d"/>
        <path id="Trazado_726016" data-name="Trazado 726016" d="M27.207,111.312l-25.1.012c-2.849-4.741-2.688-9.569-.271-14.381,1.112-2.214,2.395-4.35,3.718-6.448.757-1.2.868-1.976-.636-2.6a25.563,25.563,0,0,1-2.945-1.738c3.148-.843,5.935-1.588,8.721-2.336,5.565-1.494,11.138-2.964,16.689-4.51,1.1-.307,1.713-.282,2.049.991,2.115,8.035,4.287,16.055,6.427,24.084a1.151,1.151,0,0,1-.11,1.2c-.28-.125-.588-.242-.877-.4-3.241-1.72-3.247-1.726-5.123,1.556-.864,1.511-1.7,3.039-2.543,4.56" transform="translate(0 -47.234)" fill="#9bc136"/>
        <path id="Trazado_726017" data-name="Trazado 726017" d="M128.848,21.907a5.427,5.427,0,0,1,1.05-2.56q5.264-9.016,10.441-18.083a4.351,4.351,0,0,0,.288-1.148c5.776-.5,9.9,2.268,13.018,6.786a67.333,67.333,0,0,1,3.832,6.607c.624,1.171,1.209,1.6,2.41.7a26.094,26.094,0,0,1,2.784-1.593,20.216,20.216,0,0,1-1.089,4.938c-1.791,6.8-3.653,13.574-5.4,20.381-.325,1.264-.767,1.551-2.026,1.2-8-2.2-16.028-4.324-24.043-6.482a9.009,9.009,0,0,1-.956-.377c.233-.7.861-.841,1.332-1.122,2.664-1.592,2.671-1.58,1.115-4.352q-1.377-2.451-2.751-4.9" transform="translate(-76.89 -0.035)" fill="#b8d65e"/>
        <path id="Trazado_726018" data-name="Trazado 726018" d="M146.471,151.461c4.251,7.132,8.072,14.516,12.614,21.476-2.441,4.806-6.57,7.093-11.74,7.616-2.26.229-4.561.058-6.844.06-3.214,0-3.2,0-3.237,3.124a2.711,2.711,0,0,1-.308,1.906c-2.017-2.026-3.985-4.007-5.958-5.982q-6.193-6.2-12.392-12.387c-.617-.617-1.3-1.067-.3-2.059,6.2-6.141,12.336-12.34,18.654-18.681a9.908,9.908,0,0,1,.295,3.867c.007.874.3,1.18,1.169,1.159,2.682-.065,5.366-.071,8.05-.1" transform="translate(-70.294 -87.444)" fill="#7fab0e"/>
      </g>
    </g>
    <text id="X" transform="translate(800 17063)" fill="#b20d0d" font-size="69" font-family="Roboto-Black, Roboto" font-weight="800"><tspan x="-22.017" y="0">X</tspan></text>
  </g>
</svg>
