<svg xmlns="http://www.w3.org/2000/svg" xmlns:xlink="http://www.w3.org/1999/xlink" width="122" height="122" viewBox="0 0 122 122">
  <defs>
    <clipPath id="clip-path">
      <rect id="Rectángulo_345122" data-name="Rectángulo 345122" width="104.484" height="104.492" fill="none"/>
    </clipPath>
  </defs>
  <g id="Grupo_987412" data-name="Grupo 987412" transform="translate(-392 -16982)">
    <circle id="Elipse_5888" data-name="Elipse 5888" cx="61" cy="61" r="61" transform="translate(392 16982)" fill="#b20d0d"/>
    <g id="Grupo_984378" data-name="Grupo 984378" transform="translate(400.338 16990.754)">
      <g id="Grupo_984377" data-name="Grupo 984377" clip-path="url(#clip-path)">
        <path id="Trazado_725995" data-name="Trazado 725995" d="M32.062,29.3l3.927,0c.342,1.236,1.276,1.408,2.381,1.4,5.973-.019,11.945.01,17.918-.018,2.632-.012,3.493-.917,3.5-3.595.017-5.293.005-10.586.005-15.879,0-3.98,0-3.98,3.985-3.606.276,2.277.583,4.551.811,6.833.073.724.268,1.571-.244,2.178-1.078,1.278-.97,2.763-.961,4.258.013,2.039-.038,4.08.015,6.118a11.454,11.454,0,0,1-.85,5.152c-2.478,5.513-3.928,11.235-3.244,17.35a1.548,1.548,0,0,1-1.525,1.941,16.5,16.5,0,0,1-2.609.317c-4.012-.013-8.024.025-12.035-.02-1.607-.018-3.315.386-3.933,1.692-1.271,2.689-3.284,4.557-5.3,6.624-2.257,2.319-1.28,8.64,1.134,10.872.383.355.945.539,1,1.2.116,1.481.311,2.955.412,4.437.305,4.452.482,8.915.9,13.357.489,5.248.962,10.494,1.131,15.764-7.6.04-15.209.018-22.812.166-1.846.036-2.583-.48-2.885-2.336-.795-4.883-1.824-9.728-2.732-14.593-1.268-6.8-2.77-13.543-2.121-20.572,1.823-19.739,3.518-39.49,5.215-59.241.1-1.2.44-1.691,1.681-1.641a54.133,54.133,0,0,0,5.7-.01c1.564-.1,1.955.49,1.935,1.982-.076,5.773-.032,11.547-.029,17.321a4.947,4.947,0,0,0,.305,2.4,2.721,2.721,0,0,0,3.083,1.495c2.08-.44,4.677,1.411,6.237-1.357" transform="translate(-4.6 -4.408)" fill="#d4f4fb"/>
        <path id="Trazado_725996" data-name="Trazado 725996" d="M27.462,24.893c-1.56,2.768-4.157.918-6.237,1.358a2.721,2.721,0,0,1-3.083-1.495,4.948,4.948,0,0,1-.305-2.4c0-5.773-.047-11.548.029-17.321.02-1.492-.371-2.084-1.935-1.982a54.023,54.023,0,0,1-5.7.01C8.986,3.013,8.649,3.5,8.546,4.7c-1.7,19.751-3.393,39.5-5.215,59.241-.649,7.029.853,13.775,2.121,20.572.908,4.865,1.937,9.709,2.732,14.592.3,1.856,1.039,2.372,2.885,2.336,7.6-.148,15.207-.126,22.812-.166,2.61.276,2.66.272,2.48-2.2-.793-10.907-1.623-21.812-2.414-32.72-.059-.812-.13-1.324-1.137-1.535a2.249,2.249,0,0,1-1.827-2.584c.223-2.056-.95-4.419,1.227-6.074a1.174,1.174,0,0,1,.742-.283c2.322.306,2.317-1.382,2.586-2.909.444-2.521,1.291-3.229,3.826-3.237,4.689-.015,9.379,0,14.069,0,3.777,0,3.719,0,3.795-3.833.061-3.114-.8-6.426.354-9.3,2.708-6.78,4.368-13.638,3.65-20.972-.122-1.241.614-2.485,1.694-2.408,2.8.2,2.222-1.438,2.028-3.034-.115-.943-.117-1.9-.229-2.843-.535-4.5-.543-4.5-5.157-4.255a1.653,1.653,0,0,0-.386.118C55.2,2.828,55.2,2.828,55.2,6.808c0,5.293.011,10.586-.005,15.879-.009,2.678-.87,3.582-3.5,3.594-5.973.028-11.946,0-17.918.018-1.106,0-2.039-.169-2.381-1.4.224-1.52,1.281-1.665,2.551-1.657,5.506.032,11.014-.042,16.52.051,1.471.024,1.789-.424,1.769-1.822-.08-5.709-.045-11.419-.028-17.129C52.21,1.285,53.487.029,56.546.012c2.243-.013,4.487-.019,6.73,0,2.633.025,3.887,1.13,4.161,3.707s.594,5.136.683,7.712c.048,1.4.575,1.634,1.823,1.628,8.974-.048,17.948-.028,26.922-.024,2.986,0,3.79.617,3.556,3.542a36.834,36.834,0,0,0,3.293,18.577,9.733,9.733,0,0,1,.77,4.159q-.034,29.976-.016,59.952c0,4.039-1.171,5.2-5.221,5.206-2.583,0-5.167-.027-7.75.013-1.036.016-1.891-.158-2.3-1.236.054-1.344.813-1.848,2.091-1.843s2.526-.076,3.789-.119c1.278.049,2.566.01,3.83.166,1.926.238,2.629-.433,2.507-2.432-.164-2.687-.036-2.7-2.673-2.692-1.215.005-2.43.05-3.645.077l-30.589-.013c-.277-.073-.448-.009-.415.32-.119.87-.188,1.751-.367,2.608-.351,1.678.22,2.175,1.97,2.137,5.628-.12,11.26-.006,16.89-.071,1.423-.017,2.343.366,2.638,1.823a2.235,2.235,0,0,1-2.3,1.281q-36.727-.038-73.454-.03c-2.2,0-3.482-.955-3.883-3.13-1.833-9.943-4.21-19.8-5.395-29.848C-.424,66.253.6,61.039,1.027,55.83,1.991,44.044,3.069,32.267,4.1,20.487,4.59,14.935,5.037,9.38,5.589,3.834,5.865,1.069,7.114.033,9.858.013q3.367-.024,6.733,0c2.927.021,4.254,1.316,4.264,4.217.02,5.712.058,11.425-.029,17.136-.022,1.467.258,2.148,1.858,1.91.865-.129,1.767.012,2.649-.031,1.2-.059,1.966.393,2.129,1.649M55.457,55.665a38.5,38.5,0,0,0,5.489.165c.951.048,1.121-.374.977-1.256-.21-1.293-.583-2.119-2.175-1.924-1.543.189-3.118.111-4.678.149-5.028-.024-10.057-.007-15.084-.1-1.565-.028-1.512,1-1.643,2-.192,1.476.938,1.046,1.627,1.046,5.163,0,10.325-.051,15.488-.085m4.133,3.19c-8.066-.022-16.132-.022-24.2-.089-1.182-.01-1.51.383-1.478,1.514.031,1.066.035,1.756,1.474,1.74,8.065-.09,16.13-.08,24.2-.1,1.751.027,3.506-.01,5.252.1,1.33.086,1.351-.661,1.351-1.63s-.009-1.712-1.345-1.625c-1.746.114-3.5.069-5.253.093M91,16.142c-8.481-.031-16.963-.043-25.444-.113-1.127-.009-1.373.432-1.345,1.441.058,2.034.071,4.073,0,6.106-.04,1.066.3,1.392,1.372,1.384,8.483-.06,16.965-.066,25.448-.088,1.079.029,2.159.078,3.238.082,3.218.011,3.218,0,3.218-3.144,0-6.262,0-6.262-6.484-5.668m4.1,27.8c1.626.029,3.255.007,4.877.105,1.059.064,1.371-.291,1.4-1.362a23.131,23.131,0,0,0-1.583-9.509c-2.183-5.45-2.057-5.5-7.947-5.007q-13.539-.05-27.078-.105c-.584,0-1.02.071-1.249.734-1.561,4.514-3.813,8.857-3.2,13.885.1.828.081,1.367,1.183,1.361,11.2-.063,22.4-.076,33.6-.1M53.892,101.2a44.014,44.014,0,0,1,4.464.13c1.782.223,2.309-.465,2.423-2.188.614-9.269,1.409-18.526,1.973-27.8.127-2.084,1.466-4.944-.094-6.092-1.4-1.029-4.172-.19-6.339-.175-5.974-.028-11.947-.04-17.921-.1-1.011-.01-1.45.2-1.36,1.361q1.305,16.849,2.5,33.707c.068.957.367,1.279,1.326,1.264,4.342-.069,8.686-.08,13.029-.111M95.04,47.126l-33.444-.1c-.136,0-.272,0-.408,0-.942,0-.866.69-.836,1.291.028.551-.255,1.4.714,1.375,2.891-.087,3.468,1.924,3.754,4.118.16,1.22.413,2,1.915,2,1.615,0,2.42,1.128,2.534,2.658a30.455,30.455,0,0,1,.011,3.668,2.6,2.6,0,0,1-2.006,2.732c-.869.195-1.038.673-1.091,1.428-.6,8.541-1.2,17.081-1.855,25.618-.087,1.129.309,1.441,1.347,1.425,2.379-.037,4.759,0,7.139-.012q11.11-.055,22.22-.124c1.353.046,2.717,0,4.057.16,1.757.209,2.3-.352,2.289-2.2-.087-12.764-.046-25.528-.046-38.293,0-6.265,0-6.265-6.295-5.746" transform="translate(0 0)" fill="#050605"/>
        <path id="Trazado_725997" data-name="Trazado 725997" d="M156.709,236.086l30.589.013q-.01,2.44-.02,4.88c-1.263.043-2.526.122-3.789.119s-2.037.5-2.091,1.843l-3.973-.039c-.3-1.456-1.215-1.839-2.638-1.823-5.63.066-11.262-.049-16.89.071-1.75.037-2.321-.459-1.97-2.137.179-.858.248-1.738.367-2.608l.414-.32" transform="translate(-92.203 -139.691)" fill="#f7f7f7"/>
        <path id="Trazado_725998" data-name="Trazado 725998" d="M99.811,7.549a1.652,1.652,0,0,1,.386-.118c4.614-.247,4.622-.247,5.157,4.255.112.944.115,1.9.229,2.843.194,1.6.77,3.233-2.028,3.034-1.081-.077-1.816,1.167-1.694,2.408.719,7.334-.942,14.191-3.65,20.972-1.15,2.879-.293,6.191-.354,9.3-.076,3.832-.018,3.834-3.795,3.834-4.69,0-9.38-.01-14.069,0-2.535.008-3.382.716-3.826,3.237-.269,1.527-.264,3.215-2.586,2.909a1.174,1.174,0,0,0-.742.283c-2.177,1.655-1,4.018-1.227,6.074a2.25,2.25,0,0,0,1.827,2.584c1.007.211,1.078.723,1.137,1.535.791,10.907,1.621,21.812,2.414,32.719.179,2.471.13,2.475-2.48,2.2-.169-5.27-.642-10.516-1.131-15.764-.414-4.442-.59-8.905-.9-13.357-.1-1.481-.3-2.956-.412-4.437-.052-.665-.614-.85-1-1.2-2.414-2.232-3.391-8.553-1.134-10.872,2.011-2.067,4.025-3.935,5.3-6.624.617-1.307,2.326-1.71,3.933-1.692,4.011.045,8.023.006,12.035.02a16.553,16.553,0,0,0,2.61-.317,1.548,1.548,0,0,0,1.525-1.941c-.685-6.115.766-11.837,3.244-17.351a11.456,11.456,0,0,0,.851-5.152c-.053-2.038,0-4.079-.016-6.118-.009-1.5-.116-2.981.961-4.258.512-.607.316-1.454.244-2.178-.227-2.282-.534-4.555-.811-6.832" transform="translate(-40.63 -4.347)" fill="#b1e5f5"/>
        <path id="Trazado_725999" data-name="Trazado 725999" d="M182.467,161.359q-11.11.063-22.22.124c-2.38.012-4.76-.025-7.139.012-1.038.016-1.433-.3-1.347-1.425.655-8.537,1.256-17.077,1.856-25.618.053-.755.222-1.233,1.091-1.428a2.605,2.605,0,0,0,2.006-2.732,30.458,30.458,0,0,0-.011-3.668c-.114-1.531-.919-2.66-2.534-2.658-1.5,0-1.756-.775-1.915-2-.287-2.194-.864-4.206-3.754-4.118-.969.029-.686-.824-.714-1.375-.031-.6-.107-1.293.836-1.291.136,0,.272,0,.408,0l33.444.1q0,23.04-.006,46.08" transform="translate(-87.433 -68.152)" fill="#a2eb61"/>
        <path id="Trazado_726000" data-name="Trazado 726000" d="M107.549,195.377c-4.343.031-8.687.042-13.029.111-.958.016-1.258-.307-1.326-1.264q-1.2-16.857-2.5-33.706c-.09-1.16.349-1.371,1.36-1.361,5.974.057,11.947.07,17.921.1.264,5.555-.6,11.053-.868,16.582-.31,6.523-1.022,13.028-1.559,19.541" transform="translate(-53.657 -94.172)" fill="#d3e6eb"/>
        <path id="Trazado_726001" data-name="Trazado 726001" d="M182.351,84.615c-11.2.027-22.4.04-33.6.1-1.1.006-1.083-.533-1.183-1.361-.61-5.028,1.642-9.371,3.2-13.885.229-.662.665-.736,1.249-.733q13.539.061,27.078.1a6.692,6.692,0,0,0,.76,2.694c1.835,4.17,3.046,8.455,2.491,13.078" transform="translate(-87.256 -40.672)" fill="#fefefe"/>
        <path id="Trazado_726002" data-name="Trazado 726002" d="M232.753,161.2q0-23.04.006-46.08c6.294-.519,6.294-.519,6.294,5.746,0,12.764-.041,25.529.046,38.293.013,1.85-.532,2.41-2.289,2.2-1.34-.159-2.7-.114-4.057-.16" transform="translate(-137.719 -67.995)" fill="#79e103"/>
        <path id="Trazado_726003" data-name="Trazado 726003" d="M184.058,48.1c-8.483.022-16.965.028-25.448.088-1.071.008-1.412-.317-1.372-1.384.075-2.033.062-4.072,0-6.107-.029-1.009.218-1.45,1.344-1.441,8.481.069,16.963.082,25.444.112q.013,4.366.028,8.731" transform="translate(-93.035 -23.229)" fill="#fdfdfd"/>
        <path id="Trazado_726004" data-name="Trazado 726004" d="M131.99,195.032c.538-6.513,1.249-13.017,1.559-19.541.263-5.529,1.132-11.028.868-16.583,2.167-.015,4.941-.854,6.339.176,1.56,1.148.221,4.008.094,6.092-.564,9.272-1.359,18.529-1.973,27.8-.114,1.723-.641,2.411-2.423,2.188a44.012,44.012,0,0,0-4.464-.13" transform="translate(-78.098 -93.827)" fill="#bccfd9"/>
        <path id="Trazado_726005" data-name="Trazado 726005" d="M228.191,84.484c.555-4.623-.655-8.908-2.491-13.078a6.692,6.692,0,0,1-.76-2.694c5.891-.494,5.764-.443,7.947,5.007a23.123,23.123,0,0,1,1.583,9.508c-.032,1.071-.343,1.426-1.4,1.362-1.622-.1-3.251-.076-4.877-.105" transform="translate(-133.096 -40.541)" fill="#efe4e1"/>
        <path id="Trazado_726006" data-name="Trazado 726006" d="M108.728,147.075c-8.066.024-16.131.015-24.2.1-1.439.016-1.443-.674-1.474-1.739-.032-1.132.3-1.524,1.478-1.514,8.065.067,16.131.068,24.2.089q0,1.53-.005,3.06" transform="translate(-49.144 -85.16)" fill="#869ba8"/>
        <path id="Trazado_726007" data-name="Trazado 726007" d="M222.889,47.907q-.014-4.366-.028-8.731c6.484-.593,6.484-.593,6.484,5.669,0,3.147,0,3.155-3.218,3.144-1.08,0-2.159-.053-3.238-.082" transform="translate(-131.866 -23.035)" fill="#e1d8d4"/>
        <path id="Trazado_726008" data-name="Trazado 726008" d="M110.988,132.037c-5.163.034-10.325.084-15.488.085-.688,0-1.819.43-1.626-1.046.131-1,.078-2.029,1.643-2,5.027.089,10.056.073,15.084.1l.387,2.865" transform="translate(-55.532 -76.373)" fill="#869ba8"/>
        <path id="Trazado_726009" data-name="Trazado 726009" d="M232.852,240.883q.01-2.44.02-4.88c1.215-.027,2.429-.072,3.644-.077,2.637-.011,2.509,0,2.673,2.692.122,2-.581,2.671-2.507,2.433-1.264-.156-2.553-.118-3.83-.167" transform="translate(-137.777 -139.595)" fill="#e1d8d4"/>
        <path id="Trazado_726010" data-name="Trazado 726010" d="M135.26,131.921l-.387-2.865c1.561-.039,3.136.04,4.678-.149,1.593-.2,1.966.63,2.175,1.924.143.882-.026,1.3-.977,1.256a38.5,38.5,0,0,1-5.489-.165" transform="translate(-79.804 -76.256)" fill="#61757f"/>
        <path id="Trazado_726011" data-name="Trazado 726011" d="M145.931,147.06q0-1.53.005-3.06c1.751-.024,3.507.021,5.253-.093,1.336-.087,1.345.661,1.345,1.625s-.021,1.715-1.351,1.63c-1.746-.112-3.5-.075-5.252-.1" transform="translate(-86.347 -85.145)" fill="#6f8692"/>
        <path id="Trazado_726012" data-name="Trazado 726012" d="M157.378,236.047l-.414.32c-.033-.329.138-.393.414-.32" transform="translate(-92.872 -139.652)" fill="#e1d8d4"/>
      </g>
    </g>
  </g>
</svg>
