<svg xmlns="http://www.w3.org/2000/svg" xmlns:xlink="http://www.w3.org/1999/xlink" width="122" height="122" viewBox="0 0 122 122">
  <defs>
    <clipPath id="clip-path">
      <rect id="Rectángulo_345125" data-name="Rectángulo 345125" width="98.344" height="95.156" fill="none"/>
    </clipPath>
  </defs>
  <g id="Grupo_987415" data-name="Grupo 987415" transform="translate(7128 -5264)">
    <circle id="Elipse_5908" data-name="Elipse 5908" cx="61" cy="61" r="61" transform="translate(-7128 5264)" fill="#b20d0d"/>
    <g id="Grupo_984384" data-name="Grupo 984384" transform="translate(-7118.344 5277.298)">
      <g id="Grupo_984383" data-name="Grupo 984383" clip-path="url(#clip-path)">
        <path id="Trazado_726031" data-name="Trazado 726031" d="M49.189,90.565H2.661c-.41,0-.822.026-1.229-.007-.563-.045-1.419.208-1.378-.722.034-.776.824-.541,1.317-.546,2.733-.025,5.465-.013,8.2-.014,5.739,0,11.479.014,17.218-.022.591,0,1.794.444,1.471-.882-.224-.917.437-2.412-1.565-2.493-3.74-.152-4.682-1.31-4.974-5.038-.874-11.166-1.817-22.326-2.71-33.49-.088-1.1-.156-1.961-1.673-1.879a1.788,1.788,0,0,1-1.767-1.694c-.169-.984-.137-2.157.86-2.521,1.542-.562,1.325-1.676,1.324-2.818,0-8.4.042-16.808-.035-25.21-.016-1.783.34-2.795,2.344-2.448,1.24.214,1.526-.4,1.761-1.556,1.149-5.66,5.784-9.181,11.885-9.2,6.257-.017,10.935,3.448,12.074,9.2.274,1.383.8,1.636,1.982,1.566,1.362-.08,2.866.3,4.057-.16,1.24-.483.834-2.235,1.312-3.384C55.22,2.234,59.957-.445,66.12.061A11.371,11.371,0,0,1,76.526,9.028c.271,1.3.592,2,2.012,1.759,1.8-.3,2.142.635,2.13,2.242-.062,8.608-.026,17.217-.034,25.825,0,.971-.051,1.813,1.165,2.284,1.1.427,1.215,1.579,1.02,2.647a1.882,1.882,0,0,1-1.975,1.723c-1.326-.066-1.361.7-1.438,1.648q-1.138,14.09-2.313,28.178c-.167,2.042-.307,4.086-.47,6.128-.24,3-1.536,4.275-4.52,4.458a2.342,2.342,0,0,0-2.044,2.854c.32.909,1.166.481,1.762.483,8.131.03,16.261.006,24.391.045.721,0,2.059-.469,2.061.545,0,1.289-1.393.689-2.147.69q-23.469.058-46.939.029M22.144,42.182c-1.35-.651-2.769-.3-4.156-.233A1.1,1.1,0,0,0,16.822,43.1c.014.861.54,1.183,1.318,1.181,1.347,0,2.695-.034,4.042-.053l57.552.085c.273,0,.547-.006.818-.028a1.042,1.042,0,0,0,1.042-1.236c-.026-.709-.509-.9-1.1-.948-.952-.071-1.906-.189-2.858-.181-18.5.167-37-.293-55.492.265m51.05-17.671c-.443.515-.819,1.221-1.527,1.292-1.979.2-2.189,1.464-2.052,3.049A12.052,12.052,0,0,1,69.6,30.9a2.63,2.63,0,0,1-2.756,2.7c-.682.03-1.366.015-2.048.007-2.529-.032-3.327-.8-3.343-3.284q-.031-5.02,0-10.039c.007-1.264-.079-2.3-1.788-2.332-1.632-.032-1.89.8-1.923,2.171C57.7,21.95,56.5,22.769,54.771,22.8c-1.688.027-2.7-1.034-2.741-2.874-.048-2.048,0-4.1-.021-6.146-.008-.676.352-1.571-.914-1.615-1.287-.045-1.192.8-1.192,1.639,0,8.4.017,16.8-.018,25.2,0,1.175.264,1.714,1.582,1.7,7.443-.074,14.886-.073,22.329-.1,1.293.035,2.591.017,3.879.119,1.248.1,1.675-.375,1.646-1.629-.072-3-.022-6-.023-9,0-5.526-.01-11.052,0-16.577,0-.883-.2-1.414-1.244-1.394-1.08.021-.94.7-.932,1.389.014,1.3-.006,2.592,0,3.889a2.25,2.25,0,0,1-1.923,2.522c-1.733.208-1.879,1.213-1.831,2.566a15.538,15.538,0,0,1-.181,2.026M24.56,40.63c7.38.017,14.761,0,22.14.081,1.483.017,1.827-.514,1.815-1.9-.057-6.97-.026-13.941-.026-20.912,0-1.5-.022-3.007,0-4.51.015-.849-.3-1.249-1.195-1.232-.881.016-.954.509-.937,1.205.032,1.366.006,2.733,0,4.1A2.185,2.185,0,0,1,44.591,19.9c-1.941.212-2.106,1.328-2,2.843a2.743,2.743,0,0,1-2.38,3.266c-1.12.21-1.4.908-1.364,1.918A25.671,25.671,0,0,1,38.823,31a2.574,2.574,0,0,1-2.641,2.589c-.749.044-1.5.025-2.255.013-2.392-.04-3.216-.829-3.233-3.187-.025-3.554-.017-7.107-.007-10.661,0-1.318-.667-1.8-1.927-1.794-1.19,0-1.8.446-1.744,1.69a2.759,2.759,0,0,1-2.343,3.111c-3.078-.4-3.39-.757-3.4-3.872,0-1.568.051-3.139-.023-4.7-.036-.749.554-1.952-.98-1.966-1.462-.014-1.09,1.13-1.093,1.929-.023,7.092-.013,14.183-.013,21.276,0,5.322,0,5.322,5.394,5.207m48.029,5.026-46.731-.043c-6.816.005-5.618-1.152-5.227,5.243.577,9.437,1.6,18.846,2.278,28.279.367,5.1.762,5.61,5.813,5.356a2.8,2.8,0,0,0,.4-.079c13.246.288,26.492.134,39.739.078.474.028.949.077,1.424.082,4.536.046,4.832-.339,5.181-4.954q1.077-14.247,2.349-28.479c.527-5.932.6-5.925-5.225-5.482M64.612,12c-3.074,0-6.147.018-9.221-.008-1.421-.011-2.171.525-2.121,2.055.06,1.842.036,3.688.006,5.532-.018,1.1.3,1.947,1.545,1.939,1.131-.007,1.641-.643,1.728-1.827.179-2.452.957-3.074,3.381-2.97,1.959.084,2.761.979,2.78,3.224.027,3.142.006,6.283.008,9.425,0,2.981.014,2.991,2.949,2.975,2.446-.014,2.683-.25,2.7-2.7.007-.819-.018-1.641.025-2.458.06-1.123.528-2.067,1.717-2.232,1.82-.254,2.131-1.37,2-2.919-.14-1.708.435-2.982,2.34-3.2C75.616,18.7,75.9,18,75.873,16.982a19.322,19.322,0,0,1,.01-2.457c.182-1.854-.58-2.609-2.461-2.551-2.934.091-5.873.024-8.811.025M33.838,12c-3.07,0-6.141.017-9.21-.007-1.424-.011-2.163.54-2.112,2.062.059,1.772.023,3.547.01,5.321-.008,1.016.03,1.945,1.41,2.008,1.319.061,1.777-.548,1.851-1.83.131-2.259.967-2.905,3.306-2.83,2,.064,2.837.941,2.86,3.14.034,3.275.005,6.55.011,9.824,0,2.5.16,2.644,2.68,2.656,2.667.012,2.936-.249,2.963-2.885.008-.751.008-1.5.016-2.251a2.032,2.032,0,0,1,1.668-2.258c1.909-.3,2.182-1.513,2.064-3.11a2.5,2.5,0,0,1,2.314-3.021,1.537,1.537,0,0,0,1.44-1.85,21.781,21.781,0,0,1,0-2.659c.129-1.675-.608-2.355-2.27-2.325-3,.056-6,.016-9.006.016m30.629-1.212c3.144,0,6.288-.043,9.43.021,1.25.025,1.723-.252,1.412-1.617C74.231,4.451,70.086,1.328,64.69,1.3c-5.514-.031-9.713,3.068-10.833,7.879-.315,1.355.117,1.655,1.385,1.628,3.074-.066,6.15-.021,9.225-.021m-30.682,0c3.075,0,6.152-.067,9.225.028,1.563.048,1.885-.431,1.434-1.892C43.23,4.99,40.737,2.4,36.685,1.609c-4.571-.894-8.724-.138-11.793,3.784a10.92,10.92,0,0,0-1.643,3.271c-.519,1.517-.4,2.247,1.517,2.157,3-.141,6.012-.037,9.019-.037m1.547,78.441h27.76c-.554-3.378-.554-3.378-3.853-3.378H39.151c-3.249,0-3.25,0-3.88,3.091-.012.061.027.133.062.287m-3.527.157c1.276-.23,2.452-.611,2.62-2.258.151-1.481-.846-1.609-1.811-1.378-1.085.261-2.947-1.132-3.115,1.328-.111,1.624.88,2.119,2.306,2.307m34.518-3.707c-.876.277-2.392-.629-2.351,1.309.035,1.649,1.159,2.267,2.545,2.332,1.339.063,2.338-.454,2.389-2.1.07-2.208-1.559-1.282-2.583-1.541" transform="translate(-0.03 0)" fill="#4e4783"/>
        <path id="Trazado_726032" data-name="Trazado 726032" d="M65.761,229.715H30.7c-.547,0-1.094,0-1.64-.011-.433-.007-.9-.115-.946-.589-.072-.728.563-.62,1.008-.659.407-.035.819-.012,1.229-.012q35.367,0,70.734.027c.772,0,2.212-.555,2.2.607-.011,1.092-1.457.613-2.261.616q-17.632.049-35.264.022" transform="translate(-16.575 -134.639)" fill="#4e4783"/>
        <path id="Trazado_726033" data-name="Trazado 726033" d="M4.235,229.859c-1.16,0-2.32.018-3.479-.013-.432-.012-.806-.227-.751-.75.047-.45.451-.472.775-.475q3.377-.023,6.755,0c.416,0,.915.073.881.6-.028.445-.452.64-.906.641q-1.637,0-3.275,0" transform="translate(0 -134.8)" fill="#4e4783"/>
        <path id="Trazado_726034" data-name="Trazado 726034" d="M223.4,229.855c-1.16,0-2.32.02-3.479-.01-.432-.011-.81-.236-.761-.742.042-.434.449-.478.781-.48q3.377-.022,6.754,0c.4,0,.9.039.871.6-.024.5-.459.636-.892.642-1.092.014-2.183,0-3.275,0v-.009" transform="translate(-129.226 -134.799)" fill="#4e4783"/>
        <path id="Trazado_726035" data-name="Trazado 726035" d="M62.917,111.156l46.731.043c-.028,1.564.029,3.136-.1,4.692-.488,5.928-1.066,11.849-1.551,17.777-.337,4.114-.474,8.248-.919,12.349-.146,1.343-.051,2.892-1.159,4.016-13.246.056-26.493.21-39.739-.078-1.045-3.27-.892-6.692-1.223-10.047-.405-4.108-.565-8.24-.925-12.353-.477-5.46-1.254-10.9-1.116-16.4M86.3,116.722a13.83,13.83,0,0,0-14,13.827,13.956,13.956,0,1,0,27.911.1A13.824,13.824,0,0,0,86.3,116.722" transform="translate(-37.089 -65.543)" fill="#cdcccd"/>
        <path id="Trazado_726036" data-name="Trazado 726036" d="M59.891,40.235a2.759,2.759,0,0,0,2.344-3.111c-.058-1.244.554-1.688,1.743-1.69,1.26,0,1.932.476,1.927,1.794-.01,3.554-.019,7.107.007,10.661.017,2.358.841,3.147,3.233,3.187.751.012,1.505.031,2.254-.013a2.574,2.574,0,0,0,2.641-2.589,25.673,25.673,0,0,0,.026-3.073c-.032-1.01.244-1.708,1.364-1.918a2.743,2.743,0,0,0,2.38-3.266c-.108-1.515.057-2.631,2-2.843a2.186,2.186,0,0,0,1.776-2.432c0-1.366.027-2.734,0-4.1-.016-.7.056-1.189.937-1.205.9-.017,1.21.384,1.195,1.232-.026,1.5,0,3.007,0,4.51,0,6.971-.031,13.941.026,20.912.011,1.381-.332,1.912-1.815,1.9-7.379-.083-14.76-.064-22.14-.082q.028-3.412.057-6.824a2.565,2.565,0,0,0,2.4-2.116,30.23,30.23,0,0,0,.086-3.238,2.677,2.677,0,0,0-2.491-3.1q.03-1.3.058-2.592" transform="translate(-35.249 -17.475)" fill="#ccc"/>
        <path id="Trazado_726037" data-name="Trazado 726037" d="M145.4,58.08c-7.443.025-14.886.024-22.329.1-1.318.013-1.587-.526-1.582-1.7.034-8.4.019-16.8.018-25.2,0-.837-.095-1.684,1.192-1.639,1.266.044.906.939.914,1.615.024,2.048-.026,4.1.021,6.146.043,1.84,1.053,2.9,2.741,2.874,1.729-.029,2.932-.848,2.977-2.68.033-1.375.291-2.2,1.923-2.171,1.708.034,1.794,1.069,1.787,2.332q-.028,5.02,0,10.039c.016,2.486.814,3.251,3.343,3.284.683.009,1.367.023,2.048-.007a2.63,2.63,0,0,0,2.756-2.7,12.052,12.052,0,0,0,.01-2.047c-.137-1.586.073-2.852,2.052-3.049.709-.071,1.085-.777,1.528-1.291.915.545.587,1.45.591,2.217.026,4.625.011,9.251.01,13.877M129.477,46.61c.027-1.2.245-3.038-1.968-3.669a2.913,2.913,0,0,0-3.792,1.869c-.8,2.974.006,5.792,1.792,6.292a3.311,3.311,0,0,0,.4.069c2.517.378,3.562-.809,3.564-4.561" transform="translate(-71.636 -17.474)" fill="#ccc"/>
        <path id="Trazado_726038" data-name="Trazado 726038" d="M141.08,29.2c2.937,0,5.876.066,8.81-.025,1.881-.058,2.643.7,2.461,2.551a19.4,19.4,0,0,0-.01,2.457c.03,1.014-.257,1.717-1.414,1.849-1.9.217-2.48,1.49-2.34,3.2.126,1.549-.185,2.665-2,2.919-1.188.166-1.657,1.11-1.717,2.233-.043.817-.018,1.639-.025,2.458-.021,2.453-.258,2.69-2.7,2.7-2.936.016-2.948.006-2.949-2.975,0-3.142.018-6.284-.008-9.425-.019-2.244-.82-3.139-2.78-3.223-2.424-.1-3.2.517-3.381,2.97-.086,1.184-.6,1.821-1.728,1.827-1.245.007-1.563-.835-1.545-1.939.03-1.844.054-3.69-.006-5.532-.05-1.53.7-2.067,2.121-2.055,3.074.025,6.147.008,9.221.007" transform="translate(-76.499 -17.202)" fill="#ee6075"/>
        <path id="Trazado_726039" data-name="Trazado 726039" d="M66.114,29.209c3,0,6,.04,9.006-.016,1.662-.031,2.4.649,2.27,2.325a21.783,21.783,0,0,0,0,2.659,1.537,1.537,0,0,1-1.44,1.85,2.5,2.5,0,0,0-2.315,3.022c.117,1.6-.156,2.806-2.064,3.11A2.032,2.032,0,0,0,69.9,44.417c-.007.751-.008,1.5-.016,2.251-.027,2.636-.3,2.9-2.963,2.885-2.52-.012-2.675-.159-2.68-2.656-.006-3.275.023-6.55-.011-9.824-.023-2.2-.861-3.076-2.859-3.14-2.339-.076-3.174.571-3.306,2.83-.074,1.282-.532,1.89-1.851,1.83-1.38-.064-1.418-.992-1.41-2.009.013-1.774.05-3.549-.01-5.321-.051-1.522.688-2.073,2.112-2.062,3.07.025,6.14.008,9.21.007" transform="translate(-32.306 -17.213)" fill="#62b8e3"/>
        <path id="Trazado_726040" data-name="Trazado 726040" d="M167.735,149.85c1.108-1.123,1.014-2.673,1.159-4.016.445-4.1.582-8.235.919-12.349.485-5.928,1.063-11.849,1.551-17.777.128-1.556.071-3.128.1-4.692,5.821-.443,5.752-.449,5.225,5.482q-1.265,14.232-2.349,28.479c-.349,4.616-.645,5-5.181,4.954-.475,0-.949-.054-1.423-.082" transform="translate(-98.904 -65.36)" fill="#dfdfe0"/>
        <path id="Trazado_726041" data-name="Trazado 726041" d="M54.949,111.043c-.138,5.5.639,10.939,1.117,16.4.359,4.113.519,8.245.925,12.353.331,3.355.179,6.777,1.223,10.048a2.785,2.785,0,0,1-.4.078c-5.051.254-5.446-.257-5.813-5.356-.678-9.432-1.7-18.841-2.278-28.279-.391-6.395-1.588-5.237,5.227-5.243" transform="translate(-29.122 -65.43)" fill="#aeaeaf"/>
        <path id="Trazado_726042" data-name="Trazado 726042" d="M53.89,102.383c18.5-.558,37-.1,55.492-.265.952-.009,1.906.109,2.858.181.591.044,1.074.239,1.1.948a1.042,1.042,0,0,1-1.042,1.237c-.272.022-.545.028-.818.028l-57.553-.085q-.019-1.022-.037-2.043" transform="translate(-31.776 -60.201)" fill="#62b8e3"/>
        <path id="Trazado_726043" data-name="Trazado 726043" d="M178.9,58.02c0-4.626.016-9.251-.01-13.877,0-.767.324-1.672-.591-2.217a15.622,15.622,0,0,0,.18-2.026c-.048-1.353.1-2.358,1.831-2.566a2.251,2.251,0,0,0,1.923-2.522c-.008-1.3.012-2.593,0-3.889-.007-.689-.147-1.369.933-1.39,1.044-.02,1.246.511,1.243,1.394-.015,5.526-.005,11.052-.005,16.578,0,3-.049,6,.023,9,.03,1.254-.4,1.728-1.646,1.629-1.288-.1-2.586-.084-3.879-.119" transform="translate(-105.132 -17.414)" fill="#d9d9dc"/>
        <path id="Trazado_726044" data-name="Trazado 726044" d="M85.936,212.582c-.035-.154-.075-.226-.062-.287.631-3.091.631-3.091,3.88-3.091h20.089c3.3,0,3.3,0,3.853,3.378Z" transform="translate(-50.634 -123.357)" fill="#e8e9f0"/>
        <path id="Trazado_726045" data-name="Trazado 726045" d="M52.1,40.316q-.029,1.3-.058,2.592c-2.614.26-3.273.918-3.323,3.319-.089,4.262.2,4.7,3.327,5.134q-.028,3.412-.057,6.824c-5.394.115-5.394.115-5.394-5.207,0-7.092-.009-14.183.014-21.276,0-.8-.37-1.943,1.092-1.929,1.534.014.945,1.217.981,1.966.075,1.565.02,3.136.023,4.7.006,3.115.318,3.47,3.4,3.872" transform="translate(-27.459 -17.556)" fill="#a4a3aa"/>
        <path id="Trazado_726046" data-name="Trazado 726046" d="M74.108,212.363c-1.425-.188-2.417-.684-2.306-2.307.168-2.46,2.029-1.067,3.115-1.328.965-.232,1.962-.1,1.811,1.377-.168,1.647-1.344,2.028-2.62,2.258" transform="translate(-42.333 -122.981)" fill="#6b6a70"/>
        <path id="Trazado_726047" data-name="Trazado 726047" d="M158.173,208.783c1.024.259,2.653-.667,2.583,1.541-.052,1.647-1.051,2.164-2.389,2.1-1.386-.065-2.509-.683-2.545-2.332-.041-1.939,1.475-1.033,2.351-1.309" transform="translate(-91.879 -123.108)" fill="#6b6a70"/>
        <path id="Trazado_726048" data-name="Trazado 726048" d="M46.243,102.239q.018,1.022.037,2.043c-1.347.019-2.694.048-4.042.053-.777,0-1.3-.319-1.317-1.18a1.1,1.1,0,0,1,1.166-1.149c1.386-.065,2.806-.418,4.156.233" transform="translate(-24.129 -60.057)" fill="#577ac1"/>
        <path id="Trazado_726049" data-name="Trazado 726049" d="M99.806,124.721a13.824,13.824,0,0,1,13.908,13.923,13.956,13.956,0,1,1-27.911-.1,13.83,13.83,0,0,1,14-13.827m-.059,1.239a12.66,12.66,0,0,0-12.706,12.748,12.717,12.717,0,0,0,25.434-.021A12.664,12.664,0,0,0,99.747,125.96" transform="translate(-50.593 -73.541)" fill="#463b75"/>
        <path id="Trazado_726050" data-name="Trazado 726050" d="M55.119,70.235c-3.13-.433-3.415-.873-3.327-5.135.05-2.4.709-3.059,3.324-3.319a2.676,2.676,0,0,1,2.49,3.1,30.348,30.348,0,0,1-.085,3.238,2.567,2.567,0,0,1-2.4,2.116m1.2-4.1h.043c0-.338-.015-.676,0-1.013.065-1.258-.279-2.123-1.777-2.076-1.419.044-1.614.946-1.581,2.069.025.877-.023,1.759.057,2.63.088.949.81,1.145,1.618,1.145s1.514-.188,1.626-1.137a13.8,13.8,0,0,0,.011-1.617" transform="translate(-30.531 -36.43)" fill="#463b75"/>
        <path id="Trazado_726051" data-name="Trazado 726051" d="M132.236,65.523c0,3.752-1.047,4.939-3.564,4.561a3.311,3.311,0,0,1-.4-.069c-1.786-.5-2.588-3.318-1.792-6.292a2.912,2.912,0,0,1,3.791-1.868c2.214.63,2,2.465,1.968,3.669m-1.25.565c0-.444-.013-.787,0-1.127.055-1.216-.355-1.976-1.732-1.949-1.266.025-1.645.738-1.617,1.861.022.887,0,1.775.024,2.662a1.2,1.2,0,0,0,1.1,1.266c.675.094,1.408.184,1.9-.437.56-.709.24-1.581.325-2.276" transform="translate(-74.395 -36.387)" fill="#463b75"/>
        <path id="Trazado_726052" data-name="Trazado 726052" d="M101.528,127.74a12.664,12.664,0,0,1,12.728,12.727,12.717,12.717,0,0,1-25.434.021,12.659,12.659,0,0,1,12.706-12.748m-3.319,19.71c.666-.325,1.845.628,2.372-.643.724-1.745-.164-3.133-2.1-3.393-.311-.042-.779.1-.861-.281-.056-.261.161-.808.356-.861,1.884-.518.452-1.518.34-2.281a1.359,1.359,0,0,0-1.877-1.261c-.65.151-1.933-.023-1.891.252.263,1.716-1.691,2.55-1.525,4.057.208,1.893,3.22,4.411,5.183,4.412m3.6-14.666c-2.19-.717-3.377.608-4.536,2.158-.643.86-1.2,1.547.1,2.233.968.509,1.847,2.286,3.023.21.22-.388.516-1.026.981-.9.542.151.757.709.417,1.333-.252.462.157.51.467.657,1.958.929,2.788.52,4.024-1.23,1.053-1.491-.808-1.419-.941-2.3-.291-1.932-1.533-2.781-3.535-2.161m2.333,15.039c1.213-.881,2.765.135,3.909-.64,1.925-1.3,2.126-6.351.431-8.078a.853.853,0,0,0-.884-.271c-1.9.368-2.653,1.687-1.923,3.386a8.267,8.267,0,0,1,.281.936c-.323.062-.735.285-.953.162-2.143-1.207-2.014,1.126-2.81,1.879-.424.4,1.325,2.665,1.949,2.626" transform="translate(-52.373 -75.322)" fill="#f3ac25"/>
        <path id="Trazado_726053" data-name="Trazado 726053" d="M58.081,67.956a13.8,13.8,0,0,1-.011,1.617c-.112.95-.82,1.137-1.626,1.137s-1.531-.2-1.618-1.145c-.08-.871-.032-1.753-.057-2.63-.032-1.123.162-2.024,1.581-2.069,1.5-.046,1.842.818,1.777,2.076-.017.336,0,.675,0,1.013h-.043" transform="translate(-32.292 -38.247)" fill="#62b8e3"/>
        <path id="Trazado_726054" data-name="Trazado 726054" d="M133.1,67.957c-.085.7.235,1.568-.325,2.276-.491.621-1.224.531-1.9.437a1.2,1.2,0,0,1-1.1-1.266c-.028-.887,0-1.776-.024-2.662-.028-1.123.35-1.837,1.617-1.861,1.378-.027,1.788.733,1.733,1.949-.016.341,0,.683,0,1.127" transform="translate(-76.506 -38.256)" fill="#ee6075"/>
        <path id="Trazado_726055" data-name="Trazado 726055" d="M104.236,163.144c-1.962,0-4.975-2.519-5.183-4.412-.166-1.507,1.788-2.341,1.524-4.056-.042-.275,1.242-.1,1.891-.252a1.359,1.359,0,0,1,1.878,1.261c.112.764,1.544,1.763-.34,2.281-.2.054-.412.6-.356.861.082.382.549.239.861.281,1.933.26,2.821,1.648,2.1,3.393-.527,1.271-1.706.317-2.372.643" transform="translate(-58.401 -91.015)" fill="#463b75"/>
        <path id="Trazado_726056" data-name="Trazado 726056" d="M112.954,139.747c2-.62,3.244.229,3.536,2.161.133.883,1.994.812.941,2.3-1.236,1.75-2.066,2.159-4.024,1.23-.309-.146-.719-.194-.467-.657.34-.623.125-1.182-.417-1.332-.465-.13-.761.508-.981.9-1.176,2.076-2.055.3-3.023-.21-1.3-.686-.743-1.373-.1-2.234,1.159-1.549,2.346-2.875,4.536-2.158" transform="translate(-63.521 -82.284)" fill="#463b75"/>
        <path id="Trazado_726057" data-name="Trazado 726057" d="M123.254,163.728c-.624.039-2.373-2.225-1.949-2.626.8-.753.667-3.086,2.81-1.879.218.123.63-.1.953-.163a8.271,8.271,0,0,0-.281-.936c-.73-1.7.025-3.018,1.923-3.386a.853.853,0,0,1,.884.271c1.694,1.727,1.494,6.775-.431,8.078-1.144.775-2.7-.242-3.909.64" transform="translate(-71.488 -91.226)" fill="#463b75"/>
      </g>
    </g>
  </g>
</svg>
