<svg xmlns="http://www.w3.org/2000/svg" xmlns:xlink="http://www.w3.org/1999/xlink" width="81.342" height="88.702" viewBox="0 0 81.342 88.702">
  <defs>
    <clipPath id="clip-path">
      <rect id="Rectángulo_346428" data-name="Rectángulo 346428" width="81.342" height="81.357" fill="none"/>
    </clipPath>
  </defs>
  <g id="Grupo_987402" data-name="Grupo 987402" transform="translate(-804 -4597.649)">
    <circle id="Elipse_5913" data-name="Elipse 5913" cx="39.5" cy="39.5" r="39.5" transform="translate(804 4607.351)" fill="#8a3d02"/>
    <g id="Grupo_987318" data-name="Grupo 987318" transform="translate(804 4597.649)">
      <g id="Grupo_987317" data-name="Grupo 987317" clip-path="url(#clip-path)">
        <path id="Trazado_728775" data-name="Trazado 728775" d="M35.207,79.739a2.043,2.043,0,0,1-2.334,1.619c-10.214-.036-20.428-.016-30.642-.024-1.838,0-2.435-.749-2.157-2.61a8.275,8.275,0,0,1,9.059-6.842c1.016.11,1.318-.21,1.726-1a9.944,9.944,0,0,1,16.184-2.195c.912.992,1.294.737,2.033-.009,2.894-2.92,3.1-6.7,3.407-10.448.065-.8-.724-.613-1.193-.677a21.636,21.636,0,0,1-5.53-1.321,4.726,4.726,0,0,1-2.053-1.443c-.931-1.237-.6-2.632.923-3.625A13.849,13.849,0,0,1,30.956,49.3c1.171-.119,1.4-.519,1.169-1.573-.444-2.01-.893-4.025-1.173-6.062-.155-1.132-1-1.275-1.729-1.562-.824-.326-.854.61-1.155,1a8.391,8.391,0,0,1-9.344,2.96,3.382,3.382,0,0,0-2.119-.115A12.966,12.966,0,0,1,.209,33.856C-1.154,26.814,4.3,19.891,11.864,19.14c.868-.086,1.232-.148,1.219-1.212A11.323,11.323,0,0,1,25.854,6.468a1.9,1.9,0,0,0,1.886-.677A17.342,17.342,0,0,1,53.6,5.776a1.894,1.894,0,0,0,1.88.7A11.321,11.321,0,0,1,68.266,17.911c-.014,1.034.3,1.145,1.2,1.232a12.9,12.9,0,0,1,11.839,13.6A12.916,12.916,0,0,1,67.557,44.421a31.983,31.983,0,0,0-7.1-.027c-3.026.449-5.51-1.064-7.345-3.538-.248-.334-.324-1.092-.971-.754-.6.312-1.448.267-1.66,1.243-.494,2.272-.967,4.543-1.321,6.843-.133.863.26.975.921,1.051A18.326,18.326,0,0,1,55.9,50.681c1.121.528,2.19,1.209,2.226,2.632.038,1.516-1.083,2.214-2.252,2.775a14.743,14.743,0,0,1-5.5,1.385c-1.393.085-1.626.619-1.468,1.865.426,3.374.764,6.742,3.367,9.336.741.739,1.118,1.006,2.033.011a9.946,9.946,0,0,1,16.185,2.192c.408.791.708,1.115,1.726,1a8.261,8.261,0,0,1,9.032,6.684c.36,2.005-.259,2.768-2.287,2.769-10.161.005-20.322-.013-30.483.023a2.044,2.044,0,0,1-2.335-1.618c.327-1.338,1.254-1.606,2.513-1.6,9.1.035,18.2.023,27.3.01a3.4,3.4,0,0,0,1.677-.129,4.838,4.838,0,0,0-6.579-2.568c-1.776.712-2.389.406-2.806-1.407A6.785,6.785,0,0,0,62.64,68.7a6.988,6.988,0,0,0-6.981,3.414c-.931,1.588-1.619,1.772-3.177.776a13.219,13.219,0,0,1-5.792-7.67,32.82,32.82,0,0,1-.965-5.936c-.043-.442.113-1.112-.521-1.171a6.337,6.337,0,0,0-2.667.128c-.609.223-.254,1.147-.255,1.749,0,1.172-.212,2.244-1.61,2.244s-1.763-1.093-1.563-2.24c.309-1.778-.608-1.917-2.019-1.939-1.116-.017-1.49.3-1.509,1.387a26.957,26.957,0,0,1-.354,3.149,13.841,13.841,0,0,1-5.963,10.043c-1.94,1.332-2.468,1.182-3.753-.781a6.518,6.518,0,0,0-6.643-3.137,6.337,6.337,0,0,0-5.591,4.721c-.8,2.687-.789,2.7-3.575,1.8a4.608,4.608,0,0,0-5.9,2.919c9.64,0,19.268.015,28.9-.019,1.258,0,2.187.262,2.513,1.6m-20.6-38.5a8.961,8.961,0,0,1-1.557-4.2c-.07-1.1.3-1.946,1.475-2.038,1.078-.085,1.561.616,1.712,1.661A5.076,5.076,0,0,0,21.016,41.3a5.156,5.156,0,0,0,5.326-4.057q.7-2.5,2.79-1.042c3.74,2.6,6.572,2.628,10.329.02a1.87,1.87,0,0,1,2.44.01c3.728,2.6,6.562,2.571,10.328-.039,1.392-.965,2.322-.615,2.775,1.069a5.107,5.107,0,0,0,6.425,3.818A4.753,4.753,0,0,0,65.1,36.8c.117-1.111.567-1.9,1.735-1.8,1.275.11,1.567,1.079,1.447,2.208a6.272,6.272,0,0,1-.884,2.85c-.754,1.14-.213,1.25.81,1.264A9.855,9.855,0,0,0,78.136,31.2c-.318-5.347-5.607-9.569-11.1-8.863-2.174.279-2.814-.446-2.238-2.565a7.543,7.543,0,0,0-2.13-7.836c-3.246-3.184-8.178-3.18-11.75,0-.855.763-1.708,1.23-2.594.256-.865-.95-.416-1.871.434-2.6.737-.636,1.522-1.218,2.286-1.825-6.22-6.852-16.623-5.25-20.7.123a12.167,12.167,0,0,1,2.606,2.054,1.551,1.551,0,0,1,.066,2.277,1.467,1.467,0,0,1-2.248.018c-.2-.175-.376-.373-.576-.545a8.533,8.533,0,0,0-10.169-.83c-3.169,2-4.386,5.337-3.367,9.235.454,1.736-.3,2.482-2.212,2.267a9.641,9.641,0,0,0-9.682,4.432A8.423,8.423,0,0,0,4.575,36.5c2.2,3.548,5.519,5.062,10.03,4.74M39.085,50.2c0-1.163.022-2.328-.006-3.49-.029-1.195.273-2.217,1.666-2.172,1.286.041,1.539,1.036,1.526,2.159-.027,2.379.031,4.761-.028,7.139-.022.912.284,1.31,1.158,1.091.76-.19,2.031.628,2.053-1.112a54.024,54.024,0,0,1,1.492-11.133c.2-.916.214-1.421-1.006-1.438-1.939-.027-3.661-1.692-5.33-1.608-1.7.085-3.412,1.553-5.35,1.624-1.025.037-1.077.442-.9,1.254a59.034,59.034,0,0,1,1.548,11.446c.009.355-.047.7.429.9,1.646.685,2.742-.016,2.743-1.8q0-1.428,0-2.856M27.7,53.622c1.319.25,2.635.524,3.961.735.32.051.847.382.981-.046a3.248,3.248,0,0,0,.017-1.71c-.157-.6-.726-.212-1.09-.181a8.264,8.264,0,0,0-3.869,1.2m26.378-.254a17.859,17.859,0,0,0-4.277-.95c-.37-.026-.937-.411-1.1.169A2.935,2.935,0,0,0,48.7,54.3c.175.473.75.078,1.13.047a15.8,15.8,0,0,0,4.24-.976" transform="translate(0 0)" fill="#050404"/>
        <path id="Trazado_728776" data-name="Trazado 728776" d="M43.361,204.32c-.326-1.34-1.255-1.605-2.513-1.6-9.628.034-19.255.018-28.9.018a4.608,4.608,0,0,1,5.9-2.919c2.786.893,2.775.884,3.575-1.8a6.337,6.337,0,0,1,5.591-4.721,6.517,6.517,0,0,1,6.643,3.137c1.285,1.962,1.813,2.113,3.753.781a13.841,13.841,0,0,0,5.963-10.043,26.958,26.958,0,0,0,.354-3.149c.019-1.088.393-1.4,1.509-1.387,1.411.021,2.328.16,2.019,1.938-.2,1.148.165,2.24,1.564,2.24s1.609-1.072,1.61-2.244c0-.6-.354-1.525.255-1.749a6.337,6.337,0,0,1,2.667-.128c.634.058.478.728.521,1.171a32.82,32.82,0,0,0,.965,5.936,13.219,13.219,0,0,0,5.792,7.67c1.558,1,2.246.812,3.177-.776a6.988,6.988,0,0,1,6.981-3.414,6.785,6.785,0,0,1,5.606,5.345c.417,1.813,1.03,2.12,2.805,1.407a4.838,4.838,0,0,1,6.58,2.568,3.4,3.4,0,0,1-1.677.129c-9.1.012-18.2.025-27.3-.01-1.259,0-2.186.263-2.513,1.6l-3.827.011c-.182-.906-.641-1.573-1.64-1.573s-1.459.666-1.639,1.573l-3.828-.011m7.024-10.974H50.4a13.57,13.57,0,0,0-.017-1.89,1.482,1.482,0,0,0-1.615-1.4,1.425,1.425,0,0,0-1.482,1.362,22.048,22.048,0,0,0,.007,3.622,1.428,1.428,0,0,0,1.519,1.321,1.473,1.473,0,0,0,1.553-1.29,9.306,9.306,0,0,0,.021-1.729" transform="translate(-8.154 -124.581)" fill="#fc9055"/>
        <path id="Trazado_728777" data-name="Trazado 728777" d="M218.642,19.6a4.765,4.765,0,1,1,4.828-4.661,4.782,4.782,0,0,1-4.828,4.661m1.678-4.9c-.216-.811-.674-1.483-1.692-1.425a1.453,1.453,0,0,0-1.484,1.526,1.456,1.456,0,0,0,1.563,1.6c1,.005,1.487-.639,1.613-1.7" transform="translate(-145.953 -6.868)" fill="#060606"/>
        <path id="Trazado_728778" data-name="Trazado 728778" d="M24.276,41.757c-.183.943-.71,1.568-1.709,1.489a1.568,1.568,0,0,1,.132-3.133c1,.028,1.483.665,1.578,1.644" transform="translate(-14.394 -27.365)" fill="#0e0e0e"/>
        <path id="Trazado_728779" data-name="Trazado 728779" d="M122.83,247.571c.18-.907.64-1.573,1.639-1.573s1.458.667,1.64,1.573c-.186.9-.644,1.567-1.64,1.567s-1.454-.665-1.639-1.567" transform="translate(-83.795 -167.821)" fill="#0e0b09"/>
        <path id="Trazado_728780" data-name="Trazado 728780" d="M21.317,48.144c-4.511.322-7.829-1.192-10.03-4.74a8.424,8.424,0,0,1,.184-9.707,9.641,9.641,0,0,1,9.682-4.432c1.909.215,2.665-.531,2.211-2.267-1.019-3.9.2-7.236,3.367-9.235a8.534,8.534,0,0,1,10.169.83c.2.172.378.37.576.545a1.466,1.466,0,0,0,2.248-.018,1.551,1.551,0,0,0-.066-2.277,12.179,12.179,0,0,0-2.606-2.054c4.08-5.373,14.482-6.975,20.7-.123-.765.607-1.549,1.189-2.287,1.825-.85.733-1.3,1.654-.434,2.6.886.973,1.738.506,2.594-.256,3.571-3.184,8.5-3.188,11.749,0a7.543,7.543,0,0,1,2.13,7.836c-.576,2.12.064,2.845,2.238,2.566,5.494-.706,10.783,3.516,11.1,8.863a9.855,9.855,0,0,1-9.924,10.128c-1.023-.014-1.564-.124-.81-1.264A6.263,6.263,0,0,0,75,44.114c.12-1.129-.172-2.1-1.447-2.208-1.169-.1-1.619.69-1.736,1.8a4.753,4.753,0,0,1-3.674,4.279,5.107,5.107,0,0,1-6.425-3.818c-.453-1.684-1.383-2.034-2.775-1.069-3.766,2.61-6.6,2.641-10.329.039a1.87,1.87,0,0,0-2.44-.01c-3.756,2.609-6.588,2.583-10.328-.02q-2.089-1.453-2.79,1.042a5.156,5.156,0,0,1-5.326,4.058,5.077,5.077,0,0,1-4.781-4.645c-.15-1.046-.634-1.746-1.712-1.661-1.174.092-1.544.942-1.475,2.038a8.961,8.961,0,0,0,1.557,4.2" transform="translate(-6.711 -6.904)" fill="#fdf09f"/>
        <path id="Trazado_728781" data-name="Trazado 728781" d="M112.684,135.276q0,1.428,0,2.856c0,1.785-1.1,2.486-2.743,1.8-.476-.2-.42-.543-.428-.9a59.086,59.086,0,0,0-1.548-11.446c-.181-.812-.129-1.217.9-1.254,1.937-.071,3.645-1.538,5.35-1.624,1.669-.084,3.391,1.581,5.33,1.608,1.22.017,1.21.522,1.006,1.438a54.046,54.046,0,0,0-1.492,11.132c-.021,1.741-1.293.923-2.053,1.113-.874.219-1.18-.179-1.158-1.091.058-2.378,0-4.76.028-7.139.012-1.123-.24-2.118-1.526-2.159-1.393-.044-1.695.977-1.666,2.172.028,1.163.006,2.327.006,3.49" transform="translate(-73.599 -85.077)" fill="#fa8f54"/>
        <path id="Trazado_728782" data-name="Trazado 728782" d="M126.079,209.325a9.306,9.306,0,0,1-.021,1.729,1.473,1.473,0,0,1-1.553,1.29,1.428,1.428,0,0,1-1.519-1.321,22.049,22.049,0,0,1-.007-3.622,1.425,1.425,0,0,1,1.482-1.362,1.482,1.482,0,0,1,1.615,1.4,13.57,13.57,0,0,1,.017,1.89h-.014" transform="translate(-83.849 -140.56)" fill="#060302"/>
      </g>
    </g>
  </g>
</svg>
