<svg xmlns="http://www.w3.org/2000/svg" xmlns:xlink="http://www.w3.org/1999/xlink" width="81.236" height="88.702" viewBox="0 0 81.236 88.702">
  <defs>
    <clipPath id="clip-path">
      <rect id="Rectángulo_346427" data-name="Rectángulo 346427" width="78.342" height="78.384" fill="none"/>
    </clipPath>
  </defs>
  <g id="Grupo_987401" data-name="Grupo 987401" transform="translate(-285.764 -4597.649)">
    <circle id="Elipse_5912" data-name="Elipse 5912" cx="39.5" cy="39.5" r="39.5" transform="translate(288 4607.351)" fill="#b20d0d"/>
    <g id="Grupo_987316" data-name="Grupo 987316" transform="translate(285.764 4597.649)">
      <g id="Grupo_987315" data-name="Grupo 987315" clip-path="url(#clip-path)">
        <path id="Trazado_728760" data-name="Trazado 728760" d="M37.232,56.494c-2.323,2.584-4.49,5.022-6.694,7.426-.493.537-.636.9-.057,1.5.885.913,1.636,1.953,2.5,2.892a1.916,1.916,0,0,1,.328,2.488c-1.159,2.09-2.283,4.2-3.389,6.318a2.079,2.079,0,0,1-2.047,1.267c-8.006-.028-16.012,0-24.017-.025A3.618,3.618,0,0,1,.014,74.517q-.026-20.648,0-41.3a3.591,3.591,0,0,1,3.733-3.788q12.467-.042,24.935,0a7.019,7.019,0,0,1,3.731,1.2c.542.34,1.1.656,1.692,1.008.5-3.727.492-3.684-2.913-4.124-1.763-.228-3.508-.611-5.253-.97a2.318,2.318,0,0,1-2.014-2.021,2.354,2.354,0,0,1,1.326-2.385c.557-.353,1.1-.736,1.661-1.117-2.448-1.616-2.461-3.01-.069-4.642.615-.42,1.139-.637.313-1.49-.962-1-.664-2.295.483-3.171.553-.422,1.251-.658,1.66-1.245-.1-.413-.481-.379-.716-.538-1.621-1.1-1.648-3.06.082-3.917a11.115,11.115,0,0,0,4.317-3.982C34.8-.665,36.757-.682,38.559,2a11.206,11.206,0,0,0,4.3,4c2,1,1.716,2.95-.614,4.433.408.621,1.1.856,1.656,1.27a2.053,2.053,0,0,1,.44,3.284c-.542.6-.511.855.105,1.216.131.077.257.165.382.251,2.252,1.533,2.222,3.015-.166,4.57l1.894,1.29a2.262,2.262,0,0,1-.625,4.139,30.919,30.919,0,0,1-7.371,1.186c-.974.027-1.136.388-1.284,1.334-.546,3.5.6,5.8,3.939,7.293A39.206,39.206,0,0,1,47.682,40.3,10.423,10.423,0,0,0,54.7,42.333c1.265-.092,2.81.363,3.733-.217.942-.591.669-2.322,1.1-3.5.5-1.354.353-2.133-1.312-2.5a25.684,25.684,0,0,1-6.043-2.5,2.342,2.342,0,0,1,.35-4.462c.618-.222,1.231-.458,1.88-.7-2.008-2.07-1.665-3.541,1.014-4.522.73-.267,1.224-.359.636-1.372-.694-1.2-.086-2.393,1.232-2.96.6-.261,1.231-.472,1.819-.695.163-.456-.228-.549-.417-.751-1.478-1.583-1.015-3.463,1.078-3.929a10.637,10.637,0,0,0,4.965-2.829c2.359-2.186,4.293-1.714,5.437,1.307a10.789,10.789,0,0,0,2.57,4.273c2.377,2.22,2.1,3.679-.918,4.762.124.652.681.98,1.076,1.422,1.218,1.365,1.176,2.519-.3,3.6-.539.395-.537.592-.113.976a2.726,2.726,0,0,1,.2.23c2.029,2.3,1.815,3.437-.97,4.709.429.469.812.943,1.251,1.357a2.366,2.366,0,0,1,.713,2.769,2.409,2.409,0,0,1-2.486,1.423,37.884,37.884,0,0,1-7.15-.605c-.957-.176-1.24.076-1.385.98-.192,1.2-.551,2.367-.837,3.543a2.587,2.587,0,0,0,1.531.177c3.671.014,7.343-.023,11.014.018a3.672,3.672,0,0,1,3.947,3.911q.029,14.147,0,28.3a3.618,3.618,0,0,1-3.861,3.82c-9.586.021-19.173,0-28.76.022-1.232,0-2.029-.463-2.058-1.706a10.544,10.544,0,0,0-3.84-7.666,7.913,7.913,0,0,1-2.62-7.919,25.292,25.292,0,0,0,.047-4.6m3.232,8.037c-.071-.152-.161-.239-.29-.06-.008.011.112.115.172.175A13.814,13.814,0,0,0,42.5,67.389c1.745,2.155,3.969,4.029,3.885,7.178-.018.69.479.748,1.048.747q13.309-.018,26.618.005c.944,0,1.26-.365,1.233-1.271a43,43,0,0,1,.013-4.433c.091-1.25-.276-1.63-1.575-1.618-7.138.066-14.278-.007-21.416.051a16.34,16.34,0,0,1-7.95-1.79,17.969,17.969,0,0,0-3.892-1.727m21.671.432c3.927,0,7.854-.034,11.779.023,1.036.015,1.406-.224,1.383-1.331-.073-3.414-.082-6.833,0-10.247.03-1.18-.338-1.423-1.455-1.416-7.343.05-14.686.031-22.03.022a12.216,12.216,0,0,1-6.794-1.947C39.8,46.7,34.511,43.432,29.265,40.1a5.942,5.942,0,0,0-3.3-1.019c-7.19.017-14.381.03-21.571-.017-1.08-.007-1.368.313-1.354,1.371q.084,6.653,0,13.306c-.017,1.17.263,1.556,1.5,1.544,6.578-.063,13.156,0,19.734-.047A13.383,13.383,0,0,1,31.5,56.753a1.145,1.145,0,0,0,1.691-.344c1.532-1.774,3.122-3.5,4.689-5.244A1.563,1.563,0,0,1,40.7,52.286c-.076,1.425-.145,2.851-.234,4.275-.268,4.318-.2,4.182,3.591,6.188a18.83,18.83,0,0,0,10.13,2.242c2.644-.146,5.3-.029,7.953-.029m-46.579-6.59c-3.72,0-7.442.04-11.161-.025-1.084-.019-1.378.313-1.351,1.372.07,2.75.076,5.5,0,8.254-.03,1.063.364,1.26,1.309,1.231,2.037-.062,4.077,0,6.115-.026,1.113-.014,2.015.332,2.008,1.551s-.924,1.544-2.03,1.53c-2.089-.027-4.179-.013-6.269,0-.341,0-.865-.164-.983.188a4.16,4.16,0,0,0-.023,2.4c.177.648.835.456,1.316.456q9.021.015,18.042,0c1.625,0,3.583.475,4.783-.258s1.65-2.708,2.428-4.139a1.144,1.144,0,0,1,.077-.131,1.121,1.121,0,0,0-.141-1.606c-.892-.978-1.681-2.051-2.59-3.013a1.906,1.906,0,0,1,.062-3.043c.892-.908,1.692-1.9,2.565-2.832.486-.516.408-.795-.22-1.106a8.024,8.024,0,0,0-3.691-.8c-3.414.021-6.829.007-10.244.006m.8-25.894c-3.924,0-7.85.083-11.769-.038-1.774-.054-1.451.994-1.545,2.055-.108,1.215.318,1.521,1.511,1.512,6.98-.056,13.961-.014,20.942-.036a9.753,9.753,0,0,1,5.481,1.568C36.2,40.9,41.484,44.159,46.714,47.506a8.455,8.455,0,0,0,4.6,1.428c7.643.029,15.286.017,22.93.012.335,0,.87.154.944-.253a5.706,5.706,0,0,0-.038-2.866c-.247-.711-1.061-.435-1.638-.436q-10.012-.023-20.025-.008a11.428,11.428,0,0,1-6.351-1.83c-5.27-3.38-10.588-6.684-15.872-10.04a6.324,6.324,0,0,0-3.593-1.049c-3.77.047-7.541.017-11.312.017M41.972,18.257c-.856-.773-1.548-1.371-2.21-2-1.447-1.379-1.32-2.311.436-3.24-.8-.856-1.658-1.655-2.365-2.573-.827-1.073-.456-2.056.819-2.483.27-.09.635.036.8-.406A13.993,13.993,0,0,1,36.3,4.091c-.3-.475-.58-.7-.974-.065a16.13,16.13,0,0,1-3.253,3.617c2.454.832,2.694,1.775,1.01,3.6-.549.594-1.163,1.126-1.767,1.706,1.819,1,1.943,1.9.516,3.277-.686.664-1.4,1.3-2.25,2.082,1.093.173,2.031.33,2.248,1.433.206,1.049-.6,1.553-1.22,2.131-.7.652-1.437,1.264-2.255,1.979a21.464,21.464,0,0,0,4.929.766c.884.088,1.026-.287,1-1.033-.043-1.171.01-2.345-.017-3.517-.024-1.081.414-1.871,1.523-1.876s1.556.793,1.544,1.866c-.014,1.223-.006,2.447,0,3.67,0,.45-.092.945.659.895a22.632,22.632,0,0,0,5.251-.752c-.818-.719-1.549-1.337-2.253-1.985-.666-.612-1.492-1.163-1.2-2.278.267-1.036,1.21-1.079,2.193-1.351M69.623,35.067c-.873-1.282-1.646-2.3-2.286-3.389-.706-1.206-.122-2.2,1.274-2.366.31-.036.686.216.975-.2-.5-.725-1-1.422-1.464-2.149-.373-.588-.907-1.139-.67-1.943a1.832,1.832,0,0,1,1.83-1.229c-.5-.786-.93-1.414-1.3-2.076-1.23-2.19-.814-3.019,1.794-3.422a17.136,17.136,0,0,1-2.639-4.905,16.411,16.411,0,0,1-4.771,3.292c2.344,1.148,2.44,2.247.42,3.644-.689.477-1.424.889-2.149,1.338,1.453,1.511,1.337,2.326-.435,3.35-.777.449-1.57.872-2.406,1.335,2.319,1.485,2.286,2.528-.018,3.809-.82.456-1.655.886-2.651,1.417A28.967,28.967,0,0,0,59.943,33.5c.758.26.85-.086.974-.669.265-1.243.59-2.474.891-3.71.237-.973.813-1.583,1.852-1.347,1.123.255,1.361,1.1,1.113,2.137-.3,1.237-.568,2.48-.89,3.71-.144.549-.075.876.552.969a33.541,33.541,0,0,0,5.188.472" transform="translate(0 0)" fill="#040403"/>
        <path id="Trazado_728761" data-name="Trazado 728761" d="M69.026,153.493c-2.652,0-5.31-.117-7.953.028a18.827,18.827,0,0,1-10.13-2.242c-3.79-2.007-3.859-1.871-3.59-6.189.088-1.424.158-2.85.234-4.275a1.563,1.563,0,0,0-2.816-1.122c-1.567,1.745-3.157,3.47-4.689,5.245a1.145,1.145,0,0,1-1.691.344,13.385,13.385,0,0,0-7.224-1.516c-6.578.05-13.157-.017-19.734.047-1.237.012-1.517-.374-1.5-1.544.065-4.435.058-8.872,0-13.306-.013-1.058.275-1.379,1.355-1.372,7.19.047,14.38.033,21.57.017a5.94,5.94,0,0,1,3.3,1.019c5.246,3.334,10.535,6.6,15.758,9.968a12.217,12.217,0,0,0,6.794,1.947c7.343.009,14.687.028,22.029-.022,1.116-.008,1.484.236,1.455,1.416-.086,3.414-.077,6.832,0,10.247.024,1.107-.347,1.346-1.383,1.331-3.926-.057-7.853-.023-11.779-.023M28.945,136.346c-.9.151-1.53.613-1.524,1.577a1.365,1.365,0,0,0,1.417,1.464,1.382,1.382,0,0,0,1.6-1.43c.041-.967-.59-1.437-1.493-1.612m24.178,9.723a1.528,1.528,0,0,0-1.6-1.42,1.423,1.423,0,0,0-1.464,1.6,1.369,1.369,0,0,0,1.479,1.4c.98.011,1.455-.56,1.58-1.581M76.975,148.7a1.459,1.459,0,0,0-1.628-1.413,1.362,1.362,0,0,0-1.414,1.461,1.417,1.417,0,0,0,1.524,1.532,1.5,1.5,0,0,0,1.519-1.58m-37.2-9.627a1.441,1.441,0,0,0,1.449-1.6,1.365,1.365,0,0,0-1.431-1.446,1.418,1.418,0,0,0-1.552,1.5,1.469,1.469,0,0,0,1.534,1.539m-21.454-4.254a1.43,1.43,0,0,0,1.55-1.515,1.4,1.4,0,0,0-1.538-1.5,1.384,1.384,0,0,0-1.451,1.438,1.427,1.427,0,0,0,1.44,1.58m46.725,10.408c-.1-.937-.569-1.553-1.526-1.558a1.5,1.5,0,0,0-.1,3.007c.957.053,1.463-.537,1.627-1.449" transform="translate(-6.891 -88.53)" fill="#c48864"/>
        <path id="Trazado_728762" data-name="Trazado 728762" d="M22.366,190.613c3.414,0,6.829.014,10.244-.007a8.024,8.024,0,0,1,3.69.8c.629.311.706.589.22,1.105-.873.928-1.673,1.925-2.565,2.832a1.905,1.905,0,0,0-.063,3.043c.909.961,1.7,2.035,2.59,3.012a1.121,1.121,0,0,1,.141,1.606,1.222,1.222,0,0,0-.077.132c-.778,1.43-1.225,3.4-2.427,4.138s-3.157.255-4.783.258q-9.021.019-18.042,0c-.481,0-1.139.191-1.316-.457a4.155,4.155,0,0,1,.022-2.4c.118-.353.642-.186.984-.188,2.089-.012,4.179-.025,6.269,0,1.106.014,2.022-.31,2.03-1.53s-.895-1.565-2.008-1.551c-2.038.027-4.079-.035-6.115.026-.945.029-1.34-.168-1.31-1.231.078-2.75.073-5.5,0-8.254-.027-1.058.267-1.391,1.351-1.372,3.719.065,7.441.025,11.161.025m3.8,12.355c-.066-.961-.568-1.541-1.531-1.517a1.509,1.509,0,1,0,1.531,1.517" transform="translate(-6.81 -132.239)" fill="#858fae"/>
        <path id="Trazado_728763" data-name="Trazado 728763" d="M23.209,106c3.771,0,7.542.031,11.312-.017a6.325,6.325,0,0,1,3.592,1.049c5.285,3.356,10.6,6.661,15.872,10.04a11.427,11.427,0,0,0,6.351,1.83q10.012-.008,20.025.009c.577,0,1.391-.275,1.638.436a5.708,5.708,0,0,1,.038,2.867c-.074.407-.609.253-.944.253-7.643.006-15.287.017-22.93-.012a8.45,8.45,0,0,1-4.6-1.428c-5.23-3.347-10.514-6.609-15.739-9.965a9.753,9.753,0,0,0-5.48-1.568c-6.981.022-13.962-.021-20.942.036-1.193.01-1.619-.3-1.511-1.511.094-1.061-.229-2.109,1.545-2.055,3.92.12,7.846.037,11.77.037" transform="translate(-6.855 -73.521)" fill="#cc9d81"/>
        <path id="Trazado_728764" data-name="Trazado 728764" d="M131.905,210.778a18.058,18.058,0,0,1,3.891,1.728,16.347,16.347,0,0,0,7.95,1.79c7.138-.058,14.278.016,21.416-.051,1.3-.012,1.666.368,1.575,1.618a43.08,43.08,0,0,0-.013,4.433c.028.907-.288,1.274-1.233,1.271q-13.309-.034-26.618,0c-.57,0-1.067-.058-1.049-.747.084-3.148-2.14-5.023-3.885-7.178a13.831,13.831,0,0,1-2.154-2.743l.119-.117" transform="translate(-91.44 -146.249)" fill="#848dac"/>
        <path id="Trazado_728765" data-name="Trazado 728765" d="M106.22,26.5c-.983.272-1.926.316-2.193,1.351-.287,1.115.539,1.666,1.2,2.279.7.648,1.435,1.267,2.253,1.985a22.631,22.631,0,0,1-5.251.752c-.751.05-.657-.445-.659-.895-.005-1.223-.014-2.446,0-3.67.013-1.073-.434-1.87-1.544-1.866s-1.548.795-1.523,1.876c.027,1.172-.027,2.346.017,3.516.028.746-.114,1.122-1,1.033a21.463,21.463,0,0,1-4.929-.766c.818-.715,1.555-1.327,2.255-1.979.622-.578,1.426-1.083,1.22-2.131-.216-1.1-1.155-1.26-2.248-1.433.85-.784,1.564-1.419,2.25-2.082,1.428-1.381,1.3-2.275-.516-3.277.6-.58,1.218-1.113,1.767-1.706,1.685-1.824,1.444-2.767-1.01-3.6a16.136,16.136,0,0,0,3.253-3.617c.394-.636.67-.41.974.064a13.988,13.988,0,0,0,3.154,3.461c-.162.441-.527.315-.8.406-1.275.427-1.646,1.41-.819,2.483.708.918,1.569,1.718,2.365,2.573-1.756.93-1.883,1.861-.436,3.24.662.631,1.354,1.229,2.21,2" transform="translate(-64.248 -8.239)" fill="#c6df56"/>
        <path id="Trazado_728766" data-name="Trazado 728766" d="M194.557,65.4a33.54,33.54,0,0,1-5.188-.472c-.627-.094-.7-.42-.552-.969.322-1.23.595-2.473.89-3.71.248-1.038.009-1.883-1.113-2.137-1.038-.236-1.615.374-1.852,1.347-.3,1.236-.626,2.466-.891,3.71-.124.583-.216.929-.974.669a28.967,28.967,0,0,1-4.818-1.934c1-.531,1.831-.961,2.651-1.417,2.3-1.281,2.337-2.324.018-3.809.837-.463,1.629-.886,2.406-1.335,1.772-1.024,1.887-1.839.435-3.35.725-.448,1.459-.861,2.149-1.338,2.02-1.4,1.924-2.5-.42-3.644a16.411,16.411,0,0,0,4.771-3.292,17.136,17.136,0,0,0,2.639,4.905c-2.608.4-3.024,1.231-1.794,3.422.372.663.807,1.29,1.3,2.076a1.832,1.832,0,0,0-1.83,1.229c-.238.8.3,1.355.67,1.943.46.727.967,1.425,1.464,2.149-.289.419-.665.166-.975.2-1.4.162-1.98,1.16-1.274,2.366.64,1.093,1.413,2.108,2.286,3.389" transform="translate(-124.934 -30.336)" fill="#c5df55"/>
        <path id="Trazado_728767" data-name="Trazado 728767" d="M131.394,210.536c-.061-.06-.181-.164-.173-.175.13-.179.219-.092.291.059l-.118.116" transform="translate(-91.048 -145.89)" fill="#848dac"/>
        <path id="Trazado_728768" data-name="Trazado 728768" d="M68.585,156.185c.9.174,1.534.644,1.492,1.612a1.382,1.382,0,0,1-1.6,1.43,1.365,1.365,0,0,1-1.417-1.465c-.006-.964.623-1.426,1.524-1.577" transform="translate(-46.53 -108.369)" fill="#0b0805"/>
        <path id="Trazado_728769" data-name="Trazado 728769" d="M144.075,184.723c-.125,1.021-.6,1.592-1.58,1.581a1.369,1.369,0,0,1-1.479-1.4,1.424,1.424,0,0,1,1.464-1.6,1.527,1.527,0,0,1,1.6,1.42" transform="translate(-97.842 -127.184)" fill="#0b0805"/>
        <path id="Trazado_728770" data-name="Trazado 728770" d="M222.024,193.325a1.5,1.5,0,0,1-1.519,1.58,1.418,1.418,0,0,1-1.524-1.532,1.362,1.362,0,0,1,1.414-1.461,1.459,1.459,0,0,1,1.628,1.413" transform="translate(-151.94 -133.156)" fill="#090604"/>
        <path id="Trazado_728771" data-name="Trazado 728771" d="M103.935,158.194a1.469,1.469,0,0,1-1.534-1.538,1.418,1.418,0,0,1,1.552-1.5,1.365,1.365,0,0,1,1.431,1.446,1.441,1.441,0,0,1-1.449,1.6" transform="translate(-71.051 -107.652)" fill="#0a0705"/>
        <path id="Trazado_728772" data-name="Trazado 728772" d="M34.072,144.357a1.427,1.427,0,0,1-1.44-1.58,1.385,1.385,0,0,1,1.452-1.438,1.4,1.4,0,0,1,1.538,1.5,1.43,1.43,0,0,1-1.55,1.515" transform="translate(-22.641 -98.068)" fill="#090604"/>
        <path id="Trazado_728773" data-name="Trazado 728773" d="M183.056,181.662c-.164.913-.67,1.5-1.627,1.449a1.5,1.5,0,0,1,.1-3.007c.957,0,1.431.621,1.526,1.558" transform="translate(-124.901 -124.965)" fill="#0a0705"/>
        <path id="Trazado_728774" data-name="Trazado 728774" d="M56.394,227.587a1.507,1.507,0,1,1-1.531-1.517c.963-.024,1.465.556,1.531,1.517" transform="translate(-37.038 -156.858)" fill="#07080a"/>
      </g>
    </g>
  </g>
</svg>
