<svg id="Grupo_987286" data-name="Grupo 987286" xmlns="http://www.w3.org/2000/svg" xmlns:xlink="http://www.w3.org/1999/xlink" width="154.59" height="188.063" viewBox="0 0 154.59 188.063">
  <defs>
    <clipPath id="clip-path">
      <rect id="Rectángulo_346387" data-name="Rectángulo 346387" width="154.59" height="188.063" fill="none"/>
    </clipPath>
  </defs>
  <g id="Grupo_987285" data-name="Grupo 987285" clip-path="url(#clip-path)">
    <path id="Trazado_728606" data-name="Trazado 728606" d="M71.666,63.539c0,12.464.088,24.929-.064,37.391a8.008,8.008,0,0,0,3.227,7.007,45.154,45.154,0,0,1,14.089,48.2,46,46,0,0,1-39.046,31.716,45.743,45.743,0,0,1-46.255-27.63,45.045,45.045,0,0,1,12.556-52.281,8.024,8.024,0,0,0,3.113-7.039q-.15-36.994-.014-73.988C19.325,16.577,23.808,8.435,32.979,3.43c8.846-4.827,17.879-4.561,26.428.811,7.824,4.916,12.075,12.207,12.2,21.509.17,12.594.042,25.192.042,37.789ZM48.645,10.321a6.742,6.742,0,0,0-1.478-.485C36.858,8.924,28.855,16.6,28.832,27.608q-.084,39.109.029,78.219a8,8,0,0,1-3.662,7.284c-12.554,9.1-17.5,21.5-14.76,36.742,2.569,14.3,15.99,26.816,29.416,27.8,8.469,2.027,16.355.092,23.615-4.145a35.8,35.8,0,0,0,2.61-60.333c-2.095-1.5-4.089-2.88-4.011-5.9.068-2.625.787-5.938-.5-7.7-1.428-1.968-4.943-.409-7.525-.739-2.727-.349-4.5-1.845-4.573-4.6-.075-2.963,1.733-4.632,4.652-4.89a34.579,34.579,0,0,1,5.162-.024c1.9.118,3-.3,2.84-2.561-.21-2.894.766-6.361-.522-8.55-1.224-2.081-4.9-.509-7.476-.783-2.774-.3-4.534-1.739-4.662-4.479-.138-2.956,1.644-4.7,4.543-5.007a55.812,55.812,0,0,1,5.956-.071c1.148,0,2.144-.125,2.112-1.64-.066-3.173.746-6.731-.445-9.4-.953-2.133-4.6-.445-7.019-.841a3.291,3.291,0,0,0-.4-.013c-2.806-.117-4.561-1.615-4.743-4.351-.2-2.971,1.594-4.724,4.462-5.086a50.759,50.759,0,0,1,5.952-.107c1.105-.009,2.209-.015,2.183-1.572-.053-3.172.741-6.723-.442-9.4-.963-2.179-4.595-.459-7-.876a3.121,3.121,0,0,0-.4-.018c-2.8-.122-4.57-1.59-4.76-4.339-.206-2.995,1.619-4.688,4.481-5.062a30.042,30.042,0,0,1,5.55-.111c2.329.131,2.568-.761,2.043-2.841a15.976,15.976,0,0,0-12.9-11.9" transform="translate(0 0)" fill="#384952"/>
    <path id="Trazado_728607" data-name="Trazado 728607" d="M178.568,91.8a30.458,30.458,0,1,1-60.9.029c.138-9.789,3.014-19.051,5.924-28.258a395.485,395.485,0,0,1,14.95-38.858c1.745-4,4.652-6.381,9.1-6.54,4.428-.158,7.791,1.8,9.531,5.832,8.6,19.921,17.025,39.913,20.741,61.483.358,2.081.447,4.207.661,6.312M165.657,74.63c-.9-5.514-2.964-10.687-4.813-15.909C157.153,48.3,153.011,38.049,148.16,27.4a38.483,38.483,0,0,0-4.029,9.1c-5.538,12.328-10.454,24.881-13.723,38.028-2.213,6.527-3.581,13.2-3.049,20.125.982,12.743,14.107,21.467,26.313,17.576A19.987,19.987,0,0,0,168.8,94.046a51.687,51.687,0,0,0-3.139-19.416" transform="translate(-23.978 -3.701)" fill="#394a52"/>
    <path id="Trazado_728608" data-name="Trazado 728608" d="M55.573,12.962a15.979,15.979,0,0,1,12.9,11.907c.525,2.079.286,2.972-2.043,2.84a30.113,30.113,0,0,0-5.55.112c-2.862.373-4.687,2.067-4.481,5.061.189,2.749,1.964,4.217,4.76,4.339a3.121,3.121,0,0,1,.4.018c2.407.416,6.038-1.3,7,.876,1.183,2.674.389,6.225.442,9.4.025,1.557-1.078,1.564-2.183,1.572a50.933,50.933,0,0,0-5.952.107C58,49.552,56.205,51.3,56.4,54.275c.182,2.737,1.937,4.234,4.743,4.352a3.291,3.291,0,0,1,.4.012c2.416.4,6.066-1.291,7.019.841,1.191,2.666.38,6.225.445,9.4.032,1.514-.963,1.642-2.112,1.639a55.587,55.587,0,0,0-5.955.072c-2.9.306-4.682,2.05-4.544,5.007.128,2.74,1.888,4.183,4.663,4.479,2.579.274,6.252-1.3,7.476.783,1.287,2.189.311,5.655.521,8.55.164,2.26-.936,2.678-2.84,2.561a34.472,34.472,0,0,0-5.162.024c-2.92.258-4.727,1.928-4.652,4.89.069,2.752,1.846,4.248,4.573,4.6,2.582.33,6.1-1.229,7.525.739,1.281,1.766.562,5.079.5,7.7-.078,3.016,1.916,4.394,4.011,5.9a35.8,35.8,0,0,1-2.61,60.333c-7.26,4.237-15.146,6.172-23.616,4.145a39.041,39.041,0,0,1-2.828-3.273c-1.761-2.535-4.683-4.287-5.219-7.653a29.459,29.459,0,0,0,13.619,3.515c18.041-.241,30.689-16.782,26.838-32.306.28-5.054-3.93-6.5-7.124-8.6-5.712-3.752-13.906-3.7-18.961,1.358-6.012-3.613-12.246-5.5-19.116-2.47,1.52-8.717,7.04-14.971,13.3-20.512a8.9,8.9,0,0,0,3.46-7.419c-.075-24.394.063-48.79-.113-73.182a28.51,28.51,0,0,1,4.94-16.794" transform="translate(-6.927 -2.641)" fill="#6dbdfd"/>
    <path id="Trazado_728609" data-name="Trazado 728609" d="M34.291,169.225c.537,3.366,3.458,5.118,5.22,7.653a38.9,38.9,0,0,0,2.828,3.273c-13.426-.983-26.847-13.495-29.416-27.8-2.737-15.243,2.206-27.637,14.761-36.742a7.993,7.993,0,0,0,3.661-7.284q-.131-39.109-.029-78.219c.023-11.008,8.027-18.684,18.337-17.771a6.8,6.8,0,0,1,1.478.485,28.5,28.5,0,0,0-4.94,16.793c.176,24.393.038,48.788.114,73.182a8.9,8.9,0,0,1-3.461,7.419c-6.256,5.541-11.775,11.8-13.3,20.513l-1.67,1.523c-3.1,1.409-5.955,3.364-6.843,6.719-2.7,10.207,1.661,22.018,10.154,27.59l3.1,2.665" transform="translate(-2.484 -2.499)" fill="#4badfb"/>
    <path id="Trazado_728610" data-name="Trazado 728610" d="M156.125,126.52c-12.206,3.891-25.332-4.833-26.312-17.576-.533-6.921.835-13.6,3.049-20.125l3.292,1.975c.366,1.88,1.881,2.611,3.427,2.86,4.1.661,6.85-1.841,9.494-4.445,3.686-.252,7.336-1.717,11.072-.344l.94.708c-.395,4.147,1.049,8.082,1.7,12.064,1.55,9.454-1.516,17.377-6.663,24.884" transform="translate(-26.431 -17.991)" fill="#e0f2fb"/>
    <path id="Trazado_728611" data-name="Trazado 728611" d="M160.956,79.267c-3.737-1.373-7.386.092-11.072.342-4.639-2.167-8.787-.348-12.921,1.587l-3.292-1.974c3.268-13.148,8.184-25.7,13.723-38.029,6.09,12.132,10.135,24.993,13.563,38.073" transform="translate(-27.24 -8.395)" fill="#6cbcfd"/>
    <path id="Trazado_728612" data-name="Trazado 728612" d="M164.469,76.939C161.041,63.859,157,51,150.906,38.866a38.465,38.465,0,0,1,4.029-9.1c4.851,10.645,8.993,20.891,12.684,31.317,1.849,5.222,3.909,10.4,4.813,15.909-2.121,2.592-4.639.9-7.023.651l-.941-.708" transform="translate(-30.753 -6.067)" fill="#4badfb"/>
    <path id="Trazado_728613" data-name="Trazado 728613" d="M167.852,89.734c2.384.25,4.9,1.942,7.023-.65a51.685,51.685,0,0,1,3.139,19.415,19.989,19.989,0,0,1-15.123,18.183c5.147-7.506,8.214-15.429,6.663-24.883-.653-3.982-2.1-7.918-1.7-12.065" transform="translate(-33.195 -18.154)" fill="#ace0fa"/>
    <path id="Trazado_728614" data-name="Trazado 728614" d="M37.955,199.158l-3.1-2.665a21.166,21.166,0,0,0-.821-3.427,44.619,44.619,0,0,1-3.22-25.446c.314-1.79,1.231-3.53.73-5.437l1.67-1.523c6.87-3.035,13.1-1.144,19.115,2.468,3.373,4.543,7.793,7.93,13.455,6.011,4.756-1.612,8.633-1.447,12.63,1.227,3.85,15.525-8.8,32.065-26.838,32.306a29.46,29.46,0,0,1-13.62-3.515" transform="translate(-6.149 -32.432)" fill="#e0f3fc"/>
    <path id="Trazado_728615" data-name="Trazado 728615" d="M84.084,170.362c-4-2.673-7.875-2.839-12.63-1.227-5.663,1.92-10.082-1.468-13.454-6.011,5.055-5.061,13.249-5.109,18.961-1.358,3.194,2.1,7.4,3.541,7.124,8.6" transform="translate(-11.819 -32.427)" fill="#ade2fd"/>
    <path id="Trazado_728616" data-name="Trazado 728616" d="M29.937,162.961c.5,1.907-.416,3.647-.73,5.437a44.613,44.613,0,0,0,3.221,25.446,21.227,21.227,0,0,1,.82,3.427c-8.493-5.572-12.856-17.384-10.154-27.59.889-3.355,3.739-5.311,6.843-6.719" transform="translate(-4.544 -33.209)" fill="#ace1fd"/>
    <path id="Trazado_728617" data-name="Trazado 728617" d="M137.806,90.777c4.134-1.935,8.282-3.755,12.921-1.587-2.643,2.606-5.4,5.107-9.493,4.447-1.547-.249-3.061-.98-3.428-2.86" transform="translate(-28.083 -17.975)" fill="#ade1fd"/>
  </g>
</svg>
