<svg id="Grupo_987302" data-name="Grupo 987302" xmlns="http://www.w3.org/2000/svg" xmlns:xlink="http://www.w3.org/1999/xlink" width="157.955" height="180.633" viewBox="0 0 157.955 180.633">
  <defs>
    <clipPath id="clip-path">
      <rect id="Rectángulo_346395" data-name="Rectángulo 346395" width="157.954" height="180.633" fill="none"/>
    </clipPath>
  </defs>
  <g id="Grupo_987301" data-name="Grupo 987301" clip-path="url(#clip-path)">
    <path id="Trazado_728681" data-name="Trazado 728681" d="M39.1,176.466c-5.357-14-3.1-26.524,6.958-37.741,8.745-9.75,17.294-19.677,25.881-29.567.883-1.017,1.367-2.279,2.95-.87,6.545,5.828,13.131,11.608,19.689,17.421.14.125.112.441.163.668-1.5,2.957-3.912,5.161-6.277,7.368-1.626,1.516-1.809,2.749-.053,4.294,2.425,2.133,4.726,4.406,7.079,6.62L84.172,158.082c-11.9,1.368-22.1,5.935-29.491,15.755a2.836,2.836,0,0,1-2.736,1.221c-4.379-.443-8.626.37-12.846,1.408" transform="translate(-10.703 -31.76)" fill="#cdcdcd"/>
    <path id="Trazado_728682" data-name="Trazado 728682" d="M32.822,197.564c4.22-1.038,8.466-1.851,12.846-1.408a2.836,2.836,0,0,0,2.736-1.221c7.388-9.821,17.586-14.387,29.491-15.755l2.116.222q-.005,21.721-.011,43.442l-65-.066c.565-12.205,7.145-20.158,17.822-25.214" transform="translate(-4.425 -52.858)" fill="#e99b58"/>
    <path id="Trazado_728683" data-name="Trazado 728683" d="M107.2,222.937q.005-21.721.011-43.443c11.661.059,21.558,4.322,29.112,13.16,2.655,3.106,5.354,4.094,9.063,3.408,15.461,1.471,25.667,11.738,26.716,26.877l-64.889.1-.013-.1" transform="translate(-31.623 -52.95)" fill="#d78a55"/>
    <path id="Trazado_728684" data-name="Trazado 728684" d="M201.142,57.3c8.916,8.731,9.38,22.009,1.025,31.64-4.983,5.744-10.077,11.391-15.121,17.081-1.467.059-2.291-1.082-3.206-1.887-4.611-4.057-9.145-8.2-13.707-12.312A5.116,5.116,0,0,1,171.59,88.7q13.2-14.693,26.451-29.344c.838-.926,1.6-2.083,3.1-2.059" transform="translate(-50.189 -16.903)" fill="#53d060"/>
    <path id="Trazado_728685" data-name="Trazado 728685" d="M193.789,54.532c-1.5-.024-2.264,1.133-3.1,2.059q-13.256,14.645-26.451,29.344a5.116,5.116,0,0,0-1.456,3.118c-.221,0-.441-.013-.662-.029-5.2-5.634-11.339-10.247-16.912-15.475,5.549-6.334,10.827-12.933,16.71-18.941,8.8-8.988,22.693-8.817,31.872-.077" transform="translate(-42.836 -14.137)" fill="#7fe580"/>
    <path id="Trazado_728686" data-name="Trazado 728686" d="M10.575,241.023l65,.066.012.1,0,10.406q-36.523.058-73.046.139c-1.57,0-2.219-.364-2.333-2.121-.551-8.423-.612-8.415,7.56-8.473.936-.007,1.87-.077,2.8-.117" transform="translate(0 -71.101)" fill="#c47a44"/>
    <path id="Trazado_728687" data-name="Trazado 728687" d="M107.218,251.623q0-5.2,0-10.406l64.889-.1c2.576.019,5.156.141,7.725.023,1.9-.087,2.306.7,2.379,2.454.336,8.148.388,8.156-7.548,8.144q-33.721-.051-67.443-.116" transform="translate(-31.628 -71.129)" fill="#ad6f41"/>
    <path id="Trazado_728688" data-name="Trazado 728688" d="M144.5,189.792c-3.709.685-6.408-.3-9.063-3.409-7.554-8.837-17.451-13.1-29.112-13.16L104.213,173,115.53,159.58a87.351,87.351,0,0,1,6.781,5.961c1.828,1.949,2.9,1.748,4.715-.079,2.4-2.424,3.764-5.93,7.278-7.222,7.365,5.128,13.473,11.745,20.475,17.3,1.258,1,.412,1.765-.3,2.593q-5.008,5.81-9.974,11.657" transform="translate(-30.743 -46.68)" fill="#bebebe"/>
    <path id="Trazado_728689" data-name="Trazado 728689" d="M135.558,146.715c-3.514,1.292-4.876,4.8-7.278,7.222-1.81,1.827-2.887,2.029-4.715.079a87.067,87.067,0,0,0-6.781-5.96c-2.353-2.214-4.654-4.487-7.078-6.62-1.756-1.545-1.573-2.778.052-4.295,2.365-2.207,4.775-4.411,6.277-7.368a35.28,35.28,0,0,0,7.347-7.493,30.707,30.707,0,0,1,3.2-3.107c.852.079,1.407.734,2.105,1.072,3.055,1.484,4.441,5.037,7.759,6.148,2.914,2.809,6.4,5.026,8.7,8.472q-3.936,4.46-7.868,8.924c-.754.861-1.765,1.588-1.719,2.926" transform="translate(-31.996 -35.156)" fill="#8f8f8f"/>
    <path id="Trazado_728690" data-name="Trazado 728690" d="M83.37.225c6.492,0,7,.755,4.7,6.339a17.218,17.218,0,0,1-1.8,3.412c-2.575,3.624-2.312,7.032.073,10.728,3.983,6.175,4.048,12.665.139,18.87-2.491,3.954-2.815,7.573-.01,11.369a7.413,7.413,0,0,1,.564.891c1.342,2.5,3.282,6.106,1.606,7.737-2.028,1.975-6,.551-9.128.563a1.361,1.361,0,0,1-.852-.524,21.174,21.174,0,0,1-1.713-24.551,8.159,8.159,0,0,0-.058-9.53q-6.605-10.2-.03-20.429a2.873,2.873,0,0,0,.522-.91C78.058.327,80.558-.47,83.37.225" transform="translate(-21.707 0)" fill="#81e582"/>
    <path id="Trazado_728691" data-name="Trazado 728691" d="M141.34,116.1c-3.318-1.111-4.7-4.664-7.759-6.147-.7-.339-1.253-.994-2.105-1.073-.823-2.883-3.476-4.235-5.32-6.248-1.095-1.194-1.659-2.047-.372-3.45,4.526-4.936,8.988-9.932,13.474-14.905,5.573,5.228,11.709,9.841,16.912,15.476-5.323,5.106-9.926,10.864-14.83,16.348" transform="translate(-36.888 -24.86)" fill="#e6e6e6"/>
    <path id="Trazado_728692" data-name="Trazado 728692" d="M47.8,93.345c-2.854.909-4.181-.833-5.924-3.741-4.606-7.683-4.989-14.88.087-22.364a6.791,6.791,0,0,0-.189-8.229A19.646,19.646,0,0,1,38.5,51.669,5.565,5.565,0,0,1,38.5,48.9c.376-1.094,9.8-1.031,10.208.106,1.668,4.679,5.4,8.557,5.112,14.021-.183,3.492-.766,6.79-2.788,9.642-2.611,3.682-3.022,7.209-.145,10.966a17.105,17.105,0,0,1,2.625,6.107c.723,2.694.015,4.069-3.014,3.617a22.3,22.3,0,0,0-2.693-.015" transform="translate(-11.295 -14.194)" fill="#80e581"/>
    <path id="Trazado_728693" data-name="Trazado 728693" d="M148.159,122.572c4.9-5.484,9.508-11.243,14.83-16.348q.331.022.662.028c4.561,4.112,9.1,8.256,13.707,12.312.915.805,1.738,1.946,3.206,1.887-4.5,5.053-9.049,10.058-13.463,15.182-1.533,1.781-2.778,1.573-4.413.247-1.963-1.59-3.17-4.1-5.832-4.837-2.293-3.445-5.782-5.663-8.7-8.472" transform="translate(-43.706 -31.336)" fill="#cdcdcd"/>
    <path id="Trazado_728694" data-name="Trazado 728694" d="M113.107,51.641c-6.549,0-7.52-.767-4.5-5.968,3.727-6.42,4.439-12.02-.177-18a4.444,4.444,0,0,1-.549-1.656c-1.07-4.408-.958-4.359,3.509-4.595,3.817-.2,6.207.284,8.314,4.477,3.738,7.441,4.148,14.046-.085,21.285-1.76,3.009-2.919,5.8-6.511,4.457" transform="translate(-31.556 -6.308)" fill="#55d162"/>
  </g>
</svg>
