<svg id="Grupo_987306" data-name="Grupo 987306" xmlns="http://www.w3.org/2000/svg" xmlns:xlink="http://www.w3.org/1999/xlink" width="168.561" height="168.492" viewBox="0 0 168.561 168.492">
  <defs>
    <clipPath id="clip-path">
      <rect id="Rectángulo_346397" data-name="Rectángulo 346397" width="168.561" height="168.492" fill="none"/>
    </clipPath>
  </defs>
  <g id="Grupo_987305" data-name="Grupo 987305" clip-path="url(#clip-path)">
    <path id="Trazado_728695" data-name="Trazado 728695" d="M5.417,81.6C4.983,83.26,4.082,84.5,2.2,84.124.361,83.761.016,82.285.032,80.592.081,75.548-.045,70.5.077,65.459A13.1,13.1,0,0,1,12.931,52.651c1.643-.053,3.3.1,4.931-.051,1.071-.1,2.575.79,3.159-.657.634-1.572-.481-2.5-1.735-3.405a20.394,20.394,0,0,1-8.424-13.589,37.6,37.6,0,0,1-.28-4.913c-.067-1.762.476-3.661-1.878-4.613-1-.4-.74-1.71-.761-2.691A22.489,22.489,0,0,1,28.983.028c12.179-.585,22.726,8.4,23.6,20.362a85.557,85.557,0,0,1-.02,13.147A19.882,19.882,0,0,1,43.8,48.66c-1.211.854-1.994,1.747-1.591,3.187.445,1.586,1.843.719,2.768.748,3.506.109,7.025-.1,10.524.1,2.1.118,2.507-.574,2.5-2.554-.086-15.133-.05-30.266-.045-45.4C57.957.383,58.327,0,62.618,0Q113.284,0,163.951,0c4.107,0,4.548.437,4.549,4.519q.01,37.669,0,75.338c0,3.861-.5,4.36-4.38,4.361q-50.831.01-101.662,0c-4.066,0-4.488-.445-4.5-4.568-.009-2.742-.1-5.488.03-8.223.091-1.979.009-3.13-2.636-3.114-2.555.015-2.794,1-2.694,3.064.15,3.063,0,6.14.055,9.209.03,1.693-.329,3.172-2.17,3.533-1.877.368-2.786-.858-3.215-2.523.034-4.928.148-9.857.07-14.783-.043-2.693,1.076-3.744,3.732-3.68,4.27.1,8.55.14,12.818-.018,7.952-.292,14.729-7,15.047-14.662.077-1.847-.321-3.453-2.385-3.627s-2.667,1.261-2.9,3.159c-.788,6.372-4.857,9.886-11.32,9.911s-12.929.011-19.393-.005c-1.316,0-2.607-.137-3.535,1.146-1.366,1.888-3.018,1.766-4.89.683-1.366-.791-2.721-1.944-4.51-.726-2.5,1.7-4.955,2.375-7.046-.694-.418-.614-1.211-.384-1.845-.389-2.629-.02-5.261-.074-7.888.009a7.776,7.776,0,0,0-7.928,7.907c-.086,5.255.038,10.513.07,15.77M44.839,24.245c-2.057-2.856-4.732-2.192-7.338-1.144-5.4,2.171-10.885,3.851-16.774,3.9-5.111.046-5.2.083-4.843,5.275.442,6.437,3.622,11.171,9.562,13.716,5.781,2.477,11.262,1.8,16.1-2.472,4.367-3.155,5.77-7.644,5.89-12.784.06-2.588.042-5.034-2.6-6.495m68.31,54.713c15.566,0,31.133-.063,46.7.063,2.6.02,3.484-.411,3.466-3.291q-.211-33.706-.026-67.413c.009-2.328-.373-3.124-2.964-3.115Q113.3,5.361,66.268,5.2c-2.774-.011-3.11.948-3.093,3.316.1,13.482.027,26.965.084,40.448,0,1.184-.772,3.142.605,3.44,1.766.381,3.25-1.055,4.018-2.773a8.864,8.864,0,0,0,.588-2.519c.593-4.82,4.159-7.992,8.6-7.6,4.3.376,7.3,3.98,7.207,8.651-.171,8.731-6.568,16.924-15.1,19.48-1.947.584-4.826-.159-5.7,1.469-.917,1.707,0,4.308-.308,6.456-.449,3.107.918,3.479,3.613,3.457,15.456-.125,30.913-.061,46.369-.061M19.3,21.654a16.928,16.928,0,0,0,3.6-.036c6.924-1.542,14.837-1.251,17.813-10.048.643-1.9.339-2.642-1.156-3.612a17.124,17.124,0,0,0-24.443,6.65c-3.226,6.312-2.744,7.134,4.184,7.047M45.257,14.63c-1.792,2.845-1.792,2.845,1.684,3.485-.57-1.241-.609-2.574-1.684-3.485m-15.1,38.238c-1.293-.069-2.488-1.681-3.757-.223a1.592,1.592,0,0,0,.13,1.518c1.587.858,2.4-.782,3.628-1.295m3.047.051c1.2.446,2.007,1.953,3.448,1.4a1.982,1.982,0,0,0,.186-1.792c-1.166-1.155-2.339.214-3.634.4" transform="translate(-0.007 0)" fill="#030202"/>
    <path id="Trazado_728696" data-name="Trazado 728696" d="M202.212,216.181c-7.448,0-14.9-.088-22.344.043-3,.053-4.224-1.081-4.02-4.06.143-2.071,0-4.16.034-6.241a10.515,10.515,0,0,1,10.778-10.8,6.14,6.14,0,0,0,1.635-.028c1.109-.346,3.059.992,3.246-.891.182-1.838,1-3.981-1.318-5.592-6.427-4.467-9.273-10.8-9.1-18.593.089-3.941-.036-7.887.026-11.829a18.42,18.42,0,0,1,18.12-18.323c4.16-.083,8.326.063,12.485-.044,2.727-.07,3.856,1.159,3.6,3.771-.274,2.745.005,4.83,3.192,6.091a7.7,7.7,0,0,1,4.517,6.84c.364,6.11.676,12.277-.153,18.361a19.2,19.2,0,0,1-8.7,13.719c-2.48,1.657-1.223,3.906-1.382,5.912-.064.808.992.578,1.594.594,1.2.033,2.41-.018,3.614.016,5.138.146,9.491,3.506,10.226,8.492a56.39,56.39,0,0,1,.195,10.159c-.076,2.14-1.761,2.426-3.57,2.417-7.558-.035-15.116-.015-22.673-.014m5.231-70.957c-2.738-.032-5.478-.155-8.213-.074a12.9,12.9,0,0,0-12.074,9.052c-1.58,5.347-.538,10.886-.634,16.339-.01.553.571,1.155.962,1.67a18.506,18.506,0,0,0,27.979,1.394c1.351-1.138,2.591-2.281,2.547-4.309-.078-3.6-.014-7.209-.028-10.814-.01-2.6-1.242-4.871-3.709-5.1-4.05-.385-4.554-2.654-4.17-5.829.261-2.151-.725-2.749-2.66-2.323m-5.33,65.687v-.025c6.236,0,12.471.026,18.706-.031.829-.008,1.933.557,2.395-.935,1.645-5.311-1.345-9.52-6.888-9.527q-13.62-.019-27.241,0c-6.624,0-7.992,1.517-8,8.112,0,2.178.782,2.478,2.653,2.447,6.125-.1,12.252-.038,18.379-.038m9.4-27.812c-3.691.837-6.846,1.6-10.14,1.5s-6.4-1.086-9.781-2.15c4.681,5.893,15.267,6.376,19.921.651M202,195.143c1.3,0,2.614-.086,3.908.021,1.717.142,1.582-.935,1.591-2.068.013-1.417-.792-1.219-1.717-1.014a16.88,16.88,0,0,1-7.11.022c-.855-.175-1.777-.547-1.769.926.006,1.071-.254,2.26,1.514,2.129,1.188-.088,2.388-.017,3.583-.016" transform="translate(-60.026 -47.733)" fill="#030202"/>
    <path id="Trazado_728697" data-name="Trazado 728697" d="M26.263,216.178c-7.449,0-14.9-.07-22.345.036-2.794.04-4.075-.971-3.9-3.837.125-2.073,0-4.161.028-6.242.082-6.529,4.423-10.914,10.891-11.019a8.828,8.828,0,0,0,1.639-.02c1.076-.225,2.959.715,3.088-.683.168-1.828,1.187-4.031-1.124-5.649-6.627-4.643-9.578-11.153-9.231-19.191.188-4.364-.464-8.756.506-13.1a21.028,21.028,0,0,1,41.6,4.091c.06,3.5.021,7.01.01,10.515-.023,7.156-2.794,13.086-8.632,17.167-2.558,1.787-1.714,3.917-1.849,6.047-.063.98.818.8,1.435.812,1.314.019,2.63-.03,3.943.014a10.5,10.5,0,0,1,10.35,10.226c.092,2.407-.064,4.822.041,7.228.119,2.729-1.158,3.661-3.773,3.631-7.557-.086-15.116-.03-22.673-.03m17.865-15.133c-1.108-1.048-2.491-.636-3.759-.64-8.979-.035-17.958-.019-26.936-.018-6.909,0-8.425,1.673-8.172,8.588.059,1.631.563,1.973,2.073,1.963,12.48-.088,24.96-.1,37.44-.137.892-.052,2,.649,2.594-.515,1.333-2.63-.512-7.791-3.24-9.24m-2.041-36.419c0-1.372.095-2.8-.016-4.218-.539-6.868-4-11.717-10.382-14.283-5.885-2.366-12.554-.557-17.058,4.315-4,4.331-3.767,9.674-4.189,15.074-.467,5.983,2.686,9.046,7.139,11.72,8.879,5.331,27.375-.107,24.506-12.608M35.6,183.008a34.287,34.287,0,0,1-9.921,1.593c-3.362-.037-6.491-1.182-10.1-2.1,5.721,5.96,15.952,6.253,20.017.5m-14.233,8.836c-.773,2.467-.292,3.555,2.262,3.321a46.155,46.155,0,0,1,6.536-.016c1.833.094,1.444-1.116,1.47-2.143.04-1.54-.933-1.043-1.751-.875a19.519,19.519,0,0,1-8.517-.288" transform="translate(0 -47.729)" fill="#030303"/>
    <path id="Trazado_728698" data-name="Trazado 728698" d="M114.028,214.871c-7.344,0-14.69-.087-22.031.042-2.958.052-4.278-.992-4.068-4.016.144-2.073,0-4.164.034-6.246.1-6.326,4.467-10.716,10.751-10.837,1.205-.023,2.412-.026,3.617,0,.867.02,1.4-.122,1.451-1.214.053-1.232-.478-1.449-1.539-1.435-3.4.044-6.8-.1-10.192.051-2.911.13-4.185-.885-4.139-3.954.128-8.438-.031-16.88.063-25.318a26.3,26.3,0,0,1,52.6-.162c.118,8.547-.043,17.1.063,25.647.036,2.911-1.217,3.887-3.971,3.782-3.393-.129-6.795-.031-10.193-.03-.868,0-1.712-.156-1.706,1.257.007,1.292.649,1.3,1.624,1.392,12.536,1.183,14.21,3.036,14.209,15.593,0,5.444,0,5.444-5.528,5.444H114.028m10.806-70.494c-6.612-4.17-13.457-4.149-20.215-.646-7.042,3.651-10.982,9.672-11.312,17.6-.309,7.427-.041,14.877-.111,22.316-.014,1.569.206,2.324,2.084,2.306,12.47-.117,24.941-.113,37.412-.148,1.779.369,2.751.144,2.7-2.173-.159-7.316.088-14.643-.114-21.957a18.808,18.808,0,0,0-7.082-14.841,4.294,4.294,0,0,0-2.144-1.684,1.333,1.333,0,0,0-1.218-.778m-10.8,65.225v-.022c6.246,0,12.493.032,18.738-.039.829-.009,1.962.609,2.495-.83,1.818-4.907-1.286-9.4-6.454-9.684-4.6-.255-8.786,1.057-13.129,2.249-4.564,1.253-8.549-3.171-13.3-2.208a6.764,6.764,0,0,1-1.313.011c-6.54,0-7.994,1.616-7.9,8.232.028,1.926.665,2.355,2.451,2.327,6.135-.094,12.273-.036,18.41-.036m.269-18.419c-1.2,0-2.409-.047-3.608.018-.655.036-1.722-.394-1.653.9.047.907-.417,1.912.683,2.659,2.072,1.409,6.939,1.415,9.067.026,1.122-.733.664-1.729.731-2.636.1-1.294-.942-.919-1.612-.949-1.2-.053-2.405-.015-3.608-.015" transform="translate(-30.011 -46.423)" fill="#030202"/>
    <path id="Trazado_728699" data-name="Trazado 728699" d="M8.162,104.832c-.032-5.257-.156-10.515-.07-15.77a7.776,7.776,0,0,1,7.928-7.907c2.627-.082,5.259-.028,7.888-.009.635,0,1.427-.225,1.845.389,2.092,3.07,4.547,2.4,7.046.694,1.789-1.218,3.144-.064,4.51.726,1.871,1.083,3.524,1.205,4.89-.683.929-1.283,2.22-1.149,3.535-1.146,6.464.016,12.929.03,19.393.005s10.532-3.539,11.32-9.911c.234-1.9.848-3.333,2.9-3.159s2.462,1.78,2.385,3.627c-.317,7.658-7.1,14.37-15.047,14.662-4.268.157-8.547.121-12.818.018-2.657-.064-3.774.987-3.732,3.68.078,4.926-.036,9.855-.07,14.783H18.691c-.034-4.126-.095-8.252-.089-12.378,0-1.872-.6-3.348-2.648-3.349s-2.649,1.477-2.646,3.349c.007,4.126-.055,8.252-.089,12.378H8.162" transform="translate(-2.752 -23.231)" fill="#e4e7eb"/>
    <path id="Trazado_728700" data-name="Trazado 728700" d="M15.893,115.747c.034-4.126.1-8.252.089-12.377,0-1.872.594-3.35,2.646-3.349s2.651,1.477,2.648,3.349c-.006,4.126.055,8.252.089,12.377-.363,1.445-1.087,2.582-2.737,2.58s-2.379-1.13-2.735-2.58" transform="translate(-5.426 -34.146)" fill="#030303"/>
    <path id="Trazado_728701" data-name="Trazado 728701" d="M145.816,81.651c-15.457,0-30.913-.065-46.369.061-2.694.022-4.062-.35-3.613-3.457.311-2.148-.609-4.749.308-6.456.873-1.628,3.753-.886,5.7-1.469,8.532-2.557,14.929-10.749,15.1-19.48.092-4.672-2.91-8.275-7.206-8.651-4.438-.389-8,2.783-8.6,7.6a8.908,8.908,0,0,1-.588,2.519c-.767,1.717-2.252,3.153-4.018,2.772-1.376-.3-.6-2.256-.605-3.44-.056-13.482.015-26.965-.083-40.448-.018-2.368.319-3.327,3.093-3.316q47.027.176,94.055.005c2.591-.009,2.974.788,2.964,3.115q-.13,33.707.026,67.413c.018,2.88-.868,3.312-3.466,3.291-15.565-.125-31.131-.062-46.7-.062m18.613-10.524c3.178,0,6.359-.063,9.536.02,2.514.066,3.591-1.024,3.539-3.537-.081-3.944.182-7.906-.091-11.833-.191-2.751.865-3.322,3.292-3.113,2.176.188,4.382.013,6.574.046,2.343.036,3.4-1.1,3.372-3.418-.038-3.068-.013-6.138-.011-9.207,0-2.183-1.117-3.182-3.267-3.179q-12.5.017-24.994,0c-2.132,0-3.252.925-3.352,3.122-.033.736.576,2.1-.789,2.067-2.573-.054-5.256.777-7.7-.711-2.337-1.421-4.545-3.18-7.056-4.164-3.747-1.469-3.181-4.5-2.713-7.09.443-2.447,2.928-.583,4.407-1.09a5.964,5.964,0,0,1,1.309-.04,7.988,7.988,0,0,0,7.3-7.915,7.778,7.778,0,0,0-7.367-7.8c-5.585-.178-11.184-.169-16.769-.005a7.777,7.777,0,0,0-7.432,7.739A7.926,7.926,0,0,0,129.757,29c1.311.082,2.63,0,3.946.029.721.014,1.678-.211,1.638.993-.09,2.679.929,5.592-2.744,7.162a60.173,60.173,0,0,0-8.463,5.011c-2.679,1.716-2.665,3.541.051,5.269a91,91,0,0,0,9.029,5.356c3.383,1.637,2.26,4.531,1.978,6.825-.235,1.907-2.536.57-3.859.942a4.179,4.179,0,0,1-.983.014c-4.632.137-8.055,3.391-8.139,7.735-.087,4.479,3.385,7.973,8.154,8.041,5.15.074,10.3.013,15.456.018,2.2,0,4.508-.573,5.509-2.386,1.742-3.156,4.36-2.974,7.18-2.889,1.972.059,3.946.012,5.92.011" transform="translate(-32.675 -2.693)" fill="#cacfd7"/>
    <path id="Trazado_728702" data-name="Trazado 728702" d="M49.7,55.033c-4.836,4.273-10.317,4.949-16.1,2.472-5.941-2.545-9.12-7.278-9.562-13.716-.356-5.192-.269-5.229,4.843-5.275,5.889-.053,11.376-1.733,16.773-3.9C48.265,33.562,50.94,32.9,53,35.754c.02,6.3.5,12.684-3.284,18.31-.151.224-.013.641-.01.969" transform="translate(-8.165 -11.509)" fill="#e7c4b9"/>
    <path id="Trazado_728703" data-name="Trazado 728703" d="M26.125,24.381c-6.929.088-7.411-.735-4.184-7.047a17.124,17.124,0,0,1,24.443-6.65c1.5.97,1.8,1.711,1.156,3.612-2.976,8.8-10.889,8.507-17.813,10.048a16.928,16.928,0,0,1-3.6.036" transform="translate(-6.834 -2.727)" fill="#f9c952"/>
    <path id="Trazado_728704" data-name="Trazado 728704" d="M63.037,56.091c0-.327-.141-.745.01-.969,3.785-5.627,3.3-12.008,3.284-18.31,2.638,1.46,2.656,3.908,2.6,6.495-.12,5.14-1.523,9.629-5.89,12.784" transform="translate(-21.499 -12.567)" fill="#dbb9af"/>
    <path id="Trazado_728705" data-name="Trazado 728705" d="M68.089,22.214c1.076.911,1.114,2.243,1.684,3.485-3.476-.64-3.476-.64-1.684-3.485" transform="translate(-22.84 -7.584)" fill="#f2b841"/>
    <path id="Trazado_728706" data-name="Trazado 728706" d="M43.765,79.842c-1.224.512-2.04,2.152-3.628,1.294a1.592,1.592,0,0,1-.129-1.518c1.269-1.457,2.465.155,3.757.224" transform="translate(-13.612 -26.973)" fill="#cacfd7"/>
    <path id="Trazado_728707" data-name="Trazado 728707" d="M50.41,79.906c1.295-.182,2.468-1.551,3.634-.4a1.982,1.982,0,0,1-.186,1.792c-1.441.557-2.245-.95-3.448-1.4" transform="translate(-17.209 -26.987)" fill="#cacfd7"/>
    <path id="Trazado_728708" data-name="Trazado 728708" d="M220.877,176.353A18.506,18.506,0,0,1,192.9,174.96c-.392-.515-.972-1.118-.962-1.67.1-5.453-.946-10.992.634-16.339a12.9,12.9,0,0,1,12.074-9.052c2.735-.081,5.475.043,8.213.074q.011,1.972.022,3.944c.028,4.311.974,5.565,5.253,6.467,2.227.469,2.663,1.885,2.658,3.838-.014,4.71.053,9.421.087,14.132" transform="translate(-65.44 -50.482)" fill="#955252"/>
    <path id="Trazado_728709" data-name="Trazado 728709" d="M204.836,242.306c-6.126,0-12.254-.063-18.379.038-1.871.031-2.657-.269-2.653-2.447.012-6.6,1.38-8.111,8-8.112q13.62,0,27.241,0c5.544.007,8.533,4.216,6.888,9.527-.462,1.492-1.567.927-2.4.935-6.235.057-12.471.031-18.706.031v.025" transform="translate(-62.749 -79.128)" fill="#5c9beb"/>
    <path id="Trazado_728710" data-name="Trazado 728710" d="M231.851,176.339c-.034-4.71-.1-9.421-.087-14.132.005-1.953-.431-3.369-2.658-3.838-4.279-.9-5.225-2.156-5.253-6.467q-.013-1.973-.022-3.944c1.935-.426,2.921.173,2.66,2.323-.385,3.175.119,5.445,4.17,5.829,2.467.234,3.7,2.508,3.709,5.106.014,3.6-.051,7.21.028,10.814.044,2.029-1.2,3.171-2.547,4.309" transform="translate(-76.414 -50.468)" fill="#814646"/>
    <path id="Trazado_728711" data-name="Trazado 728711" d="M219.688,205.2c-4.654,5.724-15.24,5.241-19.92-.652,3.384,1.064,6.479,2.052,9.781,2.15s6.448-.661,10.139-1.5" transform="translate(-68.199 -69.829)" fill="#dbb9af"/>
    <path id="Trazado_728712" data-name="Trazado 728712" d="M212.925,222.154c-1.195,0-2.395-.072-3.583.016-1.768.132-1.508-1.058-1.514-2.129-.008-1.473.914-1.1,1.769-.926a16.869,16.869,0,0,0,7.11-.022c.925-.205,1.73-.4,1.717,1.013-.009,1.133.126,2.211-1.591,2.069-1.294-.107-2.6-.022-3.908-.022" transform="translate(-70.947 -74.745)" fill="#5c9beb"/>
    <path id="Trazado_728713" data-name="Trazado 728713" d="M47.475,167.365c2.87,12.5-15.626,17.939-24.506,12.608-4.453-2.673-7.606-5.736-7.139-11.72.422-5.4.187-10.743,4.189-15.074,4.5-4.873,11.173-6.682,17.058-4.316,6.383,2.567,9.843,7.415,10.382,14.283.111,1.415.016,2.847.016,4.218" transform="translate(-5.389 -50.468)" fill="#646c77"/>
    <path id="Trazado_728714" data-name="Trazado 728714" d="M47.487,242.171c-12.48.036-24.961.049-37.44.137-1.51.011-2.014-.332-2.074-1.963-.252-6.915,1.264-8.588,8.173-8.588,8.979,0,17.958-.016,26.936.018,1.268,0,2.651-.408,3.759.64a42.97,42.97,0,0,1,.646,9.755" transform="translate(-2.713 -79.1)" fill="#e4e7eb"/>
    <path id="Trazado_728715" data-name="Trazado 728715" d="M43.686,205.139c-4.066,5.752-14.3,5.459-20.017-.5,3.605.913,6.735,2.058,10.1,2.1a34.267,34.267,0,0,0,9.921-1.593" transform="translate(-8.08 -69.861)" fill="#dbb9af"/>
    <path id="Trazado_728716" data-name="Trazado 728716" d="M32.276,218.816a19.519,19.519,0,0,0,8.517.288c.818-.169,1.791-.666,1.751.875-.026,1.027.363,2.237-1.47,2.143a46.153,46.153,0,0,0-6.536.016c-2.555.233-3.036-.854-2.262-3.321" transform="translate(-10.904 -74.702)" fill="#e4e7eb"/>
    <path id="Trazado_728717" data-name="Trazado 728717" d="M67.647,242.542A42.969,42.969,0,0,0,67,232.787c2.728,1.45,4.573,6.61,3.239,9.24-.59,1.164-1.7.463-2.593.515" transform="translate(-22.873 -79.471)" fill="#cacfd7"/>
    <path id="Trazado_728718" data-name="Trazado 728718" d="M135.413,188.5c-12.471.035-24.942.03-37.412.148-1.878.018-2.1-.738-2.083-2.307.069-7.439-.2-14.889.11-22.316.33-7.931,4.27-13.953,11.312-17.6,6.757-3.5,13.6-3.524,20.215.645a1.188,1.188,0,0,0,1.218.778,4.294,4.294,0,0,1,2.144,1.684,4.005,4.005,0,0,0,.869,3.024,24.809,24.809,0,0,1,3.683,13.673c-.17,7.421-.051,14.848-.056,22.274" transform="translate(-32.731 -49.113)" fill="#fdcd53"/>
    <path id="Trazado_728719" data-name="Trazado 728719" d="M116.761,242.23c-6.137,0-12.275-.058-18.41.036-1.785.028-2.423-.4-2.451-2.327-.1-6.616,1.359-8.23,7.9-8.232a6.771,6.771,0,0,0,1.313-.011c4.751-.964,8.737,3.46,13.3,2.208,4.343-1.191,8.526-2.5,13.129-2.249,5.168.287,8.272,4.776,6.454,9.684-.533,1.438-1.666.821-2.494.83-6.246.07-12.493.039-18.739.039v.022" transform="translate(-32.738 -79.052)" fill="#47cdab"/>
    <path id="Trazado_728720" data-name="Trazado 728720" d="M153.544,191.436c0-7.425-.114-14.853.056-22.274a24.809,24.809,0,0,0-3.683-13.673,4.005,4.005,0,0,1-.869-3.024,18.808,18.808,0,0,1,7.082,14.841c.2,7.315-.045,14.64.114,21.957.051,2.316-.921,2.542-2.7,2.173" transform="translate(-50.862 -52.05)" fill="#f2b841"/>
    <path id="Trazado_728721" data-name="Trazado 728721" d="M125.228,219.784c1.2,0,2.407-.038,3.608.015.67.03,1.708-.345,1.612.948-.067.908.391,1.9-.731,2.636-2.128,1.389-7,1.383-9.067-.026-1.1-.748-.636-1.753-.683-2.659-.068-1.29,1-.861,1.653-.9,1.2-.065,2.405-.018,3.608-.018" transform="translate(-40.936 -75.025)" fill="#e7c4b9"/>
    <path id="Trazado_728722" data-name="Trazado 728722" d="M145.194,149.5a1.187,1.187,0,0,1-1.218-.778,1.332,1.332,0,0,1,1.218.778" transform="translate(-49.152 -50.774)" fill="#f2b841"/>
    <path id="Trazado_728723" data-name="Trazado 728723" d="M178.125,73.854c-1.973,0-3.948.048-5.92-.011-2.82-.085-5.437-.267-7.18,2.889-1,1.813-3.312,2.389-5.509,2.387-5.152,0-10.305.056-15.456-.018-4.768-.068-8.241-3.562-8.154-8.042.084-4.344,3.506-7.6,8.14-7.734a4.244,4.244,0,0,0,.983-.014c1.324-.373,3.624.965,3.859-.943.282-2.293,1.405-5.187-1.978-6.824a91.06,91.06,0,0,1-9.029-5.357c-2.717-1.728-2.731-3.553-.053-5.268a60.124,60.124,0,0,1,8.464-5.011c3.673-1.571,2.654-4.484,2.744-7.162.041-1.2-.917-.978-1.637-.993-1.315-.027-2.635.053-3.946-.029a7.925,7.925,0,0,1-7.548-7.984A7.779,7.779,0,0,1,143.338,16c5.586-.164,11.184-.173,16.769.005a7.779,7.779,0,0,1,7.367,7.8,7.989,7.989,0,0,1-7.3,7.915,5.919,5.919,0,0,0-1.308.039c-1.479.508-3.965-1.357-4.407,1.091-.468,2.592-1.035,5.621,2.713,7.089,2.511.984,4.718,2.743,7.056,4.165,2.447,1.488,5.131.657,7.7.711,1.365.028.756-1.331.789-2.067.1-2.2,1.22-3.127,3.352-3.122q12.5.027,24.994,0c2.15,0,3.268,1,3.267,3.179,0,3.07-.028,6.139.011,9.208.028,2.317-1.029,3.454-3.373,3.418-2.192-.034-4.4.142-6.574-.045-2.427-.209-3.483.362-3.292,3.112.273,3.927.01,7.889.091,11.833.051,2.513-1.025,3.6-3.539,3.537-3.177-.084-6.358-.02-9.537-.02m-2.02-5.268c2.625,0,5.25.024,7.874-.014.777-.011,1.924.388,1.911-1.045-.038-3.916-.12-7.832-.184-11.748-2.886-.756-5.827-.15-8.736-.346a5.735,5.735,0,0,0-.656,0c-2.237.1-3.7-.8-3.522-3.192.136-1.844-.7-1.932-2.233-2.135-6.517-.859-10.691,3.775-15.536,6.617-1.81,1.062-.768,3.911-.536,5.841.178,1.484,2.017.731,3.064.711,2.944-.055,6.045.047,7.7,2.66,1.644,2.6,3.678,2.879,6.262,2.675,1.522-.12,3.061-.022,4.592-.022M188.546,44.9c-2.738,0-5.491.179-8.208-.055-2.319-.2-2.367.94-2.366,2.685s.051,2.783,2.363,2.694c5.248-.2,10.512-.138,15.766-.025,2.017.043,3.089-.073,3.089-2.669s-1.066-2.777-3.089-2.665c-2.511.14-5.036.034-7.554.034M151.539,26.473c2.517,0,5.032,0,7.548,0,1.794,0,3.063-.792,3.053-2.644s-1.29-2.62-3.082-2.616q-7.385.016-14.768,0c-1.794,0-3.059.784-3.049,2.642s1.291,2.625,3.078,2.617c2.407-.01,4.813,0,7.22,0m.03,47.374q3.774,0,7.548,0c1.8,0,3.053-.821,3.022-2.673s-1.322-2.593-3.111-2.587c-4.922.017-9.846.007-14.768.007-1.8,0-3.051.805-3.02,2.668s1.329,2.6,3.109,2.59c2.407-.013,4.813,0,7.22,0m.217-31.082a13.278,13.278,0,0,0-1.645.891c-1.859,1.414-5.356,1.894-5.424,3.989-.052,1.61,3.475,2.4,5.3,3.722a2.5,2.5,0,0,0,3.25.08c1.518-1.045,3.168-1.9,4.725-2.888.473-.3,1.567-.817.842-1.344-2.26-1.644-4.722-3.011-7.05-4.452" transform="translate(-46.372 -5.419)" fill="#020202"/>
    <path id="Trazado_728724" data-name="Trazado 728724" d="M185.512,86.275c-1.531,0-3.07-.1-4.592.022-2.584.2-4.618-.08-6.262-2.676-1.655-2.612-4.756-2.715-7.7-2.66-1.046.02-2.885.773-3.063-.711-.232-1.929-1.274-4.779.536-5.841,4.845-2.842,9.019-7.477,15.535-6.616,1.535.2,2.37.291,2.233,2.135-.176,2.39,1.285,3.3,3.522,3.192a5.892,5.892,0,0,1,.656,0c2.909.2,5.85-.41,8.736.346.065,3.916.147,7.832.184,11.748.013,1.432-1.134,1.033-1.912,1.045-2.624.039-5.249.015-7.874.015" transform="translate(-55.778 -23.108)" fill="#cacfd7"/>
    <path id="Trazado_728725" data-name="Trazado 728725" d="M210.389,59.909c2.519,0,5.044.106,7.554-.034,2.023-.113,3.088.072,3.089,2.665s-1.072,2.712-3.089,2.669c-5.254-.113-10.517-.176-15.766.025-2.312.089-2.362-.952-2.363-2.694s.047-2.885,2.366-2.685c2.717.234,5.47.055,8.208.055" transform="translate(-68.215 -20.426)" fill="#e4e7eb"/>
    <path id="Trazado_728726" data-name="Trazado 728726" d="M154.343,29.241c-2.407,0-4.813-.007-7.22,0-1.788.008-3.07-.756-3.079-2.617s1.255-2.644,3.049-2.642q7.385.006,14.768,0c1.792,0,3.072.764,3.082,2.616s-1.259,2.648-3.053,2.644c-2.517-.006-5.032,0-7.548,0" transform="translate(-49.175 -8.188)" fill="#e4e7eb"/>
    <path id="Trazado_728727" data-name="Trazado 728727" d="M154.373,101.171c-2.407,0-4.813-.009-7.22,0-1.78.01-3.078-.726-3.109-2.59s1.222-2.669,3.02-2.668c4.922,0,9.845.01,14.768-.007,1.789-.006,3.08.736,3.111,2.587s-1.224,2.673-3.022,2.673h-7.548" transform="translate(-49.175 -32.742)" fill="#e4e7eb"/>
    <path id="Trazado_728728" data-name="Trazado 728728" d="M156.391,56.7c2.328,1.44,4.789,2.808,7.05,4.452.724.527-.369,1.043-.842,1.344-1.557.992-3.207,1.843-4.725,2.888a2.5,2.5,0,0,1-3.25-.08c-1.827-1.318-5.354-2.112-5.3-3.722.068-2.1,3.566-2.575,5.424-3.989a13.278,13.278,0,0,1,1.645-.891" transform="translate(-50.977 -19.358)" fill="#47cdab"/>
  </g>
</svg>
