<svg id="Grupo_987294" data-name="Grupo 987294" xmlns="http://www.w3.org/2000/svg" xmlns:xlink="http://www.w3.org/1999/xlink" width="182.465" height="182.52" viewBox="0 0 182.465 182.52">
  <defs>
    <clipPath id="clip-path">
      <rect id="Rectángulo_346391" data-name="Rectángulo 346391" width="182.465" height="182.519" fill="none"/>
    </clipPath>
  </defs>
  <g id="Grupo_987293" data-name="Grupo 987293" clip-path="url(#clip-path)">
    <path id="Trazado_728634" data-name="Trazado 728634" d="M90.406,182.5q-34.405,0-68.81,0c-5.453,0-6.172-.933-4.853-6.319,1.143-4.664,2.246-9.34,3.516-13.969a48.81,48.81,0,0,0,1.875-14.593c-.18-5.631,2.063-7.687,7.8-7.7,8.49-.014,16.984-.133,25.469.07,2.771.066,3.241-.813,3.236-3.376q-.126-62.537-.049-125.075a14.877,14.877,0,0,1,.47-5.26,9.1,9.1,0,0,1,17.731,2.2c.1,1.26.04,2.533.04,3.8q0,61.968-.056,123.935c-.005,2.782.418,4.162,3.6,3.761,2.736-.345,6.4.842,8.073-.55,1.875-1.565-.062-5.161-.25-7.871C87.81,126,87.14,120.46,86.552,114.92c-.077-.723-.157-1.808-.608-2.061-1.465-.822-3.042-1.427-3.014-3.459.062-4.423.084-8.85.332-13.264.052-.93,1.154-1.643,2.256-1.765.752-.083,1.519-.029,2.277-.078,3.369-.223,7.992,1.477,9.766-.686,1.694-2.066.542-6.512.546-9.911.027-17.988,10.8-31.346,27.906-34.546,19.694-3.685,38.748,11.959,38.966,32.093.027,2.562.175,4.3,3.115,5.455a9.518,9.518,0,0,1,5.966,9.009c.218,7.724.094,15.458.057,23.188a7.357,7.357,0,0,1-2.717,6.048c-2.157,1.6-2.379,3.67-2.558,5.969-1.248,16.02-4.29,31.9-3.838,48.056.079,2.847-1.761,3.562-4.27,3.552-10.518-.043-21.036-.018-31.554-.018H90.406m46.777-18.253c6.456,0,12.915-.073,19.369.043,2.075.037,2.878-.619,3.076-2.716.974-10.326,2.133-20.634,3.114-30.96.366-3.85-2.217-5.485-5.81-3.821-2.7,1.249-5.472,1.479-8.017-.031a3.775,3.775,0,0,0-4.408.08,7.552,7.552,0,0,1-7.647-.014,4.065,4.065,0,0,0-4.41-.068,9.031,9.031,0,0,1-12.97-7.247,16.323,16.323,0,0,1-.044-3.79c.268-2.373-.428-3.31-3.048-3.239-6.958.19-13.927.15-20.887.017-2.3-.044-3.128.481-2.819,2.948.738,5.9,1.172,11.832,1.812,17.742.729,6.731.768,6.726,7.689,6.726,1.266,0,2.532-.013,3.8,0,5.176.064,7.438,2.211,7.3,7.442a49.973,49.973,0,0,0,1.666,14.239c.554,2.09,1.446,2.765,3.624,2.706,6.2-.167,12.406-.059,18.609-.059M143.2,85.174c4.3,0,8.609-.15,12.9.059,2.368.116,2.92-.578,2.907-2.915a27.677,27.677,0,0,0-24.831-27.446A27.379,27.379,0,0,0,104.8,76.781c-1.081,5.275-.338,10.6-.619,15.887-.1,1.822,1.044,1.638,2.2,1.634,3.669-.011,7.34-.084,11,.032,1.675.053,2.3-.583,2.961-2.114,2.057-4.76,5.879-7.066,11.086-7.048,3.921.014,7.842,0,11.764,0m3.863,6.087c-5.2,0-10.391-.062-15.585.021-3.733.059-5.87,1.943-5.934,5.464-.128,7.094-.055,14.191-.032,21.287.007,2.035.937,3.57,3.1,3.534s2.976-1.591,2.966-3.638c-.014-2.788.156-5.587-.048-8.36-.181-2.461.6-3.186,3.112-3.207,2.6-.022,3.222.869,3.064,3.252-.185,2.775-.032,5.572-.043,8.36-.007,2.059.841,3.577,3.007,3.6s3.063-1.47,3.067-3.535c0-2.788.125-5.582-.031-8.361-.128-2.276.273-3.4,3-3.313,2.4.077,3.39.565,3.177,3.141-.229,2.769-.031,5.571-.056,8.359-.018,2.037.743,3.635,2.9,3.7,2.4.075,3.2-1.606,3.184-3.8-.021-3.041.14-6.091-.047-9.121-.153-2.47,1.345-2.265,2.892-2.174,1.483.087,3.456-.72,3.275,2.166-.182,2.9,0,5.826-.05,8.74-.037,2.277.514,4.273,3.182,4.174,2.371-.088,2.932-1.967,2.921-4.1-.035-6.716.046-13.433-.035-20.148-.049-4.047-2.045-5.971-6.16-6.03-4.941-.072-9.884-.018-14.825-.016M64.669,73.781c0,20.892.062,41.784-.071,62.676-.019,2.949.911,3.567,3.663,3.545,3.312-.027,2.458-2.2,2.46-3.9q.041-62.3.017-124.594a12.183,12.183,0,0,0-.154-3.02A2.836,2.836,0,0,0,67.53,6.178a2.78,2.78,0,0,0-2.692,2.286,15.837,15.837,0,0,0-.164,3.4q-.011,30.958-.005,61.917m2.98,78.3c12.277,0,24.556-.078,36.831.063,2.583.03,2.786-1.053,2.823-3.138.039-2.211-.434-3.065-2.9-3.056q-36.642.143-73.286.008c-2.29-.007-3.06.542-3.03,2.935.03,2.355.492,3.281,3.109,3.25,12.149-.142,24.3-.062,36.453-.063m70.567,18.256c-5.815,0-11.631-.066-17.443.06-1.063.023-3.319-1.084-3.074,1.066.217,1.912-.525,5.052,3.446,5,11.754-.144,23.512-.12,35.267.005,2.388.026,2.69-.962,2.564-2.906-.115-1.752.375-3.421-2.559-3.3-6.058.244-12.132.074-18.2.073m-34.008-63.875c4.29,0,8.588-.153,12.868.056,2.682.131,2.335-1.45,2.342-3.1.008-1.667.3-3.139-2.354-3.09q-12.867.24-25.74,0c-2.674-.05-2.333,1.453-2.34,3.1-.008,1.668-.308,3.217,2.355,3.087,4.28-.21,8.578-.056,12.868-.056M67.384,176.421a13.369,13.369,0,0,1,2.277.019c3.255.571,3.778-1.007,3.336-3.8-.653-4.124-1.155-8.275-1.55-12.432-.283-2.972-2.443-1.9-3.99-2.01-1.568-.108-3.306-.506-3.52,2.122-.337,4.159-.833,8.319-1.546,12.429-.53,3.058.478,4.17,3.474,3.685a9.625,9.625,0,0,1,1.519-.011m20.635-.393c-1.283-5.226-2.664-10.466-3.831-15.753-.746-3.374-3.288-1.966-5.129-2.053-2.84-.135-1.422,2.123-1.375,3.277.107,2.642.528,5.274.9,7.9,1.074,7.661,1.088,7.66,8.984,6.854a1.957,1.957,0,0,0,.455-.225m-40.713.39c2.359,0,4.5-.078,6.624.026,1.659.081,2.161-.68,2.32-2.2.446-4.267,1.115-8.511,1.477-12.783.091-1.061,1.385-3.17-1.039-3.187-1.912-.014-4.652-1.509-5.458,2.05-1.194,5.278-2.555,10.518-3.924,16.1m-13.832-18.5c-2.54.936-5.469-1.482-6.446,2.152-1.426,5.312-2.673,10.673-4,16.034,5.672.712,5.68.714,6.964-4.339,1.113-4.378,2.206-8.762,3.484-13.847m12.019.538c-5.559-.6-5.7-.638-6.293,1.593-1.411,5.327-2.674,10.692-4.006,16.079,5.708.615,5.721.619,7.027-4.535,1.086-4.286,2.139-8.58,3.272-13.137m44.443.014c1.094,4.407,2.165,8.788,3.271,13.161,1.3,5.151,1.317,5.147,7.012,4.48-1.093-4.407-2.163-8.79-3.27-13.163-1.3-5.149-1.316-5.146-7.013-4.478m22.455,17.608q-2.005-8.056-4-16.085c-.827-3.341-3.529-1.831-5.253-1.662-2,.2-.5,2.014-.321,2.9.717,3.567,1.729,7.073,2.631,10.6,1.288,5.041,1.288,5.041,6.945,4.241" transform="translate(-3.868 0)" fill="#020202"/>
    <path id="Trazado_728635" data-name="Trazado 728635" d="M230.274,59.06a3.487,3.487,0,0,1-2.528,3.227,16.271,16.271,0,0,0-9.616,9.594c-.544,1.385-1.364,2.464-2.974,2.507-1.8.047-2.639-1.139-3.246-2.662a16.14,16.14,0,0,0-9.352-9.366c-1.522-.607-2.727-1.43-2.68-3.231s1.338-2.514,2.833-3.125a16.137,16.137,0,0,0,9.123-9.107c.611-1.487,1.307-2.8,3.108-2.859s2.641,1.131,3.249,2.655a16.136,16.136,0,0,0,9.357,9.36c1.527.608,2.629,1.465,2.727,3.007m-9.721.307-5.75-5.092c-1.537,1.753-4.125,3.427-4.266,5.285-.106,1.394,3.042,4.339,4.553,4.219,1.874-.148,3.555-2.746,5.463-4.412" transform="translate(-47.809 -10.533)" fill="#090908"/>
    <path id="Trazado_728636" data-name="Trazado 728636" d="M54.379,106.865c-.079,2.016-1.194,2.867-2.719,3.474A16.126,16.126,0,0,0,42.3,119.7c-.607,1.525-1.449,2.718-3.248,2.658s-2.5-1.369-3.11-2.858a16.11,16.11,0,0,0-9.12-9.108c-1.494-.609-2.8-1.327-2.834-3.125-.041-2.007,1.42-2.692,3.029-3.368a16.053,16.053,0,0,0,8.864-8.875c.673-1.609,1.37-3.065,3.38-3.011,1.8.048,2.5,1.362,3.114,2.85a16.043,16.043,0,0,0,9.126,9.1c1.516.611,2.644,1.413,2.875,2.9m-15.293,5.562c1.763-1.848,4.436-3.417,4.645-5.265.164-1.442-2.856-4.643-4.239-4.522-1.855.163-4.787,2.708-4.869,4.35-.084,1.668,2.734,3.481,4.463,5.437" transform="translate(-5.738 -22.008)" fill="#090908"/>
    <path id="Trazado_728637" data-name="Trazado 728637" d="M15.221,139.936a3.4,3.4,0,0,1,3.022,2.505,16.294,16.294,0,0,0,9.6,9.615c1.379.542,2.469,1.357,2.513,2.971.049,1.8-1.131,2.654-2.651,3.259a16.144,16.144,0,0,0-9.372,9.345c-.609,1.522-1.431,2.727-3.23,2.686s-2.519-1.335-3.129-2.829a16.1,16.1,0,0,0-9.1-9.125c-1.489-.611-2.8-1.308-2.864-3.106s1.124-2.643,2.65-3.249a16.148,16.148,0,0,0,9.369-9.349c.609-1.527,1.441-2.648,3.2-2.722m.167,9.582c-2.05,2.369-4.819,4.187-4.747,5.886.067,1.592,3.076,4.126,4.91,4.235,1.415.084,4.313-3.037,4.2-4.564-.136-1.886-2.7-3.6-4.366-5.557" transform="translate(0 -33.472)" fill="#090908"/>
    <path id="Trazado_728638" data-name="Trazado 728638" d="M161.216,199.612c-6.2,0-12.41-.108-18.609.059-2.178.059-3.07-.616-3.624-2.706a49.974,49.974,0,0,1-1.666-14.239c.135-5.231-2.128-7.378-7.3-7.442-1.266-.015-2.532,0-3.8,0-6.92,0-6.96,0-7.689-6.726-.64-5.91-1.074-11.845-1.812-17.742-.309-2.467.517-2.992,2.819-2.948,6.961.133,13.93.173,20.887-.017,2.619-.072,3.316.866,3.048,3.238a16.33,16.33,0,0,0,.044,3.791,9.031,9.031,0,0,0,12.97,7.247,4.065,4.065,0,0,1,4.41.068,7.552,7.552,0,0,0,7.647.014,3.775,3.775,0,0,1,4.408-.08c2.545,1.51,5.32,1.28,8.017.031,3.593-1.664,6.176-.029,5.81,3.821-.981,10.325-2.14,20.634-3.113,30.96-.2,2.1-1,2.753-3.077,2.716-6.455-.116-12.913-.043-19.369-.043m9.6-13.855c0,1.392.068,2.788-.016,4.175-.133,2.174-.2,3.773,2.98,3.722,2.892-.046,3.322-1.141,3.156-3.57-.182-2.645-.1-5.313-.022-7.967.072-2.277.232-3.992-3.174-3.93-3.21.058-3.047,1.651-2.936,3.776.066,1.261.012,2.53.012,3.795m3.282-19.495c-2.047-.415-3.7-.262-3.322,2.69.218,1.7-.421,3.71,2.547,3.32,1.763-.231,4.022.618,3.6-2.635-.231-1.792.613-4.2-2.828-3.375" transform="translate(-27.902 -35.363)" fill="#4698cd"/>
    <path id="Trazado_728639" data-name="Trazado 728639" d="M181.422,119.946c4.941,0,9.884-.056,14.825.016,4.114.059,6.112,1.983,6.16,6.031.081,6.715,0,13.431.036,20.147.011,2.13-.549,4.008-2.922,4.1-2.668.1-3.219-1.9-3.182-4.173.047-2.914-.132-5.838.049-8.741.181-2.885-1.792-2.078-3.275-2.165-1.547-.092-3.045-.3-2.892,2.173.187,3.03.026,6.08.047,9.121.015,2.2-.781,3.879-3.184,3.8-2.161-.068-2.922-1.667-2.9-3.7.025-2.788-.173-5.59.056-8.359.213-2.576-.781-3.065-3.177-3.142-2.724-.087-3.125,1.038-3,3.313.156,2.779.036,5.573.031,8.361,0,2.065-.9,3.557-3.067,3.535s-3.014-1.541-3.006-3.6c.01-2.788-.143-5.585.042-8.361.159-2.382-.462-3.274-3.064-3.252-2.516.022-3.293.746-3.112,3.208.2,2.772.033,5.571.048,8.359.011,2.048-.8,3.6-2.966,3.638s-3.091-1.5-3.1-3.533c-.024-7.1-.1-14.193.031-21.287.063-3.521,2.2-5.4,5.934-5.465,5.194-.082,10.39-.021,15.585-.021" transform="translate(-38.23 -28.685)" fill="#fb9126"/>
    <path id="Trazado_728640" data-name="Trazado 728640" d="M79.894,75.722q0-30.959.005-61.917a15.889,15.889,0,0,1,.164-3.4,2.778,2.778,0,0,1,2.692-2.285,2.835,2.835,0,0,1,3.053,2.315,12.175,12.175,0,0,1,.154,3.02q.009,62.3-.017,124.594c0,1.7.853,3.869-2.459,3.9-2.752.021-3.682-.6-3.663-3.545.133-20.891.071-41.784.071-62.676" transform="translate(-19.093 -1.941)" fill="#8e563b"/>
    <path id="Trazado_728641" data-name="Trazado 728641" d="M71.395,197.967c-12.151,0-24.3-.078-36.452.062-2.617.03-3.08-.894-3.109-3.25-.03-2.393.74-2.942,3.03-2.934q36.642.118,73.285-.008c2.466-.01,2.94.844,2.9,3.056-.037,2.085-.24,3.166-2.823,3.137-12.276-.14-24.554-.062-36.831-.062" transform="translate(-7.614 -45.886)" fill="#c07450"/>
    <path id="Trazado_728642" data-name="Trazado 728642" d="M170.13,223.824c6.067,0,12.142.171,18.2-.074,2.934-.118,2.444,1.551,2.559,3.3.127,1.944-.175,2.931-2.563,2.906-11.754-.126-23.513-.149-35.266-.005-3.971.048-3.229-3.092-3.446-5-.244-2.15,2.012-1.043,3.074-1.066,5.812-.126,11.628-.06,17.443-.06" transform="translate(-35.782 -53.488)" fill="#6bb9e3"/>
    <path id="Trazado_728643" data-name="Trazado 728643" d="M127.1,138c-4.29,0-8.588-.154-12.868.056-2.664.13-2.364-1.419-2.356-3.087.008-1.65-.334-3.154,2.34-3.1q12.867.238,25.74,0c2.657-.049,2.362,1.423,2.355,3.09-.008,1.649.34,3.23-2.342,3.1-4.28-.208-8.578-.056-12.868-.056" transform="translate(-26.756 -31.541)" fill="#6cb9e4"/>
    <path id="Trazado_728644" data-name="Trazado 728644" d="M81.873,226.126a9.627,9.627,0,0,0-1.519.011c-3,.484-4-.628-3.474-3.685.713-4.111,1.209-8.271,1.546-12.429.213-2.629,1.951-2.231,3.52-2.122,1.547.107,3.707-.962,3.99,2.01.4,4.156.9,8.308,1.551,12.431.442,2.8-.081,4.374-3.336,3.8a13.369,13.369,0,0,0-2.277-.019" transform="translate(-18.357 -49.704)" fill="#e4992c"/>
    <path id="Trazado_728645" data-name="Trazado 728645" d="M107.232,225.7a1.941,1.941,0,0,1-.455.225c-7.9.806-7.91.807-8.984-6.854-.367-2.626-.789-5.258-.9-7.9-.047-1.153-1.465-3.411,1.376-3.277,1.84.087,4.383-1.322,5.129,2.053,1.168,5.287,2.549,10.527,3.831,15.753" transform="translate(-23.082 -49.675)" fill="#f2ae3e"/>
    <path id="Trazado_728646" data-name="Trazado 728646" d="M57.094,226.077c1.369-5.58,2.73-10.82,3.924-16.1.8-3.558,3.545-2.063,5.457-2.05,2.423.018,1.129,2.126,1.039,3.187-.363,4.272-1.032,8.516-1.478,12.783-.159,1.522-.66,2.284-2.319,2.2-2.128-.1-4.265-.025-6.624-.025" transform="translate(-13.656 -49.658)" fill="#f5b03e"/>
    <path id="Trazado_728647" data-name="Trazado 728647" d="M35.628,207.568c-1.278,5.085-2.371,9.469-3.484,13.847-1.284,5.053-1.292,5.051-6.964,4.339,1.329-5.361,2.575-10.722,4-16.034.976-3.634,3.906-1.217,6.446-2.152" transform="translate(-6.023 -49.649)" fill="#eeac3d"/>
    <path id="Trazado_728648" data-name="Trazado 728648" d="M51.473,208.165c-1.134,4.557-2.187,8.851-3.272,13.137-1.306,5.154-1.318,5.151-7.027,4.535,1.332-5.386,2.6-10.752,4.006-16.079.591-2.23.733-2.193,6.293-1.593" transform="translate(-9.848 -49.708)" fill="#de952b"/>
    <path id="Trazado_728649" data-name="Trazado 728649" d="M113.127,208.2c5.7-.668,5.71-.671,7.013,4.479,1.106,4.372,2.176,8.755,3.27,13.162-5.7.667-5.709.671-7.012-4.48-1.107-4.373-2.177-8.755-3.271-13.161" transform="translate(-27.059 -49.726)" fill="#de952b"/>
    <path id="Trazado_728650" data-name="Trazado 728650" d="M139.408,225.706c-5.657.8-5.657.8-6.945-4.241-.9-3.529-1.914-7.035-2.631-10.6-.179-.89-1.681-2.707.321-2.9,1.724-.17,4.426-1.68,5.253,1.662q1.989,8.039,4,16.085" transform="translate(-30.885 -49.626)" fill="#eeac3d"/>
    <path id="Trazado_728651" data-name="Trazado 728651" d="M223.9,62.587c-1.909,1.666-3.59,4.264-5.463,4.412-1.511.12-4.658-2.825-4.553-4.219.141-1.859,2.729-3.532,4.266-5.285l5.75,5.092" transform="translate(-51.16 -13.752)" fill="#eeac3d"/>
    <path id="Trazado_728652" data-name="Trazado 728652" d="M42.428,115.767c-1.729-1.955-4.547-3.769-4.463-5.437.082-1.643,3.014-4.187,4.869-4.35,1.383-.121,4.4,3.08,4.239,4.522-.209,1.848-2.883,3.417-4.645,5.265" transform="translate(-9.081 -25.349)" fill="#eeac3d"/>
    <path id="Trazado_728653" data-name="Trazado 728653" d="M18.732,152.531c1.663,1.96,4.229,3.671,4.366,5.557.11,1.527-2.788,4.649-4.2,4.564-1.834-.109-4.843-2.642-4.91-4.235-.072-1.7,2.7-3.517,4.747-5.886" transform="translate(-3.345 -36.484)" fill="#eeac3d"/>
    <path id="Trazado_728654" data-name="Trazado 728654" d="M187.825,195.3c0-1.265.054-2.533-.012-3.795-.111-2.125-.273-3.718,2.937-3.776,3.405-.062,3.245,1.652,3.173,3.93-.083,2.655-.16,5.323.022,7.968.167,2.428-.264,3.523-3.156,3.57-3.176.051-3.113-1.547-2.98-3.722.085-1.387.016-2.783.016-4.175" transform="translate(-44.911 -44.902)"/>
    <path id="Trazado_728655" data-name="Trazado 728655" d="M191.1,172c3.441-.828,2.6,1.583,2.828,3.375.419,3.253-1.84,2.4-3.6,2.635-2.968.39-2.33-1.615-2.547-3.32-.378-2.953,1.274-3.106,3.322-2.69" transform="translate(-44.902 -41.1)"/>
  </g>
</svg>
