<svg id="Grupo_987282" data-name="Grupo 987282" xmlns="http://www.w3.org/2000/svg" xmlns:xlink="http://www.w3.org/1999/xlink" width="214.847" height="182.266" viewBox="0 0 214.847 182.266">
  <defs>
    <clipPath id="clip-path">
      <rect id="Rectángulo_346385" data-name="Rectángulo 346385" width="214.847" height="182.266" fill="none"/>
    </clipPath>
  </defs>
  <g id="Grupo_987281" data-name="Grupo 987281" clip-path="url(#clip-path)">
    <path id="Trazado_728574" data-name="Trazado 728574" d="M157.639,178.917a15.437,15.437,0,0,1-10.43,3.342q-29.833-.136-59.668,0c-3.912.018-7.4-.781-10.465-3.236-3.037-3.4-3.177-7.682-3.6-11.876q-4.5-50.976-9.011-101.952c.319-3.324.028-6.414-3.195-8.389a23.083,23.083,0,0,1-.029-12.536,12.434,12.434,0,0,0,5.406-8.227q.61-1.744,1.223-3.487c2.988-6.735,5.5-13.653,7.85-20.628Q77.65,7.6,79.581,3.28a12.2,12.2,0,0,1,9.5-3.259c3.181.15,6.374.067,9.56.022,2.284-.033,3.649.971,4.026,3.246-.768,3.976-3.921,3.08-6.563,3.2-1.718.076-3.786-.507-3.614,2.449.264,4.521-.435,9.071.379,13.58.276,2.6-2.281,6.633,3.177,6.653,14.155.053,28.312-.027,42.467.059,2.562.015,3.474-.978,3.411-3.425-.13-4.989-.142-9.98-.2-14.972,1.071-3.143.268-4.506-3.363-4.407-7.885.215-15.781.033-23.672.084-2.458.015-4.4-.547-5.009-3.26C110.225.75,111.922.024,114.3.034q16.5.065,32.995.007a11.662,11.662,0,0,1,7.857,3.325c.822,1.889,1.7,3.755,2.454,5.672,3.067,7.817,6.094,15.648,9.136,23.475l1.221,3.51a12.677,12.677,0,0,0,5.443,8.262,23.67,23.67,0,0,1-.04,12.5c-3.226,1.981-3.521,5.079-3.21,8.409l-9.022,102.031c-.392,4.127-.567,8.319-3.492,11.69m-9.25-168.125c-.033,5-.2,10.009-.058,15.007.125,4.564-1.566,7.79-5.913,9.46q-22.593.063-45.186.121c-8.59.013-10.909-2.321-10.916-10.885,0-5.872,0-11.743,0-17.724a2.617,2.617,0,0,0-2.351,1.775C80.158,18.564,76.412,28.607,72.543,38.6c-.993,2.565.478,2.423,2.152,2.422q42.682-.014,85.361.013c1.938,0,3.1-.3,1.941-2.543-.443-.86-.823-1.753-1.232-2.631q-4.738-12.71-9.48-25.419c-.536-1.451-.516-3.314-2.673-3.652a7.335,7.335,0,0,0-.224,4m6.1,156.633a12.048,12.048,0,0,0,.36-1.613c1.666-18.845,3.364-37.688,4.961-56.54,1.244-14.687,2.36-29.385,3.532-44.078.116-2.19,2.721-5.25-2.523-5.228q-43.463.18-86.925.005c-2.781-.008-3.411.672-3.127,3.523,1.444,14.544,2.609,29.117,3.887,43.678,1.8,20.523,3.553,41.052,5.459,61.565.6,6.487,1.393,7.017,7.759,7.019q29.046.009,58.09,0c7.6,0,8.107-.5,8.528-8.333M117.34,53.559q23.4,0,46.8.017c2.052,0,3.645.194,3.656-2.879.013-3.048-1.287-3.277-3.721-3.272q-46.8.087-93.6.021c-2.07,0-3.635-.159-3.659,2.9s1.306,3.268,3.722,3.256c15.6-.075,31.2-.039,46.8-.039" transform="translate(-9.818 0)" fill="#080a05"/>
    <path id="Trazado_728575" data-name="Trazado 728575" d="M180.688,179.884,189.71,77.853l43.607.034c-.245,3.565-.363,7.144-.774,10.691-.319,2.757.443,4.584,3.272,5.257q-.158,3.422-.316,6.844c-3.054-.157-4.036,1.5-4.283,4.336q-3.268,37.472-6.7,74.931l-43.831-.062" transform="translate(-29.375 -12.657)" fill="#fcf28a"/>
    <path id="Trazado_728576" data-name="Trazado 728576" d="M65.689,178.176c.422,4.195.562,8.474,3.6,11.876l-7.536-.022c-.834-2.783-2.87-3.3-5.507-3.274-8.909.1-17.82.045-26.73.036-6.114-.006-7.139-.951-7.692-7.171q-.759-8.523-1.435-17.053c-.225-2.788-1.378-4.491-4.489-4.063l-.121-6.9c3.888-.835,3.4-3.723,3.146-6.575-2.127-23.594-4.2-47.192-6.393-70.779-.24-2.578.332-3.33,3.006-3.276,8.781.177,17.568.042,26.352.082,2.423.011,4.484-.358,5.046-3.2l6.546-.023C56.705,69.81,57,72.9,56.678,76.224c-4.869,0-9.74-.1-14.606.018-6.582.163-11.488,4.918-11.152,11.391.6,11.593,1.367,23.192,2.55,34.738,1.591,15.53,3.077,31.064,4.067,46.643.4,6.271,3.47,9.291,9.794,9.294,6.119,0,12.239-.085,18.358-.132" transform="translate(-2.029 -11.028)" fill="#ddf3fa"/>
    <path id="Trazado_728577" data-name="Trazado 728577" d="M44.908,56.835c-.561,2.838-2.623,3.207-5.046,3.2-8.785-.04-17.571.095-26.352-.081-2.674-.054-3.247.7-3.006,3.276C12.7,86.812,14.769,110.411,16.9,134c.257,2.851.742,5.739-3.146,6.575-2.382-.734-3.015-2.57-3.207-4.82Q7.552,100.609,4.5,65.463c-.259-3-.375-5.8-2.774-8.367-3.017-3.231-1.819-12.005,1.6-14.853A7.353,7.353,0,0,0,5.5,38.855Q11.289,23.464,17.149,8.1C19.537,1.807,22.008.067,28.685.057,38.294.04,47.9.08,57.51.034c2.432-.012,4.473.355,5.014,3.2-.49,2.809-2.449,3.3-4.906,3.285-7.476-.054-14.952.037-22.427-.054-2.055-.025-3.014.441-2.905,2.74.209,4.417.162,8.847.22,13.271-.421,6.721-.421,6.721,6.035,6.721,2.9,0,5.8.067,8.69-.02,2.453-.074,3.949.9,4.324,3.387a4.7,4.7,0,0,1-1.771,2.681c-5.155.068-10.316.3-15.466.157-5.242-.149-8.041-3.228-8.131-8.579-.075-4.461.061-8.927-.05-13.387-.055-2.207.535-4.524-.436-6.709a2.749,2.749,0,0,0-1.934,1.856c-3.808,10-7.6,20.014-11.453,30-.9,2.33.242,2.486,2.1,2.475,8.507-.056,17.015.013,25.522-.047,2.472-.018,4.451.435,4.96,3.266-.539,2.853-2.606,3.217-5.027,3.208-9.9-.035-19.8.014-29.694-.037-2.109-.011-3.584-.093-3.61,2.924-.028,3.081,1.319,3.258,3.715,3.236,9.9-.09,19.8,0,29.694-.06,2.479-.013,4.445.456,4.93,3.292" transform="translate(0 -0.005)" fill="#090a0a"/>
    <path id="Trazado_728578" data-name="Trazado 728578" d="M236.031,81.184c-2.829-.673-3.591-2.5-3.272-5.257.41-3.547.529-7.126.774-10.691,1.069-5.218,1.069-5.22-4.154-5.221-8.229,0-16.46-.026-24.689.014-2.431.012-4.482-.385-5.027-3.226.506-2.834,2.491-3.274,4.957-3.26,9.89.055,19.782-.032,29.672.061,2.409.023,3.737-.187,3.712-3.249-.023-3.032-1.547-2.918-3.633-2.909-9.89.045-19.781,0-29.672.035-2.423.009-4.48-.361-5.035-3.2.487-2.8,2.429-3.3,4.895-3.288,8.444.058,16.888-.044,25.331.06,2.518.032,3.423-.574,2.074-3-.394-.709-.73-1.451-1.093-2.179-2.668-8.545-6.08-16.814-9.369-25.127-.431-1.641-.613-3.461-2.749-4.074a6.733,6.733,0,0,0-.234,4.1c-.043,5.1-.223,10.2-.087,15.292.121,4.577-1.7,7.668-6.013,9.255l-17.568-.052a4.413,4.413,0,0,1-1.838-2.8c.438-2.532,2.038-3.366,4.476-3.3,3.758.095,7.523-.082,11.279.061,2.547.1,3.5-.93,3.458-3.416-.092-5.29-.2-10.588.011-15.871.109-2.8-.822-3.532-3.537-3.465-7.237.18-14.482.025-21.722.08-2.465.018-4.448-.461-4.959-3.284.506-2.527,2.2-3.249,4.582-3.239,10.315.044,20.631-.03,30.946.043,4.7.033,7.76,2.424,9.415,6.863,3.933,10.541,7.974,21.041,11.987,31.552a10.029,10.029,0,0,0,1.375,3c5.238,6.087,5.411,10.3.884,17.538-.755,1.207-.822,2.916-.969,4.417-.421,4.3-.813,8.6-1.03,12.914-.117,2.338-.859,4.041-3.178,4.819" transform="translate(-29.591 -0.006)" fill="#0a0a06"/>
    <path id="Trazado_728579" data-name="Trazado 728579" d="M225.283,184.375q3.368-37.463,6.7-74.931c.248-2.841,1.229-4.494,4.284-4.336,2.176,1.3,2.084,3.347,1.894,5.5q-2.36,26.859-4.664,53.723c-.688,7.912-1.431,15.82-2.1,23.734-.574,6.824-4.8,11.105-11.6,11.2-9.9.137-19.8-.012-29.7.071a4.369,4.369,0,0,1-4.7-3.248c.833-2.8,2.887-3.3,5.52-3.273,8.641.1,17.284.039,25.926.036,7.312,0,8.172-.868,8.442-8.479" transform="translate(-30.14 -17.086)" fill="#0a0a06"/>
    <path id="Trazado_728580" data-name="Trazado 728580" d="M180.64,3.9c.511,2.823,2.495,3.3,4.959,3.284,7.24-.055,14.485.1,21.722-.08,2.715-.067,3.646.667,3.537,3.465-.206,5.282-.1,10.581-.011,15.871.044,2.485-.91,3.513-3.458,3.416-3.755-.142-7.521.033-11.278-.061-2.438-.061-4.038.773-4.476,3.3l-6.5.041c-3.042-7.826-6.07-15.657-9.136-23.474-.752-1.917-1.633-3.783-2.454-5.671l7.1-.095" transform="translate(-28.213 -0.635)" fill="#fce703"/>
    <path id="Trazado_728581" data-name="Trazado 728581" d="M16.2,176.1c3.11-.428,4.263,1.275,4.489,4.062q.688,8.529,1.434,17.053c.554,6.22,1.579,7.165,7.693,7.172,8.91.009,17.821.065,26.73-.036,2.637-.03,4.673.491,5.506,3.274-.878,2.732-2.875,3.294-5.53,3.263-9.342-.112-18.686,0-28.029-.058-7.658-.048-11.864-4.083-12.463-11.646-.473-5.974-1.045-11.94-1.615-17.905-.193-2.026-.143-3.912,1.787-5.179" transform="translate(-2.331 -28.618)" fill="#090a0a"/>
    <path id="Trazado_728582" data-name="Trazado 728582" d="M223.84,199.753c-.27,7.611-1.131,8.477-8.442,8.479-8.642,0-17.285.063-25.926-.036-2.634-.03-4.687.477-5.52,3.273l-7.435-.089c2.926-3.371,3.1-7.563,3.492-11.69l43.831.062" transform="translate(-28.697 -32.464)" fill="#faec55"/>
    <path id="Trazado_728583" data-name="Trazado 728583" d="M99.1,23.146c-.814-4.508-.115-9.058-.379-13.579-.173-2.957,1.9-2.373,3.614-2.45,2.642-.118,5.795.779,6.563-3.2l7.01-.041c.612,2.714,2.552,3.276,5.009,3.26,7.891-.049,15.786.131,23.672-.083,3.631-.1,4.434,1.264,3.363,4.407-12.9-.017-25.8.007-38.706-.075-3.527-.023-5.593,1.367-6.79,4.808-.83,2.388-1.149,5.172-3.356,6.951" transform="translate(-16.044 -0.63)" fill="#8fcb27"/>
    <path id="Trazado_728584" data-name="Trazado 728584" d="M38.772,23.094c-.06-4.424-.013-8.853-.222-13.27-.108-2.3.852-2.766,2.906-2.741,7.476.091,14.951,0,22.426.054,2.457.018,4.417-.477,4.906-3.286l7.242.054Q74.1,8.23,72.169,12.555c-.94-1.421-2.414-1.145-3.774-1.151q-6.251-.031-12.5-.005c-14.162.07-11.7-1.479-17.12,11.7" transform="translate(-6.266 -0.626)" fill="#97dff3"/>
    <path id="Trazado_728585" data-name="Trazado 728585" d="M169.006,77.818c-1.173,14.694-2.289,29.391-3.532,44.078-1.6,18.851-3.3,37.693-4.961,56.539a12.122,12.122,0,0,1-.361,1.613q-24.408-.063-48.814-.137c-4.975-.023-7.894-2.273-8.5-7.186-1.236-10.016-2.689-20.029-2.382-30.173,6.684,4.208,14.193,1.023,21.184,2.436-.776,4.167.937,6.868,3.591,5.42,3.284-1.791,5.7-4.793,7.719-7.97a2.344,2.344,0,0,0-.363-2.75c-2.179-2.332-4.212-4.88-6.718-6.8-2.131-1.632-4.8-.278-4.446,2.037.659,4.343-1.931,3.3-4.106,3.316-3.336.03-6.673.05-10.009-.011-3.242-.059-4.429-1.526-2.732-4.539,1-1.775,1.327-3.419-.446-4.815-1.859-1.464-3.363-.451-4.747.905a44.967,44.967,0,0,1-1.517-9.765c-.8-8.553-1.3-17.146-2.45-25.651-1.424-10.517,4.437-16.962,14.2-16.708,19.782.516,39.586.158,59.383.161m-54.92,40.68c1.9-3.067,3.5-5.664,5.115-8.253,3.377-5.416,3.51-5.436,7.723-.67,1.254,1.419,2.631,2.118,4.353.925,1.65-1.141,1.769-2.671.889-4.391-1.742-3.4-4.184-6.011-8.2-6.313-3.811-.286-6.668,1.522-8.661,4.755q-2.516,4.084-5.095,8.129c-.693,1.082-1.205,2.813-2.787.564a2.593,2.593,0,0,0-3.738-.555,3.108,3.108,0,0,0-1.508,3.581c2.914,11.772,1.012,11.237,12.079,9.231,2.006-.363,4.067-.82,4.275-3.212.241-2.748-2.017-3.279-4.448-3.791m21.909,5.937c1.853,3.006,3.619,5.839,5.355,8.692,1.5,2.465,1.689,4.429-1.832,5.232-1.99.454-3.288,1.736-2.625,3.947.713,2.372,2.6,2.623,4.723,2.163a8.938,8.938,0,0,0,6.048-13.03c-1.6-3.08-3.556-5.98-5.415-8.92-.9-1.415-1.355-2.413.981-2.722a2.675,2.675,0,0,0,2.319-3.008,3.113,3.113,0,0,0-2.114-2.84c-8.423-3.851-11.857-2.236-13.729,6.514-.423,1.977-1.473,4.166.855,5.689,2.305,1.508,3.76-.54,5.435-1.716" transform="translate(-15.478 -12.624)" fill="#b9ea6b"/>
    <path id="Trazado_728586" data-name="Trazado 728586" d="M96.8,141.57c-.307,10.143,1.146,20.157,2.381,30.173.606,4.913,3.526,7.163,8.5,7.185q24.407.109,48.814.138c-.42,7.835-.926,8.332-8.527,8.333q-29.046,0-58.09,0c-6.366,0-7.156-.532-7.759-7.019-1.906-20.514-3.659-41.042-5.46-61.565-1.277-14.561-2.443-29.133-3.887-43.678-.283-2.851.347-3.531,3.128-3.522q43.463.127,86.925-.006c5.245-.021,2.639,3.038,2.524,5.229-19.8,0-39.6.355-59.384-.161-9.768-.255-15.629,6.19-14.2,16.707,1.151,8.5,1.647,17.1,2.45,25.651a44.86,44.86,0,0,0,1.518,9.765c-2.755,4.517-2.558,8.788,1.07,12.772" transform="translate(-11.821 -11.641)" fill="#a1e42e"/>
    <path id="Trazado_728587" data-name="Trazado 728587" d="M69.265,179.8c-6.119.048-12.239.135-18.358.132-6.323,0-9.4-3.023-9.794-9.294-.991-15.579-2.476-31.113-4.067-46.643-1.183-11.546-1.948-23.145-2.55-34.738-.336-6.472,4.57-11.227,11.152-11.391,4.866-.121,9.738-.02,14.606-.018Q64.76,128.821,69.265,179.8" transform="translate(-5.605 -12.649)" fill="#f0f9fd"/>
    <path id="Trazado_728588" data-name="Trazado 728588" d="M99.1,24.6c2.207-1.779,2.526-4.562,3.356-6.951,1.2-3.441,3.263-4.83,6.79-4.808,12.9.082,25.8.059,38.706.075.061,4.99.074,9.982.2,14.972.064,2.446-.848,3.44-3.411,3.424-14.155-.086-28.312-.006-42.467-.059-5.458-.021-2.9-4.057-3.177-6.654" transform="translate(-16.053 -2.088)" fill="#a1e42e"/>
    <path id="Trazado_728589" data-name="Trazado 728589" d="M163.063,37.174c.409.878.789,1.77,1.232,2.631,1.155,2.243,0,2.545-1.941,2.543q-42.68-.043-85.361-.013c-1.674,0-3.146.142-2.153-2.422,3.871-9.994,7.616-20.036,11.422-30.055a2.616,2.616,0,0,1,2.352-1.776c0,5.981,0,11.853,0,17.724.006,8.564,2.326,10.9,10.916,10.885q22.593-.035,45.186-.121c6.076,1.447,12.236.3,18.347.6" transform="translate(-12.115 -1.314)" fill="#9cdd2e"/>
    <path id="Trazado_728590" data-name="Trazado 728590" d="M118.588,62.765c-15.6,0-31.2-.037-46.8.039-2.417.012-3.745-.191-3.722-3.256s1.589-2.9,3.659-2.9q46.8.036,93.6-.021c2.434-.005,3.733.224,3.721,3.272-.011,3.073-1.6,2.882-3.656,2.879q-23.4-.045-46.8-.017" transform="translate(-11.066 -9.207)" fill="#b9ea6b"/>
    <path id="Trazado_728591" data-name="Trazado 728591" d="M38.787,24.555c5.416-13.174,2.959-11.626,17.12-11.7q6.249-.03,12.5.005c1.36.007,2.835-.27,3.774,1.151-2.354,6.976-4.862,13.893-7.85,20.628h-6.5c-.374-2.491-1.871-3.46-4.324-3.387-2.895.087-5.793.02-8.692.02-6.456,0-6.456,0-6.034-6.722" transform="translate(-6.281 -2.087)" fill="#c6edfc"/>
    <path id="Trazado_728592" data-name="Trazado 728592" d="M47.23,45.571c-.509-2.831-2.488-3.284-4.96-3.266-8.507.06-17.015-.009-25.522.047-1.862.013-3-.145-2.1-2.475,3.856-9.985,7.645-20,11.453-30a2.75,2.75,0,0,1,1.934-1.856c.971,2.186.381,4.5.436,6.71.111,4.459-.025,8.925.05,13.386.09,5.351,2.888,8.431,8.131,8.579,5.149.146,10.31-.089,15.466-.157,2.219,1.4,4.727.273,7.045.807a12.431,12.431,0,0,1-5.406,8.227l-6.524-.005" transform="translate(-2.33 -1.304)" fill="#d6ecf3"/>
    <path id="Trazado_728593" data-name="Trazado 728593" d="M46.176,52.86l6.524.005A23.075,23.075,0,0,0,52.728,65.4l-6.545.022c-.485-2.836-2.451-3.305-4.93-3.291-9.9.055-19.8-.031-29.694.06-2.4.022-3.742-.155-3.715-3.237.026-3.017,1.5-2.935,3.61-2.924,9.9.052,19.8,0,29.694.037,2.421.009,4.488-.355,5.027-3.208" transform="translate(-1.275 -8.594)" fill="#c6edfc"/>
    <path id="Trazado_728594" data-name="Trazado 728594" d="M201.823,52.872c.555,2.838,2.613,3.208,5.035,3.2,9.891-.038,19.782.01,29.672-.035,2.086-.009,3.609-.123,3.633,2.909.024,3.062-1.3,3.272-3.712,3.249-9.89-.093-19.782-.006-29.672-.06-2.466-.014-4.451.425-4.957,3.259l-6.528-.01a23.673,23.673,0,0,0,.041-12.505l6.488-.006" transform="translate(-31.749 -8.596)" fill="#fcf28a"/>
    <path id="Trazado_728595" data-name="Trazado 728595" d="M200.774,51.123l-6.488.006a12.668,12.668,0,0,1-5.443-8.262c2.348-.487,4.857.553,7.118-.754l17.568.052c6.118,1.293,12.305.265,18.453.551.363.727.7,1.469,1.092,2.179,1.348,2.427.444,3.032-2.074,3-8.442-.1-16.888,0-25.331-.061-2.467-.017-4.407.484-4.895,3.288" transform="translate(-30.701 -6.846)" fill="#faec55"/>
    <path id="Trazado_728596" data-name="Trazado 728596" d="M194.652,67.812l6.528.01c.544,2.841,2.6,3.238,5.027,3.227,8.229-.04,16.459-.016,24.688-.014,5.223,0,5.223,0,4.154,5.22l-43.607-.034c-.312-3.33-.016-6.429,3.21-8.409" transform="translate(-31.108 -11.024)" fill="#faec55"/>
    <path id="Trazado_728597" data-name="Trazado 728597" d="M176.69,37.887c-6.112-.3-12.272.844-18.347-.6,4.345-1.669,6.037-4.895,5.912-9.459-.137-5,.026-10,.059-15.007l2.9-.352,9.48,25.42" transform="translate(-25.742 -2.027)" fill="#b9ea6b"/>
    <path id="Trazado_728598" data-name="Trazado 728598" d="M66.494,42.364c-2.318-.534-4.826.591-7.045-.806a4.7,4.7,0,0,0,1.771-2.681h6.5l-1.223,3.487" transform="translate(-9.665 -6.32)" fill="#f0f9fd"/>
    <path id="Trazado_728599" data-name="Trazado 728599" d="M195.724,41.57c-2.26,1.306-4.77.267-7.117.754q-.612-1.755-1.222-3.51l6.5-.041a4.417,4.417,0,0,0,1.838,2.8" transform="translate(-30.464 -6.303)" fill="#fcf28a"/>
    <path id="Trazado_728600" data-name="Trazado 728600" d="M168.337,11.758l-2.9.352a7.334,7.334,0,0,1,.224-4c2.157.337,2.137,2.2,2.673,3.651" transform="translate(-26.869 -1.318)" fill="#8fcb27"/>
    <path id="Trazado_728601" data-name="Trazado 728601" d="M236.774,37.955c-6.148-.286-12.334.743-18.452-.551,4.311-1.587,6.134-4.677,6.012-9.255-.136-5.092.044-10.194.088-15.291l2.983-.031c3.289,8.314,6.7,16.582,9.369,25.128" transform="translate(-35.493 -2.085)" fill="#fcf28a"/>
    <path id="Trazado_728602" data-name="Trazado 728602" d="M228.548,12.036l-2.983.031a6.729,6.729,0,0,1,.234-4.1c2.136.613,2.317,2.433,2.748,4.073" transform="translate(-36.637 -1.295)" fill="#b9ea6b"/>
    <path id="Trazado_728603" data-name="Trazado 728603" d="M100.9,152.358c-3.628-3.984-3.825-8.255-1.07-12.772,1.382-1.356,2.887-2.368,4.745-.905,1.774,1.4,1.448,3.041.447,4.816-1.7,3.012-.51,4.479,2.732,4.539,3.335.061,6.673.041,10.009.011,2.174-.02,4.765,1.027,4.105-3.316-.351-2.315,2.315-3.669,4.446-2.037,2.506,1.92,4.541,4.468,6.718,6.8a2.345,2.345,0,0,1,.364,2.749c-2.017,3.177-4.437,6.179-7.72,7.971-2.655,1.447-4.368-1.253-3.592-5.42-6.991-1.414-14.5,1.772-21.184-2.436" transform="translate(-15.924 -22.429)" fill="#080a05"/>
    <path id="Trazado_728604" data-name="Trazado 728604" d="M115.417,122.792c2.432.513,4.69,1.043,4.449,3.791-.209,2.393-2.269,2.849-4.276,3.212-11.067,2.006-9.165,2.541-12.079-9.231a3.109,3.109,0,0,1,1.508-3.581,2.593,2.593,0,0,1,3.738.555c1.582,2.249,2.094.518,2.787-.564q2.588-4.04,5.1-8.129c1.992-3.232,4.849-5.04,8.66-4.755,4.012.3,6.455,2.909,8.2,6.313.88,1.72.76,3.249-.889,4.391-1.722,1.192-3.1.493-4.351-.925-4.213-4.766-4.346-4.746-7.724.67-1.615,2.588-3.215,5.186-5.115,8.253" transform="translate(-16.81 -16.918)" fill="#080a05"/>
    <path id="Trazado_728605" data-name="Trazado 728605" d="M142.574,131.1c-1.675,1.176-3.129,3.224-5.435,1.716-2.328-1.523-1.278-3.712-.855-5.689,1.872-8.749,5.306-10.365,13.729-6.514a3.113,3.113,0,0,1,2.114,2.84,2.675,2.675,0,0,1-2.319,3.008c-2.336.31-1.876,1.307-.981,2.722,1.859,2.94,3.814,5.84,5.415,8.92a8.938,8.938,0,0,1-6.048,13.03c-2.121.46-4.01.209-4.723-2.163-.662-2.211.636-3.493,2.625-3.947,3.521-.8,3.332-2.768,1.832-5.232-1.736-2.852-3.5-5.686-5.355-8.692" transform="translate(-22.058 -19.288)" fill="#080a05"/>
  </g>
</svg>
