<svg xmlns="http://www.w3.org/2000/svg" xmlns:xlink="http://www.w3.org/1999/xlink" width="122" height="122" viewBox="0 0 122 122">
  <defs>
    <clipPath id="clip-path">
      <rect id="Rectángulo_346431" data-name="Rectángulo 346431" width="108.218" height="106.976" fill="none"/>
    </clipPath>
  </defs>
  <g id="Grupo_987403" data-name="Grupo 987403" transform="translate(-392 -431)">
    <circle id="Elipse_5914" data-name="Elipse 5914" cx="61" cy="61" r="61" transform="translate(392 431)" fill="#b20d0d"/>
    <g id="Grupo_987322" data-name="Grupo 987322" transform="translate(399.023 431)">
      <g id="Grupo_987321" data-name="Grupo 987321" clip-path="url(#clip-path)">
        <path id="Trazado_728783" data-name="Trazado 728783" d="M67.828,47.613c-.289,1.272-1.175,1.6-2.363,1.589-3.8-.027-7.6.032-11.405-.023a10.051,10.051,0,0,1-8.185-4.115,5.4,5.4,0,0,0-4.7-2.3c-2.252.041-4.507.117-6.757.059-.968-.025-1.318.487-1.738,1.184a7.108,7.108,0,0,1-6.468,3.646q-11.934,0-23.868.009c-1.045,0-2.065-.074-2.278-1.334-.191-1.132.578-1.634,1.564-1.875,4.995.03,9.989.044,14.983.1.92.011,1.236-.321,1.218-1.222-.061-2.952-.071-5.906-.1-8.86.029-1.4.122-2.8.069-4.191a2.226,2.226,0,0,1,1.658-2.55c1.35.45,1.708,1.432,1.641,2.771-.066,1.32.044,2.649.076,3.974-.033,1.757-.089,3.514-.093,5.271-.012,5.262.346,5.557,5.634,4.743.069-.011.14-.018.209-.031a4.123,4.123,0,0,0,3.58-4.077c.063-2.529-.037-5.062-.067-7.593.034-5.631-.07-11.267.136-16.892.283-7.707-1.746-7.881-8.043-7.75-1.253.026-1.494.445-1.476,1.576.061,3.8,0,7.606.035,11.409.01,1.24-.211,2.249-1.61,2.563-1.4-.267-1.683-1.238-1.672-2.5.033-3.866,0-7.732.022-11.6.005-.859-.013-1.457-1.184-1.436-4.987.085-9.975.087-14.962.119C.742,7.9-.236,7.469.088,6.195.393,5,1.4,4.927,2.451,4.929c7.887.015,15.774-.007,23.661.016a7.051,7.051,0,0,1,6.5,3.6,1.941,1.941,0,0,0,2.018,1.061c3.1-.045,6.2-.069,9.295-.026a5.94,5.94,0,0,0,5.229-2.626C55.211-1.536,54.9.215,63.7.041a35.858,35.858,0,0,1,4.848.169,4.857,4.857,0,0,1,4.709,4.574c.163,1.376.753,1.487,1.876,1.475,4.788-.05,9.577-.022,14.365-.021,6.555,0,9.318,3.655,7.552,10.043,1,.458,2.064.175,3.092.223,3.423.157,5.991,2.07,6.728,5.058a6.6,6.6,0,0,1-3.52,7.617c-.916.5-.918.829-.593,1.71,1.725,4.683-1.061,8.974-6.021,9.269-2.105.125-4.224.07-6.336.029-1.055-.02-1.257.218-1.015,1.335.921,4.257-1.722,7.549-6.085,7.655-3.026.074-6.056-.009-9.084.026a2.119,2.119,0,0,1-2.381-1.612c.324-1.344,1.254-1.688,2.528-1.668,2.947.045,5.9.054,8.842,0,2.744-.049,3.747-1.734,2.674-4.362-.621-1.32-1.832-1.34-3.027-1.346q-4.073-.023-8.145,0c-1.584.011-2.587-.518-2.364-2.322A3.119,3.119,0,0,1,75,37c7.006.028,14.011.012,21.017.016,1.828,0,3.325-.484,3.821-2.5.67-2.762-.735-4.564-3.723-4.586q-9.175-.068-18.351,0c-1.493.009-2.5-.368-2.437-2.085.657-1.064,1.693-1.055,2.777-1.052q10.765.029,21.53.005c1.985,0,3.632-.539,4.039-2.824.346-2.717-.951-4.248-3.736-4.259q-10.555-.044-21.111.006c-1.82.01-2.675-.647-2.265-2.536a3.658,3.658,0,0,1,2.571-.655c3.78.013,7.56.019,11.341,0,1.9-.012,3.47-.547,3.836-2.738.422-2.72-.852-4.261-3.655-4.277-5.693-.033-11.385.005-17.078-.026a2.353,2.353,0,0,0-2.132.97,8.308,8.308,0,0,1-7.114,3.461c-2.512-.124-3.81.857-4.811,3.074-1.173,2.6-5.955,3.922-8.459,2.611a1.766,1.766,0,0,1-.825-1.17c.188-1.968,1.653-1.738,2.99-1.745,1.441-.008,3.026.359,3.723-1.521,1.211-3.265,3.525-4.607,7.035-4.408a5.858,5.858,0,0,0,5.965-4.137c.462-1.4.41-2.673-1.414-3.075-2.123-.694-4.329-.019-6.454-.349-4.5-.7-7.6.945-9.852,4.917-1.917,3.386-5.139,4.814-9.04,4.741-2.668-.05-5.34.052-8.007-.021-1.127-.031-1.417.34-1.406,1.433.07,7.443.077,14.888.1,22.332-.181,2.977-.181,2.98,2.658,2.978q2.315,0,4.629-.015a8.235,8.235,0,0,1,7.091,3.4,7.248,7.248,0,0,0,6.371,3c3.575-.085,7.154,0,10.73-.032,1.26-.011,2.226.275,2.473,1.686" transform="translate(-0.014 0)" fill="#080808"/>
        <path id="Trazado_728784" data-name="Trazado 728784" d="M53.944,193.079q-24.187,0-48.373,0C1.285,193.076,0,191.8,0,187.567q0-9.083,0-18.166c.006-3.335,1.343-4.714,4.652-4.9,2.4-.136,4.168-1.544,5.862-3.033,1.919-1.686,3.253-3.874,4.85-5.837,6.993-8.591,17.281-8.565,24.271.058a51.556,51.556,0,0,0,4.548,5.543,12.748,12.748,0,0,0,6.175,3.4c2.821.591,5.086,2.343,7.278,4.11,3.834,3.092,7.532,6.358,11.445,9.342,4.823,3.677,6.941,3.473,11.371-.746,2.191-2.088,4.265-4.3,6.415-6.429a20.938,20.938,0,0,1,17.193-6.419c2.451.2,4.095,1.678,4.114,4.165q.078,10.139,0,20.278a3.99,3.99,0,0,1-3.958,4.112c-.7.063-1.407.031-2.111.031H53.944M12.692,164.43l25.344,0h4.9c-3.064-2.695-4.75-5.943-7.3-8.467-2.447-2.422-5.3-3.842-8.862-3.378-3.863,0-6.554,2.127-8.852,4.928-1.777,2.167-3.519,4.362-5.276,6.545l-.289.328.332.041m40.556,25.4c4.858.022,9.715.06,14.573.064,11.62.009,23.239-.006,34.859.015,1.308,0,2.344,0,2.325-1.809-.065-6.267-.036-12.535-.017-18.8,0-1.121-.4-1.672-1.593-1.7a17.59,17.59,0,0,0-10.839,2.793,43.556,43.556,0,0,0-6.278,5.63,53.486,53.486,0,0,1-6,5.633c-3.469,2.593-7.017,2.946-10.771.591a68.929,68.929,0,0,1-7.079-5.328c-2.875-2.363-5.49-5.051-8.705-6.991a7.627,7.627,0,0,0-5.066-2.293c-14.568-.034-29.137-.012-43.7-.033-1.253,0-1.766.479-1.76,1.747q.045,9.4,0,18.791c0,1.206.381,1.784,1.705,1.779q24.173-.076,48.346-.085" transform="translate(0 -86.11)" fill="#050403"/>
        <path id="Trazado_728785" data-name="Trazado 728785" d="M21.724,38.881a2.227,2.227,0,0,0-1.658,2.55c.053,1.394-.04,2.793-.069,4.191l-16.021.01q-.013-13.1-.027-26.2c4.987-.032,9.975-.034,14.962-.119,1.171-.02,1.19.578,1.184,1.436-.024,3.866.011,7.732-.022,11.6-.011,1.26.268,2.231,1.672,2.5l-.022,4.035" transform="translate(-2.279 -11.147)" fill="#9cc5fa"/>
        <path id="Trazado_728786" data-name="Trazado 728786" d="M131.988,91.343c1.073,2.629.071,4.314-2.674,4.363-2.947.053-5.9.044-8.842,0-1.274-.019-2.2.324-2.528,1.668l-4.005.021c-.247-1.411-1.213-1.7-2.473-1.686-3.577.033-7.155-.054-10.73.032a7.249,7.249,0,0,1-6.371-3.005,8.235,8.235,0,0,0-7.091-3.4q-2.315.014-4.629.015c-2.839,0-2.839,0-2.658-2.979a67.918,67.918,0,0,0,7.16-.04,9.269,9.269,0,0,1,9,3.739,6.858,6.858,0,0,0,5.533,2.622c9.342.055,18.685.027,28.027.019,1.013,0,2-.109,2.283-1.369" transform="translate(-46.124 -49.781)" fill="#eeb785"/>
        <path id="Trazado_728787" data-name="Trazado 728787" d="M3.9,81.536l16.021-.01c.03,2.953.039,5.907.1,8.86.019.9-.3,1.234-1.217,1.222-4.994-.06-9.989-.074-14.984-.1l.08-9.967" transform="translate(-2.207 -47.051)" fill="#7eb1f7"/>
        <path id="Trazado_728788" data-name="Trazado 728788" d="M162.035,157.246c3.1-.062,3.784.692,3.377,3.723A12.874,12.874,0,0,1,152.526,172c-2.409-.063-3.158-.9-2.919-3.263a12.739,12.739,0,0,1,12.429-11.486M152.9,168.6c4.515.327,8.551-3.177,9.274-8.051-4.564-.254-8.489,3.155-9.274,8.051" transform="translate(-86.318 -90.75)" fill="#070706"/>
        <path id="Trazado_728789" data-name="Trazado 728789" d="M117.3,135.545c-4.279-.019-7.185-1.235-9.633-3.544-1.471-1.388-1.474-2.545-.1-3.946a12.825,12.825,0,0,1,17.847,0c1.45,1.475,1.461,2.47-.065,3.922a11.9,11.9,0,0,1-8.053,3.566m-.809-3.1a10.5,10.5,0,0,0,5.331-1.658c.7-.462,1.05-.791.156-1.5-2.722-2.153-8.088-2.185-10.876-.051-.82.627-.757,1.012.041,1.532a10.618,10.618,0,0,0,5.348,1.675" transform="translate(-61.492 -71.82)" fill="#070706"/>
        <path id="Trazado_728790" data-name="Trazado 728790" d="M191.09,129.47a11.6,11.6,0,0,1,11.454,10.6c.137,1.754-.661,2.6-2.35,2.8-5.879.693-12.4-5.192-12.206-11.053.069-2.131,1.519-2.429,3.1-2.353m8.136,10.073c-.962-3.8-3.628-6.417-6.7-6.761-.949-.106-1.266-.007-.959,1.071a8.222,8.222,0,0,0,7.662,5.69" transform="translate(-108.491 -74.715)" fill="#080808"/>
        <path id="Trazado_728791" data-name="Trazado 728791" d="M131.936,45.7c-.278,1.261-1.27,1.368-2.283,1.369-9.342.008-18.685.037-28.027-.019a6.858,6.858,0,0,1-5.533-2.622,9.269,9.269,0,0,0-9-3.739,67.922,67.922,0,0,1-7.16.04c-.027-7.444-.034-14.888-.1-22.332-.01-1.093.28-1.464,1.406-1.433,2.667.073,5.339-.029,8.007.021,3.9.073,7.122-1.355,9.039-4.741,2.249-3.972,5.355-5.614,9.852-4.916,2.125.33,4.331-.345,6.454.349-.536,2.966-2.31,4.466-5.96,4.252-3.1-.182-5.157.815-6.334,3.653-1.131,2.727-2.721,4.669-6.127,4.117a1.505,1.505,0,0,0-1.8,1.38c.021,1.081.891,1.492,1.925,1.485a1.766,1.766,0,0,0,.825,1.17c2.5,1.31,7.286-.014,8.459-2.611,1-2.217,2.3-3.2,4.811-3.074a8.308,8.308,0,0,0,7.114-3.46,2.352,2.352,0,0,1,2.132-.971c5.693.032,11.385-.006,17.078.026,2.8.016,4.077,1.557,3.655,4.276-5.139,0-10.279-.027-15.418.011-2.617.019-3.282,1.044-2.329,3.388-.411,1.888.445,2.545,2.265,2.535q10.555-.058,21.111-.005c2.786.012,4.082,1.543,3.736,4.26-8.641-.014-17.282-.043-25.923-.03-2.582,0-3.383,1.349-2.423,3.9-.06,1.717.944,2.094,2.437,2.085q9.175-.055,18.351,0c2.988.022,4.393,1.824,3.723,4.586l-24.379-.031c-.77,0-1.543-.024-2.311.023a1.608,1.608,0,0,0-1.623,1.381c-.117.766-.447,1.753.82,2.011-.222,1.8.78,2.333,2.364,2.322q4.072-.029,8.145,0c1.2.006,2.406.027,3.027,1.346" transform="translate(-46.072 -4.141)" fill="#efcea3"/>
        <path id="Trazado_728792" data-name="Trazado 728792" d="M45.984,38.827l.022-4.035c1.4-.315,1.62-1.323,1.609-2.563-.032-3.8.027-7.607-.034-11.409-.018-1.131.223-1.55,1.476-1.576,6.3-.131,8.325.043,8.043,7.75-.206,5.625-.1,11.261-.136,16.892A8.705,8.705,0,0,1,54.18,45.3c-2.149.553-4.323.124-6.48.267-.032-1.325-.141-2.654-.076-3.974.066-1.339-.291-2.322-1.641-2.771" transform="translate(-26.539 -11.093)" fill="#f8f5f5"/>
        <path id="Trazado_728793" data-name="Trazado 728793" d="M49.916,79.234c2.157-.143,4.331.285,6.48-.267a8.705,8.705,0,0,0,2.782-1.42c.03,2.531.13,5.064.067,7.593a4.123,4.123,0,0,1-3.58,4.077c-.069.014-.139.021-.208.031-5.288.813-5.647.518-5.634-4.743,0-1.757.061-3.514.093-5.271" transform="translate(-28.754 -44.755)" fill="#dad7e9"/>
        <path id="Trazado_728794" data-name="Trazado 728794" d="M177.557,60.507c-.96-2.55-.159-3.9,2.423-3.9,8.641-.013,17.283.016,25.924.03-.406,2.285-2.054,2.821-4.039,2.824q-10.765.016-21.53-.005c-1.084,0-2.12-.012-2.777,1.052" transform="translate(-102.247 -32.668)" fill="#e7b382"/>
        <path id="Trazado_728795" data-name="Trazado 728795" d="M169.747,84.942c-1.267-.258-.937-1.245-.82-2.01a1.607,1.607,0,0,1,1.622-1.381c.768-.047,1.54-.024,2.311-.023q12.19.013,24.38.03c-.5,2.021-1.992,2.506-3.82,2.5-7.006,0-14.011.012-21.017-.016a3.12,3.12,0,0,0-2.656.9" transform="translate(-97.42 -47.048)" fill="#eeb785"/>
        <path id="Trazado_728796" data-name="Trazado 728796" d="M116.124,23.257c-1.034.007-1.9-.4-1.925-1.486a1.505,1.505,0,0,1,1.8-1.38c3.407.553,5-1.389,6.128-4.117,1.176-2.838,3.236-3.836,6.334-3.654,3.649.215,5.424-1.285,5.96-4.251,1.825.4,1.876,1.67,1.414,3.075a5.858,5.858,0,0,1-5.965,4.137c-3.509-.2-5.824,1.143-7.035,4.408-.7,1.88-2.283,1.513-3.723,1.521-1.337.008-2.8-.223-2.99,1.745" transform="translate(-65.907 -4.831)" fill="#eeb785"/>
        <path id="Trazado_728797" data-name="Trazado 728797" d="M180.446,35.976c-.954-2.344-.288-3.369,2.329-3.388,5.139-.038,10.278-.011,15.417-.01-.365,2.191-1.937,2.726-3.835,2.738-3.781.023-7.561.017-11.341,0a3.659,3.659,0,0,0-2.571.656" transform="translate(-103.902 -18.796)" fill="#e7b382"/>
        <path id="Trazado_728798" data-name="Trazado 728798" d="M57.609,214.942q-24.173.034-48.346.085c-1.325,0-1.709-.574-1.705-1.779q.035-9.4,0-18.791c-.006-1.268.507-1.749,1.76-1.747,14.569.02,29.137,0,43.705.033a7.625,7.625,0,0,1,5.066,2.293,4.419,4.419,0,0,0,.055,1.039,30.686,30.686,0,0,1-.533,18.867m-29.167-9.189c-.957.154-1.6.688-1.554,1.667a1.49,1.49,0,0,0,1.685,1.506,1.469,1.469,0,0,0,1.455-1.527,1.6,1.6,0,0,0-1.585-1.647M40.7,202.11c-.221-.78-.666-1.478-1.68-1.421a1.557,1.557,0,0,0,.044,3.112c.979,0,1.512-.6,1.637-1.691m-25.861,1.705a1.5,1.5,0,0,0,1.438-1.68,1.4,1.4,0,0,0-1.462-1.449,1.453,1.453,0,0,0-1.585,1.553c-.023,1.031.645,1.455,1.609,1.576m37.642-4.064a1.456,1.456,0,0,0-1.427,1.674,1.4,1.4,0,0,0,1.53,1.382,1.434,1.434,0,0,0,1.569-1.558,1.489,1.489,0,0,0-1.672-1.5" transform="translate(-4.361 -111.219)" fill="#ce8e7e"/>
        <path id="Trazado_728799" data-name="Trazado 728799" d="M125.921,214.924a30.686,30.686,0,0,0,.533-18.867,4.42,4.42,0,0,1-.055-1.039c3.215,1.94,5.831,4.627,8.705,6.991a68.992,68.992,0,0,0,7.079,5.328c3.755,2.355,7.3,2,10.771-.592a53.444,53.444,0,0,0,6-5.633,43.514,43.514,0,0,1,6.278-5.631,17.591,17.591,0,0,1,10.839-2.793c1.192.031,1.6.581,1.592,1.7-.019,6.267-.047,12.535.017,18.8.019,1.813-1.018,1.811-2.326,1.809-11.62-.021-23.239-.006-34.859-.015-4.858,0-9.715-.042-14.573-.064m39.935-7.587c-.114-.853-.558-1.559-1.56-1.55a1.483,1.483,0,0,0-1.57,1.606,1.45,1.45,0,0,0,1.429,1.53c.954.066,1.554-.512,1.7-1.585m4.482-7.321a1.47,1.47,0,0,0-1.673-1.4,1.439,1.439,0,0,0-1.372,1.743,1.417,1.417,0,0,0,1.546,1.375,1.5,1.5,0,0,0,1.5-1.719" transform="translate(-72.673 -111.201)" fill="#cc765e"/>
        <path id="Trazado_728800" data-name="Trazado 728800" d="M55.3,169.051l-25.344,0a1,1,0,0,0-.043-.37c1.757-2.183,3.5-4.378,5.277-6.545,2.3-2.8,4.988-4.925,8.852-4.927,2.18.633,3.474,2.452,4.714,4.052,2.084,2.689,4.392,5.173,6.545,7.793" transform="translate(-17.264 -90.728)" fill="#fdde7c"/>
        <path id="Trazado_728801" data-name="Trazado 728801" d="M74.583,168.931c-2.153-2.62-4.46-5.1-6.545-7.793-1.24-1.6-2.533-3.419-4.714-4.052,3.559-.465,6.415.956,8.861,3.377,2.549,2.524,4.235,5.772,7.3,8.467Z" transform="translate(-36.547 -90.609)" fill="#f1c762"/>
        <path id="Trazado_728802" data-name="Trazado 728802" d="M29.52,184.336a1.012,1.012,0,0,1,.043.37l-.332-.041.289-.328" transform="translate(-16.87 -106.386)" fill="#f1c762"/>
        <path id="Trazado_728803" data-name="Trazado 728803" d="M157.454,173.1c.784-4.9,4.71-8.305,9.274-8.051-.723,4.874-4.759,8.378-9.274,8.051" transform="translate(-90.871 -95.249)" fill="#f4d778"/>
        <path id="Trazado_728804" data-name="Trazado 728804" d="M121.9,136.82a10.618,10.618,0,0,1-5.348-1.675c-.8-.521-.861-.9-.041-1.532,2.788-2.134,8.153-2.1,10.876.051.895.707.548,1.036-.156,1.5a10.5,10.5,0,0,1-5.331,1.658" transform="translate(-66.902 -76.199)" fill="#f4d778"/>
        <path id="Trazado_728805" data-name="Trazado 728805" d="M203.958,144.032a8.222,8.222,0,0,1-7.662-5.69c-.307-1.077.01-1.177.959-1.071,3.075.344,5.742,2.965,6.7,6.761" transform="translate(-113.223 -79.204)" fill="#f4d778"/>
        <path id="Trazado_728806" data-name="Trazado 728806" d="M54.824,223.553a1.6,1.6,0,0,1,1.585,1.647,1.469,1.469,0,0,1-1.455,1.527,1.489,1.489,0,0,1-1.684-1.506c-.046-.979.6-1.513,1.554-1.667" transform="translate(-30.742 -129.019)" fill="#080808"/>
        <path id="Trazado_728807" data-name="Trazado 728807" d="M81.627,213c-.124,1.093-.658,1.695-1.637,1.691a1.557,1.557,0,0,1-.044-3.111c1.014-.057,1.459.641,1.68,1.421" transform="translate(-45.284 -122.104)" fill="#080808"/>
        <path id="Trazado_728808" data-name="Trazado 728808" d="M22.592,214.7c-.965-.121-1.632-.544-1.609-1.576a1.453,1.453,0,0,1,1.585-1.553,1.4,1.4,0,0,1,1.462,1.449,1.5,1.5,0,0,1-1.438,1.68" transform="translate(-12.109 -122.106)" fill="#080808"/>
        <path id="Trazado_728809" data-name="Trazado 728809" d="M111.846,209.362a1.489,1.489,0,0,1,1.672,1.5,1.434,1.434,0,0,1-1.569,1.558,1.4,1.4,0,0,1-1.53-1.382,1.456,1.456,0,0,1,1.427-1.674" transform="translate(-63.721 -120.829)" fill="#070706"/>
        <path id="Trazado_728810" data-name="Trazado 728810" d="M216.086,225.227c-.147,1.073-.747,1.651-1.7,1.585a1.451,1.451,0,0,1-1.43-1.53,1.483,1.483,0,0,1,1.571-1.606c1-.009,1.446.7,1.56,1.55" transform="translate(-122.903 -129.091)" fill="#080808"/>
        <path id="Trazado_728811" data-name="Trazado 728811" d="M226.783,208.109a1.5,1.5,0,0,1-1.5,1.719,1.417,1.417,0,0,1-1.546-1.375,1.439,1.439,0,0,1,1.372-1.743,1.47,1.47,0,0,1,1.673,1.4" transform="translate(-129.119 -119.293)" fill="#080808"/>
      </g>
    </g>
  </g>
</svg>
