<svg xmlns="http://www.w3.org/2000/svg" xmlns:xlink="http://www.w3.org/1999/xlink" width="122" height="122" viewBox="0 0 122 122">
  <defs>
    <clipPath id="clip-path">
      <rect id="Rectángulo_346433" data-name="Rectángulo 346433" width="99.979" height="91.95" fill="none"/>
    </clipPath>
  </defs>
  <g id="Grupo_987405" data-name="Grupo 987405" transform="translate(-1094 -431)">
    <circle id="Elipse_5916" data-name="Elipse 5916" cx="61" cy="61" r="61" transform="translate(1094 431)" fill="#06d1d1"/>
    <g id="Grupo_987326" data-name="Grupo 987326" transform="translate(1104.104 446.025)">
      <g id="Grupo_987325" data-name="Grupo 987325" clip-path="url(#clip-path)">
        <path id="Trazado_728844" data-name="Trazado 728844" d="M99.9,147.369c.019,7.675-.022,15.352.095,23.026.032,2.163-1.342,1.647-2.475,1.648q-46.168.019-92.336.01c-5.156,0-5.164,0-5.153-5.08q.019-9.319.063-18.638c1.148.209,1.79-.081,1.7-1.437-.085-1.3.007-2.61.022-3.916a.787.787,0,0,0,.346-.111,9.359,9.359,0,0,0,3.829.029,1.12,1.12,0,0,0,.25.343c-.423,2.917-.423,2.917,2.433,3.094,0,3.049.093,6.1-.047,9.145-.086,1.879,1.019,1.717,2.213,1.676,1.17-.04,2.511.411,2.416-1.69-.138-3.042-.018-6.1-.008-9.144l6.025-.144,2.711.164a44.167,44.167,0,0,1-.065,4.968c-.255,2.132.951,2.03,2.445,2.071,1.615.044,2.723-.132,2.293-2.137l8.755-.012c.006,1.458.1,2.924,0,4.374-.145,2.024,1.275,1.5,2.339,1.538,1.138.04,2.358.333,2.272-1.619-.136-3.057-.044-6.125-.048-9.189,2.582-.131,1.5-1.839,1.354-3.145l2.884-.159c.027,1.378.057,2.756.08,4.134.01.607.021,1.186.874,1.186s.864-.579.874-1.186c.023-1.378.053-2.756.08-4.134l4.184-.133a1.02,1.02,0,0,0,.224.341c-.474,2.919-.474,2.919,2.348,3.091-.017,3.054.051,6.112-.079,9.161-.09,2.113,1.318,1.634,2.473,1.654,1.122.019,2.335.338,2.249-1.617-.134-3.047-.01-6.106,0-9.16.693.9.34,1.95.276,2.9-.1,1.534.439,2.005,1.952,1.93,2.154-.106,4.32.011,6.48.032.133.67-.4,1.771.36,1.944a8.729,8.729,0,0,0,3.858,0c.916-.221.4-1.386.458-2.127.1-1.3.087-2.6.122-3.908a3.015,3.015,0,0,0,2.6,1.434c0,5.534.009,11.069-.005,16.6,0,.992-.1,1.805,1.393,1.8s1.4-.806,1.4-1.8c-.014-5.534,0-11.069,0-16.6l3.219.013c-.011,2.388-.017,4.777-.034,7.165-.016,2.211,1.666,1.242,2.683,1.375.97.127,2.066.3,1.992-1.385-.105-2.384-.028-4.776-.029-7.165l10.242,0c-.008,5.549,0,11.1-.038,16.648-.007,1.084.085,1.746,1.487,1.755,1.436.009,1.457-.7,1.451-1.758-.031-5.549-.015-11.1-.016-16.648a3.346,3.346,0,0,0,2.53-1.2" transform="translate(-0.018 -80.146)" fill="#c3eb1b"/>
        <path id="Trazado_728845" data-name="Trazado 728845" d="M185.118,93.5l-10.242,0-4.611.01-3.219-.013-2.784,0a3.016,3.016,0,0,1-2.6-1.434L161.6,91.2c.017-.148.034-.3.051-.446q-.027-1.282-.054-2.565.018-2.8.036-5.6.018-1.411.037-2.822-.016-8.9-.034-17.808.017-1.407.033-2.814.008-5.1.016-10.2c0-3.854.145-4.008,3.952-4.245l9.387.023c4.229,0,8.458.022,12.688.007,1.728-.006,2.9.718,2.9,2.513q.005,22.528-.075,45.056A3.344,3.344,0,0,1,188,93.5l-2.884,0M166.063,72c-.273-.043-.384.082-.362.346q0,6.8-.008,13.6c.146.135.292.388.438.388,6.467.031,12.933.028,19.4.06,1.055,0,1.141-.605,1.132-1.41-.048-4.066-.079-8.133-.117-12.2.074-1.105-.763-.855-1.348-.854q-9.567.012-19.134.063m9.085-14.108a1.571,1.571,0,0,0-1.811-1.461,1.427,1.427,0,0,0-1.368,1.622,1.485,1.485,0,0,0,1.562,1.467,1.592,1.592,0,0,0,1.617-1.628m3.553,1.584c.9-.138,1.485-.6,1.469-1.569a1.326,1.326,0,0,0-1.366-1.4A1.37,1.37,0,0,0,177.2,57.9c-.032.932.6,1.418,1.5,1.581m-8.709-1.54a1.545,1.545,0,0,0-1.564-1.515,1.389,1.389,0,0,0-1.584,1.437,1.465,1.465,0,0,0,1.612,1.66,1.583,1.583,0,0,0,1.536-1.582m3.608,4.369a1.529,1.529,0,0,0-1.623,1.446,1.477,1.477,0,0,0,1.639,1.622,1.393,1.393,0,0,0,1.516-1.5c.011-.906-.636-1.41-1.532-1.566m10.214-8.785c.923-.052,1.527-.488,1.549-1.447a1.423,1.423,0,0,0-1.6-1.608,1.385,1.385,0,0,0-1.444,1.547,1.435,1.435,0,0,0,1.5,1.508m-8.659-1.613a1.625,1.625,0,0,0-1.651-1.44,1.444,1.444,0,0,0-1.535,1.5,1.464,1.464,0,0,0,1.716,1.526,1.571,1.571,0,0,0,1.469-1.585m-5.2.115a1.59,1.59,0,0,0-1.471-1.516,1.485,1.485,0,0,0-.179,2.965c.954.062,1.426-.509,1.65-1.448m-1.616,10.284a1.442,1.442,0,0,0-1.432,1.584,1.527,1.527,0,0,0,3.05.077c.012-1.015-.652-1.531-1.617-1.661M184.21,65.33c.735.094,1.19-.32,1.152-1.238-.041-.992-.553-1.746-1.536-1.734a1.493,1.493,0,0,0-1.482,1.757c.065,1.029.81,1.246,1.866,1.215m-4.024-13.264c-.02-.947-.468-1.565-1.431-1.594a1.446,1.446,0,0,0-1.6,1.452,1.414,1.414,0,0,0,1.461,1.575,1.38,1.38,0,0,0,1.572-1.433m3.745,7.4c.877-.23,1.478-.72,1.377-1.669a1.35,1.35,0,0,0-1.689-1.245,1.27,1.27,0,0,0-1.254,1.459c.055.953.694,1.353,1.566,1.455m-5.1,2.818a1.575,1.575,0,0,0-1.679,1.352c-.124,1.031.575,1.6,1.567,1.662.868.055,1.329-.454,1.38-1.317.053-.9-.222-1.567-1.267-1.7" transform="translate(-90.649 -25.073)" fill="#bbdbdb"/>
        <path id="Trazado_728846" data-name="Trazado 728846" d="M76,98.194q-.019,1.411-.038,2.822l-7.36.068c-3.067-.288-3.073-.288-3.065,2.634,0,.946.047,1.892.072,2.838q-.006,1.542-.011,3.083c-.362,1.675.243,2.4,2.006,2.171a15.765,15.765,0,0,1,2.576-.016c1.133.039,1.518-.579,1.5-1.6.9-.8,1.986-.456,3.007-.513.017.357.043.713.048,1.07.059,3.685.058,3.685-3.534,3.835-2.16-.022-4.326-.139-6.48-.032-1.513.075-2.056-.4-1.952-1.93.065-.949.418-2-.276-2.9l-.137-.146q.06-1.27.12-2.54c.814-1.725.269-3.543.342-5.317.033-.809-.691-.784-1.282-.79l-4.792-.047-5.84.027H49.362l-4.27.029c-4.786,0-4.789,0-4.479,4.862a4.9,4.9,0,0,0,.2.843,5.98,5.98,0,0,0,.006,3.035c-.5,1.6.295,3.325-.447,4.907l-8.755.012c-2.988-.147-2.985-.147-2.938-3.2.009-.575-.012-1.151-.02-1.727a6.512,6.512,0,0,1,2.866.11c-.3,1.435.122,2.2,1.75,2.029a11.053,11.053,0,0,1,2.575,0c1.809.232,2.341-.545,1.926-2.2v-3.024c.029-1.386.031-2.773.1-4.157.045-.969-.213-1.491-1.328-1.469-4.087.08-8.174.1-12.262.137a33.5,33.5,0,0,0-6.581-.013l-5.253-.189c-.8-.005-1.59-.026-2.385-.012-.975.016-1.208-.543-1.2-1.393.011-.782.286-1.239,1.128-1.233.8.005,1.59-.006,2.385-.01a.9.9,0,0,0,.464-.9c0-5.366.01-10.733-.014-16.1a2.9,2.9,0,0,0-.394-.964c-.794-.007-1.588-.03-2.382-.019-.978.014-1.2-.552-1.188-1.4.01-.785.294-1.234,1.131-1.228.794.005,1.588-.007,2.382-.011l5.294-.069,6.579,0,11.829-.008,9.066.029,4.136.035h1.676l5.693.016,5.334-.074,6.578.006,7.425.014-.033,2.814-7.366.06c-3.064-.269-3.065-.269-3.066,2.624q0,6.1,0,12.192c0,3.045,0,3.045,3.039,2.919L76,98.194m-13.588-.012c.263.007.393-.113.364-.383.018-5.321.046-10.642.036-15.963,0-.553.351-1.443-.8-1.391l-5.282-.182-5.822.025H49.351l-4.265,0a12.9,12.9,0,0,1-1.966.016c-1.949-.273-2.686.375-2.58,2.472.183,3.639.051,7.293.051,10.941,0,4.652,0,4.652,4.576,4.5l4.121.017h1.681l5.682.015,5.34-.072.208.034ZM17.7,80.445c-1.494-.439-1.908.221-1.893,1.649.054,4.784.063,9.57-.005,14.354-.021,1.437.415,2.052,1.872,1.726l6.579,0,11.829-.008c1.211.248,1.84.015,1.814-1.482-.087-4.919-.069-9.841-.01-14.761.017-1.422-.5-1.84-1.809-1.455a115.7,115.7,0,0,0-11.8-.015,35.578,35.578,0,0,0-6.58-.011" transform="translate(-4.976 -43.501)" fill="#c9e8ea"/>
        <path id="Trazado_728847" data-name="Trazado 728847" d="M79.925,44.994l-9.067-.029q0-11.148,0-22.3c1.161-.211,2.43.43,3.506-.447q.02-1.379.04-2.758a1.233,1.233,0,0,1,.214.042c5.346,2.013,5.351,2.013,5.344,7.586q-.01,8.951-.036,17.9" transform="translate(-39.748 -10.919)" fill="#01b5f0"/>
        <path id="Trazado_728848" data-name="Trazado 728848" d="M1.8,62.872c-.014,1.306-.107,2.616-.022,3.915.089,1.356-.553,1.646-1.7,1.437C.053,63.912.008,59.6.005,55.289Q-.007,30.283,0,5.277C0,1.288,1.238.071,5.272.066q6.8-.009,13.6,0c5.085,0,6.068.978,6.026,5.986l-1.741.027c-.088-3.559-.426-4.17-2.712-4.192-5.337-.054-10.675-.01-16.012-.02-1.815,0-2.671.864-2.668,2.686q.041,28.842.059,57.684-.011.318-.022.636" transform="translate(0 -0.035)" fill="#436a76"/>
        <path id="Trazado_728849" data-name="Trazado 728849" d="M102.566,34.11H100.89c-.013-9.925-.042-19.85-.029-29.775,0-2.747,1.429-4.251,4.156-4.284q8.21-.1,16.421,0c3.26.042,4.379,1.7,4.25,5.947l-1.671.045c-.233-4.18-.266-4.212-4.5-4.212-4.533,0-9.067-.011-13.6,0-2.834.009-3.3.486-3.305,3.321q-.026,14.477-.042,28.953" transform="translate(-56.578 0)" fill="#436a76"/>
        <path id="Trazado_728850" data-name="Trazado 728850" d="M180.186,34.652l-9.387-.023q.006-3.936.011-7.871l9.242-.008q.067,3.951.133,7.9" transform="translate(-95.812 -15.006)" fill="#01b5f0"/>
        <path id="Trazado_728851" data-name="Trazado 728851" d="M152.307,15.006c2.89-.413,5.393.754,7.893,1.933q-.013,1.355-.027,2.709l-3.939.019q-3.395,0-6.79-.007c-4.675,0-4.675,0-4.618-4.774l1.281.045a4.284,4.284,0,0,0,6.2.076" transform="translate(-81.236 -8.35)" fill="#01befc"/>
        <path id="Trazado_728852" data-name="Trazado 728852" d="M59.249,16.757q-.02,1.379-.04,2.758l-15.36.019-.006-.006.029-4.772,1.292-.036c2.024,1.938,4.486,1.907,6.574-.083a18.305,18.305,0,0,1,7.51,2.12" transform="translate(-24.595 -8.211)" fill="#01befc"/>
        <path id="Trazado_728853" data-name="Trazado 728853" d="M53.427,14.1c-2.088,1.991-4.55,2.022-6.574.083.742-.825,1.718-.353,2.588-.467l1.741-.027c.752.12,1.591-.239,2.246.41" transform="translate(-26.283 -7.678)" fill="#c9e8ea"/>
        <path id="Trazado_728854" data-name="Trazado 728854" d="M153.957,14.319a4.284,4.284,0,0,1-6.2-.076c.7-.9,1.7-.4,2.569-.537L152,13.661c.676.151,1.524-.21,1.959.658" transform="translate(-82.886 -7.663)" fill="#bbdbdb"/>
        <path id="Trazado_728855" data-name="Trazado 728855" d="M179.8,22.271q.014-1.355.027-2.709a14.018,14.018,0,0,1,4.95,2.675l-4.977.034" transform="translate(-100.859 -10.974)" fill="#01b5f0"/>
        <path id="Trazado_728856" data-name="Trazado 728856" d="M174.752,25.688l4.977-.034.327.481-9.242.008-.008-.013q0-.211.008-.423l3.939-.019" transform="translate(-95.816 -14.391)" fill="#13b2e7"/>
        <path id="Trazado_728857" data-name="Trazado 728857" d="M215.127,155.863l2.884,0c0,5.549-.014,11.1.017,16.648.006,1.06-.015,1.768-1.451,1.759-1.4-.009-1.495-.672-1.487-1.755.038-5.549.03-11.1.038-16.648" transform="translate(-120.657 -87.431)" fill="#11718d"/>
        <path id="Trazado_728858" data-name="Trazado 728858" d="M124.943,150.654c-.014,3.054-.138,6.113,0,9.16.086,1.955-1.127,1.636-2.249,1.617-1.156-.019-2.563.459-2.473-1.654.13-3.049.062-6.107.079-9.161l4.511-.109Z" transform="translate(-67.435 -84.43)" fill="#2a2b28"/>
        <path id="Trazado_728859" data-name="Trazado 728859" d="M167.66,155.858l2.784,0c0,5.535-.011,11.069,0,16.6,0,1,.085,1.8-1.4,1.8s-1.4-.809-1.393-1.8c.014-5.534.006-11.069.006-16.6" transform="translate(-94.047 -87.43)" fill="#11718d"/>
        <path id="Trazado_728860" data-name="Trazado 728860" d="M24.232,150.734c-.01,3.049-.13,6.1.008,9.144.1,2.1-1.247,1.649-2.416,1.69-1.193.041-2.3.2-2.213-1.676.139-3.042.043-6.1.047-9.145l4.574-.014" transform="translate(-10.998 -84.556)" fill="#2a2b28"/>
        <path id="Trazado_728861" data-name="Trazado 728861" d="M80.61,155.65c.742-1.581-.056-3.3.447-4.906l4.113.01c0,3.064-.088,6.131.048,9.189.086,1.952-1.134,1.659-2.272,1.619-1.064-.037-2.484.486-2.339-1.538.1-1.451.009-2.916,0-4.374" transform="translate(-45.212 -84.562)" fill="#2a2b28"/>
        <path id="Trazado_728862" data-name="Trazado 728862" d="M181.3,155.874l4.611-.01c0,2.389-.076,4.781.029,7.165.074,1.685-1.022,1.512-1.992,1.385-1.016-.133-2.7.836-2.683-1.375.017-2.388.023-4.777.034-7.165" transform="translate(-101.684 -87.434)" fill="#2a2b28"/>
        <path id="Trazado_728863" data-name="Trazado 728863" d="M57.412,143.683q0,1.512,0,3.024c-2.083.1-4.177-.216-6.252.172a6.505,6.505,0,0,0-2.866-.11l-1.716.03-2.711-.164q.005-1.439.01-2.877l13.535-.075" transform="translate(-24.608 -80.601)" fill="#11718d"/>
        <path id="Trazado_728864" data-name="Trazado 728864" d="M26.965,143.619q0,1.439-.01,2.878l-6.025.143-4.574.014c-2.856-.178-2.856-.178-2.434-3.094l1.2-.124,5.257.056,6.557-.006Z" transform="translate(-7.696 -80.462)" fill="#51a1ba"/>
        <path id="Trazado_728865" data-name="Trazado 728865" d="M121.611,146.54l-4.51.109c-2.822-.172-2.822-.172-2.348-3.091l1.18-.124c1.9.482,3.951-.495,5.8.565q-.061,1.27-.121,2.54" transform="translate(-64.24 -80.461)" fill="#51a1ba"/>
        <path id="Trazado_728866" data-name="Trazado 728866" d="M100.669,136.243l.188-5.475h1.534q.093,2.739.185,5.477c-.027,1.378-.057,2.756-.08,4.134-.01.607-.019,1.187-.874,1.186s-.864-.58-.874-1.187c-.023-1.378-.053-2.756-.08-4.134" transform="translate(-56.472 -73.356)" fill="#436a76"/>
        <path id="Trazado_728867" data-name="Trazado 728867" d="M49.915,150.742l1.716-.03c.007.576.029,1.152.02,1.727-.047,3.058-.05,3.058,2.938,3.2.431,2-.678,2.181-2.293,2.137-1.494-.041-2.7.061-2.445-2.071a44.169,44.169,0,0,0,.065-4.968" transform="translate(-27.945 -84.544)" fill="#2a2b28"/>
        <path id="Trazado_728868" data-name="Trazado 728868" d="M85.739,143.336l1.122.118c.144,1.306,1.225,3.014-1.357,3.145l-4.113-.01a5.991,5.991,0,0,1-.006-3.035l4.354-.217" transform="translate(-45.546 -80.406)" fill="#11718d"/>
        <path id="Trazado_728869" data-name="Trazado 728869" d="M150.747,155.581c3.592-.149,3.593-.149,3.534-3.835-.006-.357-.032-.713-.048-1.07l1.246-.052.067.865c-.035,1.3-.024,2.61-.122,3.908-.056.74.457,1.9-.458,2.127a8.742,8.742,0,0,1-3.858,0c-.763-.173-.227-1.274-.36-1.944" transform="translate(-84.53 -84.495)" fill="#2a2b28"/>
        <path id="Trazado_728870" data-name="Trazado 728870" d="M115.947,142.963l-1.18.124a1.032,1.032,0,0,1-.224-.341l1.255-.151a.691.691,0,0,1,.149.369" transform="translate(-64.255 -79.99)" fill="#c9e8ea"/>
        <path id="Trazado_728871" data-name="Trazado 728871" d="M15.056,142.951l-1.2.125a1.133,1.133,0,0,1-.25-.343l1.324-.16a1,1,0,0,1,.122.378" transform="translate(-7.635 -79.978)" fill="#c9e8ea"/>
        <path id="Trazado_728872" data-name="Trazado 728872" d="M4.124,141.676l.324.525a.785.785,0,0,1-.346.111c.008-.211.015-.423.022-.635" transform="translate(-2.301 -79.475)" fill="#c9e8ea"/>
        <path id="Trazado_728873" data-name="Trazado 728873" d="M191.782,108.63c.037,4.066.069,8.133.117,12.2.01.8-.077,1.415-1.132,1.41-6.467-.032-12.933-.029-19.4-.06-.147,0-.292-.253-.438-.388,1.188-.271.795-1.239.8-1.96.038-2.839.187-5.692-.038-8.513-.186-2.337.7-2.782,2.832-2.73,5.748.138,11.5.045,17.254.043" transform="translate(-95.885 -60.911)" fill="#43707c"/>
        <path id="Trazado_728874" data-name="Trazado 728874" d="M156.184,26.719q-.005,3.936-.011,7.871c-3.807.236-3.949.39-3.953,4.244q0,5.1-.016,10.2l-7.425-.014c-.007-6.792.027-13.584-.053-20.375-.018-1.569.534-2.009,2.028-1.967,3.138.089,6.28.025,9.421.024Z" transform="translate(-81.186 -14.966)" fill="#01befc"/>
        <path id="Trazado_728875" data-name="Trazado 728875" d="M144.874,84.076l7.366-.06q.017,8.9.034,17.808l-7.426-.013q.013-8.867.026-17.734" transform="translate(-81.255 -47.13)" fill="#01befc"/>
        <path id="Trazado_728876" data-name="Trazado 728876" d="M144.862,131.072l7.36-.068q-.018,2.8-.036,5.6l-7.364-.068q.02-2.734.04-5.468" transform="translate(-81.24 -73.489)" fill="#01befc"/>
        <path id="Trazado_728877" data-name="Trazado 728877" d="M191.782,107.567c-5.752,0-11.506.095-17.254-.043-2.128-.051-3.018.393-2.832,2.73.225,2.821.076,5.675.038,8.513-.01.722.383,1.689-.8,1.96q0-6.8.008-13.6l.362-.347q9.567-.037,19.134-.063c.585,0,1.423-.251,1.348.854" transform="translate(-95.885 -59.848)" fill="#436a76"/>
        <path id="Trazado_728878" data-name="Trazado 728878" d="M144.252,143.612l7.364.068q.027,1.283.054,2.565c-1.554.4-3.281-.6-4.74.582l-3.082-.239a4.933,4.933,0,0,1,.36-2.872l.045-.1" transform="translate(-80.67 -80.561)" fill="#11718d"/>
        <path id="Trazado_728879" data-name="Trazado 728879" d="M188.4,72.874a1.591,1.591,0,0,1-1.617,1.628,1.484,1.484,0,0,1-1.561-1.467,1.426,1.426,0,0,1,1.368-1.622,1.571,1.571,0,0,1,1.811,1.461" transform="translate(-103.9 -40.053)" fill="#f83f11"/>
        <path id="Trazado_728880" data-name="Trazado 728880" d="M198.636,74.559c-.9-.162-1.534-.648-1.5-1.581a1.371,1.371,0,0,1,1.605-1.392,1.326,1.326,0,0,1,1.366,1.4c.016.966-.571,1.431-1.469,1.569" transform="translate(-110.584 -40.156)" fill="#f83f11"/>
        <path id="Trazado_728881" data-name="Trazado 728881" d="M176.7,72.918A1.583,1.583,0,0,1,175.16,74.5a1.465,1.465,0,0,1-1.612-1.66,1.389,1.389,0,0,1,1.584-1.437,1.545,1.545,0,0,1,1.564,1.515" transform="translate(-97.354 -40.054)" fill="#f83f11"/>
        <path id="Trazado_728882" data-name="Trazado 728882" d="M186.863,84.807c.9.156,1.542.66,1.532,1.566a1.393,1.393,0,0,1-1.516,1.5,1.477,1.477,0,0,1-1.639-1.622,1.528,1.528,0,0,1,1.623-1.446" transform="translate(-103.912 -47.574)" fill="#43707c"/>
        <path id="Trazado_728883" data-name="Trazado 728883" d="M210.288,60.893a1.435,1.435,0,0,1-1.5-1.508,1.386,1.386,0,0,1,1.445-1.547,1.424,1.424,0,0,1,1.6,1.608c-.023.959-.627,1.4-1.55,1.447" transform="translate(-117.123 -32.444)" fill="#01befc"/>
        <path id="Trazado_728884" data-name="Trazado 728884" d="M188.409,59.283a1.57,1.57,0,0,1-1.469,1.585,1.465,1.465,0,0,1-1.716-1.526,1.444,1.444,0,0,1,1.535-1.5,1.625,1.625,0,0,1,1.651,1.44" transform="translate(-103.904 -32.448)" fill="#01befc"/>
        <path id="Trazado_728885" data-name="Trazado 728885" d="M176.764,59.441c-.224.939-.7,1.51-1.65,1.448a1.485,1.485,0,0,1,.179-2.965,1.59,1.59,0,0,1,1.471,1.517" transform="translate(-97.461 -32.49)" fill="#f83f11"/>
        <path id="Trazado_728886" data-name="Trazado 728886" d="M175.12,84.808c.966.13,1.63.647,1.618,1.661a1.528,1.528,0,0,1-3.05-.077,1.442,1.442,0,0,1,1.432-1.584" transform="translate(-97.433 -47.574)" fill="#43707c"/>
        <path id="Trazado_728887" data-name="Trazado 728887" d="M210.717,87.9c-1.056.032-1.8-.186-1.866-1.215a1.493,1.493,0,0,1,1.482-1.757c.983-.012,1.5.742,1.536,1.734.038.917-.417,1.331-1.152,1.237" transform="translate(-117.155 -47.641)" fill="#f7f9fa"/>
        <path id="Trazado_728888" data-name="Trazado 728888" d="M200.063,59.445a1.38,1.38,0,0,1-1.572,1.433,1.414,1.414,0,0,1-1.462-1.575,1.446,1.446,0,0,1,1.6-1.452c.963.03,1.411.648,1.431,1.594" transform="translate(-110.525 -32.452)" fill="#01befc"/>
        <path id="Trazado_728889" data-name="Trazado 728889" d="M210.466,74.605c-.872-.1-1.511-.5-1.566-1.455a1.27,1.27,0,0,1,1.254-1.459,1.351,1.351,0,0,1,1.689,1.245c.1.95-.5,1.438-1.378,1.669" transform="translate(-117.184 -40.208)" fill="#f83f11"/>
        <path id="Trazado_728890" data-name="Trazado 728890" d="M198.7,84.764c1.045.13,1.321.8,1.267,1.7-.051.864-.512,1.372-1.38,1.317-.992-.063-1.691-.63-1.567-1.662a1.574,1.574,0,0,1,1.679-1.352" transform="translate(-110.515 -47.55)" fill="#f7f9fa"/>
        <path id="Trazado_728891" data-name="Trazado 728891" d="M150.922,150.169c1.459-1.181,3.186-.18,4.74-.581-.017.149-.034.3-.051.446l-1.246.051c-1.022.057-2.111-.283-3.007.513l-.435-.428" transform="translate(-84.662 -83.903)" fill="#51a1ba"/>
        <path id="Trazado_728892" data-name="Trazado 728892" d="M171.306,106.877l-.362.346c-.022-.264.09-.389.362-.346" transform="translate(-95.892 -59.95)" fill="#43707c"/>
        <path id="Trazado_728893" data-name="Trazado 728893" d="M55.7,26.737q0,11.148,0,22.3l-11.829.008q-.017-11.16-.034-22.321l0,0,11.857.021" transform="translate(-24.593 -14.987)" fill="#01befc"/>
        <path id="Trazado_728894" data-name="Trazado 728894" d="M55.746,101.7l-11.829.008q.013-8.861.027-17.721a115.821,115.821,0,0,1,11.8.015q0,8.849,0,17.7" transform="translate(-24.636 -47.036)" fill="#01befc"/>
        <path id="Trazado_728895" data-name="Trazado 728895" d="M129.755,16.968a17.583,17.583,0,0,1,6.622-2.082c-.057,4.774-.057,4.773,4.618,4.774q3.395,0,6.79.007c0,.141-.005.282-.008.423-3.14,0-6.283.065-9.421-.024-1.494-.042-2.047.4-2.028,1.967.08,6.791.046,13.583.053,20.375L129.8,42.4q-.024-12.717-.048-25.435" transform="translate(-72.788 -8.351)" fill="#26c8fc"/>
        <path id="Trazado_728896" data-name="Trazado 728896" d="M35.414,26.689q.017,11.16.034,22.321l-6.579,0c-.006-6.782.027-13.565-.049-20.347-.017-1.538.469-2.093,2-1.986s3.062.018,4.593.014" transform="translate(-16.167 -14.956)" fill="#26c8fc"/>
        <path id="Trazado_728897" data-name="Trazado 728897" d="M28.637,22.787c-1.531,0-3.069.092-4.593-.014s-2.018.449-2,1.986c.076,6.781.043,13.564.049,20.347l-5.294.069c-.012-7.062,0-14.125-.059-21.187a2.35,2.35,0,0,1,1.395-2.445A17.274,17.274,0,0,1,22.063,19.7c-.38,2.2.553,2.967,2.718,2.69a30.141,30.141,0,0,1,3.858-.023l.006.005c0,.136,0,.271,0,.407Z" transform="translate(-9.39 -11.054)" fill="#47d0fc"/>
        <path id="Trazado_728898" data-name="Trazado 728898" d="M122.883,19.629q.024,12.717.048,25.435l-5.334.073c-.012-6.778.061-13.559-.09-20.334-.044-2,.637-3.147,2.4-3.848,1.008-.4,1.985-.881,2.976-1.326" transform="translate(-65.916 -11.011)" fill="#47d0fc"/>
        <path id="Trazado_728899" data-name="Trazado 728899" d="M35.538,83.971q-.013,8.86-.027,17.721l-6.579,0q.013-8.864.025-17.728a35.579,35.579,0,0,1,6.58.011" transform="translate(-16.23 -47.017)" fill="#26c8fc"/>
        <path id="Trazado_728900" data-name="Trazado 728900" d="M117.7,101.718q.038-8.992.076-17.983l5.282.182q-.009,8.864-.018,17.73l-5.34.072" transform="translate(-66.025 -46.972)" fill="#47d0fc"/>
        <path id="Trazado_728901" data-name="Trazado 728901" d="M85.617,101.658c-4.576.152-4.576.152-4.576-4.5,0-3.648.132-7.3-.051-10.941-.105-2.1.631-2.744,2.58-2.472a12.973,12.973,0,0,0,1.967-.015q.04,8.964.079,17.928" transform="translate(-45.427 -46.945)" fill="#13b2e7"/>
        <path id="Trazado_728902" data-name="Trazado 728902" d="M57.38,136.493l-13.535.075-.035-.133q.039-2.715.076-5.431c4.087-.04,8.175-.057,12.262-.137,1.114-.022,1.372.5,1.327,1.469-.065,1.384-.067,2.771-.1,4.157" transform="translate(-24.576 -73.411)" fill="#01befc"/>
        <path id="Trazado_728903" data-name="Trazado 728903" d="M140.989,84.011q-.013,8.867-.026,17.734c-3.039.126-3.039.126-3.04-2.919q0-6.1,0-12.192c0-2.893,0-2.893,3.065-2.624" transform="translate(-77.37 -47.065)" fill="#26c8fc"/>
        <path id="Trazado_728904" data-name="Trazado 728904" d="M35.508,130.964l-.076,5.431-6.557.006q.027-2.724.053-5.449a33.5,33.5,0,0,1,6.581.013" transform="translate(-16.198 -73.372)" fill="#26c8fc"/>
        <path id="Trazado_728905" data-name="Trazado 728905" d="M117.55,136.294a.691.691,0,0,0-.149-.369q.107-2.61.216-5.219l4.792.047c.591.006,1.316-.019,1.282.79-.073,1.773.472,3.592-.342,5.317-1.847-1.06-3.894-.083-5.8-.565" transform="translate(-65.858 -73.321)" fill="#47d0fc"/>
        <path id="Trazado_728906" data-name="Trazado 728906" d="M70.854,101.732q0-8.849,0-17.7c1.3-.385,1.826.032,1.809,1.455-.06,4.92-.078,9.841.01,14.76.026,1.5-.6,1.73-1.814,1.482" transform="translate(-39.744 -47.064)" fill="#01b5f0"/>
        <path id="Trazado_728907" data-name="Trazado 728907" d="M100.928,101.734q.032-8.972.064-17.943h1.553q.032,8.971.064,17.943h-1.681" transform="translate(-56.617 -47.004)" fill="#436a76"/>
        <path id="Trazado_728908" data-name="Trazado 728908" d="M26.563,83.977q-.013,8.864-.025,17.728c-1.458.326-1.893-.289-1.872-1.726.068-4.784.059-9.57.005-14.354-.016-1.427.4-2.088,1.893-1.649" transform="translate(-13.836 -47.033)" fill="#47d0fc"/>
        <path id="Trazado_728909" data-name="Trazado 728909" d="M22.057,130.908,22,136.358l-5.257-.056a.987.987,0,0,0-.122-.379q.088-2.6.177-5.2l5.254.189" transform="translate(-9.327 -73.329)" fill="#47d0fc"/>
        <path id="Trazado_728910" data-name="Trazado 728910" d="M85.582,136.323l-4.354.217a4.953,4.953,0,0,1-.2-.843c-.31-4.859-.307-4.859,4.479-4.862q.038,2.745.077,5.488" transform="translate(-45.389 -73.394)" fill="#13b2e7"/>
        <path id="Trazado_728911" data-name="Trazado 728911" d="M141,131q-.02,2.734-.04,5.468l-.044.1-2.909-.1c-.025-.946-.069-1.892-.072-2.838-.008-2.921,0-2.921,3.065-2.634" transform="translate(-77.374 -73.42)" fill="#26c8fc"/>
        <path id="Trazado_728912" data-name="Trazado 728912" d="M129.862,101.876l.018-17.73c1.15-.051.8.839.8,1.391.009,5.321-.019,10.642-.036,15.963l-.365.383-.209.027Z" transform="translate(-72.848 -47.202)" fill="#26c8fc"/>
        <path id="Trazado_728913" data-name="Trazado 728913" d="M60.363,150.707c2.075-.389,4.169-.072,6.252-.172.414,1.658-.118,2.436-1.926,2.2a11.052,11.052,0,0,0-2.575,0c-1.628.176-2.047-.594-1.75-2.029" transform="translate(-33.812 -84.429)" fill="#c3eb1b"/>
        <path id="Trazado_728914" data-name="Trazado 728914" d="M143.584,150.628l.435.428c.023,1.02-.363,1.638-1.5,1.6a15.764,15.764,0,0,0-2.576.016c-1.763.231-2.367-.5-2.006-2.171l2.56-.113,3.082.239" transform="translate(-77.324 -84.363)" fill="#c3eb1b"/>
        <path id="Trazado_728915" data-name="Trazado 728915" d="M140.63,146.593l-2.56.112q.005-1.542.011-3.083l2.91.1a4.924,4.924,0,0,0-.36,2.872" transform="translate(-77.452 -80.567)" fill="#51a1ba"/>
        <path id="Trazado_728916" data-name="Trazado 728916" d="M16.873,101.732q.028-8.983.057-17.967a2.9,2.9,0,0,1,.394.964c.024,5.366.017,10.733.013,16.1a.9.9,0,0,1-.464.9" transform="translate(-9.465 -46.989)" fill="#47d0fc"/>
        <path id="Trazado_728917" data-name="Trazado 728917" d="M130.812,124.061l.365-.383c.028.27-.1.39-.365.383" transform="translate(-73.381 -69.379)" fill="#47d0fc"/>
        <path id="Trazado_728918" data-name="Trazado 728918" d="M43.849,26.172c0-.136,0-.271,0-.407l15.36-.019c-1.076.876-2.345.235-3.506.446l-11.857-.021" transform="translate(-24.598 -14.443)" fill="#26c8fc"/>
        <path id="Trazado_728919" data-name="Trazado 728919" d="M35.337,19.68a30.221,30.221,0,0,0-3.858.023c-2.165.277-3.1-.492-2.718-2.69a16.929,16.929,0,0,1,6.6-2.106q-.014,2.386-.029,4.772" transform="translate(-16.088 -8.363)" fill="#26c8fc"/>
      </g>
    </g>
  </g>
</svg>
