<svg xmlns="http://www.w3.org/2000/svg" width="60" height="60" viewBox="0 0 60 60">
  <g id="Grupo_1017051" data-name="Grupo 1017051" transform="translate(-826.668 -8113)">
    <path id="Trazado_729227" data-name="Trazado 729227" d="M30,0A30,30,0,1,1,0,30,30,30,0,0,1,30,0Z" transform="translate(826.668 8113)" fill="#06d1d1"/>
    <path id="Trazado_729228" data-name="Trazado 729228" d="M15.688,13.37a4.924,4.924,0,0,1-.769,2.739,5.6,5.6,0,0,1-2.117,1.9,6.164,6.164,0,0,1,2.417,2.043,5.273,5.273,0,0,1,.894,3.069,5.582,5.582,0,0,1-1.97,4.512,8.182,8.182,0,0,1-5.427,1.655A8.331,8.331,0,0,1,3.237,27.63a5.542,5.542,0,0,1-2.007-4.5,5.339,5.339,0,0,1,.879-3.032,5.977,5.977,0,0,1,2.49-2.08,5.633,5.633,0,0,1-2.139-1.9,4.889,4.889,0,0,1-.776-2.739,5.473,5.473,0,0,1,1.89-4.395,7.6,7.6,0,0,1,5.1-1.611A7.643,7.643,0,0,1,13.8,8.976,5.473,5.473,0,0,1,15.688,13.37Zm-4.526,9.36a2.816,2.816,0,0,0-.681-2.029,2.372,2.372,0,0,0-1.794-.71,2.4,2.4,0,0,0-1.8.71A2.8,2.8,0,0,0,6.2,22.73a2.821,2.821,0,0,0,.7,2.014,2.388,2.388,0,0,0,1.824.74,2.3,2.3,0,0,0,1.772-.732A2.872,2.872,0,0,0,11.162,22.73ZM8.672,11.173a1.824,1.824,0,0,0-1.516.652,2.829,2.829,0,0,0-.52,1.809,3,3,0,0,0,.527,1.846,1.819,1.819,0,0,0,1.553.7,1.745,1.745,0,0,0,1.516-.7,3.093,3.093,0,0,0,.505-1.846,2.835,2.835,0,0,0-.52-1.8A1.849,1.849,0,0,0,8.672,11.173Z" transform="translate(847.668 8123)" fill="#fff"/>
  </g>
</svg>
