<svg xmlns="http://www.w3.org/2000/svg" width="60" height="60" viewBox="0 0 60 60">
  <g id="Grupo_1017049" data-name="Grupo 1017049" transform="translate(-826.668 -7702)">
    <path id="Trazado_729223" data-name="Trazado 729223" d="M30,0A30,30,0,1,1,0,30,30,30,0,0,1,30,0Z" transform="translate(826.668 7702)" fill="#06d1d1"/>
    <path id="Trazado_729224" data-name="Trazado 729224" d="M13.228,7.364v3.882h-.22a7.411,7.411,0,0,0-4.548,1.326,5.6,5.6,0,0,0-2.19,3.684,5.773,5.773,0,0,1,4.219-1.641A5.385,5.385,0,0,1,14.9,16.637a8.153,8.153,0,0,1,1.641,5.3,7.466,7.466,0,0,1-.959,3.735A6.846,6.846,0,0,1,12.9,28.333a7.7,7.7,0,0,1-3.816.959A7.961,7.961,0,0,1,5.024,28.26a7.1,7.1,0,0,1-2.783-2.952,9.719,9.719,0,0,1-1.025-4.424V18.907a12.312,12.312,0,0,1,1.414-5.925A10.248,10.248,0,0,1,6.665,8.858,11.538,11.538,0,0,1,12.48,7.364ZM8.774,18.395a2.824,2.824,0,0,0-1.641.454,2.883,2.883,0,0,0-.981,1.113v1.479q0,4.043,2.8,4.043a2.27,2.27,0,0,0,1.882-1.011,4.119,4.119,0,0,0,.754-2.534,4.043,4.043,0,0,0-.769-2.556A2.46,2.46,0,0,0,8.774,18.395Z" transform="translate(847.668 7712)" fill="#fff"/>
  </g>
</svg>
