<svg xmlns="http://www.w3.org/2000/svg" width="60" height="60" viewBox="0 0 60 60">
  <g id="Grupo_1017048" data-name="Grupo 1017048" transform="translate(-826.668 -7509)">
    <g id="Grupo_1017047" data-name="Grupo 1017047">
      <path id="Trazado_729221" data-name="Trazado 729221" d="M30,0A30,30,0,1,1,0,30,30,30,0,0,1,30,0Z" transform="translate(826.668 7509)" fill="#06d1d1"/>
      <path id="Trazado_729222" data-name="Trazado 729222" d="M1.6,18.582,2.9,7.672H15.366V11.51H6.914l-.483,4.237A5.822,5.822,0,0,1,7.815,15.2a6.316,6.316,0,0,1,1.677-.235,6.257,6.257,0,0,1,4.885,1.882,7.582,7.582,0,0,1,1.707,5.281,7.569,7.569,0,0,1-.916,3.713A6.293,6.293,0,0,1,12.6,28.4a8.116,8.116,0,0,1-3.911.894,8.733,8.733,0,0,1-3.765-.827A6.754,6.754,0,0,1,2.168,26.2a5.513,5.513,0,0,1-.981-3.257H6.138A2.8,2.8,0,0,0,6.885,24.8a2.371,2.371,0,0,0,1.772.687q2.49,0,2.49-3.684,0-3.406-3.047-3.406a3.04,3.04,0,0,0-2.578,1.111Z" transform="translate(847.668 7519)" fill="#fff"/>
    </g>
  </g>
</svg>
