<svg xmlns="http://www.w3.org/2000/svg" xmlns:xlink="http://www.w3.org/1999/xlink" width="85" height="85" viewBox="0 0 85 85">
  <defs>
    <clipPath id="clip-path">
      <rect id="Rectángulo_346556" data-name="Rectángulo 346556" width="65.984" height="65.93" fill="#fff"/>
    </clipPath>
  </defs>
  <g id="Grupo_1017053" data-name="Grupo 1017053" transform="translate(-277.5 -10491.158)">
    <circle id="Elipse_4873" data-name="Elipse 4873" cx="42.5" cy="42.5" r="42.5" transform="translate(277.5 10491.158)" fill="#b20d0d"/>
    <g id="Grupo_1013932" data-name="Grupo 1013932" transform="translate(287.008 10500.693)">
      <g id="Grupo_1013931" data-name="Grupo 1013931" clip-path="url(#clip-path)">
        <path id="Trazado_729101" data-name="Trazado 729101" d="M32.958,65.927a32.964,32.964,0,1,1,33.025-32.77c-.109,18.085-15.037,32.982-33.025,32.77M63.472,33.011A30.483,30.483,0,1,0,32.9,63.455,30.4,30.4,0,0,0,63.472,33.011" transform="translate(0 0)" fill="#fff"/>
        <path id="Trazado_729102" data-name="Trazado 729102" d="M103.637,45.514A28.121,28.121,0,0,1,98.019,62.5c-1.29,1.765-2.708,1.873-4.28.3Q75.716,44.8,57.708,26.778c-1.592-1.593-1.5-2.993.232-4.289,17.409-13.018,42.486-2.5,45.459,19.056a35.447,35.447,0,0,1,.238,3.968M76.656,35.574c2.138.223,3.917,1.4,5.8,2.285,2.191,1.027,2.491,3.155.819,4.942-.672.718-1.382,1.4-2.046,2.125a1.278,1.278,0,0,0,.124,2.01c.787.784,1.456.424,2.158-.076,2.89-2.06,5.828-4.056,8.651-6.2a6.763,6.763,0,0,1,5.158-1.735,14.018,14.018,0,0,0,1.53-.1c1.294.022,1.42-.616.985-1.628-.522-1.217-1.048-2.432-1.537-3.662a1.554,1.554,0,0,0-1.779-1.1,19.072,19.072,0,0,1-6.571-.843c-4.426-1.146-8.874-2.2-13.3-3.335a4.072,4.072,0,0,0-3.942.9c-1.409,1.246-2.775,2.54-4.179,3.792-.456.406-.474.725-.025,1.152.868.824,1.752,1.641,2.533,2.545a1.452,1.452,0,0,0,2.21.277,5.7,5.7,0,0,1,3.42-1.338m19.278-5.735c-.391-.518-.627-.869-.9-1.188A25.516,25.516,0,0,0,72.989,19.4a24.794,24.794,0,0,0-12.981,4.673c-.613.437-.809.755-.173,1.371,1.934,1.872,3.831,3.782,5.715,5.706.467.477.792.479,1.267.018,1.134-1.1,2.354-2.114,3.466-3.236a7.179,7.179,0,0,1,7.5-1.973c5.077,1.342,10.192,2.538,15.287,3.809a6.542,6.542,0,0,0,2.865.077m1.9,11.559c-.951.158-2.148-.226-3.25.587q-4.741,3.5-9.595,6.851c-.839.581-.841.928-.131,1.625q5.032,4.936,9.969,9.969c.738.754,1.105.753,1.711-.135a26.3,26.3,0,0,0,4.607-15.842c-.073-3.1-.054-3.105-3.311-3.057M76.985,38.046a5.55,5.55,0,0,0-2.486.976c-.545.288-.49.582-.09.974,1.218,1.191,2.416,2.4,3.623,3.607.287.286.561.531.954.1.836-.909,1.7-1.792,2.548-2.69.277-.293.357-.648-.052-.847-1.562-.763-3.143-1.486-4.5-2.122" transform="translate(-42.048 -12.48)" fill="#fff"/>
        <path id="Trazado_729103" data-name="Trazado 729103" d="M45.643,103.558A28.623,28.623,0,0,1,22.619,57.991c1.335-1.856,2.749-1.988,4.359-.38Q45,75.614,63,93.633c1.616,1.617,1.49,3.027-.349,4.363a28.237,28.237,0,0,1-17.007,5.561M19.517,75.528a17.738,17.738,0,0,0,.354,3.64A26.151,26.151,0,0,0,60.382,96.556c.939-.636,1.1-1,.216-1.875-6.721-6.648-13.39-13.347-20.076-20.03-2.17-2.169-2.169-2.166-4.86-.707a5.5,5.5,0,0,1-6.063-.219,3.309,3.309,0,0,1-.595-5.2,16.481,16.481,0,0,1,1.767-1.677c.815-.643.908-1.13.076-1.9-1.724-1.6-3.385-3.27-4.991-4.987-.75-.8-1.151-.7-1.727.154a27.105,27.105,0,0,0-4.611,15.419M32.74,72.28a4.453,4.453,0,0,0,3.317-1.67c.378-.628-1.011-1.262-1.535-1.951-.1-.135-.245-.237-.361-.362-.742-.8-1.3-.16-1.669.346-.642.869-2.381,1.18-1.665,2.76.308.679,1.192.743,1.912.877" transform="translate(-12.682 -41.989)" fill="#fff"/>
        <path id="Trazado_729104" data-name="Trazado 729104" d="M79.324,166.891a2.147,2.147,0,0,1-.673-.127,3.373,3.373,0,0,0-3.661-.058c-1.3.678-4.931-1.173-5.559-2.539-.267-.581-.471-1.193-.762-1.762a2.325,2.325,0,0,1,.658-3.185,1.65,1.65,0,0,0,.654-1.793c-.392-1.833,1.123-2.5,2.189-3.419a1.993,1.993,0,0,1,2.7-.027,1.051,1.051,0,0,0,1.392-.007,1.833,1.833,0,0,1,1.588-.327c2.264.706,4.657,1.2,5.6,3.9a2.818,2.818,0,0,1-.127,2.889,1.531,1.531,0,0,0-.173,1.869,1.822,1.822,0,0,1-.481,2.427c-1.041.843-1.913,1.984-3.347,2.162m-5.632-10.678a1.388,1.388,0,0,0-1.134,1.819,2.239,2.239,0,0,1-1,2.548,1.054,1.054,0,0,0-.358,1.444,2.836,2.836,0,0,0,4.287,1.593,1.937,1.937,0,0,1,2.156-.056,7.216,7.216,0,0,0,1.162.534c.642.225,1.031-.253,1.453-.6a.592.592,0,0,0,.119-.9,1.848,1.848,0,0,1,.288-2.64,1.607,1.607,0,0,0-.105-2.394,3.384,3.384,0,0,0-2.936-1.253c-1.454.443-2.7,1.348-3.938-.094" transform="translate(-50.769 -114.063)" fill="#fff"/>
        <path id="Trazado_729105" data-name="Trazado 729105" d="M92.086,174.95c.971.071,2.282-.239,2.259,1.22-.021,1.364-1.27,1.253-2.254,1.254s-2.231.1-2.229-1.274c0-1.454,1.314-1.124,2.224-1.2" transform="translate(-66.789 -130.029)" fill="#fff"/>
      </g>
    </g>
  </g>
</svg>
