<svg xmlns="http://www.w3.org/2000/svg" xmlns:xlink="http://www.w3.org/1999/xlink" width="85" height="85" viewBox="0 0 85 85">
  <defs>
    <clipPath id="clip-path">
      <rect id="Rectángulo_346555" data-name="Rectángulo 346555" width="76" height="64.567" fill="#fff"/>
    </clipPath>
  </defs>
  <g id="Grupo_1017052" data-name="Grupo 1017052" transform="translate(-277.5 -10367.158)">
    <circle id="Elipse_4872" data-name="Elipse 4872" cx="42.5" cy="42.5" r="42.5" transform="translate(277.5 10367.158)" fill="#b20d0d"/>
    <g id="Grupo_1013930" data-name="Grupo 1013930" transform="translate(282 10378.999)">
      <g id="Grupo_1013929" data-name="Grupo 1013929" clip-path="url(#clip-path)">
        <path id="Trazado_729093" data-name="Trazado 729093" d="M80.15,64.559c-3.593,0-7.185.012-10.778,0-2.869-.012-4.342-1.371-4.6-4.253q-1.2-13.51-2.366-27.023c-.3-3.427-.588-6.855-.905-10.281a4.953,4.953,0,0,0-.907-2.593,4.79,4.79,0,0,1,.5-5.451,4.084,4.084,0,0,0,.953-1.629c1.325-3.5,2.636-7,3.973-10.488C66.858.664,67.812.022,70.146.007q1.7-.012,3.4.007c.874.008,1.64.283,1.634,1.288a1.231,1.231,0,0,1-1.532,1.215c-1.64-.2-2.042.556-1.935,2.038s.043,2.952.021,4.428c-.014.911.334,1.35,1.3,1.346q7.234-.033,14.469,0c.884,0,1.243-.4,1.236-1.253-.015-1.722-.038-3.446.014-5.167.031-1.029-.377-1.389-1.39-1.37-2.46.046-4.921.015-7.382.012a10.9,10.9,0,0,1-1.18-.033c-.706-.078-1.241-.411-1.264-1.186A1.179,1.179,0,0,1,78.843.043C83.026.019,87.21-.027,91.39.072a3.308,3.308,0,0,1,2.971,2.515c1.327,3.548,2.677,7.087,4.026,10.626a5.412,5.412,0,0,0,.606,1.336c1.848,2.466,1.868,3.761.474,6.5-.911,1.79-.6,3.861-.794,5.8-.739,7.581-1.369,15.172-2.036,22.759-.318,3.623-.621,7.247-.945,10.869a4.068,4.068,0,0,1-4.469,4.075c-3.691.021-7.382.005-11.073.006m.064-43.117H66.938c-3.187,0-3.1.01-2.778,3.227.632,6.3,1.135,12.616,1.694,18.924q.741,8.363,1.49,16.726A1.676,1.676,0,0,0,69.2,62q11.063.012,22.126,0a1.674,1.674,0,0,0,1.813-1.726c.205-2.348.4-4.7.616-7.043.453-5.037.92-10.072,1.366-15.109.433-4.891.875-9.781,1.258-14.676.156-1.988.091-2-1.855-2q-7.154-.005-14.308,0M69.194,2.873a.8.8,0,0,0-.671.584c-1.254,3.309-2.485,6.626-3.768,9.923-.445,1.145.234,1.092.988,1.091,9.636,0,19.272-.023,28.908.02C96,14.5,95.96,14,95.572,13.009c-1.161-2.976-2.258-5.976-3.4-8.958a1.723,1.723,0,0,0-.9-1.239c0,2.318.015,4.472,0,6.625-.02,2.224-1.109,3.382-3.348,3.4q-7.669.061-15.339,0c-2.3-.017-3.364-1.17-3.383-3.516-.017-2.11,0-4.22,0-6.45m11.043,14.14c-5.362,0-10.723-.006-16.085.009-.637,0-1.477-.238-1.527.863-.055,1.2.822,1.007,1.531,1.008q16.085.01,32.17,0c.636,0,1.478.244,1.528-.861.054-1.2-.821-1.01-1.531-1.011q-8.042-.013-16.085,0" transform="translate(-42.258 -0.002)" fill="#fff"/>
        <path id="Trazado_729094" data-name="Trazado 729094" d="M8.613,3.168Q6.656,8.324,4.7,13.48c-.346.906.171.992.865.99,2.608-.009,5.216,0,7.824,0a12.985,12.985,0,0,1,1.327.032,1.235,1.235,0,0,1,0,2.468c-.882.061-1.77.04-2.656.041q-4.06.007-8.12,0c-.671,0-1.317,0-1.311.954s.675.928,1.332.929q5.019,0,10.039,0c.922,0,1.916.025,1.9,1.283s-1.022,1.253-1.936,1.255c-2.9.005-5.807.037-8.71-.014C4.2,21.4,3.917,21.7,4.018,22.779c.737,7.877,1.406,15.76,2.089,23.641.051.587.059,1.179.069,1.769.015.825-.233,1.525-1.185,1.536-.915.011-1.253-.661-1.33-1.472q-.313-3.3-.6-6.607-.866-9.69-1.73-19.381a2.78,2.78,0,0,0-.309-1.272c-1.472-2.424-1.342-4.224.333-6.379A6.622,6.622,0,0,0,2.177,12.9c1.3-3.4,2.564-6.813,3.875-10.209C6.841.646,7.785.015,9.961.007,13.307-.006,16.653,0,20,0c.246,0,.493,0,.738.014.838.051,1.464.391,1.424,1.328-.036.853-.65,1.175-1.418,1.182-2.362.021-4.724.013-7.086.02-1.927.006-1.929.008-1.935,2,0,1.329.056,2.66-.016,3.985-.07,1.308.361,1.927,1.765,1.811,1.124-.093,2.262-.021,3.393-.005.781.011,1.373.312,1.384,1.186A1.218,1.218,0,0,1,16.92,12.8a42.153,42.153,0,0,1-5.159-.052c-1.746-.173-2.677-1.454-2.725-3.468s-.011-4.016-.011-6.025l-.413-.092" transform="translate(0 0)" fill="#fff"/>
        <path id="Trazado_729095" data-name="Trazado 729095" d="M195.323,3.248c0,1.746.01,3.493,0,5.239-.024,3.359-1.059,4.374-4.444,4.379-.983,0-1.967.009-2.95-.008-.885-.014-1.774-.159-1.81-1.272-.038-1.177.871-1.25,1.756-1.252,1.131,0,2.263-.031,3.393,0,.928.028,1.366-.353,1.356-1.3-.018-1.77-.023-3.541,0-5.311.013-.913-.436-1.187-1.28-1.178-2.458.024-4.917.006-7.376,0-.9,0-1.778-.142-1.77-1.277s.9-1.26,1.789-1.26q5.385,0,10.769,0a3.446,3.446,0,0,1,3.463,2.468c1.2,3.171,2.417,6.338,3.612,9.512a8.32,8.32,0,0,0,1.9,3.435c.765.717.922,3.912.182,4.78-1,1.17-.938,2.532-1.11,3.871-.131,1.022-.2,2.052-.289,3.079-.071.86-.332,1.65-1.342,1.59-1.1-.065-1.253-.953-1.192-1.85.1-1.421.167-2.848.366-4.256.133-.947-.178-1.218-1.084-1.207-2.753.035-5.507.012-8.261.011-.393,0-.787.005-1.179-.019-.773-.047-1.358-.364-1.372-1.223-.015-.948.612-1.282,1.45-1.286,2.8-.015,5.606-.011,8.409-.014.639,0,1.279.018,1.917-.006s1.479.2,1.5-.9c.022-1.2-.874-.972-1.57-.975-3.1-.017-6.2-.007-9.294-.009a11.12,11.12,0,0,1-1.179-.03c-.714-.076-1.219-.426-1.235-1.2a1.176,1.176,0,0,1,1.3-1.282c1.13-.039,2.262-.024,3.393-.026,1.869,0,3.737-.018,5.606.005.8.01,1.256-.14.891-1.086-1.3-3.387-2.586-6.784-3.876-10.177l-.434.025" transform="translate(-128.394 -0.013)" fill="#fff"/>
        <path id="Trazado_729096" data-name="Trazado 729096" d="M192.708,138.754q-2.582,0-5.164,0c-.9,0-1.8-.155-1.818-1.25s.871-1.285,1.778-1.286c3.148,0,6.3,0,9.443-.007,2.074-.007,2.413-.265,2.6-2.3.7-7.58,1.354-15.163,2.025-22.745.125-1.419.212-2.842.373-4.257.1-.877.4-1.765,1.51-1.591,1.044.164,1.141,1.023,1.06,1.947q-1.134,12.99-2.238,25.982c-.055.636-.149,1.269-.248,1.9a3.983,3.983,0,0,1-4.009,3.6c-1.769.051-3.541.01-5.311.012" transform="translate(-130.879 -74.201)" fill="#fff"/>
        <path id="Trazado_729097" data-name="Trazado 729097" d="M23.857,188.759c-1.669,0-3.338.033-5.006-.008a3.933,3.933,0,0,1-4.085-3.65c-.283-2.383-.429-4.783-.639-7.175-.072-.818.106-1.544,1.033-1.657,1.013-.123,1.387.628,1.479,1.466.239,2.192.46,4.389.611,6.588a1.812,1.812,0,0,0,2.1,1.895q4.491-.006,8.982,0c.442,0,.884-.006,1.325.019.771.044,1.386.386,1.405,1.208.021.912-.637,1.285-1.465,1.3-1.914.024-3.828.007-5.743.007Z" transform="translate(-9.945 -124.205)" fill="#fff"/>
        <path id="Trazado_729098" data-name="Trazado 729098" d="M97.537,140.6a6.38,6.38,0,0,1,.335-1.043c.366-.763.8-1.622,1.833-1.332,1.079.3.982,1.172.7,2.046-.312.965.119,1.391,1.078,1.391.932,0,1.866-.027,2.8.016s1.675.056,1.8-1.245c.074-.8.873-.98,1.63-.69a1.836,1.836,0,0,1,.592.425c2.872,2.838,2.918,2.762-.151,5.687-.917.874-2,.537-2.15-.695-.115-.95-.585-.959-1.267-.952-1.325.012-2.652.043-3.974-.018a3.406,3.406,0,0,1-3.218-3.59" transform="translate(-68.733 -97.367)" fill="#fff"/>
        <path id="Trazado_729099" data-name="Trazado 729099" d="M105.384,113.884a2.807,2.807,0,0,1-.7-.229c-.737-.439-1.525-3.782-1.077-4.523a1.061,1.061,0,0,1,1.513-.482c.8.484,1.138.094,1.5-.516.478-.8.977-1.589,1.486-2.37a3.309,3.309,0,0,1,3.23-1.651,3.58,3.58,0,0,1,2.9,2.226,1.231,1.231,0,0,1-.4,1.794c-.666.424-1.2.112-1.679-.4-1.322-1.415-1.4-1.4-2.454.268-.315.5-.608,1.009-.933,1.5-.417.63-.857,1.092.192,1.719.931.556.567,1.708-.558,2.1a8.471,8.471,0,0,1-1.29.3c-.53.1-1.066.166-1.737.268" transform="translate(-72.922 -73.355)" fill="#fff"/>
        <path id="Trazado_729100" data-name="Trazado 729100" d="M142.735,127.539a3.364,3.364,0,0,1-2.733,3.2,1.38,1.38,0,0,1-1.692-.828,1.144,1.144,0,0,1,.891-1.579c1.135-.325,1.089-.942.586-1.759-.36-.584-.735-1.16-1.082-1.752-.336-.573-.546-1.038-1.435-.54-.946.531-1.857-.255-1.708-1.383a20.966,20.966,0,0,1,.615-2.721,1.269,1.269,0,0,1,1.255-1.056,8.182,8.182,0,0,1,3.433.68,1.059,1.059,0,0,1,.268,1.909c-1.046.68-.624,1.192-.189,1.872.449.7.874,1.419,1.3,2.136a3.146,3.146,0,0,1,.49,1.819" transform="translate(-95.518 -83.945)" fill="#fff"/>
      </g>
    </g>
  </g>
</svg>
