<svg xmlns="http://www.w3.org/2000/svg" xmlns:xlink="http://www.w3.org/1999/xlink" width="85" height="85" viewBox="0 0 85 85">
  <defs>
    <clipPath id="clip-path">
      <rect id="Rectángulo_346557" data-name="Rectángulo 346557" width="66.645" height="57.47" fill="#fff"/>
    </clipPath>
  </defs>
  <g id="Grupo_1017054" data-name="Grupo 1017054" transform="translate(-277.5 -10615.158)">
    <path id="Trazado_605481" data-name="Trazado 605481" d="M42.5,0A42.5,42.5,0,1,1,0,42.5,42.5,42.5,0,0,1,42.5,0Z" transform="translate(277.5 10615.158)" fill="#b20d0d"/>
    <g id="Grupo_1013934" data-name="Grupo 1013934" transform="translate(287.008 10621.751)">
      <g id="Grupo_1013933" data-name="Grupo 1013933" clip-path="url(#clip-path)">
        <path id="Trazado_729106" data-name="Trazado 729106" d="M33.319,57.436q-12.584,0-25.168,0c-.733,0-1.467-.1-2.2-.1-4.531,0-7.7-5.1-4.893-9.657,3.037-4.933,6-9.915,8.989-14.876Q18.855,18.194,27.654,3.582C28.86,1.573,30.411.165,32.861.015a6.052,6.052,0,0,1,5.9,3.237q4.547,7.557,9.111,15.1Q56.62,32.852,65.372,47.341a7.022,7.022,0,0,1,1.151,5.178,5.94,5.94,0,0,1-5.449,4.77c-4.231.328-8.471.106-12.706.138-5.016.039-10.033.009-15.049.009m.022-4.718H59.15a11.959,11.959,0,0,0,1.425-.03,1.442,1.442,0,0,0,1.263-2.142,8.073,8.073,0,0,0-.566-1.019Q51.063,32.589,40.851,15.655q-2.88-4.775-5.762-9.548c-1.245-2.06-2.305-2.047-3.566.04l-.066.112Q20.978,23.638,10.5,41.018c-1.83,3.035-3.687,6.055-5.485,9.109-.879,1.493-.261,2.518,1.478,2.585.388.015.778.006,1.167.006H33.34" transform="translate(0 0)" fill="#fff"/>
        <path id="Trazado_729107" data-name="Trazado 729107" d="M122.614,71.5c-.155,4.915-.285,9.83-.477,14.744-.081,2.073-.658,2.75-2.2,2.916-1.807.195-2.746-.461-2.844-2.277-.215-4.005-.31-8.016-.46-12.025-.042-1.12-.139-2.239-.149-3.359a2.89,2.89,0,0,1,3.091-3.2,2.848,2.848,0,0,1,3.043,3.2" transform="translate(-86.254 -50.574)" fill="#fff"/>
        <path id="Trazado_729108" data-name="Trazado 729108" d="M122.55,161.637a3.307,3.307,0,0,1-3.133,3.317,3.381,3.381,0,0,1-3.234-3.251,3.336,3.336,0,0,1,3.232-3.244,3.282,3.282,0,0,1,3.135,3.177" transform="translate(-86.034 -117.341)" fill="#fff"/>
      </g>
    </g>
  </g>
</svg>
