<svg xmlns="http://www.w3.org/2000/svg" xmlns:xlink="http://www.w3.org/1999/xlink" width="81.944" height="84.36" viewBox="0 0 81.944 84.36">
  <defs>
    <clipPath id="clip-path">
      <rect id="Rectángulo_346423" data-name="Rectángulo 346423" width="79.049" height="79.164" fill="none"/>
    </clipPath>
  </defs>
  <g id="Grupo_987399" data-name="Grupo 987399" transform="translate(-285.056 -4198.64)">
    <circle id="Elipse_5911" data-name="Elipse 5911" cx="39.5" cy="39.5" r="39.5" transform="translate(288 4204)" fill="#06d1d1"/>
    <g id="Grupo_987308" data-name="Grupo 987308" transform="translate(285.056 4198.64)">
      <g id="Grupo_987307" data-name="Grupo 987307" clip-path="url(#clip-path)">
        <path id="Trazado_728729" data-name="Trazado 728729" d="M56.414,35.65c-3.911,0-7.823.01-11.735,0-2.462-.009-3.557-1.388-3.054-3.8A6.608,6.608,0,0,1,48.2,26.427a61.112,61.112,0,0,1,6.482.022,6.273,6.273,0,0,0,5.928-2.523c.474-.622,1.748-1.252,1.371-1.769-.705-.966-1.626-2.217-2.957-2.252-4.423-.118-8.851-.035-13.278-.055-.637,0-.875.478-1.219.82q-6.565,6.536-13.109,13.094c-2.434,2.431-4.084,2.551-6.809.406-.8-.63-.943.207-1.269.481a4.171,4.171,0,0,1-4.45.86,4.17,4.17,0,0,1-1.461-6.763q6.983-7.527,13.989-15.032A11.093,11.093,0,0,1,35.384,11.1q5.475-2.26,10.934-4.56a15.511,15.511,0,0,1,6.155-1.2c4.735.022,9.471-.033,14.205.023a6.66,6.66,0,0,0,5.612-2.377A7.576,7.576,0,0,1,79.459.046c2.2.2,4.423.018,6.636.044a3.929,3.929,0,0,1,4.177,4.141c.03,2.367,0,4.735.008,7.1a11.7,11.7,0,0,1-3.508,8.612c-4.5,4.525-9.027,9.024-13.53,13.547a6.965,6.965,0,0,1-5.247,2.169c-3.86-.044-7.72-.012-11.581-.012M26.922,32.64c.99.746,1.7.2,2.4-.5Q32.8,28.646,36.3,25.162c1.691-1.69,3.382-3.378,5.274-5.267H39a1.434,1.434,0,0,0-1.382.472q-5.418,5.414-10.843,10.822c-.6.593-.532,1.033.152,1.451m41.75.248a3.387,3.387,0,0,0,2.785-1.362c4.4-4.39,8.772-8.8,13.185-13.171a9.531,9.531,0,0,0,2.983-7.168c-.024-2.053,0-4.107,0-6.161-.008-2.163-.33-2.428-2.593-2.172-2.154-.037-4.314.016-6.459-.141a4.23,4.23,0,0,0-3.881,1.637A10.222,10.222,0,0,1,65.8,8.036c-1.435-.074-2.888.1-4.313-.032a39.173,39.173,0,0,0-22.714,4.523c-.854.458-1.788.766-2.682,1.149a7.433,7.433,0,0,0-2.56,1.677Q26.47,22.889,19.455,30.466a1.4,1.4,0,0,0-.214,2.05,1.378,1.378,0,0,0,2.336.122c4.636-4.628,9.237-9.291,13.849-13.942a5.656,5.656,0,0,1,4.364-1.514c5.608.048,11.226.214,16.822-.059a8.985,8.985,0,0,1,7.341,3.054,2.631,2.631,0,0,1,.078,4.065c-.842.9-1.751,1.742-2.608,2.631a7.067,7.067,0,0,1-5.386,2.235c-2.624-.026-5.248-.011-7.872,0a3.764,3.764,0,0,0-3.653,2.356c-.608,1.326-.433,1.587,1.029,1.588q10.805.006,21.611-.005a14.558,14.558,0,0,0,1.52-.156" transform="translate(-11.236 0)" fill="#080706"/>
        <path id="Trazado_728730" data-name="Trazado 728730" d="M95.775,167.734c-3.4,0-6.795.011-10.192,0-2.132-.009-3.075-.969-3.123-3.129-.013-.566-.015-1.133,0-1.7.056-2.048,1.008-3,3.023-3.108,1.164-.063,2.677.528,3.4-.272.7-.774.2-2.263.209-3.436.025-3.6-.023-7.207.03-10.809.014-.981-.211-1.39-1.271-1.309-1.228.094-2.47.043-3.7.016a2.648,2.648,0,0,1-2.819-3.312,14.494,14.494,0,0,1,28.721.1,2.629,2.629,0,0,1-2.637,3.21c-1.337.048-2.677.05-4.014,0-.815-.032-1.194.132-1.185,1.077q.068,6.871,0,13.743c-.007.859.328,1.06,1.091,1.015.821-.048,1.648-.034,2.47,0a4.657,4.657,0,0,1,1.362.211c1.555.553,2.14,2.411,1.707,5.281a2.666,2.666,0,0,1-2.877,2.424c-3.4.024-6.795.007-10.192.007m3.338-36.22a.636.636,0,0,0-.672-.228C92.3,129.4,85.052,134,84.005,140.392c-.158.964.284,1.009,1,1.007q9.791-.034,19.583-.045c.662.024,1.325.036,1.985.076.7.042.859-.293.786-.94-.43-3.893-4.382-8.22-8.231-8.977Zm4.538,31.031c-5.852-.023-11.7-.025-17.557-.085-1.083-.011-.939.639-.951,1.306-.013.7-.049,1.3.989,1.29,5.85-.066,11.7-.082,17.553-.115.3.016.6.031.905.049.917.057,1.621.057,1.626-1.277,0-1.394-.8-1.249-1.66-1.227-.3.008-.6.038-.9.058m-6.744-2.823c.255.018.51.048.766.051,1.972.023,1.973.021,1.973-1.989q0-5.621,0-11.241c0-2.671,0-2.671-2.773-2.5-1.384-.017-2.771,0-4.153-.066-.827-.04-1.048.286-1.044,1.071q.043,6.851,0,13.7c-.006.823.3,1.077,1.079,1.045,1.382-.058,2.767-.053,4.152-.074" transform="translate(-56.16 -88.575)" fill="#040404"/>
        <path id="Trazado_728731" data-name="Trazado 728731" d="M14.243,199.156c4.064,0,8.127-.024,12.191.019.9.009,1.343-.155,1.252-1.168a1.226,1.226,0,0,1,1.353-1.482c.828.041,1.234.62,1.226,1.479-.016,1.646-.01,3.292,0,4.938A1.257,1.257,0,0,1,29,204.38a1.183,1.183,0,0,1-1.3-1.376c.122-1.23-.523-1.279-1.471-1.276-7.87.027-15.74.015-23.61.015-.411,0-.823,0-1.234-.01-.849-.027-1.4-.452-1.377-1.315s.583-1.26,1.435-1.259q3.163,0,6.327,0h6.481" transform="translate(0 -135.79)" fill="#010102"/>
        <path id="Trazado_728732" data-name="Trazado 728732" d="M173.726,201.741c-4.012,0-8.024.016-12.036-.012-.873-.006-1.5.023-1.4,1.191a1.216,1.216,0,0,1-1.379,1.455c-.833-.059-1.206-.659-1.2-1.507.018-1.594.023-3.189,0-4.783-.014-.923.383-1.543,1.3-1.564a1.185,1.185,0,0,1,1.277,1.4c-.133,1.252.562,1.249,1.483,1.246,7.767-.025,15.533-.014,23.3-.014.36,0,.721.014,1.08,0,.974-.044,1.838.171,1.82,1.337-.017,1.067-.839,1.266-1.752,1.258-1.852-.016-3.7,0-5.555,0h-6.944" transform="translate(-108.977 -135.788)" fill="#010202"/>
        <path id="Trazado_728733" data-name="Trazado 728733" d="M25.1,38.548a1.4,1.4,0,0,1,.214-2.05Q32.341,28.93,39.39,21.385a7.433,7.433,0,0,1,2.56-1.677c.895-.383,1.828-.692,2.683-1.149a39.169,39.169,0,0,1,22.714-4.523c1.426.136,2.878-.043,4.313.032a10.223,10.223,0,0,0,8.889-3.685,4.231,4.231,0,0,1,3.881-1.638c2.145.157,4.305.1,6.459.141,0,2.461-.093,4.928.023,7.384a12.358,12.358,0,0,1-4.1,9.853c-3.823,3.719-7.559,7.526-11.322,11.306-.418.42-1.017.752-.954,1.491a14.467,14.467,0,0,1-1.52.156q-10.805.016-21.611.006c-1.463,0-1.638-.262-1.029-1.588a3.764,3.764,0,0,1,3.653-2.356c2.624-.009,5.249-.024,7.872,0A7.066,7.066,0,0,0,67.284,32.9c.858-.888,1.767-1.728,2.608-2.63a2.63,2.63,0,0,0-.078-4.065,8.986,8.986,0,0,0-7.341-3.054c-5.6.272-11.213.107-16.821.059a5.657,5.657,0,0,0-4.364,1.515A2.967,2.967,0,0,0,38.3,25.783c-3.871,3.955-7.805,7.848-11.727,11.753-.422.42-.752,1.008-1.47,1.012" transform="translate(-17.097 -6.031)" fill="#fddeb1"/>
        <path id="Trazado_728734" data-name="Trazado 728734" d="M185.847,39.093c-.063-.74.535-1.071.954-1.491,3.763-3.78,7.5-7.587,11.322-11.306a12.355,12.355,0,0,0,4.1-9.853c-.115-2.456-.022-4.922-.023-7.384,2.263-.256,2.585.009,2.593,2.172.007,2.054-.019,4.108,0,6.161a9.531,9.531,0,0,1-2.983,7.168c-4.413,4.373-8.79,8.781-13.185,13.171a3.387,3.387,0,0,1-2.785,1.362" transform="translate(-128.41 -6.204)" fill="#d8bd97"/>
        <path id="Trazado_728735" data-name="Trazado 728735" d="M25.9,74.135c.718,0,1.048-.592,1.47-1.012,3.922-3.9,7.857-7.8,11.727-11.753a2.967,2.967,0,0,1,2.988-1.055c-4.612,4.651-9.213,9.314-13.849,13.942a1.378,1.378,0,0,1-2.336-.122" transform="translate(-17.899 -41.618)" fill="#cfb691"/>
        <path id="Trazado_728736" data-name="Trazado 728736" d="M62.831,64.38h2.574c-1.892,1.889-3.584,3.577-5.274,5.267q-3.49,3.487-6.977,6.977c-.694.7-1.406,1.246-2.4.5a3.585,3.585,0,0,1,1.064-1.288q5.042-5.059,10.092-10.108c.384-.386.926-.686.917-1.349" transform="translate(-35.072 -44.484)" fill="#d9be98"/>
        <path id="Trazado_728737" data-name="Trazado 728737" d="M61.579,64.3c.009.662-.533.963-.917,1.349Q55.625,70.714,50.57,75.76a3.585,3.585,0,0,0-1.064,1.288c-.684-.418-.749-.858-.151-1.451Q54.791,70.2,60.2,64.775a1.433,1.433,0,0,1,1.382-.472" transform="translate(-33.82 -44.407)" fill="#fddeb0"/>
        <path id="Trazado_728738" data-name="Trazado 728738" d="M110.611,147.321q-9.792.02-19.583.045c-.712,0-1.154-.042-1-1.006,1.047-6.392,8.3-10.989,14.436-9.107a.535.535,0,0,0,.672.228h.011c.031.423.405.53.664.763,2.7,2.438,4.9,5.152,4.8,9.077" transform="translate(-62.187 -94.542)" fill="#f24234"/>
        <path id="Trazado_728739" data-name="Trazado 728739" d="M120.155,195.013c-1.384.021-2.77.016-4.152.074-.779.032-1.084-.222-1.079-1.045q.046-6.851,0-13.7c0-.785.217-1.112,1.044-1.071,1.382.067,2.769.048,4.153.066q.017,7.839.033,15.679" transform="translate(-79.408 -123.866)" fill="#f34335"/>
        <path id="Trazado_728740" data-name="Trazado 728740" d="M112.319,241.562c-5.851.033-11.7.049-17.553.115-1.038.012-1-.587-.989-1.29.012-.667-.132-1.316.951-1.306,5.852.059,11.7.062,17.557.084q.017,1.2.034,2.4" transform="translate(-64.794 -165.197)" fill="#5f7c8a"/>
        <path id="Trazado_728741" data-name="Trazado 728741" d="M131.775,195.028q-.017-7.839-.033-15.679c2.773-.171,2.773-.171,2.773,2.5q0,5.62,0,11.241c0,2.01,0,2.012-1.973,1.989-.256,0-.511-.033-.766-.051" transform="translate(-91.029 -123.881)" fill="#c3211f"/>
        <path id="Trazado_728742" data-name="Trazado 728742" d="M144.487,148.782c.105-3.925-2.092-6.639-4.8-9.077-.258-.233-.633-.34-.663-.763,3.849.757,7.8,5.083,8.231,8.977.072.647-.083.982-.787.94-.661-.04-1.323-.052-1.985-.076" transform="translate(-96.063 -96.004)" fill="#b8201e"/>
        <path id="Trazado_728743" data-name="Trazado 728743" d="M153.709,241.588q-.017-1.2-.034-2.4c.3-.02.6-.05.9-.058.862-.022,1.665-.167,1.66,1.227,0,1.334-.708,1.334-1.626,1.277-.3-.019-.6-.033-.9-.049" transform="translate(-106.184 -165.223)" fill="#37474f"/>
        <path id="Trazado_728744" data-name="Trazado 728744" d="M137.487,138.409a.535.535,0,0,1-.672-.228.637.637,0,0,1,.672.228" transform="translate(-94.534 -95.47)" fill="#b8201e"/>
      </g>
    </g>
  </g>
</svg>
