<svg xmlns="http://www.w3.org/2000/svg" xmlns:xlink="http://www.w3.org/1999/xlink" width="79" height="91.667" viewBox="0 0 79 91.667">
  <defs>
    <clipPath id="clip-path">
      <rect id="Rectángulo_346424" data-name="Rectángulo 346424" width="66.298" height="86.47" fill="none"/>
    </clipPath>
  </defs>
  <g id="Grupo_987400" data-name="Grupo 987400" transform="translate(-804 -4191.333)">
    <circle id="Elipse_5910" data-name="Elipse 5910" cx="39.5" cy="39.5" r="39.5" transform="translate(804 4204)" fill="#ffc403"/>
    <g id="Grupo_987310" data-name="Grupo 987310" transform="translate(810.46 4191.333)">
      <g id="Grupo_987309" data-name="Grupo 987309" clip-path="url(#clip-path)">
        <path id="Trazado_728745" data-name="Trazado 728745" d="M51.263,141.237c-.231,1.081-.945,1.363-1.981,1.36q-14.081-.035-28.162,0c-1.473.005-2-.62-1.975-2.032.049-2.7.01-5.4.016-8.1,0-2.094.25-2.421,2.294-2.339,1.185.047,1.628-.28,1.458-1.47a13.223,13.223,0,0,1-.015-1.853c0-2.618,0-2.685,2.662-2.8,1.1-.047.945-.66.944-1.325,0-3.6.017-7.2-.012-10.794-.008-.981.126-1.8,1.216-2.107,1.083.265,1.3,1.028,1.291,2.034-.033,3.635.01,7.27-.029,10.905-.01.909.213,1.321,1.208,1.273,1.729-.082,3.464-.056,5.2-.075,1.743.019,3.485.052,5.228.046.4,0,.892.185,1.116-.447a5.153,5.153,0,0,0-1.16-4.367,7.349,7.349,0,0,1-2.254-7.812,7.219,7.219,0,0,1,6.18-5.5,7.351,7.351,0,0,1,7.569,3.375c.64.919,1.121,1.912-.178,2.745-1.036.14-1.451-.574-1.937-1.305a5.055,5.055,0,0,0-6.513-1.871,5.121,5.121,0,0,0,1.22,9.659A5.069,5.069,0,0,0,50,116.074c.469-.763.766-1.679,1.92-1.6,1.13.575,1.142,1.433.553,2.384-.411.664-.761,1.53-1.378,1.872-1.831,1.014-1.528,2.637-1.558,4.242-.016.854.342,1.021,1.1,1.015,3.653-.028,7.306-.041,10.958.006.954.013,1.1-.4,1.094-1.212-.028-6.351.126-12.706-.067-19.051-.279-9.147-7.8-16.452-16.441-16.248a14.163,14.163,0,0,0-8.554,2.039c-5.834,3.44-8.623,8.646-8.636,15.38,0,1.074.166,2.215-1.28,2.558a1.637,1.637,0,0,1-1.218-1.6A19.5,19.5,0,0,1,47.282,84.856,19.258,19.258,0,0,1,65.1,103.373c.155,6.355.09,12.717.028,19.075-.013,1.287.333,1.715,1.589,1.543,1.557-.214,2.163.6,2.054,2.084-.029.392-.006.788,0,1.182a6.092,6.092,0,0,0,.088,2.5c.429.837,1.522.2,2.311.352a1.4,1.4,0,0,1,1.327,1.472q.021,4.727,0,9.454a1.392,1.392,0,0,1-1.575,1.552c-5.233,0-10.466-.009-15.7.007a1.537,1.537,0,0,1-1.646-1.352c.369-1.17,1.306-1.212,2.309-1.208,4.218.015,8.437-.031,12.654.031,1.107.016,1.472-.3,1.4-1.409a28.107,28.107,0,0,1,.005-4.215c.118-1.364-.248-1.8-1.707-1.78-6.86.088-13.722.03-20.584.041q-11.724.018-23.448.063c-2.508-.223-2.509-.223-2.517,2.2,0,.954,0,1.908,0,2.863,0,2.461,0,2.461,2.53,2.129.615.026,1.23.075,1.844.075q11.364.009,22.727,0c1.03,0,2.07-.066,2.472,1.2M27.676,126.57c-.737-.1-1.625-.593-2.1.332a2.022,2.022,0,0,0,2.032,3.141c3.152.018,6.3.048,9.456.051q13.766.01,27.531-.012c.505,0,1.156.3,1.5-.381a2.126,2.126,0,0,0-1.949-3.227q-17.566-.005-35.132,0c-.448,0-.9.062-1.343.094m19.389-4.022c.173-.992.071-1.677-1.319-1.593-1.051.064-1.68.114-1.591,1.418.067.981.008,1.744,1.384,1.657,1.027-.065,1.84-.089,1.527-1.482" transform="translate(-12.671 -56.13)" fill="#060606"/>
        <path id="Trazado_728746" data-name="Trazado 728746" d="M61.176,234.911c-.4-1.269-1.442-1.2-2.472-1.2q-11.363.008-22.727,0c-.615,0-1.23-.049-1.845-.075q-.006-3.6-.011-7.2,11.724-.032,23.448-.063c6.861-.01,13.724.046,20.584-.041,1.459-.019,1.825.417,1.707,1.781a28.1,28.1,0,0,0,0,4.215c.071,1.106-.293,1.426-1.4,1.409-4.217-.062-8.436-.016-12.654-.031-1,0-1.94.038-2.309,1.209H61.176" transform="translate(-22.584 -149.804)" fill="#c9ecfe"/>
        <path id="Trazado_728747" data-name="Trazado 728747" d="M52.14,129.07c-1.732.019-3.467-.007-5.2.075-1,.048-1.218-.363-1.208-1.273.039-3.635,0-7.27.029-10.9.009-1.006-.208-1.769-1.291-2.034q0-1.161,0-2.322c1.446-.343,1.278-1.484,1.28-2.558.013-6.735,2.8-11.941,8.636-15.38a14.162,14.162,0,0,1,8.554-2.039,6.087,6.087,0,0,1-.546.361c-6.216,3.24-9.889,8.334-10.2,15.331-.312,6.9-.059,13.828-.054,20.744" transform="translate(-29.437 -61.279)" fill="#df1717"/>
        <path id="Trazado_728748" data-name="Trazado 728748" d="M96.822,12.129q0,4.969,0,9.938c0,.944-.056,1.93-1.3,1.934S94.2,23.023,94.2,22.076q0-10.022,0-20.044c0-1,.055-2.085,1.388-2.031,1.2.05,1.233,1.083,1.232,2.021q-.007,5.053,0,10.106" transform="translate(-62.352 0.001)" fill="#101010"/>
        <path id="Trazado_728749" data-name="Trazado 728749" d="M21.586,62.2c-.113.664-.447,1.221-1.288,1.161A2.912,2.912,0,0,1,19.2,63q-9-4.745-17.991-9.513a5.561,5.561,0,0,1-.581-.34,1.193,1.193,0,0,1-.479-1.614,1.165,1.165,0,0,1,1.7-.573c1.1.551,2.185,1.145,3.276,1.722q7.508,3.971,15.014,7.946c.639.339,1.357.619,1.448,1.576" transform="translate(0 -33.617)" fill="#080909"/>
        <path id="Trazado_728750" data-name="Trazado 728750" d="M153.872,52.142a1.355,1.355,0,0,1-.9,1.3q-9.212,4.887-18.429,9.765c-.753.4-1.533.572-2.038-.347s.057-1.46.825-1.867c6.141-3.258,12.276-6.53,18.429-9.765,1.123-.591,2.079-.122,2.11.914" transform="translate(-87.576 -33.736)" fill="#080909"/>
        <path id="Trazado_728751" data-name="Trazado 728751" d="M53.911,32.811c-.013.756-.213,1.2-.779,1.366a1.163,1.163,0,0,1-1.377-.319,8.123,8.123,0,0,1-.623-.991q-4.788-8.595-9.568-17.194a5.36,5.36,0,0,1-.527-1.047,1.225,1.225,0,0,1,.633-1.567,1.129,1.129,0,0,1,1.492.374,5.1,5.1,0,0,1,.543.847q4.873,8.74,9.734,17.487c.213.384.533.747.473,1.043" transform="translate(-27.112 -8.547)" fill="#090909"/>
        <path id="Trazado_728752" data-name="Trazado 728752" d="M129.755,14.217a2.522,2.522,0,0,1-.535,1.391q-4.815,8.676-9.64,17.346c-.492.888-1.038,1.8-2.18,1.128-1.067-.63-.52-1.553-.075-2.353q4.9-8.82,9.814-17.635c.363-.651.778-1.325,1.674-1.109a1.148,1.148,0,0,1,.941,1.231" transform="translate(-77.297 -8.568)" fill="#090909"/>
        <path id="Trazado_728753" data-name="Trazado 728753" d="M66.946,129.164c-.005-6.916-.258-13.843.054-20.744.316-7,3.99-12.092,10.2-15.331a6.1,6.1,0,0,0,.546-.361c8.646-.2,16.163,7.1,16.441,16.248.193,6.345.039,12.7.067,19.051,0,.809-.14,1.225-1.094,1.212-3.652-.047-7.306-.034-10.958-.006-.758.006-1.115-.161-1.1-1.015.029-1.605-.273-3.228,1.558-4.242.617-.342.967-1.208,1.378-1.872.589-.951.577-1.809-.553-2.384l-.042-2.511c1.3-.833.818-1.826.178-2.745a7.351,7.351,0,0,0-7.569-3.375,7.219,7.219,0,0,0-6.18,5.5,7.349,7.349,0,0,0,2.254,7.812,5.153,5.153,0,0,1,1.16,4.367c-.225.632-.713.446-1.116.447-1.743.005-3.485-.027-5.228-.046m24.566-23.451c-.113-.336-.22-.715-.365-1.08a16.754,16.754,0,0,0-7.764-8.558c-.74-.412-1.544-.687-2.084.167-.589.932-.016,1.557.817,2.027a15.582,15.582,0,0,1,4.756,3.97,14.135,14.135,0,0,1,2.1,3.821,1.271,1.271,0,0,0,1.576.928c.65-.144.878-.633.966-1.276" transform="translate(-44.243 -61.373)" fill="#f74138"/>
        <path id="Trazado_728754" data-name="Trazado 728754" d="M44.252,208.14c.448-.033.895-.094,1.343-.094q17.566-.008,35.132,0a2.126,2.126,0,0,1,1.949,3.228c-.344.684-1,.379-1.5.38q-13.766.031-27.531.013c-3.152,0-6.3-.033-9.456-.05l.064-3.473" transform="translate(-29.247 -137.699)" fill="#2795ae"/>
        <path id="Trazado_728755" data-name="Trazado 728755" d="M93.656,157.908q.021,1.256.042,2.511c-1.154-.082-1.451.834-1.92,1.6a5.069,5.069,0,0,1-5.352,2.374,5.121,5.121,0,0,1-1.22-9.659,5.054,5.054,0,0,1,6.512,1.871c.487.731.9,1.445,1.937,1.3" transform="translate(-54.45 -102.072)" fill="#f9bc07"/>
        <path id="Trazado_728756" data-name="Trazado 728756" d="M29.19,226.459q.006,3.6.012,7.2c-2.529.332-2.529.332-2.53-2.129,0-.954,0-1.908,0-2.862.008-2.428.009-2.428,2.517-2.2" transform="translate(-17.653 -149.829)" fill="#6fa5bc"/>
        <path id="Trazado_728757" data-name="Trazado 728757" d="M96.009,193.306c.313,1.393-.5,1.417-1.527,1.482-1.375.088-1.317-.676-1.384-1.657-.089-1.3.54-1.354,1.591-1.418,1.391-.084,1.492.6,1.319,1.593" transform="translate(-61.615 -126.888)" fill="#ac0009"/>
        <path id="Trazado_728758" data-name="Trazado 728758" d="M39.641,207.9l-.064,3.473a2.022,2.022,0,0,1-2.032-3.142c.472-.925,1.36-.43,2.1-.332" transform="translate(-24.636 -137.462)" fill="#136070"/>
        <path id="Trazado_728759" data-name="Trazado 728759" d="M119.334,111.507c-.088.643-.316,1.132-.966,1.276a1.271,1.271,0,0,1-1.576-.928,14.135,14.135,0,0,0-2.1-3.821,15.582,15.582,0,0,0-4.756-3.97c-.833-.47-1.406-1.1-.817-2.027.539-.853,1.344-.579,2.084-.167a16.754,16.754,0,0,1,7.764,8.558c.145.364.252.743.365,1.08" transform="translate(-72.066 -67.167)" fill="#070201"/>
      </g>
    </g>
  </g>
</svg>
