<svg xmlns="http://www.w3.org/2000/svg" xmlns:xlink="http://www.w3.org/1999/xlink" width="122" height="122" viewBox="0 0 122 122">
  <defs>
    <clipPath id="clip-path">
      <rect id="Rectángulo_346432" data-name="Rectángulo 346432" width="104.534" height="120.997" fill="none"/>
    </clipPath>
  </defs>
  <g id="Grupo_987404" data-name="Grupo 987404" transform="translate(-739 -431)">
    <circle id="Elipse_5915" data-name="Elipse 5915" cx="61" cy="61" r="61" transform="translate(739 431)" fill="#ffc403"/>
    <g id="Grupo_987324" data-name="Grupo 987324" transform="translate(747.732 432.003)">
      <g id="Grupo_987323" data-name="Grupo 987323" clip-path="url(#clip-path)">
        <path id="Trazado_728812" data-name="Trazado 728812" d="M54.96,105.449c-3.639,1.543-7.063,1.752-10.686-.117v8.986c0,8.421-.048,16.843.036,25.264.019,1.871-.526,2.866-2.4,3.384-2.946.814-5.837,1.841-8.715,2.879-1.3.467-2.4.507-2.935-.905-.515-1.371.476-2.17,1.61-2.364,1.82-.312,1.891-1.426,1.859-2.884-.072-3.3.016-6.611-.037-9.916-.028-1.808.744-2.5,2.553-2.519,4.547-.053,4.546-.112,4.546-4.7,0-5.509-.047-11.019.031-16.528.021-1.487-.294-2.067-1.93-2-5.884.235-5.174-.109-5.183-5.277-.015-8.106-.04-16.214.028-24.32.013-1.5-.32-2.082-1.931-1.981a70.029,70.029,0,0,1-7.079.011c-1.284-.051-1.749.26-1.74,1.657q.092,14.875,0,29.75c-.007,1.313.319,1.811,1.683,1.711,1.565-.114,3.148.02,4.719-.038,1.815-.067,2.571.771,2.545,2.553-.044,2.99-.058,5.982,0,8.972.04,1.9-.732,2.7-2.665,2.682-5.35-.062-10.7-.053-16.053,0-1.777.016-2.657-.651-2.565-2.494.059-1.174.011-2.354.011-3.681-1.908.529-3.645,1.2-5.586.549a7.089,7.089,0,0,1,.236-13.664,6.882,6.882,0,0,1,7.811,3.439c.731,1.293,5,2.393,6.1,1.557.444-.338.3-.86.3-1.316.006-10.074-.013-20.148.029-30.222.005-1.163-.389-1.4-1.483-1.458-3.658-.2-5.744-2.348-5.6-5.569.138-3.074,2.342-4.94,5.947-5.026.63-.015,1.262.033,1.888-.009,2.032-.136,2.766.78,2.74,2.812-.054,4.278.028,4.279,4.259,4.279,1.023,0,2.051-.064,3.068.013,2.1.161,3.823.037,4.966-2.314.9-1.86,3.005-2.413,5.083-2.416,6.138-.008,12.276-.018,18.414.006a5.911,5.911,0,0,1,5.747,3.409c.549,1.167,1.289,1.139,2.264,1a19.513,19.513,0,0,0,16.178-16.5c.1-.78.215-1.563.245-2.347.045-1.184.495-2.062,1.775-2.03,1.422.036,1.741,1.033,1.73,2.3a20.091,20.091,0,0,1-1.59,7.809c-3.38,7.878-9.286,12.723-17.786,14.131-1.692.28-1.922.964-1.912,2.439.061,8.736.032,17.472.029,26.208,0,3.147-.251,3.4-3.3,3.413-3.781.018-3.781.018-3.781,3.819,0,5.9.037,11.806-.029,17.708-.015,1.305.306,1.762,1.676,1.717,6.3-.207,5.378-.082,5.434,5.7.023,2.361.062,4.724-.02,7.083-.043,1.24.121,2.081,1.557,2.375,1.2.245,2.367.87,1.879,2.413-.534,1.687-1.8,1.347-3.087.895-2.813-.984-5.618-2.016-8.489-2.8-1.873-.51-2.451-1.487-2.439-3.365.07-10.782.034-21.565.034-32.348v-1.823m-5.546-2.313a5.134,5.134,0,0,0,2.531-.356c3.045-.99,3.758-2.119,3.047-5.508-.491-2.34-2.468-.733-3.708-1.127a5.939,5.939,0,0,0-1.869.023c-1.242-.018-2.484-.054-3.725-.046-.512,0-1.057-.1-1.364.575a4.612,4.612,0,0,0,2.377,5.9,5.426,5.426,0,0,0,2.712.541M22.97,116.07q2.094.086,4.188.173c.721.031,1.081-.2,1.23-1.019,1.04-5.69.168-6.681-5.418-6.011-1.251-.038-2.5-.106-3.753-.109-5.2-.013-5.2-.005-5.066,5.184a1.558,1.558,0,0,1,0,.235c-.143,1.163.256,1.731,1.539,1.677,2.425-.1,4.854-.094,7.281-.131M49.441,67.836a18.638,18.638,0,0,1-2.574-.086c-2.264-.379-2.685.677-2.639,2.722.128,5.706.044,11.417.044,17.126,0,5.028,0,5.028,5.149,4.824.971.461,2.012.11,3.006.256,2.087.306,2.681-.558,2.632-2.622-.135-5.632-.046-11.268-.046-16.9,0-5.593,0-5.593-5.572-5.317m12.632,27c0-1.253-.05-2.509.014-3.759.066-1.314-.013-2.171-1.8-2.142-1.614.026-1.954.564-1.892,2.026.105,2.5.1,5.015,0,7.518-.056,1.443.252,2.031,1.888,2.049,1.791.019,1.861-.863,1.8-2.169-.056-1.172-.012-2.35-.012-3.525m-24.9-.146c0,1.413.1,2.836-.027,4.237-.145,1.565.733,1.547,1.857,1.562,1.186.017,1.911-.121,1.849-1.619-.11-2.664-.139-5.343.009-8,.092-1.666-.6-1.856-2.026-1.92-1.673-.076-1.745.737-1.677,1.977s.015,2.512.016,3.768M10.661,107.3a3.684,3.684,0,0,0-3.693-3.534,3.59,3.59,0,0,0-3.373,3.574,3.474,3.474,0,0,0,3.651,3.477,3.566,3.566,0,0,0,3.415-3.517M37.17,135.47c0,.94,0,1.88,0,2.82.005,2.567.22,2.678,2.564,1.713a1.593,1.593,0,0,0,1.1-1.79c-.052-1.8-.1-3.608.011-5.4.091-1.469-.277-2.047-1.9-2.081-1.794-.037-1.865.854-1.781,2.157.055.858.01,1.722.01,2.584m24.9.182c0-1.171-.059-2.346.015-3.513.1-1.5-.906-1.349-1.853-1.352s-1.9-.156-1.831,1.353a45.455,45.455,0,0,1-.011,5.853c-.192,2.324,1.677,2.355,2.915,2.42,1.44.077.584-1.417.731-2.191a13.864,13.864,0,0,0,.034-2.57M40.818,72.006c0-.862.046-1.727-.016-2.584-.041-.561.358-1.344-.49-1.61a2.086,2.086,0,0,0-1.764.457A2.89,2.89,0,0,0,37.2,70.62c-.056,1.173.043,2.355-.046,3.523-.1,1.306.119,2,1.72,1.983,1.54-.017,2.173-.441,1.961-2.007a15.828,15.828,0,0,1-.016-2.113m17.608-.1q0,1.408,0,2.816c0,.638-.048,1.36.875,1.318.9-.041,1.96.437,2.648-.43.756-.953-.079-6.391-1.023-7.149a2.052,2.052,0,0,0-2.148-.59c-.691.322-.293,1.113-.338,1.69-.061.778-.015,1.564-.015,2.346m3.646,10.948c0-.446-.025-.762,0-1.074.128-1.379.067-2.29-1.867-2.3-2.037-.016-1.843,1.071-1.789,2.348a8.557,8.557,0,0,1-.009,1.647c-.257,1.678.447,2.1,2.079,2.092,2.474-.016,1.264-1.792,1.582-2.709m-24.891-.485a9.375,9.375,0,0,1-.007,1.123c-.2,1.432.2,2.05,1.85,2.065,1.776.016,1.891-.852,1.784-2.164a6.372,6.372,0,0,1,.008-1.641c.369-2.013-.676-2.311-2.364-2.21-2.618.156-.569,2.135-1.271,2.828M19.562,67.353c-.025-1.016.327-2.071-1.266-1.992-1.252.062-2.255.415-2.321,1.745-.069,1.377.968,1.773,2.189,1.884,1.435.13,1.5-.733,1.4-1.636" transform="translate(0 -25.191)" fill="#030303"/>
        <path id="Trazado_728813" data-name="Trazado 728813" d="M163.878,150.453c2.516-3.472,5.6-5.516,9.722-5.837,1.937-.15,2.781.6,2.612,2.574-.465,5.455-3.56,8.871-8.721,11.079,3.188,3.125,6.335,6.057,9.306,9.159a17.493,17.493,0,0,1,3.168,19.48A17.745,17.745,0,0,1,162.637,197.2a17.486,17.486,0,0,1-15.455-11.952,17.109,17.109,0,0,1,4.042-18.1c2.854-3.027,5.907-5.866,9-8.919-4.384-1.8-7.312-4.634-8.41-9.117-.982-4.011.092-5.161,4.127-4.266a13.038,13.038,0,0,1,7.935,5.605m5.7,41.664.018.047c5.6-1.675,9.487-8.952,8.214-15.223-1.186-5.839-5.492-9.293-9.652-12.876l.008.044a.861.861,0,0,0-.586-.8c-.876-.9-1.783-1.774-2.618-2.711-.718-.806-1.3-.908-2.117-.07-3.234,3.319-6.665,6.457-9.751,9.906a14.03,14.03,0,0,0,15.942,22.106l.543-.425m-8.173-37.347c-.494-3.48-3.1-5.959-5.98-5.87a8.738,8.738,0,0,0,5.98,5.87m10.933-6.262a8.253,8.253,0,0,0-5.959,4.971c-.161.341-.358.754.031,1.057.356.278.74.061,1.08-.112a8.68,8.68,0,0,0,4.848-5.916" transform="translate(-77.075 -76.235)" fill="#040605"/>
        <path id="Trazado_728814" data-name="Trazado 728814" d="M78.659,17.845c0-1.417.024-2.833,0-4.249-.088-4.48,1.735-7.742,6.014-9.4a2.956,2.956,0,0,0,1.5-1.352A5.726,5.726,0,0,1,89.728.3c3.9-1.016,10.207,3.456,11.956,6.941,2.591,5.163,1.776,10.415,1.781,15.648a12.283,12.283,0,0,1-12.656,12.68c-6.906-.127-12.088-5.668-12.148-13-.013-1.573,0-3.147,0-4.721M93.825,31.381,93.8,31.4a8.342,8.342,0,0,0,6.1-8.393,8.432,8.432,0,0,0-6.627-8.248,3.423,3.423,0,0,0-.856-.345,8.548,8.548,0,0,0-8.834,4.146A8.276,8.276,0,0,0,83.8,28.1a8.37,8.37,0,0,0,9.466,3.572l.555-.287m5.933-17.225c.3-1.606-.692-2.656-.856-3.674-.591-3.669-3.259-4.627-6-5.974-1.708-.839-3.177-1.026-3.866.712-.585,1.474-1.57,1.887-2.927,2.284a4.658,4.658,0,0,0-3.331,6.326c5.645-4.188,11.269-4.156,16.981.326" transform="translate(-41.477 -0.079)" fill="#080808"/>
        <path id="Trazado_728815" data-name="Trazado 728815" d="M164.728.064a6.528,6.528,0,0,1,1.631.4,3.688,3.688,0,0,0,3.3.056,6.1,6.1,0,0,1,6.77,1.311,6.475,6.475,0,0,1,2.106,6.621c-1.26,5.337-5.3,8.114-9.841,10.362a1.752,1.752,0,0,1-1.356-.035c-4.025-1.973-7.655-4.449-9.33-8.841C156.1,4.924,159.3.017,164.728.064m3.163,5.345a2.971,2.971,0,0,1-.844-.391c-1.482-1.4-3.154-1.96-4.823-.553-1.748,1.474-1.323,3.408-.426,5.164a11.836,11.836,0,0,0,5.65,5.107c2.995.257,7.455-4.167,7.6-7.482a3.047,3.047,0,0,0-1.577-3.158,3.115,3.115,0,0,0-3.536.269,3.788,3.788,0,0,1-2.047,1.044" transform="translate(-83.035 0)" fill="#050706"/>
        <path id="Trazado_728816" data-name="Trazado 728816" d="M104.581,90.124c5.572-.276,5.572-.276,5.572,5.317,0,5.635-.088,11.272.046,16.9.049,2.064-.545,2.928-2.632,2.622-.993-.146-2.034.205-3.006-.256q.01-12.294.02-24.586" transform="translate(-55.14 -47.479)" fill="#049360"/>
        <path id="Trazado_728817" data-name="Trazado 728817" d="M98.783,90.045q-.01,12.293-.02,24.586c-5.149.2-5.149.2-5.149-4.824,0-5.709.083-11.42-.044-17.126-.046-2.044.374-3.1,2.639-2.722a18.639,18.639,0,0,0,2.574.086" transform="translate(-49.343 -47.4)" fill="#2fae53"/>
        <path id="Trazado_728818" data-name="Trazado 728818" d="M38.721,184.5c-2.427.037-4.856.03-7.28.131-1.283.054-1.683-.514-1.539-1.677a1.624,1.624,0,0,0,0-.235c-.131-5.189-.131-5.2,5.066-5.184,1.251,0,2.5.071,3.753.109V184.5" transform="translate(-15.751 -93.624)" fill="#e5e5e5"/>
        <path id="Trazado_728819" data-name="Trazado 728819" d="M127.219,140.774c0,1.175-.044,2.352.012,3.525.063,1.306-.007,2.187-1.8,2.168-1.637-.017-1.945-.606-1.888-2.049.1-2.5.1-5.015,0-7.517-.061-1.462.279-2,1.892-2.027,1.785-.029,1.864.828,1.8,2.142-.063,1.25-.014,2.506-.014,3.759" transform="translate(-65.147 -71.125)" fill="#eaba5b"/>
        <path id="Trazado_728820" data-name="Trazado 728820" d="M78.593,140.637c0-1.256.053-2.515-.015-3.768s0-2.053,1.677-1.977c1.428.065,2.118.254,2.025,1.92-.147,2.661-.119,5.34-.009,8,.062,1.5-.662,1.635-1.849,1.619-1.124-.016-2,0-1.857-1.562.13-1.4.027-2.824.027-4.237" transform="translate(-41.424 -71.133)" fill="#eacf9a"/>
        <path id="Trazado_728821" data-name="Trazado 728821" d="M48.6,184.423v-6.856c5.587-.67,6.458.321,5.418,6.011-.149.817-.51,1.049-1.23,1.019q-2.094-.09-4.188-.173" transform="translate(-25.628 -93.543)" fill="#b2b2b2"/>
        <path id="Trazado_728822" data-name="Trazado 728822" d="M14.671,169.776a3.566,3.566,0,0,1-3.415,3.518A3.475,3.475,0,0,1,7.6,169.817a3.59,3.59,0,0,1,3.373-3.574,3.685,3.685,0,0,1,3.693,3.534" transform="translate(-4.01 -87.666)" fill="#e5e5e5"/>
        <path id="Trazado_728823" data-name="Trazado 728823" d="M104.547,149.944a5.952,5.952,0,0,1,1.869-.022c1.24.394,3.217-1.214,3.708,1.127.711,3.389,0,4.518-3.047,5.508a5.134,5.134,0,0,1-2.531.356q0-3.485,0-6.969" transform="translate(-55.133 -78.968)" fill="#4d4d4d"/>
        <path id="Trazado_728824" data-name="Trazado 728824" d="M78.606,228.03c0-.862.044-1.726-.01-2.584-.083-1.3-.012-2.195,1.781-2.157,1.626.034,1.994.613,1.9,2.081-.111,1.795-.063,3.6-.011,5.4a1.593,1.593,0,0,1-1.1,1.79c-2.344.965-2.559.855-2.564-1.713,0-.94,0-1.88,0-2.82" transform="translate(-41.436 -117.751)" fill="#eacf9a"/>
        <path id="Trazado_728825" data-name="Trazado 728825" d="M127.207,228.271a13.94,13.94,0,0,1-.035,2.57c-.147.774.709,2.268-.731,2.191-1.237-.066-3.107-.1-2.915-2.42a45.455,45.455,0,0,0,.011-5.853c-.071-1.508.883-1.357,1.831-1.353s1.948-.148,1.853,1.353c-.074,1.167-.015,2.341-.014,3.513" transform="translate(-65.135 -117.81)" fill="#eaba5b"/>
        <path id="Trazado_728826" data-name="Trazado 728826" d="M98.494,150.11q0,3.485,0,6.969a5.427,5.427,0,0,1-2.712-.542,4.611,4.611,0,0,1-2.377-5.9c.307-.675.852-.571,1.364-.575,1.242-.009,2.484.028,3.725.046" transform="translate(-49.079 -79.135)" fill="#666"/>
        <path id="Trazado_728827" data-name="Trazado 728827" d="M82.246,94.3a15.829,15.829,0,0,0,.016,2.113c.212,1.566-.422,1.99-1.962,2.006-1.6.017-1.82-.676-1.72-1.982.089-1.168-.01-2.35.045-3.523a2.891,2.891,0,0,1,1.35-2.352,2.086,2.086,0,0,1,1.764-.457c.847.267.449,1.049.489,1.61.062.857.017,1.722.017,2.584" transform="translate(-41.429 -47.482)" fill="#eacf9a"/>
        <path id="Trazado_728828" data-name="Trazado 728828" d="M123.546,94.192c0-.782-.047-1.568.015-2.346.046-.578-.353-1.367.338-1.69a2.051,2.051,0,0,1,2.148.59c.945.759,1.78,6.2,1.023,7.149-.689.867-1.751.389-2.648.43-.924.043-.876-.68-.875-1.318q0-1.408,0-2.816" transform="translate(-65.121 -47.475)" fill="#eaba5b"/>
        <path id="Trazado_728829" data-name="Trazado 728829" d="M127.187,118.236c-.318.917.893,2.693-1.582,2.709-1.632.011-2.335-.414-2.078-2.092a8.6,8.6,0,0,0,.008-1.647c-.054-1.277-.248-2.364,1.789-2.348,1.934.015,2,.926,1.867,2.3-.029.311,0,.628,0,1.074" transform="translate(-65.114 -60.57)" fill="#eacf9a"/>
        <path id="Trazado_728830" data-name="Trazado 728830" d="M78.545,117.805c.7-.693-1.347-2.672,1.271-2.828,1.689-.1,2.733.2,2.364,2.211a6.372,6.372,0,0,0-.007,1.641c.107,1.312-.009,2.179-1.785,2.164-1.646-.014-2.049-.632-1.85-2.064a9.493,9.493,0,0,0,.006-1.123" transform="translate(-41.364 -60.624)" fill="#fcd6d1"/>
        <path id="Trazado_728831" data-name="Trazado 728831" d="M37.381,86.976c.1.9.036,1.766-1.4,1.636-1.221-.11-2.258-.506-2.189-1.884.067-1.329,1.07-1.682,2.321-1.745,1.593-.079,1.242.976,1.266,1.992" transform="translate(-17.819 -44.814)" fill="#e5e5e5"/>
        <path id="Trazado_728832" data-name="Trazado 728832" d="M173.006,209.707A14.03,14.03,0,0,1,157.064,187.6c3.085-3.449,6.516-6.587,9.75-9.906.817-.838,1.4-.736,2.118.07.835.937,1.742,1.81,2.617,2.711a.786.786,0,0,0,.586.8l-.008-.043c-.148.714.359,1.158.677,1.688a26.271,26.271,0,0,1,3.942,14.988,28.893,28.893,0,0,1-3.18,11.423l-.018-.048-.542.425" transform="translate(-81.045 -93.4)" fill="#2fae53"/>
        <path id="Trazado_728833" data-name="Trazado 728833" d="M194.115,213.924a28.885,28.885,0,0,0,3.18-11.423,26.27,26.27,0,0,0-3.942-14.988c-.318-.529-.825-.974-.677-1.687,4.162,3.583,8.468,7.037,9.653,12.876,1.273,6.27-2.616,13.549-8.213,15.223" transform="translate(-101.593 -97.995)" fill="#049360"/>
        <path id="Trazado_728834" data-name="Trazado 728834" d="M171.749,159.607a8.737,8.737,0,0,1-5.98-5.87c2.879-.089,5.486,2.39,5.98,5.87" transform="translate(-87.418 -81.072)" fill="#2fae53"/>
        <path id="Trazado_728835" data-name="Trazado 728835" d="M194.686,152.91a8.68,8.68,0,0,1-4.848,5.916c-.34.173-.725.39-1.08.112-.389-.3-.192-.716-.031-1.057a8.253,8.253,0,0,1,5.959-4.971" transform="translate(-99.422 -80.637)" fill="#049360"/>
        <path id="Trazado_728836" data-name="Trazado 728836" d="M192.069,185.027a.786.786,0,0,1-.586-.8.861.861,0,0,1,.586.8" transform="translate(-100.979 -97.154)" fill="#049360"/>
        <path id="Trazado_728837" data-name="Trazado 728837" d="M194.565,245.6l.542-.425-.542.425" transform="translate(-102.604 -129.292)" fill="#049360"/>
        <path id="Trazado_728838" data-name="Trazado 728838" d="M97.208,47.5a8.369,8.369,0,0,1-9.467-3.572,8.277,8.277,0,0,1-.218-9.537,8.548,8.548,0,0,1,8.834-4.146,3.4,3.4,0,0,1,.856.344,28.225,28.225,0,0,1,1.455,8.038c.115,2.936-.884,5.71-.933,8.6l.026-.017-.554.287" transform="translate(-45.415 -15.911)" fill="#fcd6d1"/>
        <path id="Trazado_728839" data-name="Trazado 728839" d="M104.018,18.326C98.305,13.844,92.682,13.813,87.036,18a4.658,4.658,0,0,1,3.331-6.326c1.357-.4,2.342-.81,2.927-2.284.69-1.738,2.158-1.551,3.866-.712,2.741,1.347,5.409,2.3,6,5.974.164,1.018,1.16,2.068.856,3.674" transform="translate(-45.736 -4.249)" fill="#7c7c7c"/>
        <path id="Trazado_728840" data-name="Trazado 728840" d="M110.116,47.7c.049-2.893,1.047-5.667.933-8.6a28.225,28.225,0,0,0-1.455-8.038,8.433,8.433,0,0,1,6.627,8.249,8.341,8.341,0,0,1-6.1,8.392" transform="translate(-57.794 -16.378)" fill="#f9b0a5"/>
        <path id="Trazado_728841" data-name="Trazado 728841" d="M109.581,66.514l.554-.287-.554.287" transform="translate(-57.788 -34.925)" fill="#f9b0a5"/>
        <path id="Trazado_728842" data-name="Trazado 728842" d="M179.039,9.505a3.788,3.788,0,0,0,2.047-1.044,3.115,3.115,0,0,1,3.536-.269A3.047,3.047,0,0,1,186.2,11.35c-.147,3.315-4.607,7.739-7.6,7.482,1.029-3.067.194-6.223.443-9.327" transform="translate(-94.183 -4.097)" fill="#049360"/>
        <path id="Trazado_728843" data-name="Trazado 728843" d="M171.867,9.478c-.25,3.1.586,6.26-.443,9.327a11.837,11.837,0,0,1-5.65-5.107c-.9-1.755-1.322-3.69.426-5.164,1.669-1.408,3.341-.846,4.823.553a2.971,2.971,0,0,0,.844.391" transform="translate(-87.01 -4.07)" fill="#2fae53"/>
      </g>
    </g>
  </g>
</svg>
