<svg id="Grupo_987274" data-name="Grupo 987274" xmlns="http://www.w3.org/2000/svg" xmlns:xlink="http://www.w3.org/1999/xlink" width="189.026" height="188.855" viewBox="0 0 189.026 188.855">
  <defs>
    <clipPath id="clip-path">
      <rect id="Rectángulo_346381" data-name="Rectángulo 346381" width="189.026" height="188.855" fill="none"/>
    </clipPath>
  </defs>
  <g id="Grupo_987273" data-name="Grupo 987273" clip-path="url(#clip-path)">
    <path id="Trazado_728527" data-name="Trazado 728527" d="M0,150.317c.312-13.581,4.664-25.026,13.7-34.534,4.656-4.9,9.465-9.661,14.313-14.372C34.418,95.187,43,95.2,49.418,101.38c3.276,3.154,6.506,6.363,9.625,9.671,1.351,1.433,2.152,1.279,3.484-.058q33.061-33.182,66.236-66.25c1.186-1.183,1.579-2.127.915-3.811-1.333-3.378.216-6.793.392-10.192.227-4.409.888-8.8,1.412-13.189.737-6.18,12.83-17.288,19.058-17.539a11.763,11.763,0,0,1,9.072,3.355c8.655,8.556,17.321,17.106,25.8,25.835a12.122,12.122,0,0,1,.252,17.017c-2.778,3.114-5.859,5.958-8.81,8.918a8.949,8.949,0,0,1-5.665,2.341q-9.523,1.053-19.043,2.118c-.731.08-1.612.365-2.184.078-4.1-2.055-6.127.9-8.5,3.277q-31.4,31.457-62.884,62.822c-1.937,1.924-2.154,2.966-.019,4.833,3.139,2.746,6.006,5.811,8.911,8.816,6.234,6.445,6.343,15.017.171,21.41-4.782,4.952-9.589,9.894-14.631,14.575-12.835,11.916-28.1,15.329-45.088,12.528-4.965-.818-9.977-1.346-14.968-2.006-5.069-.67-9.055-3.88-9.718-8.687C1.977,168.122.475,159.021,0,150.317M167.5,51.4c2.177-.136,4.374,0,6.1-1.865,2.164-2.347,4.551-4.487,6.744-6.809,2.993-3.17,3.027-6.659-.032-9.758-8.117-8.22-16.312-16.362-24.477-24.535a5.655,5.655,0,0,0-6.011-1.742c-.475.082-1.1,0-1.4.271-5.122,4.7-11.691,8.323-11.293,16.887.157,3.387-.644,6.839-1.185,10.233-.535,3.359-.089,6.071,2.84,8.423a66.341,66.341,0,0,1,8.352,8.317,6.479,6.479,0,0,0,6.478,2.3c4.614-.677,9.257-1.158,13.888-1.721M54.609,179.185c3.033-.342,5.485-2.031,7.91-3.632,8.287-5.468,14.487-13.205,21.405-20.142,2.815-2.823,2.516-7.652-.323-10.808-3.2-3.556-6.716-6.824-10.09-10.222-1.378-1.388-2.519-1.389-3.352.544-1.928.71-2.968,2.46-4.354,3.787-5.028,4.815-9.311,5.055-14.816.723-6.366-7.186-6.232-10.886.641-17.769.865-.867,1.681-1.791,2.607-2.586,1.524-1.307,1.649-2.462.11-3.931-3.275-3.127-6.366-6.451-9.674-9.543-1.713-1.6-3.759-2.784-6.324-2.132-2.626-.475-4.437.971-6.122,2.645q-6.4,6.356-12.756,12.75c-9.334,9.4-13.827,20.724-12.842,33.959.545,7.324,1.706,14.6,2.547,21.906.419,3.643,2.8,4.823,6.048,5.2,5.6.653,11.168,1.55,16.773,2.116,7.734.781,15.433.909,22.61-2.868M141.02,54.193c-.625-1.83-2.31-2.629-3.3-3.987-1.784-2.437-3.226-2.421-5.413-.142-6.972,7.267-14.188,14.3-21.311,21.422-9.816,9.816-19.577,19.685-29.491,29.4-1.98,1.941-2.219,3.269.044,4.92a7.387,7.387,0,0,1,1.56,1.559c1.624,2.2,2.924,2.116,4.92.1q25.414-25.659,51.022-51.126c.686-.686,1.315-1.429,1.973-2.148m-60.5,59.113a41,41,0,0,1-4.1-3.618C75,108.127,74.1,108.2,72.642,109.7c-5.987,6.153-12.074,12.209-18.188,18.238-2.31,2.278-1.833,4.132.28,6.241s3.99,2.615,6.262.323c6.131-6.184,12.316-12.315,18.459-18.487a2.551,2.551,0,0,0,1.061-2.708" transform="translate(0 0)" fill="#060504"/>
    <path id="Trazado_728528" data-name="Trazado 728528" d="M53.3,176.112c5.5,4.334,9.787,4.093,14.815-.723,1.385-1.326,2.426-3.077,4.354-3.786.81,3.23,3.776,4.68,5.789,6.894,4.82,5.3,4.884,11.643-.077,16.686-2.583,2.626-5.169,5.25-7.815,7.812-4.457,4.315-8.962,8.58-13.448,12.866-7.178,3.777-14.876,3.649-22.61,2.868-5.6-.565-11.175-1.462-16.773-2.116-3.249-.379-5.63-1.559-6.049-5.2-.84-7.3-2-14.582-2.546-21.906-.985-13.235,3.508-24.555,12.842-33.959q6.352-6.4,12.755-12.75c1.685-1.675,3.5-3.121,6.123-2.645,2.885,4.627,7.3,7.829,10.993,11.7,1.527,1.6,1.741,2.628.013,4.14-1.932,1.69-3.664,3.607-5.482,5.427-5.168,5.175-4.989,8.239.562,12.988,1.974,1.689,4.213,1.744,6.555,1.7M17.89,185.68c.072,2.383-.093,4.115.558,5.765.6,1.529,1.667,2.511,3.353,2.27a2.983,2.983,0,0,0,2.68-3.03,23.612,23.612,0,0,0-.061-2.574A27.423,27.423,0,0,1,33.1,166.28c3.158-3.086,6.242-6.248,9.374-9.362,1.549-1.541,2.49-3.314.7-5.108-1.748-1.751-3.543-.993-5.116.6-3.874,3.933-7.914,7.711-11.634,11.783A33.16,33.16,0,0,0,17.89,185.68m23.244,17.768c-1.349,0-2.706-.094-4.044.024a2.931,2.931,0,0,0-2.893,2.807,2.878,2.878,0,0,0,2.1,3.1,9.569,9.569,0,0,0,2.862.581c9.484.385,17.939-2.327,24.972-8.8,3.88-3.57,7.488-7.434,11.252-11.13,1.561-1.532,2.547-3.294.887-5.123-1.862-2.053-3.718-1-5.358.655q-4.923,4.969-9.893,9.889a26.593,26.593,0,0,1-19.88,7.993" transform="translate(-2.305 -36.677)" fill="#7f8d93"/>
    <path id="Trazado_728529" data-name="Trazado 728529" d="M169.378,71.351c-.658.72-1.287,1.462-1.973,2.148q-25.529,25.545-51.022,51.126c-2,2.014-3.3,2.1-4.92-.1a7.387,7.387,0,0,0-1.56-1.559c-2.262-1.65-2.024-2.978-.044-4.92,9.914-9.715,19.676-19.584,29.491-29.4,7.123-7.123,14.339-14.155,21.311-21.423,2.187-2.279,3.629-2.3,5.413.142.994,1.358,2.679,2.157,3.3,3.987" transform="translate(-28.357 -17.159)" fill="#9f512d"/>
    <path id="Trazado_728530" data-name="Trazado 728530" d="M215.657,53.771c-4.631.563-9.274,1.044-13.888,1.721a6.481,6.481,0,0,1-6.479-2.3,66.28,66.28,0,0,0-8.351-8.317c-2.93-2.352-3.375-5.065-2.84-8.424.541-3.394,1.343-6.846,1.185-10.233-.4-8.564,6.171-12.189,11.293-16.887.3-.274.926-.188,1.4-.27,1.064,1.172,2.111,2.361,3.2,3.514,6.785,7.2,14.221,13.751,20.705,21.272a9.532,9.532,0,0,1-.465,13.408c-2.037,2.046-4.609,3.666-5.757,6.513m-12.238-4.833c4.02-.492,8.053-.892,12.054-1.508a7.441,7.441,0,0,0,6.028-5.336c.895-2.653-.021-4.984-2.078-6.989C214.234,30.045,209.2,24.831,204,19.775c-3.086-3.006-6.657-2.788-9.767.173-1.849,1.76-2.164,3.995-2.631,6.3-1.614,7.953-1.737,15.333,6.149,20.5,1.8,1.182,3.4,2.375,5.664,2.2" transform="translate(-48.158 -2.374)" fill="#f79301"/>
    <path id="Trazado_728531" data-name="Trazado 728531" d="M99.294,151.815a2.551,2.551,0,0,1-1.061,2.708c-6.143,6.172-12.328,12.3-18.459,18.487-2.272,2.293-4.159,1.777-6.262-.323s-2.59-3.963-.28-6.241c6.113-6.028,12.2-12.085,18.188-18.238,1.458-1.5,2.353-1.574,3.771-.012a41,41,0,0,0,4.1,3.618" transform="translate(-18.776 -38.509)" fill="#ced6da"/>
    <path id="Trazado_728532" data-name="Trazado 728532" d="M73.982,226.511c4.485-4.286,8.991-8.551,13.448-12.866,2.645-2.561,5.232-5.186,7.815-7.812,4.962-5.043,4.9-11.386.077-16.686-2.013-2.214-4.979-3.664-5.789-6.894.833-1.934,1.974-1.932,3.352-.545,3.374,3.4,6.891,6.666,10.09,10.222,2.84,3.156,3.139,7.984.323,10.808-6.917,6.937-13.118,14.674-21.4,20.143-2.425,1.6-4.878,3.288-7.911,3.631" transform="translate(-19.373 -47.326)" fill="#535b5f"/>
    <path id="Trazado_728533" data-name="Trazado 728533" d="M220.65,53.673c1.149-2.846,3.721-4.466,5.757-6.513a9.532,9.532,0,0,0,.465-13.408c-6.484-7.521-13.92-14.072-20.705-21.272-1.086-1.152-2.132-2.342-3.2-3.514a5.653,5.653,0,0,1,6.011,1.742c8.165,8.172,16.36,16.314,24.476,24.535,3.06,3.1,3.025,6.589.032,9.757-2.192,2.322-4.579,4.462-6.744,6.809-1.721,1.867-3.918,1.729-6.1,1.864" transform="translate(-53.151 -2.276)" fill="#f17b00"/>
    <path id="Trazado_728534" data-name="Trazado 728534" d="M64.6,176.079c-2.341.043-4.581-.013-6.554-1.7-5.551-4.749-5.729-7.813-.562-12.988,1.817-1.82,3.55-3.739,5.481-5.428,1.729-1.512,1.515-2.536-.013-4.14-3.69-3.874-8.107-7.076-10.993-11.7,2.565-.652,4.611.529,6.324,2.132,3.308,3.093,6.4,6.416,9.675,9.544,1.538,1.469,1.413,2.623-.111,3.931-.926.795-1.742,1.719-2.607,2.586-6.873,6.883-7.007,10.583-.641,17.768" transform="translate(-13.606 -36.644)" fill="#525a5e"/>
    <path id="Trazado_728535" data-name="Trazado 728535" d="M21.114,189.493a33.158,33.158,0,0,1,8.534-21.485c3.72-4.072,7.761-7.851,11.634-11.783,1.572-1.6,3.367-2.354,5.115-.6,1.791,1.794.85,3.566-.7,5.107-3.13,3.115-6.215,6.276-9.374,9.363a27.422,27.422,0,0,0-8.68,21.831,23.621,23.621,0,0,1,.061,2.574,2.982,2.982,0,0,1-2.68,3.03c-1.686.241-2.75-.741-3.353-2.27-.651-1.65-.485-3.381-.558-5.765" transform="translate(-5.529 -40.489)" fill="#f0f0f1"/>
    <path id="Trazado_728536" data-name="Trazado 728536" d="M50.137,218.959a26.593,26.593,0,0,0,19.88-7.993q4.981-4.908,9.893-9.889c1.64-1.656,3.5-2.707,5.358-.655,1.66,1.828.674,3.59-.887,5.123-3.764,3.7-7.372,7.56-11.252,11.13-7.033,6.47-15.487,9.182-24.972,8.8a9.569,9.569,0,0,1-2.862-.581,2.878,2.878,0,0,1-2.1-3.1,2.931,2.931,0,0,1,2.893-2.807c1.338-.117,2.7-.024,4.044-.024" transform="translate(-11.308 -52.187)" fill="#f0f0f1"/>
    <path id="Trazado_728537" data-name="Trazado 728537" d="M205.84,51.975c-2.262.18-3.859-1.013-5.664-2.2-7.885-5.165-7.763-12.546-6.149-20.5.467-2.3.782-4.537,2.631-6.3,3.11-2.961,6.681-3.179,9.767-.173,5.192,5.056,10.23,10.27,15.418,15.33,2.057,2.006,2.972,4.337,2.078,6.989a7.442,7.442,0,0,1-6.028,5.337c-4,.616-8.034,1.016-12.054,1.508M208,45.365c2.554-.286,5.112-.543,7.661-.87,1.667-.213,2.737-.809,1.075-2.481q-6.862-6.9-13.749-13.78c-1.543-1.551-2.32-.937-2.556.919q-.487,3.823-.813,7.668A8.254,8.254,0,0,0,208,45.365" transform="translate(-50.58 -5.409)" fill="#070503"/>
  </g>
</svg>
