<svg id="Grupo_987272" data-name="Grupo 987272" xmlns="http://www.w3.org/2000/svg" xmlns:xlink="http://www.w3.org/1999/xlink" width="189.287" height="165.325" viewBox="0 0 189.287 165.325">
  <defs>
    <clipPath id="clip-path">
      <rect id="Rectángulo_346380" data-name="Rectángulo 346380" width="189.287" height="165.325" fill="none"/>
    </clipPath>
  </defs>
  <g id="Grupo_987271" data-name="Grupo 987271" clip-path="url(#clip-path)">
    <path id="Trazado_728525" data-name="Trazado 728525" d="M101.587,172.535q-35,0-69.995,0c-5.384,0-5.4-.015-5.4-5.211-.007-33.4.04-66.8-.071-100.2-.01-3.28.974-5,4.024-6.439Q63.966,44.771,97.6,28.456a8.151,8.151,0,0,1,7.92-.024q33.816,16.358,67.787,32.391c2.753,1.3,3.712,2.9,3.7,5.9-.091,33.646-.053,67.292-.062,100.939,0,4.816-.064,4.872-5,4.873q-35.182.014-70.363,0M99.11,117.179c0-4.05-.08-8.1.03-12.149.064-2.328-.747-3.339-3.178-3.3q-9.57.146-19.143.006c-2.4-.031-3.275.993-3.26,3.3q.082,11.965,0,23.93c-.017,2.322.869,3.315,3.266,3.281q9.57-.138,19.143,0c2.442.04,3.241-.965,3.174-3.292-.112-3.924-.03-7.853-.031-11.781m30.445-.147c0-4.05-.034-8.1.014-12.149.025-2.115-.792-3.159-3.034-3.138q-9.755.091-19.512-.007c-2.226-.024-3.034.9-3.017,3.079q.1,12.148,0,24.3c-.016,2.128.66,3.157,2.952,3.129q9.755-.122,19.513,0c2.2.023,3.126-.886,3.1-3.059-.053-4.049-.015-8.1-.015-12.149M99.105,152.67c0-4.174-.063-8.349.026-12.521.048-2.229-.889-3.053-3.071-3.028q-9.573.1-19.149,0c-2.317-.029-3.367.818-3.35,3.209.057,7.979.071,15.959-.013,23.937-.027,2.574,1.049,3.429,3.543,3.385q9.388-.167,18.78,0c2.35.038,3.347-.766,3.271-3.191-.122-3.924-.032-7.855-.036-11.783m30.452-.178c0-4.051-.032-8.1.013-12.154.023-2.063-.665-3.229-2.961-3.208q-9.943.088-19.887,0c-2.139-.015-2.717,1.073-2.706,3q.065,12.337,0,24.675c-.013,2.053.843,2.84,2.869,2.822,6.505-.059,13.013-.085,19.518.013,2.477.037,3.216-1.118,3.178-3.364-.067-3.927-.019-7.856-.024-11.784m-42.5-85.4v-.014H81.546c-7.419,0-7.334,0-7.08,7.488.082,2.407.982,3.223,3.31,3.171,4.771-.1,9.547-.028,14.321-.028,7.641,0,7.578,0,7.049-7.818-.138-2.041-.928-2.851-2.91-2.814-3.059.056-6.12.015-9.181.015M116,77.706c1.837,0,3.673.029,5.509,0,7.7-.144,7.04,1.439,7.153-7.358.034-2.686-1.192-3.344-3.58-3.294-4.65.1-9.3.025-13.956.025-7.646,0-7.588,0-7.135,7.775.116,1.988.764,2.918,2.826,2.867,3.058-.077,6.121-.02,9.181-.011M86.745,51.518c-2.693,0-5.4.164-8.075-.042-3.21-.245-4.588.974-4.176,4.2a12.2,12.2,0,0,1,.008,2.567c-.211,2.5.857,3.558,3.4,3.509,4.894-.1,9.792-.021,14.688-.021,6.846,0,6.763,0,6.565-6.941-.066-2.337-.857-3.36-3.23-3.287-3.057.094-6.12.023-9.18.014m29.51,0c-2.692,0-5.4.164-8.075-.042-3.206-.248-4.6.958-4.166,4.193a9.191,9.191,0,0,1,0,2.2c-.313,2.824.832,4,3.746,3.9,4.768-.154,9.546-.038,14.32-.038,6.887,0,6.807,0,6.588-6.934-.074-2.325-.859-3.366-3.235-3.294-3.057.093-6.119.022-9.18.013M40.632,120.369c3.336.679,4.849-.343,4.784-4.149-.057-3.38-1.094-4.474-4.442-4.456-3.283.018-4.9.661-4.818,4.451.072,3.368.986,4.883,4.476,4.153m121.752-.018c3.03.67,4.62-.163,4.589-3.857-.028-3.4-.878-4.794-4.528-4.744-3.4.046-4.743.9-4.721,4.558.022,3.511,1.212,4.736,4.66,4.043m-121.49,5.11c-3.073-.523-4.8.113-4.737,3.889.06,3.41.912,4.762,4.541,4.714,3.389-.046,4.742-.878,4.717-4.538-.024-3.518-1.232-4.718-4.521-4.065m121.573,0c-3.059-.515-4.813.091-4.74,3.88.066,3.4.886,4.777,4.527,4.722,3.373-.051,4.762-.852,4.731-4.527-.03-3.5-1.219-4.731-4.519-4.076M54.574,120.349c3.588.934,4.192-1.027,4.277-4.216.094-3.515-1.387-4.326-4.585-4.362-3.309-.038-4.132,1.266-4.151,4.357-.02,3.249.75,5.016,4.459,4.221m94.085,0c3.252.842,4.39-.552,4.372-4.012-.018-3.218-.8-4.611-4.311-4.58-3.386.029-4.486,1.213-4.425,4.527.057,3.047.744,4.818,4.364,4.065m-98.336,9.3c-.876,3.43.8,4.344,4.121,4.392,3.417.051,4.415-1.226,4.412-4.513,0-3.17-.982-4.3-4.221-4.244-3.108.052-5.138.522-4.313,4.364m98.563-4.189c-3.284-.616-4.649.546-4.605,4.07.041,3.28,1,4.567,4.418,4.513,3.071-.048,4.426-.829,4.32-4.157-.1-2.98-.294-5.256-4.132-4.427" transform="translate(-6.869 -7.211)"/>
    <path id="Trazado_728526" data-name="Trazado 728526" d="M189.287,49.022c-.016,5.738-5.446,9.052-11.026,6.5-8.487-3.874-16.889-7.937-25.307-11.96-18.39-8.787-36.79-17.554-55.124-26.455a6.7,6.7,0,0,0-6.524.151Q52.132,36.087,12.877,54.745c-.775.371-1.539.776-2.342,1.076-3.988,1.489-8,.022-9.735-3.526A7.39,7.39,0,0,1,4.242,42.252c6.458-3.277,13.037-6.316,19.572-9.441Q56.712,17.083,89.6,1.326a10.464,10.464,0,0,1,9.821-.194q41.994,20.184,84.07,40.2c3.328,1.586,5.837,3.639,5.8,7.688" transform="translate(0 0)"/>
  </g>
</svg>
