<svg id="Grupo_987278" data-name="Grupo 987278" xmlns="http://www.w3.org/2000/svg" xmlns:xlink="http://www.w3.org/1999/xlink" width="162.513" height="189.445" viewBox="0 0 162.513 189.445">
  <defs>
    <clipPath id="clip-path">
      <rect id="Rectángulo_346383" data-name="Rectángulo 346383" width="162.513" height="189.445" fill="none"/>
    </clipPath>
  </defs>
  <g id="Grupo_987277" data-name="Grupo 987277" clip-path="url(#clip-path)">
    <path id="Trazado_728538" data-name="Trazado 728538" d="M21.354,105.588c1.323.225,2.7.96,2.592,2.221-.353,3.983,2.176,2.46,4.083,2.447,11.211-.074,22.423-.059,33.633-.187,1.157-.013,3.028,1.134,3.369-1.493.3-2.3-.952-2.846-2.7-3.484a33.233,33.233,0,0,1-18.82-16.746c-.746-1.468-1.294-2.638-3.395-2.54-13.6.632-18.045-10.063-15.308-21.951a11.557,11.557,0,0,0,.03-5.573C19.2,33.738,26.087,10.672,50.666,2A34.789,34.789,0,0,1,62.256.024c10.35-.01,20.7-.058,31.049.019A39.1,39.1,0,0,1,114.5,6.627c2.018,1.3,3.1,2.74,2.175,5.159-1.761,1.3-3.362.906-5.041-.286A27.276,27.276,0,0,0,97.723,6.065a345.217,345.217,0,0,0-37.18-.115C47.587,5.857,34.359,16.119,30.3,29.65c-2.382,7.937-1.939,16.067-.942,24.171.082.67-.29,1.873,1.117,1.866,1.685-10.859,3.668-14.4,11.647-20.836a43.88,43.88,0,0,1,6.446-2.671c2.012-.5,2.583-1.439,2.367-3.311-.113-.972.009-1.97-.023-2.954-.061-1.844.675-3.311,2.556-3.446,2.137-.153,2.971,1.39,3.063,3.354a12.161,12.161,0,0,1,.006,2.215c-.333,2.392.584,3.4,3.039,3.076a12.425,12.425,0,0,1,3.319,0c2.3.32,2.983-.58,2.882-2.856-.1-2.294-.93-5.717,2.724-5.707,3.579.009,2.9,3.4,2.792,5.726s.726,3.131,2.953,2.829a25.46,25.46,0,0,1,2.584-.022c2.319-.073,5,.518,6.841-.466,1.513-.811.292-3.637.574-5.55a2.733,2.733,0,0,1,2.627-2.625,2.616,2.616,0,0,1,2.82,2.392,9.116,9.116,0,0,1,.129,2.938c-.477,2.944.927,3.7,3.532,3.331a7.691,7.691,0,0,1,2.212,0c2.641.405,3.827-.407,3.513-3.328-.241-2.237-.628-5.316,2.83-5.249,3.084.058,2.7,2.921,2.744,5.121a5.812,5.812,0,0,1-.007,1.107c-.378,2.143.7,2.918,2.651,3.536A24.157,24.157,0,0,1,123.778,48.85a72.83,72.83,0,0,1,1.527,7.315,5.768,5.768,0,0,0,.731-1.512c1.134-11.086,2.011-22.156-4.137-32.3-1.078-1.778-2.017-3.429-.438-5.36,2.248-1.039,3.7-.127,4.873,1.836,2.811,4.7,5.016,9.662,5.471,15.13.714,8.566,1.687,17.2-1.519,25.548a4.679,4.679,0,0,0,.21,3.513,21.56,21.56,0,0,1,.563,11.656c-1.342,6.578-6.629,11.192-13.309,11.063-3.431-.067-5.069,1.075-6.624,4.077-3.764,7.265-9.857,12.171-17.462,15.142-1.738.68-3.635.96-3.122,3.584.552,2.829,2.741,1.494,4.133,1.511,9.98.124,19.963.09,29.945.033.92-.006,2.33.847,2.723-.9.339-1.5-.953-1.727-1.838-2.324a8.417,8.417,0,0,1-3.176-9.792c1.141-3.692,3.839-5.2,7.576-5.188,7.271.019,14.542-.033,21.813.021,3.816.028,5.032,1.311,5.1,5.109.03,1.6.011,3.2.005,4.805-.018,4.913-.6,5.577-6.692,6.513,2.152,1.853,3.833,3.245,5.449,4.711,1.349,1.223,1.854,2.717.5,4.193-1.531,1.666-3.073,1.054-4.455-.348-2.824-2.865-5.643-5.737-9.044-9.2-.3,3.747-1.453,6.549,2.088,8.659,1.992,1.188,1.633,3.721,1.51,5.8-.1,1.7.375,2.218,2.2,2.365,9.12.736,14.007,6.1,14.11,15.172.021,1.848-.015,3.7,0,5.545.019,1.96-.724,3.33-2.777,3.739-2.256-.387-2.971-1.855-2.917-3.981.06-2.339.094-4.686-.03-7.021a7.889,7.889,0,0,0-7.8-7.777c-3.81-.122-7.629.058-11.445.1a44.212,44.212,0,0,1-4.769-.19c-2.917-.418-3.687.711-3.63,3.6.187,9.323.07,18.653.07,27.981,0,8.071,0,8.071,8.346,7.49,3.548.053,7.1.142,10.644.152,8.507.022,8.56.007,8.591-8.408.008-2.308.384-4.14,2.915-4.8,2.049.648,2.84,2.049,2.822,4.185-.06,7.761.024,15.523-.043,23.283-.036,4.221-1.67,5.836-5.835,5.838q-72.265.027-144.529,0c-4.033,0-5.571-1.579-5.671-5.535-.034-1.354-.09-2.717.011-4.063.194-2.558-.213-4.541-2.691-6.18C1.06,171.872.1,168.745.061,165.543c-.077-6.528-.089-13.059.007-19.587a9.956,9.956,0,0,1,4.317-8.573c1.89-1.241,2.077-2.674,2.069-4.6q-.078-20.7-.021-41.393c.006-4.927,1.391-6.252,6.408-6.283.863-.006,1.725,0,2.588,0,8.034,0,8.88.943,8.8,8.859-.022,2.3-.8,3.722-2.9,4.481-2.693-.762-3.065-2.833-2.828-5.164.25-2.45-.889-3.017-3.021-2.406-2.631-.836-3.776-.17-3.71,2.877q.26,11.789-.005,23.587c-.073,3.011,1.1,3.67,3.682,3.034,2.459.652,3.23-.373,3.078-2.784-.167-2.666,0-5.351-.047-8.028-.035-2.078.658-3.558,2.875-3.972m-5.907,78.083c2.933.9,3.176-.794,3.065-3.043-.1-2.089.609-4.691-3.093-3.739-4.408-1.184-3.441,1.974-3.614,4.365-.224,3.105,1.5,3.014,3.642,2.417m122.121-8.766a40.422,40.422,0,0,1-4.36-.219c-3.357-.518-4.41.789-4.212,4.152.346,5.879-.729,5.105,5.369,5.156a31.4,31.4,0,0,0,3.244-.3c4.3.067,8.593.248,12.886.178,7.441-.121,6.1,1.382,6.346-6.41.066-2.079-.575-2.783-2.689-2.72-5.525.164-11.056.121-16.585.161M14.661,170.9c2.334.054,4.67.2,7,.141,3.345-.081,4-1.228,1.907-3.951-2.285-2.977,1.2-4.714,1.063-6.9-.138-2.241-3.487-4.138-.911-6.853,1.08-1.137,1.541-2.255.338-3.513-1.889-1.974-1.7-3.746.019-5.821,1.63-1.967.6-3.272-1.676-3.395-2.571-.139-5.159.043-7.74.085-7.483-.432-8.946.926-8.948,8.313q0,6.812,0,13.622c0,7.412,1.484,8.781,8.948,8.273m54.021-55.336H63.308c3.189,5.506,5.972,10.4,8.854,15.244,1.355,2.275,3.322,3.588,6.14,3.065a3.8,3.8,0,0,0,3.893-1.633c3.383-5.321,6.559-10.775,9.983-16.47-6.862-.445-6.955-.442-7.167-6.431-.066-1.848-.652-2.239-2.366-2.161-3.194.145-6.406.175-9.6,0-1.978-.108-2.569.541-2.512,2.459.063,2.133.626,4.542-1.855,5.926m2.94-14.24c3.687.064,7.379.274,11.061.163,9.374-.283,16.706-4.509,22.176-12.014,1.349-1.85,3.576-4.082,2.7-6.067-.651-1.47-3.8-.323-5.82-.526a7.227,7.227,0,0,0-1.476,0A10.94,10.94,0,0,1,91.3,79.888c-7.089-6.161-19.963-6.163-27.048-.078-2.517,2.162-4.922,3.433-8.159,3.183H47.415c3.749,10.551,13.826,18.078,24.207,18.331m-13.29-55.3c-8.783-.455-12.815,3.313-12.846,12.024-.014,3.816-.11,7.636.019,11.448.3,9.044-1.933,7.885,8.393,7.517a7.183,7.183,0,0,0,7.11-1.775A14.24,14.24,0,0,1,67.772,71.6c4.684-.966,8.68-2.143,7.357-8.405-.293-1.388.985-2.52,2.609-2.483A2.645,2.645,0,0,1,80.5,63.534a20.5,20.5,0,0,1,0,3.324c-.235,2.184.312,3.285,2.845,3.538a17.351,17.351,0,0,1,10.1,4.146c2.767,2.549,5.762,2.913,9.138,2.709a12.113,12.113,0,0,1,2.953.018c3.991.762,4.779-1.207,4.615-4.719-.236-5.041-.041-10.1-.064-15.154-.035-7.409-4.038-11.47-11.368-11.491q-14.05-.041-28.1.022c-.871,0-1.955-.529-2.74.671A6.8,6.8,0,0,0,73.5,50.155c1.892.193,3.163,1.08,2.991,2.982-.2,2.172-1.872,2.656-3.812,2.455-4.674-.483-8.223-2.778-9.987-7.1-.937-2.3-2.125-3.023-4.365-2.463M30.183,166.506c.209,2.257.325,4.5-.752,6.614-1.033.854-1.936,2.043-3.122,2.5-3.808,1.468-2.105,4.625-2.01,6.942.106,2.58,2.676,1.125,4.15,1.436a4.793,4.793,0,0,0,1.758-.332c14.051.052,28.1.05,42.152.2,2.692.029,2.579-1.477,2.575-3.307-.022-12.7-.057-25.393.033-38.088.016-2.121-.5-3.352-2.611-4.143-2.5-.939-4.1-3.031-5.413-5.344-2.856-5.032-5.788-10.021-8.683-15.031-.741-1.282-1.349-2.5-3.27-2.434-5.539.179-11.085.163-16.628.223a42.539,42.539,0,0,0-11.748.377c-1.717.364-2.5,1.114-2.464,2.972.1,4.674.031,9.351.037,14.027,0,.985-.056,1.947,1.235,2.338,2.277.689,3.45,2.636,4.746,4.417l.038,5.17c-1.149,1.225-1.3,2.46-.036,3.708q.014,2.584.03,5.169c-1.168,1.228-1.267,2.463-.024,3.707q.009,2.584.017,5.17a2.351,2.351,0,0,0-.013,3.707m95.2-50.937c-8.859,0-16.748.055-24.634-.041-1.809-.022-2.59.86-3.373,2.247-2.843,5.04-5.8,10.017-8.675,15.039-1.446,2.524-3.23,4.761-6.02,5.745-1.9.671-2.195,1.787-2.185,3.578.069,12.821.108,25.644-.023,38.464-.026,2.609.748,3.3,3.307,3.274,11.959-.127,23.922-.159,35.88.016,3.021.044,3.946-.665,3.921-3.823-.156-19.108-.081-38.218-.075-57.327,0-2.316-.326-4.692,1.875-7.172m-6.454-63.673c-.115-.381-.312-1.09-.544-1.788A18.918,18.918,0,0,0,100.37,36.647q-22.536-.454-45.087.019c-9.48.2-17.061,6.776-18.579,15.133-.136.75-.9,1.816.472,2.086,1,.2,2.278.569,2.917-.788a17.814,17.814,0,0,0,.54-1.759c2.282-6.587,7.46-10.725,14.344-10.794q22.727-.227,45.459-.007c6.939.064,12.015,4.086,14.363,10.738.2.578.349,1.177.533,1.764.419,1.342,1.554.926,2.471.96,1.291.05,1.268-.848,1.125-2.1m6.856,18.143c.007-6.21-2.052-9.3-6.688-10.313-2.43-.529-3.615-.159-3.543,2.773.126,5.155,0,10.327-.324,15.474-.14,2.243.771,2.423,2.517,2.311,5.276-.339,8.03-3.809,8.037-10.245m-85.94-.918c0-2.529-.172-4.634.041-6.7.307-2.977-1.117-3.2-3.477-2.69-5.561,1.2-8.244,6.844-6.533,13.947a8.453,8.453,0,0,0,8.579,6.644c1.595,0,2.288-.374,1.856-2.1-.783-3.139-.35-6.357-.465-9.1m99.844,33.093v.029c3.188,0,6.378-.081,9.562.03,1.941.067,2.154-.931,2.157-2.5,0-1.531-.438-2.215-2.081-2.2q-9.563.1-19.125.03c-1.641-.01-2.476.444-2.474,2.272,0,1.761.69,2.4,2.4,2.359,3.186-.068,6.374-.019,9.562-.019m-4.812,22.2v.028c1.228,0,2.46-.05,3.686.013,1.349.07,1.972-.352,2-1.847.032-1.622-.541-2.166-2.129-2.1-2.454.106-4.916.107-7.372.033-1.514-.045-1.84.658-1.853,2.007-.014,1.47.61,1.95,1.981,1.878,1.225-.064,2.457-.013,3.686-.013m1.827-12.883c-.616-1.128,1.19-3.339-1.733-3.5-2.629-.147-1.934,1.776-1.773,2.971.178,1.331-1.442,3.717,1.751,3.736,2.657.016,1.336-2,1.756-3.205" transform="translate(0 0)" fill="#040606"/>
    <path id="Trazado_728539" data-name="Trazado 728539" d="M75.148,7.881A345.409,345.409,0,0,1,112.329,8a27.282,27.282,0,0,1,13.907,5.435c1.679,1.193,3.28,1.586,5.041.286a25.021,25.021,0,0,1,4.79,5.211c-1.578,1.931-.64,3.582.438,5.36,6.148,10.14,5.27,21.211,4.137,32.3a5.765,5.765,0,0,1-.731,1.511,72.811,72.811,0,0,0-1.527-7.314A24.158,24.158,0,0,0,121.9,34.222c-1.949-.618-3.029-1.392-2.651-3.535a5.812,5.812,0,0,0,.007-1.107c-.044-2.2.34-5.062-2.744-5.122-3.458-.066-3.071,3.012-2.83,5.249.314,2.921-.871,3.733-3.513,3.329a7.665,7.665,0,0,0-2.212,0c-2.6.371-4.009-.387-3.532-3.331a9.116,9.116,0,0,0-.129-2.938,2.616,2.616,0,0,0-2.82-2.392A2.733,2.733,0,0,0,98.849,27c-.281,1.913.939,4.739-.574,5.55-1.837.984-4.522.394-6.841.466a25.459,25.459,0,0,0-2.584.023c-2.227.3-3.06-.5-2.953-2.829s.787-5.718-2.792-5.727c-3.654-.009-2.825,3.413-2.724,5.707.1,2.277-.579,3.176-2.882,2.857a12.425,12.425,0,0,0-3.319,0c-2.455.329-3.373-.683-3.039-3.076a12.087,12.087,0,0,0-.006-2.214c-.093-1.965-.926-3.507-3.063-3.354-1.881.134-2.617,1.6-2.556,3.445.032.985-.09,1.982.023,2.954.216,1.871-.355,2.811-2.367,3.31a43.88,43.88,0,0,0-6.446,2.671c-.16-.178-.48-.379-.458-.529A37.162,37.162,0,0,1,68.5,13.725c2.18-1.992,5.52-2.671,6.644-5.844" transform="translate(-14.605 -1.931)" fill="#05e09a"/>
    <path id="Trazado_728540" data-name="Trazado 728540" d="M207.9,201.755c-2.531.656-2.907,2.488-2.915,4.8-.03,8.415-.084,8.43-8.591,8.408-3.548-.009-7.1-.1-10.644-.152q-.009-19.438-.016-38.878c3.815-.046,7.635-.227,11.444-.1a7.889,7.889,0,0,1,7.8,7.778c.124,2.335.09,4.682.03,7.02-.054,2.126.661,3.594,2.917,3.982q-.012,3.575-.023,7.15" transform="translate(-48.213 -45.629)" fill="#88c7fb"/>
    <path id="Trazado_728541" data-name="Trazado 728541" d="M20.9,122.651c2.132-.61,3.27-.043,3.02,2.406-.237,2.332.135,4.4,2.828,5.165q.012,3.573.024,7.144c-2.217.415-2.911,1.893-2.875,3.973.045,2.676-.121,5.361.047,8.028.152,2.411-.62,3.435-3.078,2.784q.016-14.749.033-29.5" transform="translate(-5.416 -31.779)" fill="#fa7d84"/>
    <path id="Trazado_728542" data-name="Trazado 728542" d="M153.594,156.07c-2.2,2.48-1.873,4.856-1.874,7.172-.007,19.109-.082,38.219.074,57.327.026,3.159-.9,3.868-3.921,3.824-11.958-.175-23.921-.143-35.879-.016-2.56.027-3.334-.665-3.307-3.274.13-12.82.091-25.643.022-38.464-.01-1.79.285-2.908,2.185-3.578,2.79-.984,4.574-3.221,6.02-5.745,2.877-5.022,5.832-10,8.675-15.039.783-1.388,1.564-2.269,3.373-2.247,7.886.095,15.775.041,24.634.041" transform="translate(-28.212 -40.501)" fill="#05e19b"/>
    <path id="Trazado_728543" data-name="Trazado 728543" d="M40.521,194.42q-.016-2.584-.03-5.17a2.5,2.5,0,0,0,.036-3.708q-.019-2.584-.038-5.17c1.288-1.2.864-2.8.717-4.163-.856-7.94,1.367-14.665,7.477-19.968,5.543-.06,11.089-.043,16.628-.222,1.921-.062,2.529,1.151,3.27,2.434,2.9,5.01,5.827,10,8.683,15.031,1.314,2.313,2.91,4.4,5.413,5.343,2.11.791,2.627,2.022,2.611,4.143-.09,12.7-.056,25.392-.033,38.088,0,1.83.117,3.336-2.575,3.306-14.05-.152-28.1-.15-42.152-.2-.213-3.518.44-7.1-.777-10.546,1.077-2.111.96-4.357.752-6.614a2.5,2.5,0,0,0,.013-3.708q-.009-2.584-.017-5.169a2.5,2.5,0,0,0,.024-3.707m18.025,3.816c2.212,0,4.423.008,6.635,0,1.73-.008,2.883-.808,2.927-2.6.048-2-1.183-2.812-3.079-2.808q-6.451.014-12.9.01c-1.74,0-2.881.793-2.925,2.586-.05,2,1.2,2.817,3.078,2.823q3.133.008,6.266-.009m.108,4.226c-2.212,0-4.423-.005-6.635,0a2.693,2.693,0,1,0,0,5.38q6.635.022,13.269,0a2.693,2.693,0,1,0,0-5.38c-2.212-.006-4.423,0-6.635,0" transform="translate(-10.318 -40.499)" fill="#05df99"/>
    <path id="Trazado_728544" data-name="Trazado 728544" d="M77.2,62.088c2.24-.56,3.427.163,4.365,2.463,1.764,4.325,5.313,6.621,9.987,7.1,1.94.2,3.615-.283,3.812-2.455.172-1.9-1.1-2.788-2.991-2.982a6.8,6.8,0,0,1-5.617-3.557c.784-1.2,1.868-.666,2.74-.671q14.05-.069,28.1-.021c7.33.021,11.334,4.082,11.368,11.491.023,5.052-.172,10.113.064,15.154.164,3.511-.624,5.48-4.616,4.718a12.107,12.107,0,0,0-2.952-.018c-3.376.2-6.371-.161-9.138-2.709a17.351,17.351,0,0,0-10.1-4.146c-2.532-.253-3.079-1.354-2.845-3.538a20.5,20.5,0,0,0,0-3.324,2.646,2.646,0,0,0-2.765-2.822c-1.624-.036-2.9,1.1-2.609,2.483,1.323,6.263-2.673,7.44-7.357,8.405A14.237,14.237,0,0,0,79.875,91.3a7.185,7.185,0,0,1-7.11,1.775c0-5.792.155-11.591-.061-17.376a18.656,18.656,0,0,1,4.5-13.613m-.013,16.206c0,.738.016,1.477,0,2.215-.053,1.99.7,3.5,2.84,3.52,1.981.017,2.675-1.488,2.728-3.27.047-1.6.029-3.2.011-4.8-.021-1.812-.76-3.293-2.689-3.33-2.109-.039-2.958,1.421-2.89,3.448.024.737,0,1.476,0,2.215m33.3.024c0,.738.015,1.477,0,2.215-.047,2,.726,3.5,2.862,3.5,1.98,0,2.654-1.515,2.707-3.294.044-1.476.013-2.953.022-4.43.011-1.918-.569-3.642-2.725-3.668-2.366-.028-2.985,1.739-2.869,3.835.034.614.005,1.231.006,1.846" transform="translate(-18.867 -16.061)" fill="#facea1"/>
    <path id="Trazado_728545" data-name="Trazado 728545" d="M75.762,109.376c3.237.25,5.641-1.021,8.159-3.183,7.084-6.085,19.959-6.083,27.048.078a10.938,10.938,0,0,0,8.958,2.991,7.234,7.234,0,0,1,1.476,0c2.023.2,5.168-.945,5.82.526.878,1.984-1.349,4.217-2.7,6.066-5.469,7.506-12.8,11.731-22.176,12.015-3.682.111-7.374-.1-11.061-.164-.706-.458-1.422-.9-2.117-1.379-6.221-4.264-11.618-9.183-13.409-16.951" transform="translate(-19.666 -26.383)" fill="#88c7fb"/>
    <path id="Trazado_728546" data-name="Trazado 728546" d="M70.553,8.036c-1.124,3.173-4.464,3.852-6.644,5.844A37.162,37.162,0,0,0,51.672,36.407c-.022.15.3.352.458.529-7.978,6.433-9.962,9.977-11.646,20.836-1.407.007-1.035-1.2-1.117-1.865-1-8.1-1.44-16.235.942-24.172C44.369,18.205,57.6,7.942,70.553,8.036" transform="translate(-10.01 -2.086)" fill="#0ecd8d"/>
    <path id="Trazado_728547" data-name="Trazado 728547" d="M131.678,64.664c.143,1.255.167,2.153-1.125,2.1-.917-.035-2.051.382-2.471-.961-.183-.586-.329-1.185-.533-1.764-2.348-6.651-7.424-10.673-14.363-10.738q-22.728-.21-45.459.007c-6.884.069-12.062,4.208-14.344,10.794a17.629,17.629,0,0,1-.54,1.76c-.638,1.357-1.913.986-2.916.788-1.37-.27-.609-1.336-.472-2.087,1.518-8.356,9.1-14.93,18.579-15.133q22.535-.482,45.086-.018a18.919,18.919,0,0,1,18.014,13.459c.231.7.429,1.408.543,1.788" transform="translate(-12.751 -12.769)" fill="#00b27a"/>
    <path id="Trazado_728548" data-name="Trazado 728548" d="M92.76,153.133c2.483-1.383,1.918-3.793,1.855-5.926-.056-1.917.535-2.568,2.512-2.458,3.19.175,6.4.144,9.6,0,1.713-.078,2.3.312,2.366,2.161.212,5.988.306,5.986,7.167,6.431-3.424,5.7-6.6,11.149-9.983,16.47a3.805,3.805,0,0,1-3.893,1.633A42.184,42.184,0,0,1,99.858,167c-2.035-4.8-6.168-8.516-7.1-13.87" transform="translate(-24.078 -37.57)" fill="#fbba84"/>
    <path id="Trazado_728549" data-name="Trazado 728549" d="M182.79,175.885q.008,19.438.016,38.877c-8.345.581-8.345.581-8.345-7.49,0-9.327.118-18.656-.07-27.98-.058-2.886.713-4.014,3.63-3.6a44.216,44.216,0,0,0,4.769.189" transform="translate(-45.267 -45.585)" fill="#60b4fa"/>
    <path id="Trazado_728550" data-name="Trazado 728550" d="M19.267,189.967c2.581-.042,5.17-.224,7.74-.085,2.274.123,3.306,1.428,1.676,3.395-1.719,2.075-1.907,3.847-.019,5.821,1.2,1.257.741,2.375-.338,3.513-2.575,2.714.773,4.613.912,6.853.135,2.187-3.348,3.925-1.063,6.9,2.091,2.723,1.438,3.869-1.907,3.951-2.331.057-4.667-.087-7-.141a10.414,10.414,0,0,1-1.522-5.927q.148-9.177,0-18.36a10.012,10.012,0,0,1,1.519-5.921" transform="translate(-4.606 -49.275)" fill="#fbba84"/>
    <path id="Trazado_728551" data-name="Trazado 728551" d="M74.262,62.149a18.657,18.657,0,0,0-4.5,13.613c.215,5.785.056,11.583.061,17.376-10.327.369-8.088,1.527-8.393-7.517-.129-3.812-.033-7.632-.019-11.447.031-8.711,4.063-12.481,12.846-12.025" transform="translate(-15.93 -16.123)" fill="#fbba84"/>
    <path id="Trazado_728552" data-name="Trazado 728552" d="M16.664,189.99a10.012,10.012,0,0,0-1.519,5.921q.138,9.178,0,18.36a10.414,10.414,0,0,0,1.522,5.927c-7.464.508-8.946-.861-8.948-8.273q0-6.81,0-13.622c0-7.387,1.465-8.744,8.948-8.313" transform="translate(-2.003 -49.298)" fill="#f4a76b"/>
    <path id="Trazado_728553" data-name="Trazado 728553" d="M166.176,90.9c-.007,6.437-2.761,9.906-8.037,10.245-1.746.113-2.657-.068-2.517-2.311.322-5.146.449-10.319.324-15.473-.071-2.933,1.113-3.3,3.544-2.773,4.634,1.008,6.695,4.1,6.687,10.312" transform="translate(-40.392 -20.867)" fill="#fbba84"/>
    <path id="Trazado_728554" data-name="Trazado 728554" d="M50.138,89.984c.115,2.741-.318,5.958.465,9.1.432,1.73-.261,2.1-1.856,2.1a8.452,8.452,0,0,1-8.579-6.643c-1.71-7.1.972-12.748,6.534-13.947,2.36-.508,3.784-.287,3.477,2.691-.212,2.065-.041,4.17-.041,6.7" transform="translate(-10.294 -20.865)" fill="#fbba84"/>
    <path id="Trazado_728555" data-name="Trazado 728555" d="M185.8,236.164c5.529-.039,11.06,0,16.585-.161,2.115-.063,2.755.641,2.688,2.72-.249,7.79,1.1,6.288-6.345,6.409-4.293.07-8.59-.11-12.886-.178q-.021-4.395-.041-8.79" transform="translate(-48.228 -61.26)" fill="#26a5fd"/>
    <path id="Trazado_728556" data-name="Trazado 728556" d="M46.831,156.244c-6.11,5.3-8.333,12.027-7.477,19.968.147,1.364.57,2.962-.717,4.163-1.3-1.781-2.469-3.729-4.746-4.417-1.291-.39-1.234-1.353-1.235-2.338-.007-4.676.064-9.353-.037-14.027-.04-1.858.747-2.608,2.464-2.972a42.54,42.54,0,0,1,11.748-.377" transform="translate(-8.467 -40.5)" fill="#0ecd8d"/>
    <path id="Trazado_728557" data-name="Trazado 728557" d="M72.719,112.088c1.791,7.769,7.188,12.687,13.409,16.951.695.476,1.411.92,2.117,1.379-10.381-.252-20.459-7.78-24.207-18.33Z" transform="translate(-16.623 -29.095)" fill="#60b4fa"/>
    <path id="Trazado_728558" data-name="Trazado 728558" d="M19.6,122.614q-.017,14.75-.033,29.5c-2.586.635-3.755-.025-3.682-3.035q.283-11.787.005-23.586c-.067-3.047,1.078-3.714,3.71-2.879" transform="translate(-4.124 -31.742)" fill="#e75b65"/>
    <path id="Trazado_728559" data-name="Trazado 728559" d="M184.466,136.419c-3.188,0-6.376-.049-9.562.02-1.709.036-2.4-.6-2.4-2.36,0-1.828.833-2.283,2.475-2.272q9.561.062,19.124-.03c1.644-.018,2.084.666,2.081,2.2,0,1.571-.215,2.57-2.157,2.5-3.184-.11-6.374-.03-9.562-.03v-.029" transform="translate(-44.778 -34.206)" fill="#26a5fd"/>
    <path id="Trazado_728560" data-name="Trazado 728560" d="M182.783,236.107q.021,4.4.041,8.79a31.186,31.186,0,0,1-3.244.3c-6.1-.05-5.023.723-5.369-5.156-.2-3.361.854-4.668,4.212-4.151a40.422,40.422,0,0,0,4.36.218" transform="translate(-45.215 -61.203)" fill="#0a80d7"/>
    <path id="Trazado_728561" data-name="Trazado 728561" d="M90.877,156.077c.929,5.354,5.063,9.072,7.1,13.87a42.183,42.183,0,0,0,2.523,4.44c-2.818.523-4.785-.79-6.14-3.066-2.882-4.839-5.665-9.737-8.853-15.244Z" transform="translate(-22.195 -40.514)" fill="#f4a76b"/>
    <path id="Trazado_728562" data-name="Trazado 728562" d="M37.789,233.812c1.217,3.444.563,7.027.777,10.546a4.793,4.793,0,0,1-1.758.332c-1.474-.311-4.043,1.142-4.15-1.436-.1-2.317-1.8-5.474,2.01-6.942,1.185-.458,2.089-1.646,3.122-2.5" transform="translate(-8.358 -60.692)" fill="#00b27a"/>
    <path id="Trazado_728563" data-name="Trazado 728563" d="M180.173,166.654c-1.23,0-2.461-.05-3.687.013-1.371.071-2-.408-1.98-1.878.012-1.349.338-2.052,1.852-2.006,2.455.073,4.918.073,7.372-.033,1.589-.068,2.161.477,2.13,2.1-.03,1.494-.652,1.916-2,1.847-1.225-.064-2.457-.013-3.685-.013v-.028" transform="translate(-45.298 -42.245)" fill="#26a5fd"/>
    <path id="Trazado_728564" data-name="Trazado 728564" d="M19.579,245.594c-2.142.6-3.866.688-3.641-2.417.172-2.39-.8-5.549,3.613-4.365q.013,3.391.028,6.782" transform="translate(-4.132 -61.923)" fill="#e75b65"/>
    <path id="Trazado_728565" data-name="Trazado 728565" d="M183.309,149.4c-.42,1.208.9,3.221-1.756,3.205-3.193-.019-1.573-2.406-1.751-3.736-.161-1.2-.856-3.118,1.773-2.971,2.923.163,1.117,2.374,1.733,3.5" transform="translate(-46.606 -37.868)" fill="#facea1"/>
    <path id="Trazado_728566" data-name="Trazado 728566" d="M20.852,245.613q-.014-3.391-.028-6.782c3.7-.951,2.991,1.65,3.093,3.739.11,2.249-.133,3.947-3.065,3.043" transform="translate(-5.405 -61.942)" fill="#fa7d84"/>
    <path id="Trazado_728567" data-name="Trazado 728567" d="M40.474,195.894a2.5,2.5,0,0,1-.036,3.708c-1.265-1.248-1.114-2.483.036-3.708" transform="translate(-10.266 -50.849)" fill="#0ecd8d"/>
    <path id="Trazado_728568" data-name="Trazado 728568" d="M40.47,207.883a2.5,2.5,0,0,1-.024,3.707c-1.243-1.244-1.144-2.479.024-3.707" transform="translate(-10.267 -53.962)" fill="#0ecd8d"/>
    <path id="Trazado_728569" data-name="Trazado 728569" d="M40.463,219.872a2.5,2.5,0,0,1-.012,3.708,2.351,2.351,0,0,1,.012-3.708" transform="translate(-10.267 -57.074)" fill="#0ecd8d"/>
    <path id="Trazado_728570" data-name="Trazado 728570" d="M61.858,211.146q-3.133.008-6.266,0c-1.882,0-3.128-.818-3.079-2.822.045-1.793,1.185-2.586,2.926-2.586q6.451,0,12.9-.01c1.9,0,3.128.808,3.079,2.808-.043,1.791-1.2,2.591-2.926,2.6-2.212.01-4.423,0-6.635.007" transform="translate(-13.631 -53.403)" fill="#040606"/>
    <path id="Trazado_728571" data-name="Trazado 728571" d="M61.964,218.743c2.212,0,4.423,0,6.635,0a2.693,2.693,0,1,1,0,5.38q-6.635.021-13.269,0a2.693,2.693,0,1,1,0-5.38c2.212-.006,4.423,0,6.635,0" transform="translate(-13.629 -56.78)" fill="#040606"/>
    <path id="Trazado_728572" data-name="Trazado 728572" d="M78.761,82.063c0-.738.021-1.477,0-2.215-.068-2.027.78-3.487,2.89-3.448,1.929.036,2.668,1.517,2.689,3.329.018,1.6.036,3.2-.011,4.8-.053,1.783-.747,3.287-2.728,3.27-2.138-.018-2.892-1.53-2.84-3.52.019-.738,0-1.477,0-2.215" transform="translate(-20.443 -19.832)" fill="#040606"/>
    <path id="Trazado_728573" data-name="Trazado 728573" d="M123.732,82.089c0-.615.027-1.232-.007-1.846-.115-2.1.5-3.864,2.869-3.835,2.157.026,2.737,1.75,2.725,3.668-.008,1.477.022,2.954-.021,4.43-.053,1.779-.728,3.294-2.706,3.294-2.137,0-2.911-1.5-2.863-3.5.017-.738,0-1.477,0-2.215" transform="translate(-32.113 -19.834)" fill="#040606"/>
  </g>
</svg>
