<svg xmlns="http://www.w3.org/2000/svg" xmlns:xlink="http://www.w3.org/1999/xlink" width="122" height="122" viewBox="0 0 122 122">
  <defs>
    <clipPath id="clip-path">
      <rect id="Rectángulo_345124" data-name="Rectángulo 345124" width="100.037" height="105.235" fill="none"/>
    </clipPath>
  </defs>
  <g id="Grupo_987414" data-name="Grupo 987414" transform="translate(-1093 -16982)">
    <circle id="Elipse_5890" data-name="Elipse 5890" cx="61" cy="61" r="61" transform="translate(1093 16982)" fill="#ffc403"/>
    <g id="Grupo_984382" data-name="Grupo 984382" transform="translate(1103.981 16990.754)">
      <g id="Grupo_984381" data-name="Grupo 984381" clip-path="url(#clip-path)">
        <path id="Trazado_726019" data-name="Trazado 726019" d="M21.981,84.91c-.825,2.77-3.33,3.325-5.573,3.754a7.672,7.672,0,0,1-8.431-3.779C5.556,80.922,3.222,76.9,1.021,72.812A8.137,8.137,0,0,1,4,61.877c1.554-.99,3.2-1.833,4.771-2.8a5.2,5.2,0,0,0,2.647-4.78c-.02-1.1-.028-2.192,0-3.287a5.264,5.264,0,0,0-2.74-4.935C7.216,45.193,5.7,44.4,4.245,43.508a8.25,8.25,0,0,1-3.092-11.4Q4.36,26.276,7.8,20.571a8.262,8.262,0,0,1,11.4-3.069c1.5.807,2.959,1.707,4.443,2.551a5.352,5.352,0,0,0,5.649-.039c.947-.545,1.889-1.1,2.835-1.643a5.324,5.324,0,0,0,2.86-4.873c.008-1.644-.038-3.289.021-4.93C35.2,3.386,38.641.044,43.8.016q6.163-.034,12.325,0c5.223.022,8.651,3.281,8.9,8.441.074,1.565-.489,3.733.32,4.536.893.887,2.836-.483,4.361-.713a27.755,27.755,0,0,1,7.971.068c1.956.267,3.169,1.105,3.208,3.223.024,1.28.457,1.636,1.848,1.192A7.953,7.953,0,0,1,92.12,20.4c2.367,3.916,4.666,7.877,6.847,11.9a8.146,8.146,0,0,1-3,11.086c-1.5.949-3.079,1.769-4.6,2.685a5.257,5.257,0,0,0-2.741,4.934c.028,1.026.033,2.055,0,3.081a5.359,5.359,0,0,0,3,5.194c1.431.8,2.859,1.607,4.249,2.474a8.2,8.2,0,0,1,3.061,11.234q-3.285,6.026-6.863,11.89a8.2,8.2,0,0,1-11.131,2.9c-1.567-.834-3.071-1.785-4.621-2.654a5.256,5.256,0,0,0-5.465.021c-.951.537-1.889,1.1-2.841,1.633A5.429,5.429,0,0,0,65.036,91.8c-.009,1.917.067,3.842-.1,5.747a8.162,8.162,0,0,1-8.167,7.64q-6.777.1-13.557,0a8.163,8.163,0,0,1-8.1-7.488,41.817,41.817,0,0,1-.1-5.334,5.774,5.774,0,0,0-3.392-5.807c-1.873-.95-3.544-2.372-5.833-2.252-.617.032-.963-.444-1.3-.878-.139-1.617.677-2.113,2.205-2.136,2.331-.035,4.072,1.371,6.049,2.206,4.106,2.212,5.826,5.66,5.385,10.272a22.409,22.409,0,0,0,0,3.264,5.007,5.007,0,0,0,5.324,4.919A124.36,124.36,0,0,0,57.177,102,4.974,4.974,0,0,0,61.914,97c.074-1.845-.014-3.695.029-5.541a8.039,8.039,0,0,1,3.788-6.884A41.712,41.712,0,0,1,69.8,82.209a8.133,8.133,0,0,1,7.863.127c1.564.836,3.054,1.811,4.619,2.646a5.135,5.135,0,0,0,7.276-1.916q3.433-5.7,6.654-11.525a5.088,5.088,0,0,0-1.933-7.105c-1.5-.949-3.063-1.792-4.587-2.7a7.85,7.85,0,0,1-4.079-6.278,33.523,33.523,0,0,1,.005-5.728,7.842,7.842,0,0,1,4.1-6.265c1.35-.8,2.721-1.568,4.069-2.372,3.235-1.928,4-4.709,2.134-7.99-1.954-3.443-3.957-6.858-5.949-10.279-1.526-2.619-3.447-3.565-5.8-3.313-3.033.326-2.976,2.565-3.318,4.707-.216,1.355-.143,2.987-2.024,3.391-1.647-.489-1.512-1.7-1.2-2.977a21.682,21.682,0,0,0,.408-7.53,1.762,1.762,0,0,0-1.918-1.854,25.314,25.314,0,0,0-7.344.381c-9.857,2.269-16.958,12.316-15.216,21.8,2.414-2.184,5.137-4,4.287-7.9a17.093,17.093,0,0,1-.036-3.276c-.018-1.068.482-1.767,1.539-1.766,1.093,0,1.457.791,1.508,1.813.056,1.119-.231,2.277.246,3.451,2.393-1.719,4.27-3.523,3.678-6.771a20.467,20.467,0,0,1-.03-3.687c0-1.052.456-1.729,1.581-1.692,1.02.035,1.415.7,1.42,1.648.007,1.192,0,2.385,0,3.577l.566.3c1-1.1,1.965-2.231,3-3.3a1.5,1.5,0,0,1,2.346-.12c.791.8.5,1.623-.228,2.329-1.056,1.028-2.126,2.042-3.61,3.465,1.767,0,2.9.018,4.037,0,1.039-.021,1.828.42,1.881,1.455.061,1.186-.81,1.643-1.9,1.657a30.114,30.114,0,0,1-4.51-.025c-3.116-.436-4.187,1.971-6.251,3.878,1.782,0,3.013-.032,4.241.01a1.421,1.421,0,0,1,1.509,1.577,1.39,1.39,0,0,1-1.482,1.394,20.5,20.5,0,0,1-4.1-.009c-3.792-.688-5.242,2.2-7.634,4.509,8.178.51,14.369-2.243,18.936-8.485.755-1.033,1.443-1.837,2.835-1.262,1.449,1.933-.3,3.057-1.234,4.216a2.123,2.123,0,0,0-.258,2.951,28.7,28.7,0,0,1,3.529,21.526A30.043,30.043,0,0,1,20,52.005a5.438,5.438,0,0,0-.844-3.056,23.053,23.053,0,0,1-2.9-17.154,2.494,2.494,0,0,1,2.182-2.286A22.5,22.5,0,0,1,28.4,29.5a3.52,3.52,0,0,0,3.339-.724,26.827,26.827,0,0,1,17.242-6.113c3.3.062,5.943-.34,7.62-3.465a3,3,0,0,1,1.318-1.269c4.372-1.906,4.379-5.61,4.01-9.492-.007-.068,0-.137,0-.206a5.021,5.021,0,0,0-4.742-5.018,124.734,124.734,0,0,0-13.739.058,5.005,5.005,0,0,0-5.324,4.918,20.5,20.5,0,0,0,0,3.061c.462,4.668-1.181,8.224-5.387,10.478C27.991,25.03,23.487,24.208,19.059,21a5.413,5.413,0,0,0-3.513-1.4,4.719,4.719,0,0,0-5.1,2.585C8.216,25.948,6.021,29.731,3.9,33.553A5.119,5.119,0,0,0,5.819,40.82c1.5.944,3.07,1.786,4.591,2.7A7.7,7.7,0,0,1,14.4,49.64a35.3,35.3,0,0,1,0,5.933,7.7,7.7,0,0,1-3.985,6.117c-1.521.917-3.087,1.761-4.591,2.7C3.2,66.033,2.333,68.84,3.79,71.487c2.174,3.949,4.448,7.845,6.775,11.706A4.611,4.611,0,0,0,15.549,85.6a5.616,5.616,0,0,0,3.358-1.3c1.248-.779,2.28-.774,3.075.6M65.758,65.058A13.148,13.148,0,0,0,71.963,55.8C73,48.842,73.02,48.3,65.85,49.289c-.068.009-.136.014-.2.027C58.265,50.81,52.508,58.393,53.595,65.38c1.71-1.217,3.076-2.439,2.728-4.8a14.916,14.916,0,0,1,.044-3.479,1.4,1.4,0,0,1,1.523-1.357,1.446,1.446,0,0,1,1.5,1.394c.093.711.083,1.435.124,2.242,2.168-1.639,2.179-1.638,2.293-6.083.028-1.084.072-2.224,1.46-2.257,1.349-.032,1.619,1,1.57,2.15-.01.236.047.475.149,1.4.908-1.073,1.44-1.772,2.045-2.4a1.481,1.481,0,0,1,2.337-.141c.766.8.458,1.621-.247,2.342-.587.6-1.161,1.214-1.937,2.03.663.062.922.106,1.182.107,1.085,0,1.978.339,1.92,1.591-.057,1.235-.98,1.5-2.052,1.466-.957-.025-1.922.065-2.872-.02-1.8-.162-2.555.986-3.386,2.362,3.773.16,4.023.38,3.29,2.707-1.5.7-3.117.441-4.638.305-2.3-.206-3.373,1.144-4.7,2.963a14.414,14.414,0,0,0,9.826-2.851m-19.53,2.186c0,3.949.033,7.235-.01,10.52-.035,2.678,2.12,1.482,3.3,1.82,1.522.437,1.287-.857,1.341-1.794.284-4.929-.776-9.855-.375-14.735.562-6.843.183-13.67.358-20.5a8.82,8.82,0,0,0-.17-2.239,21.889,21.889,0,0,1,.872-12.9c.49-1.323.326-1.9-1.178-1.856a28.48,28.48,0,0,0-15.484,4.691c-.962.649-1.01,1.027.069,1.671C43.614,37.1,47.6,44.815,46.652,54.8c-.419,4.384-.25,8.741-.423,12.443m7.819-14.157c.6-.64.868-.924,1.136-1.205C59.835,47,65.578,45.312,72.159,46.1a3.037,3.037,0,0,1,3.019,2.719c2.1,10.358-4.772,20-15.746,22.132-1.783.345-4.294-.992-5.19.876-.776,1.617-.184,3.891-.2,5.874,0,.068.007.137,0,.205-.113,1.123.28,1.361,1.421,1.121A27.055,27.055,0,0,0,70.271,70.41c7.414-8.184,8.892-21.341,3.412-30.779-.442-.76-.7-1.877-2.063-.885a23.008,23.008,0,0,1-16.065,4.329c-1.23-.108-1.542.377-1.523,1.493.046,2.664.015,5.33.015,8.519M41.118,56.826C39,54,36.915,51.7,33.108,52.454a13.384,13.384,0,0,1-3.074.014c-.969-.038-1.806-.362-1.818-1.513-.012-1.245.822-1.613,1.912-1.615,1.117,0,2.233,0,3.467,0-1.886-2.982-4.214-4.375-7.519-3.8a15.2,15.2,0,0,1-2.461.021c-1.171.009-2.362-.122-2.321-1.629S22.567,42.4,23.71,42.4c.919,0,1.838,0,2.757,0l.228-.489c-.938-.866-1.887-1.719-2.809-2.6-.725-.694-1.025-1.568-.3-2.36.809-.887,1.736-.606,2.505.175.893.907,1.75,1.851,2.622,2.779a9.511,9.511,0,0,0,.465-3.388c.016-1.044.285-1.981,1.548-1.995,1.241-.013,1.593.857,1.6,1.937a22.469,22.469,0,0,1-.033,3.9c-.561,3.214,1.589,4.689,3.828,6.568,0-1.556-.051-2.783.018-4a1.535,1.535,0,0,1,3.067-.032,13.9,13.9,0,0,1,.016,3.687c-.725,3.775,1.739,5.664,4.459,7.9.051-1.012.124-1.733.118-2.453-.092-11.724-10-20.7-21.917-19.972-2.088.127-2.912.9-3.07,3.022a20.306,20.306,0,0,0,14.3,21.038,17.016,17.016,0,0,0,8,.714M23.334,54.182C23.086,64.3,32.1,75.858,41.737,78.3c1.09.276,1.309-.03,1.3-1.021-.023-5.33-.033-10.66.007-15.99.008-1.1-.388-1.386-1.448-1.329a28.6,28.6,0,0,1-6.74-.208,25.012,25.012,0,0,1-11.526-5.571" transform="translate(0 0)" fill="#070707"/>
        <path id="Trazado_726020" data-name="Trazado 726020" d="M88.48,31.972c1.882-.4,1.808-2.037,2.024-3.391.342-2.141.285-4.38,3.318-4.707,2.351-.253,4.272.693,5.8,3.313,1.993,3.421,3.995,6.836,5.949,10.279,1.862,3.281,1.1,6.063-2.134,7.99-1.348.8-2.719,1.571-4.069,2.372a7.841,7.841,0,0,0-4.1,6.265,33.521,33.521,0,0,0-.005,5.728A7.85,7.85,0,0,0,99.344,66.1c1.524.909,3.089,1.752,4.587,2.7a5.088,5.088,0,0,1,1.933,7.106q-3.211,5.827-6.654,11.525a5.135,5.135,0,0,1-7.276,1.916c-1.565-.835-3.055-1.81-4.619-2.645a8.132,8.132,0,0,0-7.863-.127,41.628,41.628,0,0,0-4.069,2.364,8.039,8.039,0,0,0-3.788,6.884c-.043,1.846.045,3.7-.029,5.541a4.974,4.974,0,0,1-4.737,5.006,124.36,124.36,0,0,1-13.729-.058c-2-2.8-1.808-6.019-1.622-9.173.331-5.626-4.773-8.3-8.634-9.619-.1-.034-.3.218-.451.337-1.977-.835-3.718-2.241-6.049-2.206-1.528.023-2.344.519-2.205,2.136a2.159,2.159,0,0,0-2.505,1.487c-.8-1.376-1.826-1.381-3.075-.6a5.616,5.616,0,0,1-3.358,1.3c-2.857-4.006-5-8.442-7.582-12.607a7.4,7.4,0,0,1,2.547-10.2c8.082-4.425,7.521-4.529,7.484-12.342a6,6,0,0,0-1.837-4.391c-1.71-1.736-3.915-2.734-5.99-3.872a6.8,6.8,0,0,1-2.58-9.248A132.878,132.878,0,0,1,25.2,23.97a5.417,5.417,0,0,1,3.513,1.4c4.427,3.2,8.932,4.026,13.679.718.59.86,1.23.288,1.778,0,1.139-.6,2.229-1.3,3.342-1.949a7.686,7.686,0,0,0,3.946-7.308c-.055-3.17-.365-6.393,1.644-9.2a124.835,124.835,0,0,1,13.739-.058,5.022,5.022,0,0,1,4.742,5.019c0,.068,0,.137,0,.205.369,3.882.362,7.586-4.01,9.492a3,3,0,0,0-1.318,1.269c-1.677,3.125-4.316,3.527-7.62,3.465a26.83,26.83,0,0,0-17.242,6.114,3.521,3.521,0,0,1-3.339.724,22.509,22.509,0,0,0-9.966.014,2.494,2.494,0,0,0-2.182,2.286,23.053,23.053,0,0,0,2.9,17.154,5.437,5.437,0,0,1,.844,3.056,30.043,30.043,0,0,0,59.431,6.878,28.7,28.7,0,0,0-3.529-21.526,2.124,2.124,0,0,1,.258-2.952c.935-1.159,2.683-2.284,1.234-4.216a7.091,7.091,0,0,0,1.438-2.582" transform="translate(-9.651 -4.365)" fill="#f6f3f3"/>
        <path id="Trazado_726021" data-name="Trazado 726021" d="M95.146,103.857c.173-3.7,0-8.059.423-12.443.953-9.986-3.038-17.706-11.7-22.879-1.079-.644-1.031-1.022-.069-1.671A28.482,28.482,0,0,1,99.28,62.174c1.5-.045,1.667.533,1.178,1.856a21.892,21.892,0,0,0-.872,12.9,8.838,8.838,0,0,1,.171,2.239c-.176,6.831.2,13.658-.358,20.5-.4,4.88.659,9.807.375,14.735-.054.937.181,2.231-1.341,1.794-1.177-.338-3.332.858-3.3-1.82.043-3.285.01-6.571.01-10.52" transform="translate(-48.918 -36.613)" fill="#514695"/>
        <path id="Trazado_726022" data-name="Trazado 726022" d="M155.174,49.309a7.091,7.091,0,0,1-1.438,2.582c-1.392-.574-2.08.23-2.835,1.262-4.567,6.242-10.757,8.995-18.936,8.485,2.392-2.312,3.842-5.2,7.634-4.51a20.474,20.474,0,0,0,4.1.01,1.39,1.39,0,0,0,1.482-1.394,1.421,1.421,0,0,0-1.509-1.577c-1.228-.042-2.459-.01-4.241-.01,2.064-1.907,3.135-4.314,6.251-3.878a30.112,30.112,0,0,0,4.51.025c1.091-.014,1.963-.471,1.9-1.657-.053-1.036-.842-1.477-1.881-1.456-1.135.023-2.27.005-4.037.005,1.484-1.422,2.554-2.437,3.61-3.465.725-.706,1.018-1.524.228-2.329a1.5,1.5,0,0,0-2.346.121c-1.031,1.068-2,2.2-3,3.3l-.566-.3c0-1.193,0-2.385,0-3.578,0-.948-.4-1.613-1.42-1.648-1.126-.038-1.578.64-1.581,1.692a20.466,20.466,0,0,0,.03,3.687c.592,3.247-1.285,5.052-3.678,6.771-.478-1.174-.19-2.332-.246-3.452-.051-1.021-.415-1.81-1.508-1.813-1.057,0-1.557.7-1.539,1.766a17.091,17.091,0,0,0,.036,3.276c.85,3.9-1.874,5.717-4.287,7.9-1.741-9.486,5.359-19.533,15.216-21.8a25.314,25.314,0,0,1,7.344-.381,1.761,1.761,0,0,1,1.918,1.854,21.68,21.68,0,0,1-.408,7.53c-.311,1.274-.446,2.488,1.2,2.977" transform="translate(-76.346 -21.702)" fill="#90ce9e"/>
        <path id="Trazado_726023" data-name="Trazado 726023" d="M131.177,108.032c0-3.19.031-5.856-.015-8.519-.019-1.117.294-1.6,1.523-1.494A23.008,23.008,0,0,0,148.75,93.69c1.359-.992,1.621.125,2.063.885,5.48,9.438,4,22.6-3.412,30.779a27.051,27.051,0,0,1-14.805,8.613c-1.14.24-1.534,0-1.421-1.121.007-.068,0-.137,0-.205.013-1.984-.579-4.257.2-5.874.9-1.868,3.407-.53,5.19-.876,10.974-2.127,17.851-11.774,15.746-22.132a3.037,3.037,0,0,0-3.019-2.719c-6.581-.785-12.324.9-16.976,5.786-.268.282-.533.566-1.136,1.206" transform="translate(-77.13 -54.944)" fill="#504594"/>
        <path id="Trazado_726024" data-name="Trazado 726024" d="M67.979,102.684a17.017,17.017,0,0,1-8-.714,20.306,20.306,0,0,1-14.3-21.038c.158-2.12.982-2.894,3.07-3.022,11.918-.726,21.824,8.249,21.917,19.972.006.72-.067,1.441-.118,2.453-2.721-2.239-5.184-4.128-4.459-7.9a13.879,13.879,0,0,0-.016-3.687A1.535,1.535,0,0,0,63,88.778c-.068,1.22-.018,2.447-.018,4-2.239-1.88-4.389-3.355-3.828-6.569a22.464,22.464,0,0,0,.033-3.9c0-1.08-.356-1.95-1.6-1.937-1.262.014-1.531.951-1.548,2a9.509,9.509,0,0,1-.465,3.387c-.872-.928-1.729-1.871-2.622-2.779-.769-.781-1.7-1.062-2.505-.175-.722.792-.421,1.666.3,2.36.921.883,1.871,1.736,2.809,2.6l-.228.49c-.919,0-1.838,0-2.757,0-1.142-.006-2.376.029-2.416,1.535s1.151,1.638,2.321,1.629a15.154,15.154,0,0,0,2.461-.021c3.305-.58,5.634.813,7.519,3.8-1.234,0-2.35,0-3.467,0-1.09,0-1.924.37-1.912,1.615.012,1.15.849,1.475,1.818,1.513a13.406,13.406,0,0,0,3.074-.015c3.807-.753,5.893,1.544,8.01,4.372" transform="translate(-26.861 -45.858)" fill="#91d0a0"/>
        <path id="Trazado_726025" data-name="Trazado 726025" d="M56.753,131.8a25.012,25.012,0,0,0,11.526,5.571,28.6,28.6,0,0,0,6.74.208c1.06-.057,1.456.228,1.448,1.329-.039,5.33-.03,10.66-.007,15.99,0,.991-.214,1.3-1.3,1.021-9.638-2.444-18.65-14-18.4-24.119" transform="translate(-33.419 -77.618)" fill="#514696"/>
        <path id="Trazado_726026" data-name="Trazado 726026" d="M19.967,47.581A132.831,132.831,0,0,0,12.01,60.916a6.8,6.8,0,0,0,2.58,9.247c2.075,1.138,4.281,2.136,5.99,3.872a6,6,0,0,1,1.837,4.391c.037,7.813.6,7.917-7.484,12.342a7.4,7.4,0,0,0-2.547,10.2c2.584,4.165,4.725,8.6,7.582,12.607a4.612,4.612,0,0,1-4.984-2.411c-2.327-3.861-4.6-7.757-6.775-11.705-1.457-2.647-.592-5.454,2.028-7.094,1.5-.942,3.07-1.786,4.591-2.7a7.7,7.7,0,0,0,3.985-6.117,35.3,35.3,0,0,0,0-5.933A7.7,7.7,0,0,0,14.832,71.5c-1.521-.917-3.088-1.759-4.591-2.7A5.118,5.118,0,0,1,8.32,61.529c2.122-3.822,4.317-7.6,6.549-11.363a4.72,4.72,0,0,1,5.1-2.585" transform="translate(-4.421 -27.977)" fill="#d8d5e7"/>
        <path id="Trazado_726027" data-name="Trazado 726027" d="M141.852,134.7c.734-2.327.484-2.547-3.289-2.707.832-1.376,1.583-2.523,3.386-2.362.95.086,1.915-.006,2.872.02,1.071.029,1.994-.231,2.051-1.466.058-1.253-.835-1.588-1.92-1.592-.26,0-.519-.045-1.182-.107.777-.815,1.35-1.429,1.937-2.03.705-.722,1.013-1.542.247-2.342a1.481,1.481,0,0,0-2.337.141c-.605.628-1.137,1.327-2.045,2.4-.1-.928-.159-1.167-.149-1.4.049-1.146-.221-2.182-1.57-2.15-1.388.033-1.432,1.172-1.46,2.257-.113,4.445-.125,4.444-2.293,6.083-.041-.807-.031-1.531-.124-2.242a1.446,1.446,0,0,0-1.5-1.394,1.4,1.4,0,0,0-1.523,1.357,14.915,14.915,0,0,0-.044,3.479c.347,2.359-1.019,3.581-2.728,4.8-1.086-6.987,4.671-14.57,12.052-16.063.067-.014.136-.018.2-.027,7.169-.989,7.146-.446,6.113,6.508a13.149,13.149,0,0,1-6.205,9.262l-.493-.418" transform="translate(-76.587 -70.064)" fill="#8cc99a"/>
        <path id="Trazado_726028" data-name="Trazado 726028" d="M90.347,7.944c-2.009,2.8-1.7,6.028-1.644,9.2a7.687,7.687,0,0,1-3.946,7.308c-1.113.651-2.2,1.346-3.342,1.948-.548.291-1.188.863-1.778,0,4.206-2.254,5.849-5.81,5.387-10.478a20.452,20.452,0,0,1,0-3.061,5.006,5.006,0,0,1,5.324-4.918" transform="translate(-46.899 -4.678)" fill="#dbd8e9"/>
        <path id="Trazado_726029" data-name="Trazado 726029" d="M79.643,202.61c.153-.118.351-.371.451-.336,3.861,1.319,8.966,3.993,8.635,9.618-.186,3.155-.383,6.376,1.622,9.173a5.007,5.007,0,0,1-5.324-4.919,22.353,22.353,0,0,1,0-3.264c.441-4.613-1.279-8.06-5.385-10.272" transform="translate(-46.902 -119.118)" fill="#dbd8e9"/>
        <path id="Trazado_726030" data-name="Trazado 726030" d="M145.881,157.659a14.413,14.413,0,0,1-9.826,2.851c1.324-1.819,2.394-3.169,4.7-2.963,1.52.136,3.135.395,4.638-.305l.493.417" transform="translate(-80.124 -92.601)" fill="#8cc99a"/>
      </g>
    </g>
  </g>
</svg>
