<svg xmlns="http://www.w3.org/2000/svg" xmlns:xlink="http://www.w3.org/1999/xlink" width="79" height="79" viewBox="0 0 79 79">
  <defs>
    <clipPath id="clip-path">
      <rect id="Rectángulo_346438" data-name="Rectángulo 346438" width="70.074" height="70.189" fill="none"/>
    </clipPath>
  </defs>
  <g id="Grupo_987408" data-name="Grupo 987408" transform="translate(-285.472 -1147.512)">
    <circle id="Elipse_5919" data-name="Elipse 5919" cx="39.5" cy="39.5" r="39.5" transform="translate(285.472 1147.512)" fill="#06d1d1"/>
    <g id="Grupo_987336" data-name="Grupo 987336" transform="translate(288.472 1150.918)">
      <g id="Grupo_987335" data-name="Grupo 987335" clip-path="url(#clip-path)">
        <path id="Trazado_728966" data-name="Trazado 728966" d="M0,30.752c.646-.98.553-2.15.783-3.229a35.079,35.079,0,0,1,68.96,2.414,30.494,30.494,0,0,1,.329,3.812,2.249,2.249,0,0,1-2.4,2.524c-1.048.036-2.1.025-3.146,0-1.737-.034-2.543-.84-2.65-2.609a26.7,26.7,0,0,0-5.931-15.424C44.129,3.479,20.7,5.488,11.592,22.048c-.109.2-.2.405-.352.721,3.581,1.024,7.109,2.034,10.638,3.042,1.619.462,3.232.945,4.861,1.368.884.229,1.354.7,1.269,1.637-.467.824-1.112.873-1.976.619-3.964-1.165-7.945-2.269-11.919-3.4a1.788,1.788,0,0,0-1.47-.061c4.915,2.641,9.749,5.236,14.578,7.838.491.264.862.51,1.028-.348a8.142,8.142,0,0,1,2.161-3.719A7.478,7.478,0,0,1,37,28.4a6.972,6.972,0,0,1,3.077,11.538c-.7.726-.69,1.108-.155,1.891q8.225,12.018,16.375,24.087c.651.959,1.34,1.888.668,3.125s-1.835,1.149-2.988,1.148q-18.957-.009-37.914,0c-1.163,0-2.308.05-2.955-1.2s.087-2.167.732-3.117q8.141-11.992,16.29-23.979c.546-.8.746-1.354-.165-1.989a2.146,2.146,0,0,1-.825-1.069c-.5-1.811-2.019-2.425-3.462-3.195-5.022-2.678-10.039-5.367-15.021-8.117-1.029-.568-1.369-.334-1.595.716A34.033,34.033,0,0,0,8.2,33.766,2.353,2.353,0,0,1,5.6,36.277c-.775.019-1.557-.055-2.325.018A3.287,3.287,0,0,1,0,34.859ZM35.047,67.8q9.1,0,18.2-.009c.382,0,.914.218,1.12-.2s-.279-.727-.5-1.047q-9.046-13.363-18.1-26.721c-.592-.878-.862-.865-1.448,0Q25.3,53.2,16.221,66.544c-.216.32-.7.636-.493,1.047s.74.2,1.123.2q9.1.019,18.2.009M33.9,4.476c0-2.034,0-2.085-1.875-1.908A32.5,32.5,0,0,0,14.439,9.674c-1.773,1.417-1.718,1.382-.2,3.024.741.8,1.182.861,2.059.119A28.038,28.038,0,0,1,32.142,6.134c1.313-.121,2.176-.3,1.759-1.658M67.661,32.345A32.945,32.945,0,0,0,60.7,14.751c-1.6-2.055-1.574-2.039-3.4-.2-.541.545-.685.87-.1,1.545a28.054,28.054,0,0,1,6.907,16.427c.122,1.523.293,1.553,2.61,1.5,1.409-.033.789-1,.944-1.675M36.185,4.245c0,1.716,0,1.716,1.39,1.822A28.594,28.594,0,0,1,53.226,12.23c1.737,1.35,1.7,1.321,3.338-.266.648-.628.656-.975-.039-1.568A32.546,32.546,0,0,0,37.956,2.564c-1.766-.163-1.772-.1-1.771,1.68M3.844,34c2.038,0,2.032,0,2.162-1.868A23.969,23.969,0,0,1,7.062,26.8a3.017,3.017,0,0,0,.112-1.975A1.659,1.659,0,0,1,7.9,22.783a5.282,5.282,0,0,0,1.881-2.251c.726-1.154,1.48-2.3,2.3-3.386,1.44-1.915,1.435-1.867-.25-3.57-.6-.6-.914-.627-1.478.03A32.586,32.586,0,0,0,2.433,32.4c-.116,1.307.209,1.943,1.41,1.6M39.7,35.139a4.659,4.659,0,1,0-8.739,2.234c.829,1.495,1.112,1.513,2.119.137,1.153-1.576,2.674-1.637,3.823-.152s1.605,1.425,2.382-.313a3.96,3.96,0,0,0,.416-1.907" transform="translate(0 -0.001)" fill="#3c3b3a"/>
        <path id="Trazado_728967" data-name="Trazado 728967" d="M63.919,98.2a8.142,8.142,0,0,0-2.161,3.719c-.165.858-.537.612-1.028.348-4.83-2.6-9.663-5.2-14.578-7.838a1.788,1.788,0,0,1,1.47.061c3.973,1.133,7.955,2.237,11.919,3.4.864.254,1.51.2,1.976-.619.808.29,1.793.122,2.4.927" transform="translate(-33.508 -68.455)" fill="#cacdd4"/>
        <path id="Trazado_728968" data-name="Trazado 728968" d="M76.594,171.6q-9.1,0-18.2-.009c-.383,0-.914.216-1.123-.2s.277-.727.493-1.047q9.045-13.364,18.1-26.721c.586-.868.856-.881,1.448,0q9.024,13.378,18.1,26.721c.216.32.7.635.5,1.047s-.738.2-1.12.2q-9.1.019-18.2.009m1.135-15.718c0-2-.011-4,.005-6.005.007-.809-.165-1.536-1.1-1.568s-1.185.646-1.183,1.481q.015,6.074,0,12.148c0,.839.238,1.511,1.167,1.493s1.129-.72,1.12-1.542c-.022-2-.007-4-.007-6.006m0,11.562c.067-.735-.052-1.572-1.071-1.61-1.125-.042-1.212.841-1.21,1.726,0,.824.055,1.677,1.086,1.714,1.128.04,1.24-.839,1.2-1.83" transform="translate(-41.547 -103.798)" fill="#efa132"/>
        <path id="Trazado_728969" data-name="Trazado 728969" d="M68.631,11.108c.417,1.356-.447,1.537-1.759,1.658A28.04,28.04,0,0,0,51.03,19.448c-.877.742-1.318.681-2.059-.119-1.521-1.641-1.575-1.607.2-3.024A32.5,32.5,0,0,1,66.756,9.2c1.871-.177,1.875-.127,1.875,1.907" transform="translate(-34.729 -6.632)" fill="#f7d174"/>
        <path id="Trazado_728970" data-name="Trazado 728970" d="M218.261,67.3c-.155.677.465,1.642-.944,1.675-2.317.055-2.488.025-2.61-1.5A28.053,28.053,0,0,0,207.8,51.049c-.581-.675-.436-1,.1-1.545,1.824-1.838,1.8-1.854,3.4.2A32.945,32.945,0,0,1,218.261,67.3" transform="translate(-150.6 -34.954)" fill="#d54b56"/>
        <path id="Trazado_728971" data-name="Trazado 728971" d="M132.08,10.881c0-1.784,0-1.843,1.771-1.68a32.544,32.544,0,0,1,18.569,7.831c.7.593.687.94.039,1.568-1.635,1.587-1.6,1.616-3.338.266A28.593,28.593,0,0,0,133.47,12.7c-1.39-.107-1.39-.106-1.39-1.822" transform="translate(-95.895 -6.637)" fill="#f38870"/>
        <path id="Trazado_728972" data-name="Trazado 728972" d="M10.235,68.77c-1.2.339-1.526-.3-1.41-1.6a32.585,32.585,0,0,1,7.92-18.793c.564-.658.883-.632,1.478-.03,1.685,1.7,1.69,1.655.25,3.57C17.654,53,16.9,54.144,16.174,55.3a5.285,5.285,0,0,1-1.881,2.251,1.658,1.658,0,0,0-.727,2.039,3.019,3.019,0,0,1-.112,1.975A23.97,23.97,0,0,0,12.4,66.9c-.13,1.865-.124,1.865-2.162,1.868" transform="translate(-6.391 -34.767)" fill="#9acb64"/>
        <path id="Trazado_728973" data-name="Trazado 728973" d="M120.213,115.892a3.96,3.96,0,0,1-.416,1.907c-.776,1.737-1.235,1.794-2.382.313s-2.669-1.424-3.823.152c-1.007,1.376-1.29,1.357-2.119-.137a4.659,4.659,0,1,1,8.739-2.234" transform="translate(-80.511 -80.753)" fill="#babfc9"/>
        <path id="Trazado_728974" data-name="Trazado 728974" d="M126.028,170.028c0,2-.015,4,.007,6.005.009.823-.186,1.525-1.119,1.543s-1.17-.654-1.167-1.493q.022-6.074,0-12.148c0-.835.253-1.513,1.183-1.481s1.107.759,1.1,1.568c-.017,2-.005,4-.006,6.006" transform="translate(-89.847 -117.948)" fill="#383837"/>
        <path id="Trazado_728975" data-name="Trazado 728975" d="M126.009,228.033c.045.991-.067,1.87-1.2,1.83-1.031-.037-1.084-.89-1.086-1.714,0-.885.085-1.768,1.21-1.726,1.019.039,1.138.875,1.071,1.61" transform="translate(-89.831 -164.391)" fill="#3d3a37"/>
      </g>
    </g>
  </g>
</svg>
