<svg id="Grupo_987298" data-name="Grupo 987298" xmlns="http://www.w3.org/2000/svg" xmlns:xlink="http://www.w3.org/1999/xlink" width="172.01" height="171.919" viewBox="0 0 172.01 171.919">
  <defs>
    <clipPath id="clip-path">
      <rect id="Rectángulo_346393" data-name="Rectángulo 346393" width="172.01" height="171.919" fill="none"/>
    </clipPath>
  </defs>
  <g id="Grupo_987297" data-name="Grupo 987297" clip-path="url(#clip-path)">
    <path id="Trazado_728656" data-name="Trazado 728656" d="M29.094,33.165c-10.373-5.3-14.2-12.234-11.8-20.957A16.655,16.655,0,0,1,34.852.067,16.831,16.831,0,0,1,49.858,14.924c.864,8.4-4.168,15.233-13.908,18.364,2.322,0,4.145-.064,5.962.012A11.077,11.077,0,0,1,52.673,43.874c.053.922.021,1.847.023,2.771,0,6.127,2.757,8.789,9.139,8.805,5.081.013,10.162.035,15.243-.008,3.272-.028,6.021,1.146,7.5,4.033a5.251,5.251,0,0,0,3.939,2.819c15.984,3.961,31.944,8.022,47.962,11.844,3.614.863,5.627,2.307,4.926,6.278-.371,2.1.36,3.462,2.314,4.727,2.994,1.938,4.553,10.024,2.9,13.078a2.976,2.976,0,0,1-2.861,1.592c-3.349-.031-6.7-.017-10.047,0-2.273.01-3.378-1.082-3.426-3.372-.1-4.9-.444-9.773,4.951-12.639,1.542-.819.676-3.971-1.118-4.424-15.743-3.977-31.5-7.894-47.243-11.885a2.034,2.034,0,0,0-2.526,1.062c-1.895,2.661-4.6,3.6-7.825,3.562-7.043-.084-14.089.038-21.133-.067-1.958-.029-2.842.221-2.769,2.548.191,6.115.174,12.242,0,18.358-.056,2.007.791,2.765,2.391,3.545,7.141,3.482,14.164,7.211,21.354,10.586a7.651,7.651,0,0,1,4.679,5.8c2.952,13.15,6.083,26.259,9.125,39.389.4,1.717.748,2.891,3.067,3.25a8.007,8.007,0,0,1,6.534,8.867,8.284,8.284,0,0,1-8.182,7.45c-5.31.117-10.624.012-15.935.042-2.014.011-3.69-.734-3.507-2.872,1.177-13.755-5.523-25.706-8.632-38.473-.082-.334-.243-.648-.344-.978-1.53-5-4.685-7.308-9.791-7.368-1.265-.015-1.225.68-1.338,1.471-1.4,9.82-2.756,19.645-4.227,29.454-.248,1.655.4,2.1,1.8,2.614,4.38,1.623,6.541,5.328,5.741,9.423-.79,4.041-4.2,6.668-8.846,6.71-4.849.042-9.7-.1-14.549.046-3.158.092-4.284-1.223-4.27-4.326.08-17.322.016-34.644.069-51.966a6.436,6.436,0,0,0-1.967-5.156,28.981,28.981,0,0,1-8.546-16.615c-.274-1.827-.969-2.494-2.874-2.4-3.457.164-6.929-.026-10.391.069-2.759.076-4-1.046-3.994-3.878Q.071,60.962.006,34.287C0,31.686,1.069,30.44,3.72,30.492c3.232.064,6.475.164,9.7-.029,2.961-.177,5.481.33,7.25,2.921.862,1.263,1.871,1.4,3.234.668,1.487-.8,3.231-.743,5.193-.887M85.171,155.049c-3.127-13.284-6.263-26.371-9.24-39.494a5.625,5.625,0,0,0-3.485-4.2c-8.7-4.229-17.317-8.608-25.962-12.938-3.6-1.8-3.735-3.861-.309-6.244,2.136-1.485.714-3.5.855-5.218.132-1.609-1.524-.967-2.4-.975-6.688-.058-13.379.052-20.064-.08-2.094-.042-2.4.746-2.4,2.595a26.309,26.309,0,0,0,19.624,25.094q10,2.675,20.107,4.963c2.872.652,4.513,1.971,5.353,4.962,2.332,8.3,5.014,16.51,7.545,24.758,2.25,7.332,2.243,7.334,10.373,6.776M47.145,49.217c0-1.191,0-1.879,0-2.566.04-6.1-1.658-7.814-7.756-7.819-3.7,0-7.392-.055-11.086.015-3.9.074-6.051,2.128-6.073,5.986-.063,11.086.015,22.173-.061,33.259-.012,1.81.5,2.385,2.332,2.347,5.426-.112,10.855-.04,16.283-.04,6.368,0,6.215-.006,6.432-6.206.094-2.679-.693-4.222-3.107-5.409a90.984,90.984,0,0,1-9.283-5.363,9.01,9.01,0,0,1-3.181-12.134c2.322-4.274,7.226-5.842,11.913-3.79,1.04.456,2.051.98,3.586,1.719M5.577,60.887V77.859c0,8.229,0,8.132,8.294,8.144,2.329,0,2.846-.72,2.828-2.921-.1-12.352-.051-24.705-.042-37.059a20.084,20.084,0,0,1,.152-3.453c1.087-6.163.816-6.509-5.485-6.509a22.625,22.625,0,0,1-3.114-.024c-2.175-.305-2.72.571-2.683,2.686.128,7.387.05,14.777.05,22.165M33.293,116.4v32.761c0,6.616.476,6.994,7.158,6.1,1.084-.145,1.633-.446,1.79-1.594q2.129-15.559,4.362-31.1c.216-1.484-.305-2.175-1.639-2.441A63.128,63.128,0,0,1,33.293,116.4m.051-88.668A11.084,11.084,0,1,0,22.2,16.878a11.133,11.133,0,0,0,11.14,10.855m31.39,38.809c3.695,0,7.389-.017,11.084.007,2.171.014,4.562.022,4.466-2.922-.087-2.675-2.385-2.831-4.408-2.6C63.761,62.4,52.578,59.971,42.4,53.134c-2.18-1.463-4.47-1.711-5.869,1.015-1.308,2.55.416,3.934,2.366,5.311,7.458,5.27,15.429,8.582,24.8,7.089a6.73,6.73,0,0,1,1.038-.007M41.283,160.811V160.8H34.739c-2.224,0-1.4,1.717-1.388,2.75s-.861,2.766,1.362,2.772c4.133.011,8.267.054,12.4-.036a2.725,2.725,0,0,0,.026-5.451c-1.949-.078-3.9-.019-5.853-.019m43.662,5.506c2.063,0,4.126.015,6.188,0,1.724-.016,2.963-.843,3.046-2.589.093-1.947-1.165-2.9-3.052-2.915-3.9-.034-7.794.021-11.69-.035-1.3-.019-1.72.418-1.838,1.753-.242,2.738.23,4.456,3.571,3.837a22.028,22.028,0,0,1,3.776-.046m53.64-72.054c1.324-.09,3.077.656,2.86-1.947-.161-1.935-.653-3.5-2.794-3.523s-2.664,1.51-2.857,3.458c-.255,2.573,1.442,1.944,2.791,2.013" transform="translate(0 0)" fill="#030303"/>
    <path id="Trazado_728657" data-name="Trazado 728657" d="M164.541,183.9c6.021.019,9.864,6.02,7.507,11.747-.406.985-1.636,2.094,0,2.87,1.552.736,1.925-.811,2.291-1.785.9-2.386,2.066-3.118,4.5-1.629,1.508.92,2.033,1.543,1.015,3.142-1.207,1.9-1.7,4.149-4.034,5.382-1.9,1.005-.086,2.89-.144,4.375-.057,1.436,1.39.759,2.159.805,3.065.182,4.166,1.776,3.324,4.689-.42,1.452-1.451.782-2.229.869-1.025.113-2.073.019-3.11.035-.713.01-1.4.085-1.528,1.006-.1.733.389,1.029.953,1.207,2.35.744,3.053,2.88,4.252,4.7,1.648,2.5.6,3.44-1.643,4.517-1.8.865-2.308.2-3.053-1.25-2.053-4-2.794-4.222-6.778-2.578a7.88,7.88,0,0,1-7.342-.209c-3.22-1.991-5.031-.536-6.124,2.228-1.026,2.594-2.256,2.474-4.353,1.321-1.538-.846-2.033-1.473-1.058-3.126,1.269-2.152,1.893-4.77,4.693-5.625.611-.187,1-.553.885-1.249s-.624-.91-1.242-.929a20.118,20.118,0,0,0-2.419-.009c-2.012.182-3.383.156-3.311-2.709.065-2.534.839-3.142,3.149-2.92.872.084,2.655.861,2.494-1.178-.116-1.457,1.892-3.238-.8-4.423-2.426-1.066-2.957-3.786-3.824-5.943-.858-2.134,1.769-1.821,2.763-2.666.966-.821,1.693-.453,2.431.66.82,1.238.754,4.2,3.014,3.157,2.2-1.011-.248-2.717-.583-4.061a8.466,8.466,0,0,1,8.142-10.422m5.51,24.653c-.1-4.367-2.645-8.02-5.569-7.995s-5.428,3.7-5.505,8.054c-.08,4.475,2.4,8.394,5.394,8.512,3.117.123,5.787-3.906,5.681-8.572m-5.507-19.11c-1.686.213-2.791,1.1-2.737,2.881a2.493,2.493,0,0,0,2.646,2.593,2.537,2.537,0,0,0,2.767-2.817c-.034-1.593-1.093-2.425-2.675-2.657" transform="translate(-45.295 -56.376)" fill="#050505"/>
    <path id="Trazado_728658" data-name="Trazado 728658" d="M216.357,183.9a8.325,8.325,0,0,1,7.724,11.392c-.379,1.007-2.05,2.266-.195,3.179,1.669.822,2.1-.983,2.444-2.008.875-2.592,2.137-2.417,4.334-1.4,2.692,1.248,1.34,2.6.6,4.055-.871,1.721-1.585,3.433-3.544,4.475s-.1,2.881-.192,4.362,1.4.912,2.118.831c2.56-.288,3.646.4,3.464,3.275-.13,2.06-.776,2.591-2.614,2.344a9.633,9.633,0,0,0-2.073,0c-.845.071-1.982-.379-2.252.957-.234,1.159.87,1.288,1.51,1.543,2.866,1.141,3.318,4.007,4.464,6.288.928,1.848-1.214,1.8-2.142,2.339-.84.49-1.9,1.756-2.805-.012a14.037,14.037,0,0,0-1.433-2.74c-1.288-1.52-2.673-2.77-4.942-1.309a7.608,7.608,0,0,1-8.231.334c-3.2-1.891-5.021-.62-6.151,2.177-1,2.485-2.191,2.661-4.328,1.375-1.389-.836-2.177-1.352-1.125-3.1,1.288-2.141,1.888-4.764,4.675-5.645.576-.182,1.037-.5.931-1.221-.135-.92-.838-.972-1.545-.99-.691-.017-1.384,0-2.075-.007-3.012-.015-4.282-1.876-3.211-4.722.6-1.6,1.98-.512,2.951-.836.908-.3,2.674.827,2.535-1.19-.1-1.46,1.923-3.256-.753-4.442-2.441-1.082-2.891-3.8-3.865-5.923-.944-2.066,1.519-1.761,2.428-2.512.935-.772,1.861-1.074,2.747.421.759,1.281.793,4.184,3,3.22,2.28-1-.2-2.715-.535-4.042a8.466,8.466,0,0,1,8.081-10.466m5.557,24.936c0-4.522-2.609-8.355-5.631-8.278-2.908.074-5.387,3.77-5.443,8.117-.058,4.491,2.455,8.382,5.455,8.45,3.022.068,5.62-3.765,5.618-8.289m-2.767-16.69c-.255-1.575-1.092-2.627-2.69-2.641a2.537,2.537,0,0,0-2.784,2.8,2.5,2.5,0,0,0,2.625,2.614c1.775.033,2.656-1.082,2.849-2.772" transform="translate(-61.124 -56.376)" fill="#050505"/>
    <path id="Trazado_728659" data-name="Trazado 728659" d="M182.327,152.792c-.044,1.054-4.848,5.861-5.258,5.583a8.682,8.682,0,0,1-3.419-3.557c-.227-.53,4.807-5.417,5.2-5.118,1.306,1,2.474,2.177,3.48,3.092" transform="translate(-53.23 -45.887)" fill="#0b0b0b"/>
    <path id="Trazado_728660" data-name="Trazado 728660" d="M218.289,155.131c-1.088,1.038-1.944,2.57-3.581,3.182-.551.206-5.408-4.782-5.124-5.2a8.544,8.544,0,0,1,3.558-3.41c.537-.225,5.187,4.63,5.147,5.429" transform="translate(-64.245 -45.889)" fill="#090a0a"/>
    <path id="Trazado_728661" data-name="Trazado 728661" d="M170.392,164.953c.019.874-4.846,5.775-5.26,5.468-1.338-.994-3.648-2.245-3.222-3.557a8.033,8.033,0,0,1,4.951-4.921c1.333-.4,2.447,1.985,3.53,3.01" transform="translate(-49.618 -49.63)" fill="#090a0a"/>
    <path id="Trazado_728662" data-name="Trazado 728662" d="M231.984,167.066c-2,1.4-3.226,2.19-4.381,3.074-1.179.9-1.6-.27-2.211-.771-.7-.573-1.243-1.347-1.952-1.909-1.714-1.359-2.027-2.4-.225-4.233,1.893-1.929,2.84-1.183,4.252.31a44.384,44.384,0,0,0,4.518,3.529" transform="translate(-68.055 -49.683)" fill="#090a0a"/>
    <path id="Trazado_728663" data-name="Trazado 728663" d="M155.191,173.619c.91,1.012,3.149,2.552,2.913,3.424a8.149,8.149,0,0,1-4.822,5.041c-1.439.558-2.522-1.9-3.672-3.094-.338-.349,4.427-5.3,5.581-5.371" transform="translate(-45.858 -53.223)" fill="#090a0a"/>
    <path id="Trazado_728664" data-name="Trazado 728664" d="M236.817,173.589c.8-.016,5.647,4.715,5.413,5.2a7.945,7.945,0,0,1-3.46,3.5c-.467.251-5.408-4.647-5.181-5.15.705-1.571,2.175-2.476,3.229-3.541" transform="translate(-71.605 -53.214)" fill="#090a0a"/>
    <path id="Trazado_728665" data-name="Trazado 728665" d="M199.094,151.908c2.926-.793,2.085,1.435,2.347,3.046.473,2.917-1.454,2.264-3.125,2.508-2.922.427-2.274-1.465-2.507-3.139-.4-2.881,1.383-2.561,3.286-2.415" transform="translate(-60.008 -46.517)"/>
    <path id="Trazado_728666" data-name="Trazado 728666" d="M198.448,173.339c-2.668.729-2.478-.962-2.657-2.848-.243-2.58,1.04-2.551,2.991-2.7,2.58-.2,2.565,1.047,2.7,3,.172,2.53-.908,3-3.033,2.551" transform="translate(-60.011 -51.429)"/>
    <path id="Trazado_728667" data-name="Trazado 728667" d="M201.335,186.864c.746,2.735-1.073,2.4-2.891,2.6-2.662.3-2.476-1.147-2.659-3.023-.261-2.666,1.152-2.492,3.032-2.655,2.609-.226,2.917,1.011,2.518,3.078" transform="translate(-60.008 -56.332)"/>
    <path id="Trazado_728668" data-name="Trazado 728668" d="M94.972,193.005c-8.13.559-8.123.557-10.373-6.775-2.532-8.249-5.213-16.455-7.545-24.759-.84-2.991-2.48-4.31-5.353-4.962q-10.1-2.292-20.107-4.962A26.31,26.31,0,0,1,31.97,126.452c0-1.849.306-2.636,2.4-2.595,6.686.132,13.377.023,20.065.08.871.008,2.528-.634,2.4.975-.141,1.722,1.281,3.732-.854,5.218-3.426,2.383-3.29,4.441.309,6.244,8.645,4.331,17.267,8.71,25.962,12.938a5.625,5.625,0,0,1,3.485,4.2c2.978,13.123,6.113,26.21,9.24,39.493" transform="translate(-9.8 -37.957)" fill="#b0b0b0"/>
    <path id="Trazado_728669" data-name="Trazado 728669" d="M56.945,66.373c-1.535-.739-2.546-1.263-3.586-1.719-4.686-2.053-9.591-.484-11.913,3.79a9.01,9.01,0,0,0,3.181,12.133,90.984,90.984,0,0,0,9.283,5.363c2.414,1.187,3.2,2.731,3.107,5.41-.217,6.2-.064,6.206-6.432,6.206-5.428,0-10.857-.072-16.283.039-1.834.037-2.344-.537-2.332-2.347.076-11.086,0-22.173.061-33.259C32.052,58.131,34.2,56.077,38.1,56c3.694-.071,7.391-.019,11.086-.016,6.1.006,7.8,1.72,7.756,7.819,0,.688,0,1.376,0,2.566" transform="translate(-9.8 -17.157)" fill="#91c380"/>
    <path id="Trazado_728670" data-name="Trazado 728670" d="M8.02,76.793c0-7.389.078-14.779-.049-22.165-.037-2.115.508-2.991,2.682-2.686a22.745,22.745,0,0,0,3.114.024c6.3,0,6.571.347,5.484,6.509a20.089,20.089,0,0,0-.151,3.453c-.01,12.353-.058,24.707.042,37.059.017,2.2-.5,2.924-2.829,2.92-8.294-.011-8.294.086-8.294-8.143V76.793" transform="translate(-2.443 -15.905)" fill="#9f9f9f"/>
    <path id="Trazado_728671" data-name="Trazado 728671" d="M48.011,167.86a63.13,63.13,0,0,0,11.671,3.722c1.334.266,1.855.957,1.639,2.441q-2.261,15.541-4.362,31.105c-.157,1.148-.707,1.449-1.79,1.594-6.682.894-7.158.516-7.158-6.1Z" transform="translate(-14.718 -51.458)" fill="#9e9e9e"/>
    <path id="Trazado_728672" data-name="Trazado 728672" d="M43.159,30.194A11.084,11.084,0,1,1,54.185,18.878,11.131,11.131,0,0,1,43.159,30.194" transform="translate(-9.815 -2.461)" fill="#f4d5a1"/>
    <path id="Trazado_728673" data-name="Trazado 728673" d="M80.68,89.556a6.644,6.644,0,0,0-1.038.007c-9.373,1.493-17.343-1.819-24.8-7.089-1.949-1.378-3.673-2.761-2.365-5.311,1.4-2.726,3.689-2.479,5.869-1.015,10.181,6.836,21.364,9.265,33.478,7.891,2.023-.229,4.321-.073,4.408,2.6.1,2.944-2.295,2.935-4.466,2.921-3.695-.024-7.389-.006-11.084-.006" transform="translate(-15.946 -23.013)" fill="#75b35f"/>
    <path id="Trazado_728674" data-name="Trazado 728674" d="M55.956,231.892c1.951,0,3.906-.06,5.853.019a2.725,2.725,0,0,1-.026,5.451c-4.131.09-8.265.046-12.4.036-2.223-.006-1.354-1.743-1.362-2.772s-.836-2.75,1.388-2.75h6.543v.016" transform="translate(-14.673 -71.08)" fill="#b1b1b1"/>
    <path id="Trazado_728675" data-name="Trazado 728675" d="M119.225,237.395a21.542,21.542,0,0,0-3.775.041c-3.341.619-3.813-1.1-3.571-3.837.118-1.335.54-1.772,1.838-1.753,3.9.056,7.793,0,11.689.035,1.887.017,3.145.968,3.053,2.915-.083,1.747-1.322,2.573-3.046,2.589-2.063.019-4.126,0-6.189.009" transform="translate(-34.28 -71.073)" fill="#9e9e9e"/>
    <path id="Trazado_728676" data-name="Trazado 728676" d="M198.6,133.521c-1.349-.073-3.046.556-2.791-2.017.193-1.947.719-3.48,2.857-3.458s2.633,1.588,2.794,3.523c.217,2.6-1.535,1.857-2.86,1.951" transform="translate(-60.019 -39.253)" fill="#f0f2f3"/>
    <path id="Trazado_728677" data-name="Trazado 728677" d="M175.01,215.922c.107,4.666-2.564,8.694-5.681,8.572-2.989-.118-5.473-4.037-5.394-8.512.078-4.358,2.587-8.029,5.505-8.054s5.469,3.629,5.569,7.995" transform="translate(-50.254 -63.74)" fill="#bb8959"/>
    <path id="Trazado_728678" data-name="Trazado 728678" d="M170.755,191.9c1.582.232,2.641,1.064,2.675,2.657a2.537,2.537,0,0,1-2.767,2.817,2.493,2.493,0,0,1-2.645-2.593c-.054-1.776,1.051-2.668,2.737-2.881" transform="translate(-51.506 -58.827)" fill="#b48556"/>
    <path id="Trazado_728679" data-name="Trazado 728679" d="M226.975,216.2c0,4.524-2.6,8.357-5.618,8.289-3-.067-5.514-3.959-5.456-8.449.056-4.347,2.535-8.043,5.444-8.118,3.022-.077,5.629,3.756,5.631,8.278" transform="translate(-66.184 -63.74)" fill="#bb8959"/>
    <path id="Trazado_728680" data-name="Trazado 728680" d="M225.46,194.629c-.193,1.69-1.074,2.8-2.849,2.772a2.5,2.5,0,0,1-2.625-2.614,2.537,2.537,0,0,1,2.784-2.8c1.6.014,2.435,1.066,2.69,2.641" transform="translate(-67.437 -58.854)" fill="#b48556"/>
  </g>
</svg>
