<svg id="Grupo_987387" data-name="Grupo 987387" xmlns="http://www.w3.org/2000/svg" xmlns:xlink="http://www.w3.org/1999/xlink" width="236.032" height="671.253" viewBox="0 0 236.032 671.253">
  <defs>
    <clipPath id="clip-path">
      <rect id="Rect치ngulo_346523" data-name="Rect치ngulo 346523" width="236.032" height="671.253" fill="none"/>
    </clipPath>
  </defs>
  <g id="Grupo_987386" data-name="Grupo 987386" clip-path="url(#clip-path)">
    <path id="Trazado_728989" data-name="Trazado 728989" d="M111.377,70.74l16.3,4.85c5.793,1.725,15.269,4.548,21.068,6.273l16.3,4.852A10.215,10.215,0,0,0,178.006,78.9l3.755-16.939c1.326-6.022,3.5-15.873,4.836-21.9l3.755-16.939c1.339-6.019-2.458-8-8.424-4.41L171.7,24.886c-3.748-6.538-7.5-13.041-8.943-15.42-3.294-5.4-9.625-9.538-22.06-9.465-9.23.053-33.753.2-49.268.288L112,37.256a6.972,6.972,0,0,1,1.274,1.853c.98,2.031,4.71,9.018,8.424,15.924l-10.007,6.034c-5.967,3.593-6.1,7.945-.311,9.672" transform="translate(10.985 0)" fill="#06d1d1"/>
    <path id="Trazado_728990" data-name="Trazado 728990" d="M60.5,12.574c-5.285,8.211-18.682,30.065-18.682,30.065a10.315,10.315,0,0,0,3.407,14.235L78.084,76.6a10.367,10.367,0,0,0,14.2-3.663s18.533-31.163,20.249-34.047c1.764-3,3.891-3.443,5.607-1.667L97.573.259C92.2.289,87.906.317,85.705.328,77.151.381,67.371,1.9,60.5,12.574" transform="translate(4.84 0.031)" fill="#03a4a4"/>
    <path id="Trazado_728991" data-name="Trazado 728991" d="M7.225,143.282c3.7,7.349,13.947,26.264,21.456,40.126l23.286-38.954c2.744-4.792,7.831-13.679,12.076-21.04l11.921,6.777c6.05,3.443,9.792,1.36,8.316-4.625l-4.174-16.84c-1.476-5.982-3.9-15.774-5.38-21.759L70.565,70.125a10.2,10.2,0,0,0-13.146-7.477L41.242,67.92c-5.751,1.874-15.155,4.939-20.906,6.811L4.158,80c-5.751,1.872-5.506,6.222.544,9.66l8.788,5C9,103.544,3.716,114.033,2.383,117.043c-2.409,5.434-.921,14.813,4.842,26.238" transform="translate(0 7.465)" fill="#06d1d1"/>
    <path id="Trazado_728992" data-name="Trazado 728992" d="M48.891,135.623,25.605,174.577c4.185,7.716,7.521,13.875,8.406,15.585,2.458,4.78,5.978,14.137,28.2,14.009l32.306-.189a10.432,10.432,0,0,0,10.218-10.575l-.216-39.015a10.427,10.427,0,0,0-10.342-10.459s-37.818.223-44.126.257c-3.981.025-4.49-2.676-3.09-5.186.192-.339.9-1.578,1.931-3.38" transform="translate(3.076 16.295)" fill="#03a4a4"/>
    <path id="Trazado_728993" data-name="Trazado 728993" d="M169.6,147.275l19.25,39.34c6.738-12.7,18.174-34.758,22.85-44.294,6.253-12.758,8.023-23.817,5.141-29.63s-17.141-34.1-17.141-34.1a9.307,9.307,0,0,0-13.469-3.838L153.593,95.3a11.259,11.259,0,0,0-3.754,14.7s9.918,18.245,15.441,28.46c1.716,3.168,3.013,5.572,3.45,6.406a8.692,8.692,0,0,1,.873,2.416" transform="translate(17.844 8.802)" fill="#06d1d1"/>
    <path id="Trazado_728994" data-name="Trazado 728994" d="M189.885,189.156c.759-1.318,2.5-4.541,4.765-8.82L175.4,141c.407,2.284-.723,3.841-3.49,3.857L152,144.972l-.108-12.2c-.066-7.085-3.676-9.385-8.035-5.11L131.6,139.685c-4.359,4.269-11.491,11.256-15.842,15.529L103.5,167.233a10.636,10.636,0,0,0,.125,15.385l12.471,11.8c4.43,4.189,11.675,11.042,16.111,15.235l12.465,11.8c4.43,4.19,8.011,1.826,7.945-5.259l-.108-11.594c4.878-.031,10.265-.062,15.244-.092,13.858-.08,19.1-10.116,22.126-15.343" transform="translate(12.048 15.081)" fill="#03a4a4"/>
    <path id="Trazado_728995" data-name="Trazado 728995" d="M155.862,201.061c-1.119-3.789-2.236-7.58-3.323-11.38q-2.478.7-4.956,1.4.247,4.175.49,8.347c-.855-.137-1.708-.282-2.563-.42,1.406,3.136,2.882,6.231,4.337,9.342,1.759-.227,3.515-.5,5.28-.666.234-2.207.4-4.432.735-6.625" transform="translate(17.483 22.79)" fill="#bc9268"/>
    <path id="Trazado_728996" data-name="Trazado 728996" d="M113.907,299.984a15.781,15.781,0,0,1-.779-1.777c-2.47-6.758-3.457-14.349-1.035-21.126a4.87,4.87,0,0,1,1.679-2.556,5.443,5.443,0,0,1,2.408-.665l21.705-2.492a3.592,3.592,0,0,0,1.918-.6,3.463,3.463,0,0,0,.92-1.549c2.245-6.087,14.546-64.767,10.721-65.158,3.544-.282,7.084-.613,10.629-.864,3.559,18.819,7.551,72.232,2.424,78.633-11.624,14.51-16.34,15.478-33.547,23.764a15.317,15.317,0,0,1-6.729,1.9c-4.5-.067-8.3-3.583-10.314-7.511" transform="translate(13.301 24.414)" fill="#ffe8ce"/>
    <path id="Trazado_728997" data-name="Trazado 728997" d="M19.276,252.865c-3.563-1.712-7.124-3.423-10.673-5.164l-2.282,4.617q3.263,2.614,6.523,5.233c-.675.541-1.355,1.078-2.031,1.62,3.27,1.059,6.555,2.039,9.841,3.045,1.009-1.457,1.986-2.943,3.043-4.365-1.479-1.652-3.019-3.269-4.421-4.986" transform="translate(0.759 29.761)" fill="#bc9268"/>
    <path id="Trazado_728998" data-name="Trazado 728998" d="M53.1,448.149l15.735,71.88L78.424,601.4l14.594.035,11.562-203.83-48.888.787Z" transform="translate(6.381 47.772)" fill="#58677f"/>
    <path id="Trazado_728999" data-name="Trazado 728999" d="M142.174,443.82l1.889,69.745L131.3,595.915l-18.682-.106-3.823-87.347L95.368,445.134l-4.459-41.442,40.713-4.786Z" transform="translate(10.923 47.928)" fill="#58677f"/>
    <path id="Trazado_729000" data-name="Trazado 729000" d="M117.977,261.8,72.257,267,64.651,292.26l-10.8,74.357-5.267,63.19,73.5,1.129,24.2-3.871-6.226-66.348L130.873,285.4Z" transform="translate(5.838 31.456)" fill="#ffe8ce"/>
    <path id="Trazado_729001" data-name="Trazado 729001" d="M109.264,218.758a19.673,19.673,0,0,0-14-5.751c-17.983.187-19.355,17.686-16.006,31.3,1.476,6,4.432,11.884,9.441,15.5a16.685,16.685,0,0,0,4.5,2.283l0,.009c-.277.932-.221,12.206-1.018,12.1a24.531,24.531,0,0,0,12.4-1.568c-.123-3.364.307-7.507-.02-11.143a11.629,11.629,0,0,0,1.458-.888c4.813-3.5,6.375-9.888,7.274-15.769,1.169-7.641,1.873-20.118-4.027-26.07" transform="translate(9.349 25.593)" fill="#bc9268"/>
    <path id="Trazado_729002" data-name="Trazado 729002" d="M108.865,236.954c.577.681,1.558.852,2.26,1.4,2.344,1.84.072,5.89,1.491,8.511,1.818,3.359,1.49,9.254-2,12.043-1.185.947-2.781,1.611-3.275,3.045-.576,1.67.589,3.832-.6,5.136,1.9,1.954,5.145,1.538,7.657.492s4.969-2.6,7.689-2.5c.863.031,1.9.166,2.432-.513a2.773,2.773,0,0,0,.379-1.485c.63-6.243,7.988-4.644,8.971-9.707.264-1.361-1.4-4.721-1.369-6.5.046-2.838,1.667-5.371.7-8.28-.4-1.2-1.2-2.238-1.611-3.436-.837-2.435.039-5.077.539-7.6s.42-5.586-1.648-7.122c-1.616-1.2-3.957-1.051-5.549-2.284-3.526-2.732-.939-9.865-4.908-11.9-2.035-1.044-4.513.1-6.777-.233-2.392-.349-4.2-2.254-6.194-3.612s-5-2.085-6.628-.3c-1.374,1.5-1,4-2.265,5.6-1.079,1.367-2.991,1.661-4.569,2.4-7.4,3.495,6.536,5.777,8.538,8.226,1.686,2.063,3.483,5.945,4.707,8.324,1.425,2.768.518,8.511,2.03,10.3" transform="translate(10.987 24.155)" fill="#1a3151"/>
    <path id="Trazado_729003" data-name="Trazado 729003" d="M91.337,219.287c-9.051,1.926-3.562,8.682-6.453,14.2-1.139,2.173-4.252,2.99-4.872,5.363-.5,1.912.9,3.733,2.014,5.363s1.975,3.988.626,5.432c-.406.435-.976.727-1.259,1.249-.742,1.365.94,2.753,2.367,3.371s3.173,1.833,2.605,3.278c-1.663,4.229-2.729,2.444-.03,6.036.652.867,1.779.715,2.412,1.6a4.141,4.141,0,0,1-4.632,1.061c-4.213-1.637-3.05.417-6.341.934-3.466.543-3.576-.519-6.609-2.452-2.828-1.8-8.757-3.068-9.76-6.729-.56-2.048,1.028-4.152.56-6.212-.439-1.932-2.574-3.4-3.56-5.215-2-3.682,1.025-7.709,1.65-11.65.867-5.462-2.365-12.258,3.4-15.7,1.239-.74,2.752-1.185,4.016-1.9,3.726-2.111,4.466-5.958,5.924-9.269s5.228-6.858,9.8-6.095c4.156.692,6.36,4.642,10.582,5.056,1.481.145,3.1-.17,4.408.366a4.128,4.128,0,0,1,2.006,2.053c1,1.862,3.934,8.117,1.721,9.839-2.877,2.239-6.741-.8-10.578.019" transform="translate(6.937 24.252)" fill="#1a3151"/>
    <path id="Trazado_729004" data-name="Trazado 729004" d="M119.959,239.312a5.23,5.23,0,0,0,.971-2.2,2.831,2.831,0,0,0-1.548-2.84,15.381,15.381,0,0,0-1.965-.846c-1.393-.586-2.519-1.24-1.882-3.269a10.71,10.71,0,0,1,.519-.954,5.469,5.469,0,0,0,.23-3.8,3.113,3.113,0,0,0-1.924-2.085,9.05,9.05,0,0,0-2.348-.036c-2.972-.2-1.856-2.949-1.659-4.622a5.259,5.259,0,0,0-4.651-5.9c-.46-.059-.458.666,0,.725a4.612,4.612,0,0,1,3.487,2.383c.729,1.327.435,2.633.194,4.054-.2,1.2-.264,2.658.744,3.54,1.577,1.377,3.888-.51,5.189,1.525,1.252,1.959-.134,3.609-.7,5.411-1.444,4.572,7.877,3.122,5.036,8.061-.733,1.276-2.132,2.525-1.894,4.15a2.124,2.124,0,0,0,2.275,1.965c.459-.048.466-.773,0-.725-1.978.207-1.545-2.247-1.041-3.134.283-.5.658-.933.971-1.408" transform="translate(12.659 25.563)" fill="#145566"/>
    <path id="Trazado_729005" data-name="Trazado 729005" d="M83.447,215.706c-2.529-.317-6.461-.242-6.815,3.083-.183,1.719.841,3.267,1.113,4.915.543,3.3-2.777,4-5.093,4.987-2.481,1.062-4.64,3.921-2,6.082q.477.331.936.688l-.565,2.207c-.224.289-.873.516-1.157.768a2.151,2.151,0,0,0-.83,1.278,1.411,1.411,0,0,0,1.354,1.695c.466.021.466-.7,0-.725q.1-.948.207-1.9c.2-.127.393-.25.591-.372.188-.157.426-.262.615-.422a2.834,2.834,0,0,0,.753-.875,1.762,1.762,0,0,0-.456-2.169c-.609-.607-1.246-.815-1.656-1.668-.7-1.448.295-2.737,1.6-3.5,1.361-.8,2.982-1.035,4.334-1.863,2.164-1.325,2.464-3.31,1.749-5.606-.542-1.736-1.539-4.044.364-5.316,1.407-.942,3.357-.763,4.958-.562.461.058.459-.668,0-.725" transform="translate(8.292 25.902)" fill="#145566"/>
    <path id="Trazado_729006" data-name="Trazado 729006" d="M67.32,227.4a.363.363,0,0,0-.192-.7c-1.976.584-4.53,1.575-4.466,4.055a2.372,2.372,0,0,0,.835,1.79c.815.692,1.8.644,2.5,1.544a2.091,2.091,0,0,1-2.427,3.23.363.363,0,0,0-.195.7,2.906,2.906,0,0,0,3.9-3.033,3.112,3.112,0,0,0-1.905-2.374c-1.426-.8-2.676-2.017-1.333-3.593A6.586,6.586,0,0,1,67.32,227.4" transform="translate(7.529 27.236)" fill="#145566"/>
    <path id="Trazado_729007" data-name="Trazado 729007" d="M76.434,267.8s-13,1.764-19.119,11.959L44.482,302.762,24.356,255.2l-10.534,5.61,10.534,59.04s15.958,10.5,17.833,11.028,31.565-14.7,36.768-21.36Z" transform="translate(1.661 30.662)" fill="#ffe8ce"/>
    <path id="Trazado_729008" data-name="Trazado 729008" d="M32.936,412.17,43.395,612.017a10.071,10.071,0,0,0,10.066,9.714H176.9a10.071,10.071,0,0,0,10.065-9.714L197.425,412.17Z" transform="translate(3.957 49.522)" fill="#ffc403"/>
    <rect id="Rect치ngulo_346522" data-name="Rect치ngulo 346522" width="180.517" height="22.136" transform="translate(28.88 439.556)" fill="#d9a600"/>
    <path id="Trazado_729009" data-name="Trazado 729009" d="M197.425,398.737H32.936l12.757-59H184.668Z" transform="translate(3.957 40.819)" fill="#ffc403"/>
    <path id="Trazado_729010" data-name="Trazado 729010" d="M156.9,385.691H67.207a8.254,8.254,0,0,1-8.254-8.256V364.923a8.255,8.255,0,0,1,8.254-8.255H156.9a8.256,8.256,0,0,1,8.256,8.255v12.512a8.255,8.255,0,0,1-8.256,8.256" transform="translate(7.083 42.854)" fill="#1a3151"/>
    <path id="Trazado_729011" data-name="Trazado 729011" d="M128.3,508.113a3.043,3.043,0,0,0-.307-.849c-.153-.294-.609-1.137-1.212-2.25Z" transform="translate(15.232 60.677)" fill="#fff"/>
    <path id="Trazado_729012" data-name="Trazado 729012" d="M108.474,483.682l5.727,1.7,7.4,2.2,5.727,1.7a3.588,3.588,0,0,0,4.551-2.746l1.32-5.951c.466-2.115,1.23-5.576,1.7-7.692l1.318-5.951c.47-2.114-.864-2.812-2.959-1.548l-3.593,2.166c-1.317-2.3-2.633-4.581-3.142-5.417-1.157-1.9-3.382-3.352-7.75-3.326l-17.309.1,7.227,12.987a2.431,2.431,0,0,1,.447.652c.345.714,1.656,3.168,2.959,5.594l-3.515,2.119c-2.1,1.262-2.145,2.791-.11,3.4" transform="translate(12.191 55.128)" fill="#fff"/>
    <path id="Trazado_729013" data-name="Trazado 729013" d="M90.6,463.247c-1.857,2.884-6.563,10.562-6.563,10.562a3.624,3.624,0,0,0,1.2,5l11.543,6.931a3.643,3.643,0,0,0,4.99-1.288l7.114-11.961c.619-1.053,1.368-1.21,1.97-.585l-7.227-12.988-4.169.026c-3.005.018-6.442.552-8.855,4.3" transform="translate(10.032 55.139)" fill="#fff"/>
    <path id="Trazado_729014" data-name="Trazado 729014" d="M71.883,509.168c1.3,2.582,4.9,9.227,7.537,14.1L87.6,509.579c.963-1.684,2.751-4.805,4.242-7.392l4.188,2.381c2.126,1.21,3.44.478,2.921-1.624l-1.466-5.917c-.519-2.1-1.369-5.542-1.89-7.645l-1.462-5.917a3.585,3.585,0,0,0-4.618-2.627l-5.684,1.853-7.345,2.393-5.684,1.85c-2.021.658-1.935,2.187.192,3.394l3.087,1.758c-1.577,3.121-3.434,6.806-3.9,7.863-.846,1.909-.323,5.2,1.7,9.218" transform="translate(8.332 57.751)" fill="#fff"/>
    <path id="Trazado_729015" data-name="Trazado 729015" d="M86.52,506.477l-8.18,13.685c1.47,2.711,2.642,4.875,2.953,5.475.864,1.679,2.1,4.967,9.908,4.922l11.349-.066a3.664,3.664,0,0,0,3.589-3.716l-.075-13.707a3.664,3.664,0,0,0-3.634-3.674l-15.5.091c-1.4.008-1.577-.941-1.087-1.823.067-.12.317-.554.679-1.187" transform="translate(9.413 60.853)" fill="#fff"/>
    <path id="Trazado_729016" data-name="Trazado 729016" d="M128.93,510.57l6.763,13.82c2.367-4.462,6.385-12.211,8.027-15.56,2.2-4.482,2.818-8.369,1.806-10.411s-6.021-11.98-6.021-11.98a3.27,3.27,0,0,0-4.733-1.349l-11.467,7.218a3.956,3.956,0,0,0-1.32,5.164s3.485,6.409,5.425,10c.6,1.113,1.059,1.957,1.212,2.25a3.043,3.043,0,0,1,.307.849" transform="translate(14.601 58.22)" fill="#fff"/>
    <path id="Trazado_729017" data-name="Trazado 729017" d="M136.055,525.284c.267-.463.878-1.6,1.674-3.1l-6.762-13.821c.142.8-.254,1.35-1.227,1.355l-6.994.042-.038-4.285c-.022-2.489-1.292-3.3-2.823-1.794l-4.306,4.222-5.565,5.455-4.306,4.223a3.737,3.737,0,0,0,.044,5.4l4.382,4.144c1.556,1.472,4.1,3.879,5.66,5.352l4.379,4.145c1.557,1.472,2.815.641,2.791-1.848l-.038-4.073,5.357-.032c4.868-.028,6.707-3.554,7.773-5.39" transform="translate(12.564 60.426)" fill="#fff"/>
    <path id="Trazado_729018" data-name="Trazado 729018" d="M9.543,266.717c-.223.27-.456.534-.68.8.03.077.065.154.1.23a4.512,4.512,0,0,0,.585-1.033" transform="translate(1.065 32.046)" fill="#e6bc3b"/>
    <path id="Trazado_729019" data-name="Trazado 729019" d="M9.214,260.861c-.074.342-.159.683-.234,1.025.062.055.128.106.19.16a4.515,4.515,0,0,0,.044-1.185" transform="translate(1.079 31.342)" fill="#f1cc40"/>
  </g>
</svg>
