<svg id="Grupo_987290" data-name="Grupo 987290" xmlns="http://www.w3.org/2000/svg" xmlns:xlink="http://www.w3.org/1999/xlink" width="187.626" height="187.169" viewBox="0 0 187.626 187.169">
  <defs>
    <clipPath id="clip-path">
      <rect id="Rectángulo_346389" data-name="Rectángulo 346389" width="187.626" height="187.17" fill="none"/>
    </clipPath>
  </defs>
  <g id="Grupo_987289" data-name="Grupo 987289" clip-path="url(#clip-path)">
    <path id="Trazado_728618" data-name="Trazado 728618" d="M128.04.206c27.16-.076,50.255,9.839,68.435,29.765,24.368,26.708,31.514,58.217,20.437,92.492-10.985,33.988-35.132,54.844-70.049,62.876A64.236,64.236,0,0,1,128.04,187.1q-.01-16.747-.02-33.493a50.643,50.643,0,0,0,21.32-3.807c22.58-9.2,35.586-26.1,38.457-50.143,1.818-15.227-2.188-29.447-11.55-41.826-10.821-14.308-25.213-22.369-43.122-24.048l-5.165-.251Q128,16.871,128.04.206m82.629,92.34a57.184,57.184,0,0,0-.976-11.484,82.883,82.883,0,0,0-68.543-69c-3.91-.664-6.844,1.115-7.469,4.529s1.466,6.17,5.386,6.845A77.652,77.652,0,0,1,150.032,26.1a71.109,71.109,0,0,1,46,88.177c-1.329,4.467.046,7.7,3.469,8.6q5.466,1.438,7.588-5.389a83.8,83.8,0,0,0,3.583-24.942" transform="translate(-34.365 -0.055)" fill="#02607f"/>
    <path id="Trazado_728619" data-name="Trazado 728619" d="M93.654,153.557q.01,16.746.021,33.492c-33.555-.454-59.953-14.67-78.361-42.49C-22.293,87.726,13.123,10.147,80.58.918,84.9.326,89.271-.292,93.675.151q-.042,16.666-.081,33.331l.063.164-5.683.155C71.52,35.472,58.085,42.69,47.4,55.359a59.845,59.845,0,0,0,2.7,79.677C61.811,147.288,76.4,153.8,93.65,153.554ZM11.061,94.392c-.339,3.128.293,7.12.854,11.083a61.477,61.477,0,0,0,3.419,14.146c1.26,3.174,4.089,4.6,6.979,3.724,3.044-.918,4.669-3.89,3.926-7.248-.184-.829-.5-1.628-.741-2.444A71.229,71.229,0,0,1,82.561,23.391c4.145-.69,6.087-3.451,5.324-7.212-.612-3.014-3.553-4.781-7.015-4.212A83,83,0,0,0,11.061,94.392" transform="translate(0 0)" fill="#017a9f"/>
    <path id="Trazado_728620" data-name="Trazado 728620" d="M133.117,46.117c17.908,1.679,32.3,9.74,43.122,24.048,9.362,12.379,13.368,26.6,11.55,41.826-2.87,24.043-15.876,40.948-38.457,50.143a50.644,50.644,0,0,1-21.32,3.808l0,0q0-7.645.006-15.291c3.253-.336,6.543-.5,9.656-1.625,4.9-1.774,6.877-4.789,6.53-10.013-.4-6.075-2.987-11.4-5.708-16.708-1.049-2.045-2-2.552-4.079-1.339a10.987,10.987,0,0,1-6.358,1.181q.008-5.247.015-10.492c3.132-.6,5.527-2.2,5.611-5.579.088-3.6-2.4-5.249-5.648-5.93q.012-5.187.024-10.376c.47-.108,1.153-.053,1.376-.348,3.092-4.076,7.832-5.9,11.768-8.81,4.384-3.246,4.129-8.218-.227-11.649-3.79-2.984-8.323-3.713-12.963-4.032l-.075-10.744c4.735-.534,5.267-1.364,5.182-8.068m37.613,59.488a49.3,49.3,0,0,0-.855-5.5c-1.815-7.229-5.516-9.506-12.838-8.208-3.986.706-7.623,2.332-11.337,3.833-2.692,1.088-3.41,2.353-2.018,5.07a11.753,11.753,0,0,1,.915,6.066c-.044.7-.384,1.59.457,1.959,5.1,2.235,6.976,7.116,9.739,11.377,3.379,5.211,8.948,5.048,12.522-.078,2.834-4.063,3.485-8.721,3.415-14.518" transform="translate(-34.359 -12.385)" fill="#012d3d"/>
    <path id="Trazado_728621" data-name="Trazado 728621" d="M212.729,96.849a83.8,83.8,0,0,1-3.583,24.942q-2.111,6.819-7.588,5.389c-3.423-.9-4.8-4.136-3.469-8.6a71.109,71.109,0,0,0-46-88.177,77.651,77.651,0,0,0-10.966-2.659c-3.921-.676-6.014-3.42-5.386-6.845s3.558-5.193,7.469-4.529a82.882,82.882,0,0,1,68.543,69,57.184,57.184,0,0,1,.976,11.484" transform="translate(-36.426 -4.359)" fill="#e72560"/>
    <path id="Trazado_728622" data-name="Trazado 728622" d="M133.118,46.025c.085,6.7-.448,7.534-5.182,8.068l.015-.028.066-8.127-.064-.164,5.165.25" transform="translate(-34.359 -12.294)" fill="#001e2a"/>
    <path id="Trazado_728623" data-name="Trazado 728623" d="M105.882,54.21q.037,5.372.074,10.744l.038.3a22.422,22.422,0,0,0-10.35,1.624c-4.319,1.735-6,4.415-5.851,9.045.177,5.614,2.4,10.608,4.811,15.541.553,1.132,1.093,1.809,2.44.79,2.61-1.976,5.8-2.373,8.895-2.984a1.139,1.139,0,0,1,.063.526l-.024,10.377a2.031,2.031,0,0,0-.08.482c-3.4.136-5.166,2.06-5.138,5.311.026,3.223,1.744,5.178,5.186,5.207a.832.832,0,0,1,.069.508q-.008,5.245-.015,10.492l-.634,1.419a21.278,21.278,0,0,1-3.832,5.73c-2.02,2.055-4.707,2.967-7.083,4.413-6.331,3.856-6.333,9.99.034,13.78A20.651,20.651,0,0,0,106,150.328l-.042.345q0,7.646-.007,15.291c-17.245.245-31.839-6.265-43.551-18.518a59.843,59.843,0,0,1-2.7-79.677C70.391,55.1,83.826,47.883,100.279,46.209c-.1,5.456,1.3,7.442,5.618,7.973Zm-42.349,54a24.21,24.21,0,0,0,1.322,8.972c1.956,5.445,5.272,7.414,10.95,6.68,5.029-.65,9.541-2.695,14.1-4.74,2.967-1.331,4.089-2.522,1.747-5.645-1.363-1.817-.968-5.546-2.534-6.507-4.675-2.867-6.88-7.311-9.648-11.6-3.481-5.386-9.157-5.105-12.724.317a20.91,20.91,0,0,0-3.212,12.518" transform="translate(-12.305 -12.41)" fill="#01607f"/>
    <path id="Trazado_728624" data-name="Trazado 728624" d="M15.087,98.747A83,83,0,0,1,84.9,16.322c3.462-.569,6.4,1.2,7.015,4.212.763,3.761-1.179,6.521-5.324,7.212a71.229,71.229,0,0,0-57.061,90.262c.243.816.557,1.615.741,2.444.743,3.357-.882,6.33-3.926,7.248-2.89.872-5.719-.551-6.979-3.724a61.477,61.477,0,0,1-3.419-14.146c-.561-3.964-1.193-7.955-.854-11.083" transform="translate(-4.026 -4.355)" fill="#74dff6"/>
    <path id="Trazado_728625" data-name="Trazado 728625" d="M125.892,54.126c-4.319-.531-5.718-2.517-5.618-7.973L125.958,46q-.033,4.064-.066,8.127" transform="translate(-32.3 -12.354)" fill="#012d3d"/>
    <path id="Trazado_728626" data-name="Trazado 728626" d="M176.257,122.287c.07,5.8-.581,10.454-3.415,14.518-3.575,5.126-9.143,5.289-12.522.078-2.763-4.261-4.639-9.141-9.739-11.377-.841-.369-.5-1.261-.457-1.959a11.754,11.754,0,0,0-.915-6.066c-1.392-2.717-.674-3.981,2.018-5.07,3.714-1.5,7.351-3.128,11.337-3.833,7.322-1.3,11.023.979,12.838,8.208a49.291,49.291,0,0,1,.855,5.5" transform="translate(-39.886 -29.068)" fill="#e2e3e3"/>
    <path id="Trazado_728627" data-name="Trazado 728627" d="M127.232,150.807l.634-1.419a10.985,10.985,0,0,0,6.358-1.18c2.085-1.213,3.031-.706,4.079,1.339,2.721,5.308,5.3,10.634,5.709,16.708.347,5.222-1.63,8.237-6.529,10.013-3.113,1.127-6.4,1.288-9.656,1.624l.042-.346c-.01-6.908.04-13.817-.066-20.723-.031-2,.655-4.115-.571-6.017" transform="translate(-34.17 -39.629)" fill="#e2e3e3"/>
    <path id="Trazado_728628" data-name="Trazado 728628" d="M128.078,96.676a1.143,1.143,0,0,0-.063-.527q.027-12.007.054-24.015l-.038-.3c4.641.319,9.174,1.047,12.963,4.032,4.356,3.43,4.612,8.4.228,11.649-3.936,2.914-8.676,4.735-11.768,8.81-.224.295-.907.24-1.377.348" transform="translate(-34.38 -19.293)" fill="#e1e2e3"/>
    <path id="Trazado_728629" data-name="Trazado 728629" d="M127.959,120.465a2.006,2.006,0,0,1,.08-.483c3.251.68,5.737,2.333,5.648,5.929-.083,3.384-2.479,4.982-5.611,5.579a.83.83,0,0,0-.07-.507q-.022-5.259-.047-10.518" transform="translate(-34.365 -32.223)" fill="#dddfdf"/>
    <path id="Trazado_728630" data-name="Trazado 728630" d="M70.028,124.835a20.938,20.938,0,0,1,3.215-12.521c3.567-5.422,9.243-5.7,12.723-.317,2.769,4.285,4.974,8.729,9.649,11.6,1.566.96,1.171,4.69,2.534,6.507,2.343,3.122,1.22,4.313-1.747,5.645-4.559,2.046-9.071,4.09-14.1,4.74-5.677.734-8.994-1.235-10.95-6.679a24.254,24.254,0,0,1-1.325-8.97" transform="translate(-18.803 -29.032)" fill="#f5f6f6"/>
    <path id="Trazado_728631" data-name="Trazado 728631" d="M122.137,72.214q-.026,12.008-.054,24.016c-3.1.61-6.284,1.008-8.895,2.984-1.347,1.019-1.887.342-2.44-.79-2.408-4.933-4.634-9.926-4.811-15.541-.146-4.63,1.532-7.31,5.851-9.045a22.422,22.422,0,0,1,10.35-1.624" transform="translate(-28.449 -19.373)" fill="#f6f7f7"/>
    <path id="Trazado_728632" data-name="Trazado 728632" d="M121.482,152c1.225,1.9.54,4.015.571,6.017.106,6.906.056,13.815.066,20.723a20.653,20.653,0,0,1-11.518-2.817c-6.366-3.79-6.364-9.924-.034-13.779,2.376-1.447,5.063-2.358,7.083-4.413a21.266,21.266,0,0,0,3.832-5.73" transform="translate(-28.42 -40.822)" fill="#f5f6f6"/>
    <path id="Trazado_728633" data-name="Trazado 728633" d="M126.072,120.642q.023,5.259.047,10.518c-3.441-.03-5.159-1.984-5.185-5.207-.028-3.25,1.736-5.175,5.138-5.311" transform="translate(-32.479 -32.4)" fill="#f3f5f5"/>
  </g>
</svg>
