<svg xmlns="http://www.w3.org/2000/svg" xmlns:xlink="http://www.w3.org/1999/xlink" width="79" height="79" viewBox="0 0 79 79">
  <defs>
    <clipPath id="clip-path">
      <rect id="Rectángulo_346439" data-name="Rectángulo 346439" width="66.363" height="66.285" fill="none"/>
    </clipPath>
  </defs>
  <g id="Grupo_987409" data-name="Grupo 987409" transform="translate(-801.472 -1147.512)">
    <circle id="Elipse_5920" data-name="Elipse 5920" cx="39.5" cy="39.5" r="39.5" transform="translate(801.472 1147.512)" fill="#ffc403"/>
    <g id="Grupo_987338" data-name="Grupo 987338" transform="translate(807.9 1152.869)">
      <g id="Grupo_987337" data-name="Grupo 987337" clip-path="url(#clip-path)">
        <path id="Trazado_728976" data-name="Trazado 728976" d="M128,.134c13.113.283,23.027,6.152,29.231,17.618,10.909,20.163-1.913,45.139-24.592,48.3a19.817,19.817,0,0,1-4.639.278q-.01-3.837-.021-7.674c1.2-.1,2.406-.141,3.592-.32a24.211,24.211,0,0,0,14.312-7.221,24.345,24.345,0,0,0,7.441-17.885,13.6,13.6,0,0,0-.224-3.587,24.244,24.244,0,0,0-7.217-14.295,7.168,7.168,0,0,0-1.551-1.523,25.634,25.634,0,0,0-16.329-6.013q0-3.842,0-7.683" transform="translate(-94.82 -0.099)" fill="#020101"/>
        <path id="Trazado_728977" data-name="Trazado 728977" d="M33.161,58.56l.021,7.674C21.512,66.081,12.244,61.2,5.713,51.61-7.631,32.01,3.609,5.079,26.887.588a24.736,24.736,0,0,1,6.3-.553q0,3.841,0,7.683l-.026.087a13.493,13.493,0,0,0-3.586.226,24.256,24.256,0,0,0-14.29,7.225,24.3,24.3,0,0,0-7.44,17.883,13.758,13.758,0,0,0,.224,3.588,24.284,24.284,0,0,0,7.218,14.291,24.241,24.241,0,0,0,17.909,7.435Z" transform="translate(0 0)" fill="#034959"/>
        <path id="Trazado_728978" data-name="Trazado 728978" d="M145.884,106.621a24.211,24.211,0,0,1-14.312,7.221c-1.186.179-2.394.217-3.592.32l.032-.108q-.008-4.109-.016-8.218l.219-.531c1.77-4.926,3.614-9.827,5.287-14.786a5.633,5.633,0,0,0-5.5-7.5.077.077,0,0,0-.006-.125q0-3.923,0-7.847a13.732,13.732,0,0,1,9.843,4.058,14.47,14.47,0,0,1,3.925,9.63,13.716,13.716,0,0,1-3.5,9.054c-.563.616-.29.908.151,1.345,2.5,2.485,4.984,4.988,7.474,7.485" transform="translate(-94.819 -55.601)" fill="#a8edfb"/>
        <path id="Trazado_728979" data-name="Trazado 728979" d="M169.943,76.75a14.469,14.469,0,0,0-3.925-9.629,1.9,1.9,0,0,1,.268-.567q3.88-3.853,7.781-7.685a24.243,24.243,0,0,1,7.216,14.295,13.608,13.608,0,0,1,.224,3.587H169.943" transform="translate(-123.001 -43.615)" fill="#fd0137"/>
        <path id="Trazado_728980" data-name="Trazado 728980" d="M145.879,37.32Q141.985,41.159,138.1,45a1.891,1.891,0,0,0-.268.567,13.732,13.732,0,0,0-9.843-4.058l.008-.076q-.011-5.784-.023-11.567l.026-.087A25.635,25.635,0,0,1,144.328,35.8a7.177,7.177,0,0,1,1.551,1.523" transform="translate(-94.813 -22.067)" fill="#fd4437"/>
        <path id="Trazado_728981" data-name="Trazado 728981" d="M170.249,127.88h11.564a24.346,24.346,0,0,1-7.441,17.885c-2.489-2.5-4.972-5-7.474-7.485-.44-.438-.713-.729-.151-1.346a13.714,13.714,0,0,0,3.5-9.054" transform="translate(-123.307 -94.745)" fill="#008aa9"/>
        <path id="Trazado_728982" data-name="Trazado 728982" d="M76.878,74.839q0,3.924,0,7.847A5.713,5.713,0,0,0,71.3,90.041c1.658,5.258,3.7,10.394,5.578,15.583q.008,4.109.016,8.219a24.239,24.239,0,0,1-17.909-7.435c2.54-2.516,5.072-5.04,7.625-7.542.479-.47.447-.8,0-1.289a13.778,13.778,0,0,1-3.5-9.071A13.73,13.73,0,0,1,76.886,74.763Z" transform="translate(-43.704 -55.391)" fill="#fdfdfd"/>
        <path id="Trazado_728983" data-name="Trazado 728983" d="M41.707,127.8a13.776,13.776,0,0,0,3.5,9.071c.443.487.475.819,0,1.289-2.553,2.5-5.086,5.026-7.625,7.542a24.284,24.284,0,0,1-7.218-14.292,13.756,13.756,0,0,1-.224-3.587l11.572-.023" transform="translate(-22.292 -94.688)" fill="#fddd7a"/>
        <path id="Trazado_728984" data-name="Trazado 728984" d="M41.839,76.736l-11.572.023a24.3,24.3,0,0,1,7.44-17.883c.383.337.782.658,1.145,1.014q3.566,3.5,7.12,7.013a14.4,14.4,0,0,0-4.133,9.832" transform="translate(-22.424 -43.621)" fill="#fdaa37"/>
        <path id="Trazado_728985" data-name="Trazado 728985" d="M67.246,45.462q-3.559-3.508-7.12-7.013c-.363-.357-.762-.677-1.145-1.015a24.259,24.259,0,0,1,14.29-7.225,13.492,13.492,0,0,1,3.586-.226q.011,5.784.023,11.567a14.489,14.489,0,0,0-9.635,3.911" transform="translate(-43.698 -22.179)" fill="#fd8837"/>
        <path id="Trazado_728986" data-name="Trazado 728986" d="M111.313,128.278c-1.878-5.189-3.921-10.325-5.578-15.583a5.713,5.713,0,0,1,5.575-7.356.077.077,0,0,1,.006.125q0,10.526,0,21.054c0,.416-.132.87.218,1.229l-.219.53" transform="translate(-78.136 -78.045)" fill="#036b83"/>
        <path id="Trazado_728987" data-name="Trazado 728987" d="M128.2,128.1c-.35-.36-.217-.814-.218-1.229q-.008-10.527,0-21.054a5.633,5.633,0,0,1,5.5,7.5c-1.673,4.959-3.517,9.86-5.287,14.786" transform="translate(-94.801 -78.394)" fill="#03495a"/>
      </g>
    </g>
  </g>
</svg>
