<svg xmlns="http://www.w3.org/2000/svg" xmlns:xlink="http://www.w3.org/1999/xlink" width="122" height="122" viewBox="0 0 122 122">
  <defs>
    <clipPath id="clip-path">
      <rect id="Rectángulo_346435" data-name="Rectángulo 346435" width="114.354" height="114.442" fill="none"/>
    </clipPath>
  </defs>
  <g id="Grupo_987407" data-name="Grupo 987407" transform="translate(-9663 11287)">
    <circle id="Elipse_5918" data-name="Elipse 5918" cx="61" cy="61" r="61" transform="translate(9663 -11287)" fill="#ffc403"/>
    <g id="Grupo_987330" data-name="Grupo 987330" transform="translate(9670.646 -11283.222)">
      <g id="Grupo_987329" data-name="Grupo 987329" clip-path="url(#clip-path)">
        <path id="Trazado_728943" data-name="Trazado 728943" d="M63.945,92.668c-.084,1.836-1.377,1.971-2.8,2.143-.8.1-2.222-.586-2.228,1.023,0,1.188-.613,2.518,1.14,3.4,2.752,1.388,3.706,3.9,3.12,6.951a13.438,13.438,0,0,1-2.937,6.643c-1.793,2.009-4.036,2.173-5.841.3a12.138,12.138,0,0,1-3.381-9.157,5.217,5.217,0,0,1,3.217-4.755c1.823-.771,1.132-2.188,1.163-3.385.038-1.482-1.258-.951-2.009-1.027a36.421,36.421,0,0,1-12.368-3.471c-.83-.4-1.55-.651-1.875.481-.232.806-1.658,1.356-.234,2.552,2.349,1.972,2.622,4.909,2.535,7.7-.067,2.133-4.034,5.158-6.381,5.076a18.707,18.707,0,0,0-3.279.212,4.237,4.237,0,0,1-4.087-1.312c-2.446-3.175-4.078-6.66-2.856-10.845A3.319,3.319,0,0,1,26.88,92.7c2.435-.577,4.743-2.4,7.449-1.064,1.44.71,1.269-.792,1.744-1.317.451-.5.97-1.148-.039-1.819a36.858,36.858,0,0,1-10.2-10.189c-.339-.5-.746-.8-1.266-.32-.763.7-2.155.608-2.314,2.078A9.158,9.158,0,0,1,9.67,87.455,3.594,3.594,0,0,1,7.294,82.99a12.438,12.438,0,0,1,6.343-7.709,5.372,5.372,0,0,1,5.913.531c1.634,1.2,2.431-.391,3.476-.885,1-.475.066-1.254-.191-1.848a36.865,36.865,0,0,1-3.267-12.657c-.051-.931-.212-1.677-1.37-1.46-.85.16-2.032-.674-2.318,1.137-.442,2.8-2.8,4.329-4.895,5.718C8.8,67.262,4.06,65.328,2.712,62.773A8.6,8.6,0,0,0,1.536,60.92C-.6,58.551-.4,56.047,1.461,53.475c1.5-2.069,2.932-3.945,5.467-4.862,2.117-.766,4.218-.556,5.67,1.165,1.346,1.6,3.287,2.721,3.5,5.216.09,1.039,1.506.355,2.307.5.725.133,1.081-.254,1.119-1a35.694,35.694,0,0,1,3.722-13.888c.289-.594.222-1.022-.382-1.214-.982-.312-1.615-1.6-2.92-1.007A9.2,9.2,0,0,1,7.2,31.046a3.391,3.391,0,0,1,2.468-4,11.664,11.664,0,0,1,10.556,1.92,4.773,4.773,0,0,1,2.027,4.5c-.3,2.133,1.347,2.349,2.5,3.1.66.433.916-.185,1.2-.595A36.573,36.573,0,0,1,35.834,26.1c1-.665.852-1.268.264-1.959-.51-.6-.4-1.967-1.974-1.294-2.83,1.211-5.39-.272-7.743-1.488-1.931-1-2.666-5.814-1.5-7.983a31.4,31.4,0,0,0,1.595-3.385,4.675,4.675,0,0,1,2.675-2.555c3.077-1.3,9.783.587,11.66,3.3a3,3,0,0,1,.741,2.279c-.581,2.53-.339,5.4-2.766,7.223-1.353,1.015.16,1.612.36,2.379.223.857.761,1.057,1.66.613a34.919,34.919,0,0,1,13.234-3.606c.554-.037,1.407.1,1.349-.753-.074-1.094.65-2.362-.553-3.268a9.179,9.179,0,0,1-.315-14.44c1.637-1.418,3.511-1.6,5.033-.14A11.616,11.616,0,0,1,63.176,11.1,5.2,5.2,0,0,1,60.1,15.234a2.041,2.041,0,0,0-1.273,2.011c-.151,1.812.448,2.389,2.291,2.483a33.2,33.2,0,0,1,11.776,3.13c.791.351,1.618,1.286,2.3-.215.461-1.008,1.42-1.722-.137-2.861-1.87-1.369-2.824-6.3-1.99-8.245.967-2.249,4.5-4.248,7.271-4.162a8.86,8.86,0,0,0,1.729-.241c1.715-.3,3.468-.093,4.528,1.262,2.467,3.156,4.087,6.652,2.866,10.841a3.335,3.335,0,0,1-2.03,2.512c-2.435.58-4.746,2.4-7.451,1.066-1.44-.708-1.27.789-1.746,1.313-.459.5-.985,1.205.059,1.811,1.158.671,2.129,1.483,1.319,3.037l-1.113.649c-1.142.217-1.973-1.59-2.893-.808-.747.636-.882,1.99-1.289,3.025a1.387,1.387,0,0,0-.093.2c-1.029,4.948-10.563,6.318-13.118,2.23-1.207-1.932-2.812-2.026-4.771-.81a5.857,5.857,0,0,1-7.4-.682,12.091,12.091,0,0,1-2.325-3.768c-2.077-4.133-2.066-4.139-6.1-1.9-4.161,2.309-3.994,2.268-2.826,6.906.91,3.611,2.324,6.642,5.842,8.353a3.775,3.775,0,0,1,1.913,2.383C47.173,50.617,43.024,57.1,37.664,58.9c-.8.268-1.446.478-1.347,1.4a1.47,1.47,0,0,0,1.618,1.476c1.041-.019,2.085-.045,3.123.014,2.706.154,6.184,3.221,6.243,5.788.077,3.366-2.237,6-3.211,9.055-.059.185-.512.244-.782.362-2.119-.4-2.044-1.922-1.591-3.427a31.078,31.078,0,0,1,1.6-3.667c1.1-2.447-.24-4.591-2.937-4.678-1.04-.034-2.09.056-3.119-.059a4.737,4.737,0,0,1-4.256-4.2c-.318-2.193.577-4.545,2.539-4.892,3.151-.558,4.437-2.977,6.114-5.047,1.521-1.878,1.02-5.384-1.057-6.563a10.637,10.637,0,0,1-5.613-7.818c-.151-.872-.541-1.7-.723-2.568-.4-1.885-1.057-1.629-2.155-.44a34.6,34.6,0,0,0-9.126,19.43c-.186,1.418-.475,2.653,1.574,2.8A3.343,3.343,0,0,1,26.566,57.2,10.046,10.046,0,0,1,27,70c-.554.719-1.41,1.261-.717,2.48a30.349,30.349,0,0,0,4.9,7.107,31.985,31.985,0,0,0,13.5,9.71c.518.213,1.2.55,1.636-.054.511-.717-.1-1.216-.579-1.681-.74-.723-1.479-1.448-2.234-2.155a3.276,3.276,0,0,1-1.158-3.172l1.327-.932a2.835,2.835,0,0,1,2.057,1.427q1.406,1.421,2.813,2.841A3.832,3.832,0,0,1,49.9,89.375c-.447,1.474.306,1.607,1.337,1.769a33.036,33.036,0,0,0,9.985.233c1.272-.188,2.2.047,2.722,1.291M56.807,22.817a26.921,26.921,0,0,0-5.749.526c-3.254.514-3.251.542-1.816,3.424.4.8.775,1.606,1.205,2.385,1.1,1.984,2.414,2.356,4.434,1.283,3.65-1.939,6.042-1.556,8.659,1.508a3.646,3.646,0,0,0,3.109,1.333,4.678,4.678,0,0,0,5.01-3.762c.96-3.191,1.142-3.159-1.976-4.353a34.908,34.908,0,0,0-12.877-2.342M8.82,51.463c-.592,1.365-2.4,1.067-3.554,2.757-1.64,2.414-2.164,3.636.031,5.943A28,28,0,0,0,7.922,62.37c1.868,1.556,2.165-.3,2.938-1.2a1.5,1.5,0,0,1,.548-.366c1.273-.543,1.47-1.353.626-2.433a1.793,1.793,0,0,1-.062-2.246c.593-1.008-1.613-4.566-3.151-4.662M79.745,10.779c-1.868-.2-3.443,2.062-3.185,3.762.319,2.1.814,3.475,3.253,3.165a.455.455,0,0,1,.35.247c.83,2.219,2.157,1.794,3.989,1.132,2.1-.758,2.527-2.915,1.721-4.975-1.162-2.971-2.548-4.351-5.716-3.189-.105.038-.273-.092-.412-.143M32,19.83a1.36,1.36,0,0,0,1.517-.929c.2-.583.585-1.289,1.142-1.233,2.239.223,2.821-.818,3-2.888.087-1.03,1.213-2.071-.441-2.619-1.049-.347-1.751-1.129-2.981-1.427-3.6-.873-4.874.956-6.009,3.664-.34.811-.293,4.2.416,4.424,1.163.369,2.5.15,3.36,1.007m2.543,83.835c1.845.211,3.5-2.069,3.214-3.739-.349-2.034-.744-3.533-3.241-3.169a.458.458,0,0,1-.352-.245c-.837-2.163-2.148-1.959-3.994-1.157-.973.423-2.387.009-2.043,1.724.214,1.065-.308,1.974.253,3.27,1.238,2.862,2.543,4.4,5.754,3.171.1-.039.271.094.41.146M12.78,29.957c-.61.1-1.526-.308-1.968.436-.5.833.209,1.557.64,2.218a12.326,12.326,0,0,0,2.508,2.827,3.007,3.007,0,0,0,3.509.53,2.566,2.566,0,0,0,1.4-2.593,2.9,2.9,0,0,0-2.292-2.694,11.292,11.292,0,0,0-3.8-.725M12.837,84.5a11.932,11.932,0,0,0,3.958-.823,2.8,2.8,0,0,0,2.075-2.616,2.563,2.563,0,0,0-1.411-2.588,2.925,2.925,0,0,0-3.33.4,12.014,12.014,0,0,0-2.683,2.967c-.431.661-1.135,1.387-.628,2.219.448.735,1.361.336,2.019.438M59.926,9.789a10.973,10.973,0,0,0-1.741-5.33c-.622-1.012-1.314-1.18-2.012-.073A10.232,10.232,0,0,0,54.409,9.6a2.764,2.764,0,1,0,5.517.186m-.052,95.669c.121-2.318-.9-3.581-2.662-3.613-1.791-.033-2.893,1.192-2.794,3.186a10.467,10.467,0,0,0,1.7,4.96c.748,1.224,1.47,1.007,2.123-.085a11.276,11.276,0,0,0,1.629-4.447M24.446,67.725c1.866-3.779,1.71-6.336-.291-8.189-.331-.306-.655-.695-1.135-.446-.385.2-.244.655-.2.994a30.671,30.671,0,0,0,1.63,7.64" transform="translate(0 0)" fill="#060806"/>
        <path id="Trazado_728944" data-name="Trazado 728944" d="M166.311,64.689a2.028,2.028,0,0,1,2.913.644,18.681,18.681,0,0,0,1.826,2.247c.657.634.713,2.287,2.09,1.723,1.269-.519,2.725-.995,2.431-3.108a4.806,4.806,0,0,1,2.254-4.6,12.06,12.06,0,0,1,10.2-1.779,3.527,3.527,0,0,1,2.459,4.584,12.535,12.535,0,0,1-6.2,7.553,5.106,5.106,0,0,1-5.713-.315c-1.669-1.273-2.624,0-3.673.654-1.285.8,0,1.7.307,2.425a36.986,36.986,0,0,1,3.029,12.028c.063,1,.177,1.806,1.476,1.607.891-.136,1.95.51,2.251-1.24.49-2.845,2.911-4.415,5.123-5.788,1.846-1.146,6.382.619,7.683,2.7a28.333,28.333,0,0,0,2.115,3.089,4.636,4.636,0,0,1,.9,3.8c-.493,3.092-5.121,7.666-8.231,8.156a3.577,3.577,0,0,1-3.188-.6c-1.723-1.745-4.2-2.962-4.512-5.8-.172-1.583-1.346-.711-2.062-.864-.761-.164-1.458-.051-1.513,1.051a35.26,35.26,0,0,1-3.627,13.677c-.229.474-.516,1.053.164,1.287,1.031.354,1.681,1.746,3.111,1.051,5.346-2.6,12.351,1.62,12.716,7.648a3.394,3.394,0,0,1-2.54,3.752,11.8,11.8,0,0,1-10.379-1.83,5.086,5.086,0,0,1-2.17-4.882c.253-1.955-1.3-2.11-2.334-2.721-1.3-.765-1.408.709-1.841,1.284a40.982,40.982,0,0,1-8.844,8.755c-.7.5-1.92.784-.925,2.14.664.906.809,2.07,2.547,1.265,2.015-.933,6.875.728,8.126,2.388,1.4,1.859,1.484,6.072.05,8.211a7.489,7.489,0,0,0-.741,1.832,5.1,5.1,0,0,1-2.752,3.053c-3.1,1.453-9.906-.4-11.847-3.226a2.974,2.974,0,0,1-.727-2.282c.611-2.517.325-5.4,2.778-7.214,1.357-1-.179-1.6-.375-2.374-.23-.9-.83-1.046-1.676-.571a20.7,20.7,0,0,1-2.636,1.182,1.913,1.913,0,0,1-2.67-.841,2.085,2.085,0,0,1,1.559-2.346c1.378-.516,2.675-1.25,4.015-1.871.764-.355.94-.739.372-1.5a4.878,4.878,0,0,1-.54-4.441c.711-2.716,1.286-5.469,1.868-8.217.466-2.2,1.63-3.947,3.785-4.537,3.418-.938,3.986-3.655,4.374-6.458.339-2.451-.95-4.536-2.782-5.017-4.921.522-8.147-2.686-11.415-5.471-3.322-2.83-2.136-8.868,1.811-10.369a8.049,8.049,0,0,1,4.8.053c2.019.467,4.061,1.031,5.829-.687,2.707-1.125,3.387-3.466,1.554-5.721-.82-1.007-1.308-1.938-.6-3.169M165.586,77.5c-2.553,1.162-5.1.425-7.606-.128-1.395-.307-2.614-.23-3.212,1.137-.544,1.242-.677,2.737.523,3.687,2.908,2.3,5.6,5.242,9.932,4.279a7.086,7.086,0,0,1,3.872,2.826c2.777,4.592,1.173,13.927-4.516,15.059a3.2,3.2,0,0,0-2.461,2.848c-.507,2.469-1.144,4.912-1.664,7.379-.174.828-.657,1.83.289,2.465,1.026.69,1.639-.307,2.263-.849a33.793,33.793,0,0,0,11.936-23.155,33.313,33.313,0,0,0-4.285-19.762c-1.058,2.522-3.34,2.994-5.072,4.212m23.374,6.8c-.32.04-.519,0-.6.084-.977.951-1.841,2-2.888,2.9-.722.624.288,1.432.606,2.144.139.312.233.864.063,1.057-1.572,1.8-.474,2.676.968,3.808.87.683,1.153,2.314,2.645.964.8-.728,1.808-.934,2.648-1.934,2.079-2.476,1.922-4.023,0-6.543-1.094-1.438-2.733-1.238-3.444-2.483m-18.5,47.684c-1.569-1.116.437-3.477-2.006-3.748a5.3,5.3,0,0,1-2.293-.606,1.1,1.1,0,0,0-1.7.455,2.393,2.393,0,0,1-2.962,1.641.958.958,0,0,0-1.075.918,4.766,4.766,0,0,1-.778,2.92c-.35.489.05.973.439,1.35,1.91,1.851,4.562,1.161,6.783,1.958.2.072.606-.136.787-.333,1.237-1.344.741-3.56,2.805-4.556m11.673-62.858c2.171-.516,3.46-2.483,4.7-4.5.274-.446.586-1.17.148-1.415-1.677-.944-3.425-.317-5.114.1a5.38,5.38,0,0,0-1.973.94,2.616,2.616,0,0,0-.754,3.2c.436,1.146,1.361,1.694,2.994,1.666m2.869,48.218c.551-.235,1.592.408,2.037-.544.39-.835-.3-1.551-.745-2.216a11.457,11.457,0,0,0-2.713-2.939,2.872,2.872,0,0,0-3.336-.274,2.542,2.542,0,0,0-1.314,2.422,2.765,2.765,0,0,0,1.978,2.683,12.242,12.242,0,0,0,4.093.87" transform="translate(-83.501 -32.836)" fill="#060806"/>
        <path id="Trazado_728945" data-name="Trazado 728945" d="M137.426,128.016c1.832.481,3.121,2.566,2.782,5.017-.388,2.8-.956,5.519-4.374,6.458-2.155.591-3.319,2.336-3.785,4.538-.582,2.748-1.157,5.5-1.868,8.217a4.879,4.879,0,0,0,.54,4.441c.568.759.392,1.143-.372,1.5-1.34.622-2.637,1.355-4.015,1.871a2.085,2.085,0,0,0-1.559,2.346l-4.233,1.066c-.523-1.243-1.449-1.479-2.722-1.291a33.04,33.04,0,0,1-9.986-.233c-1.031-.162-1.784-.295-1.337-1.769a3.834,3.834,0,0,0-1.351-3.807q-1.409-1.418-2.813-2.84c1.547-.153,3.092-.332,4.64-.456,13.744-1.1,26.605-11.679,30.453-25.056" transform="translate(-56.595 -70.799)" fill="#02cdf8"/>
        <path id="Trazado_728946" data-name="Trazado 728946" d="M179.946,67.708c-.706,1.231-.218,2.162.6,3.17,1.833,2.254,1.153,4.6-1.555,5.721a15.239,15.239,0,0,0-.841-4.537c-.792-2.21-1.672-4.389-2.515-6.582l1.113-.649,3.2,2.877" transform="translate(-97.136 -35.855)" fill="#05c9f2"/>
        <path id="Trazado_728947" data-name="Trazado 728947" d="M123.427,61.329c.842,2.192,1.722,4.371,2.515,6.582a15.239,15.239,0,0,1,.841,4.537c-1.766,1.717-3.809,1.153-5.827.686a8.049,8.049,0,0,0-4.8-.053c-3.947,1.5-5.133,7.539-1.811,10.369,3.269,2.785,6.495,5.992,11.415,5.471-3.848,13.377-16.708,23.953-30.453,25.056-1.549.124-3.093.3-4.64.456A2.836,2.836,0,0,0,88.607,113q-.186-2.153-.372-4.305c.27-.118.723-.177.782-.362.974-3.058,3.288-5.688,3.211-9.054-.059-2.568-3.537-5.634-6.243-5.788-1.038-.059-2.082-.033-3.123-.014A1.471,1.471,0,0,1,81.243,92c-.1-.92.55-1.13,1.348-1.4,5.36-1.8,9.509-8.286,7.773-14.144a3.775,3.775,0,0,0-1.913-2.383c-3.518-1.712-4.933-4.742-5.842-8.353-1.168-4.638-1.335-4.6,2.826-6.906,4.037-2.241,4.026-2.236,6.1,1.9a12.091,12.091,0,0,0,2.325,3.768,5.858,5.858,0,0,0,7.4.682c1.959-1.217,3.564-1.122,4.771.809,2.555,4.088,12.089,2.718,13.118-2.229a1.385,1.385,0,0,1,.093-.2c.407-1.035.542-2.389,1.289-3.025.92-.782,1.752,1.025,2.893.808" transform="translate(-44.926 -31.704)" fill="#61d9f9"/>
        <path id="Trazado_728948" data-name="Trazado 728948" d="M71.591,117.465q.186,2.153.372,4.305l-1.327.932c-.733-.074-1.466-.151-2.2-.222-3.125-.3-5.923-1.816-8.964-2.427a30.36,30.36,0,0,1-4.9-7.106c-.692-1.22.164-1.761.717-2.481a10.046,10.046,0,0,0-.438-12.8,3.342,3.342,0,0,0-2.005-1.327c-2.05-.148-1.761-1.383-1.575-2.8A34.6,34.6,0,0,1,60.4,74.108c1.1-1.19,1.761-1.446,2.155.439.182.869.573,1.7.724,2.569a10.638,10.638,0,0,0,5.613,7.818c2.077,1.178,2.578,4.684,1.057,6.563-1.677,2.07-2.964,4.489-6.114,5.047-1.963.348-2.857,2.7-2.539,4.892a4.738,4.738,0,0,0,4.256,4.2c1.029.115,2.08.025,3.119.059,2.7.087,4.037,2.231,2.937,4.678a31.082,31.082,0,0,0-1.6,3.667c-.452,1.5-.528,3.027,1.592,3.427" transform="translate(-28.282 -40.469)" fill="#a0e32d"/>
        <path id="Trazado_728949" data-name="Trazado 728949" d="M116.6,51.015a34.9,34.9,0,0,1,12.877,2.342c3.117,1.195,2.936,1.162,1.976,4.353a4.678,4.678,0,0,1-5.01,3.762,3.648,3.648,0,0,1-3.109-1.333c-2.617-3.064-5.009-3.446-8.659-1.508-2.02,1.073-3.339.7-4.434-1.283-.43-.779-.809-1.588-1.205-2.385-1.434-2.882-1.438-2.911,1.816-3.424a26.921,26.921,0,0,1,5.749-.526" transform="translate(-59.797 -28.198)" fill="#9ee12d"/>
        <path id="Trazado_728950" data-name="Trazado 728950" d="M13.57,115.144c1.538.1,3.744,3.653,3.151,4.662a1.794,1.794,0,0,0,.062,2.246c.845,1.08.648,1.89-.626,2.433a1.5,1.5,0,0,0-.548.365c-.773.9-1.07,2.756-2.937,1.2a28,28,0,0,1-2.625-2.206c-2.195-2.308-1.671-3.529-.03-5.943,1.149-1.691,2.961-1.393,3.553-2.757" transform="translate(-4.75 -63.681)" fill="#92d028"/>
        <path id="Trazado_728951" data-name="Trazado 728951" d="M174.446,23.786c.139.051.306.182.411.143,3.168-1.162,4.554.218,5.716,3.189.806,2.06.377,4.217-1.72,4.975-1.833.662-3.159,1.087-3.989-1.132a.456.456,0,0,0-.35-.247c-2.439.31-2.934-1.069-3.253-3.165-.259-1.7,1.317-3.963,3.185-3.763" transform="translate(-94.701 -13.007)" fill="#93d128"/>
        <path id="Trazado_728952" data-name="Trazado 728952" d="M66.665,32.841c-.863-.858-2.2-.638-3.36-1.007-.709-.225-.756-3.613-.417-4.424C64.023,24.7,65.3,22.872,68.9,23.746c1.23.3,1.932,1.079,2.981,1.427,1.655.548.528,1.589.441,2.618-.174,2.07-.756,3.111-3,2.889-.558-.055-.94.65-1.143,1.233a1.36,1.36,0,0,1-1.517.929" transform="translate(-34.667 -13.011)" fill="#93d128"/>
        <path id="Trazado_728953" data-name="Trazado 728953" d="M69.276,220.959c-.138-.052-.307-.185-.409-.147-3.211,1.23-4.516-.308-5.754-3.171-.56-1.3-.039-2.205-.253-3.27-.344-1.715,1.07-1.3,2.043-1.724,1.846-.8,3.158-1.007,3.994,1.157a.455.455,0,0,0,.352.245c2.5-.363,2.892,1.136,3.241,3.169.286,1.67-1.368,3.95-3.214,3.74" transform="translate(-34.735 -117.294)" fill="#93d128"/>
        <path id="Trazado_728954" data-name="Trazado 728954" d="M69.785,178.062c3.041.611,5.838,2.124,8.964,2.427.733.071,1.467.148,2.2.222a3.276,3.276,0,0,0,1.157,3.172c.755.707,1.494,1.432,2.235,2.155.476.464,1.091.964.579,1.681-.431.6-1.118.266-1.636.054a31.99,31.99,0,0,1-13.5-9.71" transform="translate(-38.595 -98.477)" fill="#93d128"/>
        <path id="Trazado_728955" data-name="Trazado 728955" d="M25.949,67a11.281,11.281,0,0,1,3.8.725,2.9,2.9,0,0,1,2.292,2.694,2.566,2.566,0,0,1-1.4,2.593,3.007,3.007,0,0,1-3.509-.53,12.325,12.325,0,0,1-2.508-2.827c-.43-.661-1.135-1.386-.64-2.218.442-.743,1.358-.335,1.968-.436" transform="translate(-13.169 -37.041)" fill="#92d128"/>
        <path id="Trazado_728956" data-name="Trazado 728956" d="M26,181.174c-.658-.1-1.571.3-2.019-.438-.506-.831.2-1.558.629-2.218a12,12,0,0,1,2.683-2.968,2.925,2.925,0,0,1,3.33-.4,2.563,2.563,0,0,1,1.411,2.588,2.8,2.8,0,0,1-2.075,2.616,11.932,11.932,0,0,1-3.958.823" transform="translate(-13.168 -96.673)" fill="#92d128"/>
        <path id="Trazado_728957" data-name="Trazado 728957" d="M127.25,14.276a2.764,2.764,0,1,1-5.517-.186A10.229,10.229,0,0,1,123.5,8.873c.7-1.107,1.39-.939,2.011.073a10.97,10.97,0,0,1,1.741,5.33" transform="translate(-67.324 -4.487)" fill="#93d228"/>
        <path id="Trazado_728958" data-name="Trazado 728958" d="M127.2,231.48a11.27,11.27,0,0,1-1.629,4.447c-.653,1.093-1.375,1.31-2.123.085a10.468,10.468,0,0,1-1.705-4.96c-.1-1.993,1-3.218,2.795-3.186,1.76.032,2.784,1.295,2.662,3.613" transform="translate(-67.328 -126.022)" fill="#93d228"/>
        <path id="Trazado_728959" data-name="Trazado 728959" d="M52.606,140.745a30.672,30.672,0,0,1-1.63-7.64c-.041-.34-.182-.8.2-.994.48-.249.8.14,1.135.446,2,1.852,2.158,4.409.291,8.189" transform="translate(-28.16 -73.02)" fill="#5bcae8"/>
        <path id="Trazado_728960" data-name="Trazado 728960" d="M176.962,94.724c1.731-1.218,4.014-1.69,5.072-4.212a33.31,33.31,0,0,1,4.284,19.761,33.791,33.791,0,0,1-11.936,23.155c-.624.542-1.236,1.538-2.263.849-.945-.636-.463-1.638-.288-2.466.519-2.467,1.157-4.91,1.664-7.379a3.2,3.2,0,0,1,2.461-2.847c5.688-1.133,7.292-10.467,4.516-15.059A7.085,7.085,0,0,0,176.6,103.7c.374-2.982,1.687-5.925.363-8.976" transform="translate(-94.877 -50.058)" fill="#94d328"/>
        <path id="Trazado_728961" data-name="Trazado 728961" d="M169.773,99.595c1.323,3.05.011,5.994-.363,8.976-4.335.963-7.024-1.975-9.932-4.279-1.2-.951-1.067-2.446-.523-3.688.6-1.367,1.817-1.444,3.213-1.137,2.51.552,5.053,1.29,7.606.128" transform="translate(-87.688 -54.928)" fill="#9fe22d"/>
        <path id="Trazado_728962" data-name="Trazado 728962" d="M231.317,115.145c.711,1.245,2.35,1.045,3.444,2.483,1.918,2.521,2.075,4.068,0,6.543-.84,1-1.844,1.207-2.648,1.934-1.492,1.35-1.775-.281-2.645-.964-1.442-1.132-2.54-2.009-.968-3.808.17-.194.076-.746-.063-1.057-.318-.712-1.328-1.52-.606-2.144,1.047-.905,1.911-1.953,2.888-2.9.084-.081.283-.044.6-.084" transform="translate(-125.859 -63.681)" fill="#92d028"/>
        <path id="Trazado_728963" data-name="Trazado 728963" d="M181.023,216.178c-2.064,1-1.568,3.213-2.805,4.556-.181.2-.585.4-.787.333-2.221-.8-4.873-.107-6.783-1.958-.39-.378-.789-.862-.439-1.35a4.767,4.767,0,0,0,.777-2.921.958.958,0,0,1,1.075-.918,2.392,2.392,0,0,0,2.962-1.641,1.1,1.1,0,0,1,1.7-.456,5.307,5.307,0,0,0,2.293.606c2.443.271.436,2.632,2.006,3.748" transform="translate(-94.059 -117.03)" fill="#93d128"/>
        <path id="Trazado_728964" data-name="Trazado 728964" d="M216.683,73.267c-1.632.028-2.557-.52-2.994-1.666a2.616,2.616,0,0,1,.754-3.205,5.382,5.382,0,0,1,1.973-.939c1.689-.42,3.437-1.047,5.114-.1.437.246.126.969-.148,1.415-1.239,2.015-2.529,3.982-4.7,4.5" transform="translate(-118.047 -36.977)" fill="#92d128"/>
        <path id="Trazado_728965" data-name="Trazado 728965" d="M219.594,181.177a12.243,12.243,0,0,1-4.093-.87,2.765,2.765,0,0,1-1.978-2.683,2.542,2.542,0,0,1,1.314-2.422,2.872,2.872,0,0,1,3.336.274,11.457,11.457,0,0,1,2.713,2.939c.441.666,1.135,1.381.745,2.216-.445.952-1.486.31-2.037.544" transform="translate(-118.089 -96.669)" fill="#92d128"/>
      </g>
    </g>
  </g>
</svg>
